<svg width="2537" height="797" viewBox="0 0 2537 797" fill="none" xmlns="http://www.w3.org/2000/svg">
<path d="M397.756 793.022C180.116 793.022 3 615.902 3 398.257C3 180.613 180.116 3.49316 397.756 3.49316H2137.47C2355.11 3.49316 2532.23 180.613 2532.23 398.257C2532.23 615.902 2355.11 793.022 2137.47 793.022H397.756Z" fill="#FFE600"/>
<path d="M2137.97 6.98698C2353.72 6.98698 2529.23 182.5 2529.23 398.258C2529.23 614.016 2353.72 789.529 2137.97 789.529H398.249C182.496 789.529 6.98682 614.016 6.98682 398.258C6.98682 182.5 182.496 6.98698 398.249 6.98698H2137.97ZM2137.97 0H398.249C178.304 0 0 178.308 0 398.258C0 618.208 178.304 796.516 398.249 796.516H2137.97C2357.91 796.516 2536.22 618.208 2536.22 398.258C2536.22 178.308 2357.91 0 2137.97 0Z" fill="#FFE600"/>
<path d="M436.846 269.871H538.439C564.116 269.871 584.052 276.091 598.326 288.531C612.6 300.972 619.697 318.037 619.697 339.648C619.697 348.26 617.145 356.634 611.962 364.768C606.779 372.902 600.319 378.404 592.425 381.275C603.509 384.943 612.68 391.562 619.857 401.211C627.033 410.86 630.622 421.466 630.622 432.95C630.622 447.304 627.352 459.824 620.734 470.589C614.115 481.275 604.546 489.569 591.867 495.31C579.187 501.052 564.275 503.923 547.051 503.923H436.846V269.871ZM536.126 364.608C546.094 364.608 553.749 362.455 559.252 358.149C564.674 353.842 567.465 347.702 567.465 339.648C567.465 331.434 564.754 325.134 559.252 320.828C553.829 316.522 546.094 314.369 536.126 314.369H489.077V364.608H536.126ZM544.738 459.345C555.264 459.345 563.478 457.033 569.459 452.487C575.36 447.862 578.39 441.403 578.39 432.95C578.39 424.497 575.44 418.037 569.459 413.412C563.558 408.787 555.264 406.554 544.738 406.554H489.077V459.345H544.738Z" fill="black"/>
<path d="M688.595 498.819C678.627 492.759 670.972 484.146 665.469 472.822C660.047 461.499 657.256 448.261 657.256 432.95V335.661H708.371V424.338C708.371 437.177 710.923 446.985 715.947 453.764C721.05 460.542 728.307 463.971 737.876 463.971C747.844 463.971 755.659 460.223 761.401 452.807C767.142 445.311 770.013 435.103 770.013 422.105V335.661H821.128V503.923H770.013V486.698C759.487 500.893 743.777 507.91 722.964 507.91C710.046 507.83 698.563 504.88 688.595 498.819Z" fill="black"/>
<path d="M1025.59 335.581L928.862 573.859H878.624L909.086 499.218L842.739 335.581H899.277L935.72 439.489L972.482 335.581H1025.59Z" fill="black"/>
<path d="M1181.17 269.871V503.843H1128.94V269.871H1181.17Z" fill="black"/>
<path d="M1324.15 379.52H1290.82V503.843H1239.7V379.52H1206.37V335.581H1239.7V285.66H1290.82V335.581H1324.15V379.52Z" fill="black"/>
<path d="M1429.81 269.871H1473.43L1590.25 410.541V267H1642.48V500.972H1598.86L1482.04 360.302V503.843H1429.81V269.871Z" fill="black"/>
<path d="M1809.07 342.917C1822.62 350.493 1833.31 360.94 1840.97 374.337C1848.62 387.734 1852.45 402.886 1852.45 419.712C1852.45 436.538 1848.62 451.69 1840.97 465.087C1833.31 478.484 1822.7 488.931 1809.07 496.506C1795.51 504.082 1780.2 507.83 1763.14 507.83C1746.07 507.83 1730.76 504.082 1717.2 496.506C1703.65 488.931 1692.96 478.484 1685.31 465.087C1677.65 451.69 1673.82 436.538 1673.82 419.712C1673.82 402.886 1677.65 387.734 1685.31 374.337C1692.96 360.94 1703.57 350.493 1717.2 342.917C1730.76 335.342 1746.07 331.594 1763.14 331.594C1780.12 331.594 1795.43 335.342 1809.07 342.917ZM1734.27 387.734C1726.93 396.028 1723.18 406.713 1723.18 419.712C1723.18 432.71 1726.85 443.396 1734.27 451.69C1741.61 459.983 1751.25 464.21 1763.14 464.21C1775.02 464.21 1784.59 460.063 1792 451.69C1799.34 443.396 1803.09 432.71 1803.09 419.712C1803.09 406.713 1799.42 396.028 1792 387.734C1784.67 379.441 1775.02 375.214 1763.14 375.214C1751.25 375.214 1741.61 379.361 1734.27 387.734Z" fill="black"/>
<path d="M2135.14 335.581L2078.84 503.843H2027.48L1997.02 407.671L1966.88 503.843H1915.76L1859.47 335.581H1913.45L1943.28 443.795L1972.54 335.581H2024.77L2054.36 444.353L2084.18 335.581H2135.14Z" fill="black"/>
</svg>
