<svg width="2366" height="569" viewBox="0 0 2366 569" fill="none" xmlns="http://www.w3.org/2000/svg">
<rect y="154" width="2366" height="415" fill="#0057FF"/>
<path d="M1452.94 520.569L911.884 523.426C907.34 523.442 903.639 519.79 903.607 515.246L902 211.592C901.984 207.892 904.97 204.873 908.654 204.857L1451.24 202C1455.78 201.984 1459.48 205.636 1459.52 210.18L1461.11 512.308C1461.16 516.836 1457.49 520.537 1452.94 520.569Z" fill="white" stroke="black" stroke-width="0.75" stroke-miterlimit="10"/>
<path d="M1440.61 262.472L918.797 265.22L920.07 506.906L1441.88 504.158L1440.61 262.472Z" fill="white" stroke="black" stroke-width="0.75" stroke-miterlimit="10"/>
<path d="M935.579 235.856L939.183 235.839L939.215 242.964L922.06 243.062L922.027 235.937L923.65 235.92V234.865L920.502 234.882L920.486 232.155L926.199 232.123C927.043 232.123 927.854 232.058 928.665 231.944C929.477 231.83 930.142 231.668 930.694 231.457L930.71 234.135C929.802 234.508 928.584 234.736 927.042 234.817V236.196H925.63V236.813L935.579 236.764V235.856ZM921.914 230.467C921.07 229.802 920.648 228.909 920.648 227.789C920.648 226.669 921.054 225.76 921.881 225.095C922.709 224.429 923.829 224.088 925.225 224.072C926.604 224.072 927.708 224.397 928.552 225.046C929.396 225.712 929.818 226.604 929.818 227.724C929.818 228.86 929.412 229.753 928.584 230.418C927.757 231.084 926.653 231.425 925.273 231.441C923.861 231.457 922.742 231.132 921.914 230.467ZM924.267 226.961C924.008 227.172 923.878 227.448 923.878 227.773C923.878 228.097 924.007 228.357 924.283 228.568C924.543 228.779 924.884 228.876 925.273 228.876C925.663 228.876 925.988 228.763 926.247 228.552C926.507 228.341 926.62 228.065 926.62 227.74C926.62 227.416 926.491 227.156 926.231 226.945C925.971 226.734 925.647 226.637 925.241 226.637C924.851 226.637 924.527 226.75 924.267 226.961ZM935.612 240.335V239.345L925.663 239.394V240.384L935.612 240.335ZM931.571 229.607H930.288L930.272 226.442H931.554L931.538 224.316L934.817 224.3L934.865 235.06L931.587 235.076L931.571 229.607ZM939.118 224.186L939.183 235.174L935.872 235.19L935.807 224.202L939.118 224.186Z" fill="black"/>
<path d="M956.419 238.469C956.955 238.355 957.409 238.209 957.799 238.063L957.815 241.277C957.296 241.504 956.63 241.699 955.819 241.812C955.007 241.926 954.163 241.991 953.271 242.007L947.687 242.039L947.671 238.793H948.71L948.645 227.854H947.769L947.752 224.608L957.263 224.559L957.279 227.805H956.354L956.419 238.469ZM951.972 238.761H953.173L953.108 227.822H951.907L951.972 238.761ZM958.594 224.17L961.905 224.154L962.002 242.494L958.691 242.51L958.643 234.492H957.279L957.263 230.97H958.626L958.594 224.17ZM966.417 224.04L966.514 242.802L963.155 242.819L963.057 224.056L966.417 224.04Z" fill="black"/>
<path d="M979.66 226.426C980.715 227.903 981.251 230.142 981.267 233.129C981.283 236.115 980.764 238.355 979.725 239.848C978.686 241.341 977.258 242.088 975.424 242.104C973.59 242.12 972.145 241.374 971.074 239.897C970.019 238.42 969.468 236.18 969.451 233.194C969.435 230.207 969.954 227.968 970.993 226.474C972.032 224.981 973.476 224.235 975.31 224.218C977.161 224.202 978.605 224.949 979.66 226.426ZM973.136 233.177C973.152 236.862 973.915 238.712 975.408 238.696C976.885 238.696 977.615 236.829 977.599 233.145C977.583 231.181 977.388 229.769 976.966 228.909C976.56 228.049 976.024 227.61 975.343 227.627C973.85 227.627 973.119 229.477 973.136 233.177ZM987.126 242.705L983.409 242.721L983.312 223.959L987.028 223.942L987.126 242.705Z" fill="black"/>
<path d="M998.422 232.399L1003.91 239.443L1000.97 241.65L997.172 236.521C996.426 238.193 995.468 239.491 994.299 240.4C993.147 241.309 991.849 241.78 990.437 241.796L990.42 238.063C991.329 237.95 992.125 237.463 992.823 236.586C993.52 235.71 994.072 234.509 994.478 232.983C994.884 231.457 995.095 229.704 995.127 227.724L990.891 227.741L990.875 224.332L1002.87 224.267L1002.89 227.676L998.86 227.692C998.828 229.412 998.682 230.97 998.422 232.399ZM1008.16 223.829L1008.26 242.591L1004.54 242.608L1004.44 223.845L1008.16 223.829Z" fill="black"/>
<path d="M1022.44 241.423C1021.53 241.569 1020.59 241.634 1019.63 241.65L1011.24 241.699L1011.23 238.226L1019.78 238.177C1020.72 238.177 1021.61 238.112 1022.49 237.982C1023.37 237.852 1024.08 237.658 1024.63 237.414L1024.65 240.839C1024.08 241.082 1023.35 241.277 1022.44 241.423ZM1020.74 224.657C1021.65 225.16 1022.34 225.874 1022.86 226.783C1023.38 227.709 1023.64 228.763 1023.64 229.965C1023.64 231.166 1023.4 232.221 1022.9 233.162C1022.39 234.087 1021.68 234.801 1020.79 235.321C1019.89 235.824 1018.86 236.083 1017.7 236.1C1016.55 236.116 1015.51 235.856 1014.6 235.353C1013.69 234.85 1012.98 234.136 1012.46 233.227C1011.94 232.302 1011.68 231.247 1011.67 230.046C1011.67 228.845 1011.91 227.79 1012.41 226.865C1012.92 225.939 1013.63 225.225 1014.54 224.706C1015.45 224.187 1016.47 223.943 1017.64 223.927C1018.81 223.911 1019.83 224.154 1020.74 224.657ZM1015.92 228.017C1015.48 228.536 1015.27 229.202 1015.27 230.013C1015.27 230.841 1015.5 231.506 1015.93 232.01C1016.37 232.513 1016.96 232.772 1017.69 232.772C1018.42 232.772 1019 232.513 1019.44 231.977C1019.88 231.458 1020.09 230.792 1020.09 229.981C1020.09 229.169 1019.86 228.52 1019.42 228.001C1018.99 227.481 1018.4 227.222 1017.65 227.238C1016.92 227.238 1016.34 227.498 1015.92 228.017ZM1029.44 242.478L1025.72 242.494L1025.62 223.732L1029.34 223.716L1029.44 242.478Z" fill="black"/>
<path d="M1048.91 223.699L1052.34 223.683L1052.43 242.023L1049.01 242.039L1048.96 234.022L1047.34 234.038L1047.37 241.504L1038.85 241.553L1038.75 224.105L1047.27 224.056L1047.31 230.516L1048.93 230.5L1048.91 223.699ZM1043.88 227.432L1042.21 227.448L1042.26 238.177L1043.93 238.16L1043.88 227.432ZM1057.11 223.569L1057.21 242.332L1053.73 242.348L1053.64 223.586L1057.11 223.569Z" fill="black"/>
<path d="M1067.98 231.49L1073.58 239.199L1070.58 241.374L1066.68 235.791C1065.91 237.593 1064.93 238.988 1063.75 239.962C1062.58 240.936 1061.26 241.439 1059.84 241.456L1059.82 237.641C1060.83 237.512 1061.7 236.862 1062.47 235.678C1063.23 234.493 1063.83 232.886 1064.27 230.841C1064.69 228.796 1064.9 226.491 1064.88 223.911L1068.66 224.024C1068.68 226.702 1068.45 229.202 1067.98 231.49ZM1077.71 223.456L1077.8 242.218L1074.09 242.235L1073.99 223.472L1077.71 223.456Z" fill="black"/>
<path d="M1089.12 231.929L1094.6 238.973L1091.66 241.18L1087.87 236.051C1087.12 237.723 1086.16 239.021 1084.99 239.93C1083.84 240.839 1082.54 241.31 1081.13 241.326L1081.11 237.593C1082.02 237.479 1082.82 236.992 1083.52 236.116C1084.21 235.24 1084.77 234.039 1085.17 232.513C1085.58 230.987 1085.79 229.234 1085.82 227.254L1081.58 227.27L1081.57 223.862L1093.56 223.797L1093.58 227.206L1089.55 227.222C1089.52 228.926 1089.37 230.484 1089.12 231.929ZM1098.85 223.343L1098.95 242.105L1095.23 242.121L1095.14 223.359L1098.85 223.343Z" fill="black"/>
<path d="M1441.48 427.259L919.669 430.007L920.074 506.906L1441.88 504.158L1441.48 427.259Z" fill="#F0F0F0" stroke="black" stroke-width="0.75" stroke-miterlimit="10"/>
<path d="M1409.98 482.348L1308.74 482.883C1304.85 482.9 1301.68 479.767 1301.65 475.872L1301.55 457.012C1301.53 453.117 1304.67 449.952 1308.56 449.919L1409.8 449.384C1413.7 449.368 1416.86 452.5 1416.9 456.395L1416.99 475.255C1417.01 479.15 1413.88 482.315 1409.98 482.348Z" fill="white" stroke="black" stroke-width="0.75" stroke-miterlimit="10"/>
<path d="M1351.65 459.527L1339.14 459.592L1339.12 457.027L1343.46 457.011V455.761L1347.27 455.745V456.995L1351.64 456.979L1351.65 459.527ZM1347.17 469.151L1339.22 469.2L1339.2 466.506L1343.6 466.49V465.759C1342.45 465.597 1341.52 465.289 1340.86 464.818C1340.19 464.347 1339.85 463.73 1339.85 462.968C1339.85 462.026 1340.36 461.296 1341.38 460.793C1342.4 460.273 1343.75 460.014 1345.42 459.997C1347.09 459.981 1348.44 460.241 1349.46 460.744C1350.48 461.247 1351 461.978 1351 462.903C1351 463.666 1350.68 464.282 1350 464.769C1349.33 465.256 1348.41 465.581 1347.24 465.759V466.457C1348.19 466.457 1349.1 466.392 1349.96 466.279C1350.82 466.165 1351.52 465.986 1352.07 465.759L1352.09 468.453C1351.05 468.908 1349.43 469.151 1347.17 469.151ZM1340.24 469.914L1356.89 469.833L1356.93 475.238L1353.19 475.254L1353.18 472.592L1340.26 472.657L1340.24 469.914ZM1343.86 463.341C1344.23 463.438 1344.75 463.487 1345.44 463.471C1346.12 463.471 1346.64 463.422 1347.01 463.325C1347.38 463.227 1347.56 463.097 1347.56 462.919C1347.56 462.74 1347.37 462.611 1346.99 462.513C1346.62 462.416 1346.1 462.367 1345.42 462.383C1344.74 462.383 1344.22 462.432 1343.84 462.529C1343.47 462.627 1343.29 462.757 1343.29 462.935C1343.31 463.114 1343.49 463.244 1343.86 463.341ZM1359.02 463.795L1356.86 463.812L1356.89 469.168L1353.18 469.184L1353.11 456.265L1356.83 456.248L1356.85 460.355L1359 460.338L1359.02 463.795Z" fill="black"/>
<path d="M1369.62 456.915C1370.56 457.385 1371.27 458.035 1371.81 458.879C1372.33 459.723 1372.6 460.713 1372.6 461.816C1372.6 462.952 1372.36 463.943 1371.84 464.787C1371.32 465.647 1370.61 466.296 1369.68 466.767C1368.76 467.237 1367.69 467.465 1366.47 467.481C1365.25 467.481 1364.18 467.254 1363.24 466.799C1362.32 466.345 1361.58 465.695 1361.05 464.835C1360.53 463.991 1360.25 463.001 1360.25 461.865C1360.25 460.745 1360.5 459.771 1361.02 458.911C1361.54 458.051 1362.25 457.402 1363.18 456.915C1364.1 456.444 1365.17 456.201 1366.39 456.201C1367.62 456.217 1368.69 456.444 1369.62 456.915ZM1365.74 471.636L1378.79 471.571L1378.8 474.914L1361.97 474.995L1361.94 468.422L1365.72 468.406L1365.74 471.636ZM1364.64 459.999C1364.18 460.453 1363.95 461.07 1363.95 461.865C1363.95 462.66 1364.2 463.277 1364.65 463.715C1365.11 464.154 1365.71 464.381 1366.45 464.381C1367.18 464.381 1367.78 464.154 1368.24 463.699C1368.69 463.245 1368.92 462.628 1368.92 461.833C1368.92 461.037 1368.68 460.421 1368.22 459.982C1367.77 459.544 1367.17 459.317 1366.44 459.317C1365.69 459.333 1365.09 459.56 1364.64 459.999ZM1378.51 470.029L1374.8 470.045L1374.71 456.152L1378.43 456.136L1378.51 470.029Z" fill="black"/>
<path d="M1433.32 232.286L1370.64 232.61C1366.71 232.626 1363.52 229.461 1363.5 225.55L1363.39 202.438L1440.28 202.032L1440.4 225.144C1440.41 229.072 1437.25 232.269 1433.32 232.286Z" fill="#FFE000" stroke="black" stroke-width="0.75" stroke-miterlimit="10"/>
<path d="M1399.14 215.552L1393.82 208.426L1399.11 208.394L1401.95 212.517L1404.69 208.362L1409.69 208.329L1404.56 215.406L1410.06 222.807L1404.77 222.839L1401.75 218.489L1398.82 222.871L1393.82 222.904L1399.14 215.552Z" fill="black"/>
<path d="M1049.48 350.23L1040.64 350.278L1040.67 355.196L1036.21 355.212L1036.17 350.295L1027.33 350.343L1027.31 346.334L1049.48 346.221V350.23ZM1033.56 343.429C1031.74 344.289 1029.83 344.711 1027.81 344.711L1027.8 340.637C1029.21 340.637 1030.59 340.28 1031.9 339.583C1033.22 338.885 1034.34 337.927 1035.23 336.677C1036.12 335.428 1036.68 334.032 1036.89 332.474L1041.3 333.09C1041.14 334.259 1040.8 335.411 1040.3 336.58L1049.37 340.962L1047.36 344.614L1038.22 339.858C1036.94 341.384 1035.38 342.569 1033.56 343.429Z" fill="black"/>
<path d="M1061.86 342.473C1059.51 343.901 1056.35 344.631 1052.35 344.647L1052.34 340.979C1054.06 340.947 1055.58 340.768 1056.88 340.411C1058.18 340.07 1059.19 339.584 1059.9 338.983C1060.62 338.382 1060.97 337.685 1060.97 336.906V336.516L1052.32 336.565L1052.31 332.978L1065.35 332.913L1065.37 335.948C1065.39 338.869 1064.22 341.044 1061.86 342.473ZM1070.08 346.059C1071.86 346.822 1072.77 348.088 1072.77 349.825C1072.79 351.562 1071.9 352.827 1070.11 353.623C1068.32 354.418 1065.92 354.808 1062.92 354.824C1059.92 354.84 1057.52 354.467 1055.71 353.688C1053.91 352.909 1053.02 351.659 1053.02 349.922C1053 348.186 1053.9 346.92 1055.68 346.124C1057.47 345.329 1059.87 344.94 1062.87 344.923C1065.89 344.907 1068.29 345.297 1070.08 346.059ZM1068.11 349.857C1068.11 349.338 1067.63 348.981 1066.69 348.754C1065.73 348.526 1064.48 348.413 1062.9 348.429C1061.33 348.445 1060.06 348.559 1059.12 348.802C1058.18 349.046 1057.69 349.419 1057.71 349.922C1057.71 350.896 1059.45 351.383 1062.92 351.351C1066.38 351.318 1068.11 350.831 1068.11 349.857ZM1075.06 336.24L1075.08 340.444L1072.51 340.46L1072.53 344.534L1068.19 344.55L1068.13 332.621L1072.46 332.604L1072.48 336.24H1075.06Z" fill="black"/>
<path d="M1081.16 344.534C1079.85 345.329 1078.44 345.768 1076.94 345.833L1076.93 341.807C1078.06 341.661 1079.07 341.174 1079.96 340.347C1080.85 339.519 1081.55 338.415 1082.06 337.084C1082.56 335.737 1082.82 334.277 1082.83 332.686L1087.2 332.913C1087.22 334.65 1086.92 336.338 1086.36 337.945L1092.69 342.375L1090.17 345.459L1084.59 341.353C1083.61 342.684 1082.48 343.739 1081.16 344.534ZM1098.17 350.491L1098.19 354.386L1078.27 354.483L1078.24 346.806L1082.66 346.79L1082.67 350.556L1098.17 350.491ZM1097.86 348.705L1093.53 348.722L1093.45 332.507L1097.78 332.491L1097.86 348.705Z" fill="black"/>
<path d="M1105.7 344.339C1104.48 344.956 1103.15 345.281 1101.73 345.329L1101.71 341.694C1102.96 341.58 1104.01 341.142 1104.89 340.379C1105.75 339.616 1106.35 338.675 1106.68 337.587L1101.95 337.62L1101.94 334.13L1106.76 334.098L1106.74 332.069L1111.16 332.053L1111.17 334.082L1115.99 334.049L1116.01 336.565L1118.26 336.549L1118.25 332.394L1122.58 332.377L1122.65 345.378L1118.31 345.394L1118.28 340.395L1115.41 340.411L1115.39 337.539L1111.11 337.555C1110.98 338.107 1110.85 338.512 1110.75 338.756L1116.67 341.905L1114.74 345.102L1108.88 341.905C1107.97 342.911 1106.92 343.722 1105.7 344.339ZM1120.13 346.693C1121.93 347.374 1122.84 348.51 1122.86 350.085C1122.87 351.659 1121.96 352.795 1120.16 353.493C1118.36 354.191 1115.93 354.548 1112.88 354.564C1109.81 354.58 1107.37 354.24 1105.57 353.558C1103.77 352.876 1102.86 351.74 1102.85 350.166C1102.83 348.591 1103.74 347.455 1105.54 346.757C1107.34 346.06 1109.78 345.702 1112.83 345.686C1115.89 345.686 1118.33 346.011 1120.13 346.693ZM1116.79 350.977C1117.74 350.799 1118.22 350.507 1118.22 350.101C1118.22 349.354 1116.43 348.981 1112.84 348.997C1109.27 349.013 1107.49 349.403 1107.49 350.15C1107.49 350.555 1107.97 350.848 1108.93 351.01C1109.89 351.172 1111.2 351.253 1112.86 351.253C1114.51 351.253 1115.83 351.156 1116.79 350.977Z" fill="black"/>
<path d="M1138.54 335.136C1139.77 336.873 1140.39 339.47 1140.42 342.959C1140.43 346.449 1139.83 349.062 1138.63 350.799C1137.43 352.535 1135.74 353.412 1133.6 353.428C1131.46 353.444 1129.77 352.584 1128.54 350.847C1127.3 349.111 1126.67 346.514 1126.66 343.024C1126.64 339.535 1127.24 336.922 1128.46 335.185C1129.67 333.448 1131.36 332.572 1133.5 332.556C1135.63 332.539 1137.3 333.4 1138.54 335.136ZM1130.92 343.008C1130.94 347.325 1131.83 349.468 1133.57 349.451C1135.29 349.435 1136.15 347.277 1136.13 342.976C1136.12 340.687 1135.87 339.032 1135.4 338.025C1134.93 337.019 1134.3 336.516 1133.5 336.516C1131.77 336.532 1130.91 338.691 1130.92 343.008ZM1147.25 354.126L1142.92 354.142L1142.8 332.231L1147.14 332.215L1147.25 354.126Z" fill="black"/>
<path d="M1167.16 346.53L1157.88 346.579L1157.87 343.089L1162.98 343.057L1162.96 341.515C1161.5 341.239 1160.36 340.687 1159.54 339.859C1158.71 339.048 1158.3 338.025 1158.29 336.808C1158.29 335.834 1158.56 334.974 1159.11 334.227C1159.67 333.481 1160.46 332.897 1161.48 332.491C1162.51 332.085 1163.71 331.874 1165.07 331.874C1166.43 331.874 1167.64 332.069 1168.66 332.458C1169.68 332.848 1170.48 333.416 1171.04 334.163C1171.6 334.909 1171.89 335.769 1171.89 336.743C1171.89 337.96 1171.48 338.983 1170.65 339.811C1169.83 340.638 1168.69 341.206 1167.25 341.482L1167.26 343.024C1168.37 343.024 1169.44 342.943 1170.44 342.813C1171.45 342.683 1172.28 342.472 1172.91 342.196L1172.93 345.686C1171.69 346.254 1169.78 346.53 1167.16 346.53ZM1163.59 350.377L1178.83 350.295L1178.85 353.964L1159.23 354.061L1159.2 347.666L1163.58 347.65L1163.59 350.377ZM1163.19 338.058C1163.66 338.366 1164.29 338.528 1165.09 338.528C1165.88 338.528 1166.52 338.366 1166.99 338.042C1167.44 337.717 1167.67 337.311 1167.67 336.792C1167.67 336.272 1167.42 335.867 1166.97 335.558C1166.5 335.25 1165.87 335.088 1165.07 335.088C1164.26 335.088 1163.64 335.25 1163.17 335.575C1162.72 335.899 1162.49 336.305 1162.49 336.824C1162.49 337.327 1162.73 337.733 1163.19 338.058ZM1180.96 337.019L1180.98 341.093L1178.46 341.109L1178.49 348.672L1174.16 348.689L1174.08 332.069L1178.41 332.053L1178.44 337.035L1180.96 337.019Z" fill="#FF1700"/>
<path d="M1204.74 349.159L1204.75 353.054L1182.58 353.168L1182.57 349.272L1187.29 349.24L1187.27 346.627L1183.78 346.643L1183.74 337.797L1199.17 337.716V336.223L1183.67 336.304L1183.65 332.539L1203.44 332.441L1203.49 341.287L1188.05 341.368V342.861L1203.75 342.78L1203.76 346.546L1200 346.562L1200.01 349.175L1204.74 349.159ZM1191.62 349.224L1195.68 349.207L1195.66 346.594L1191.61 346.61L1191.62 349.224Z" fill="#FF1700"/>
<path d="M1217.22 348.689C1218.31 348.689 1219.36 348.608 1220.38 348.462C1221.41 348.315 1222.23 348.088 1222.88 347.796L1222.9 351.854C1222.25 352.146 1221.42 352.373 1220.42 352.519C1219.41 352.665 1218.32 352.746 1217.15 352.746L1207.25 352.795L1207.24 348.737L1212.63 348.705L1212.61 345.037L1208.23 345.053L1208.16 332.54L1221.16 332.475L1221.18 336.451L1212.46 336.5L1212.48 341.06L1221.45 341.012L1221.47 344.988L1216.91 345.004L1216.93 348.673L1217.22 348.689ZM1228.4 331.793L1228.51 353.704L1224.18 353.72L1224.07 331.809L1228.4 331.793Z" fill="black"/>
<path d="M1243.19 342.473C1242.02 343.187 1240.57 343.544 1238.89 343.56C1237.51 343.56 1236.27 343.333 1235.2 342.846C1234.13 342.359 1233.3 341.677 1232.72 340.801C1232.13 339.908 1231.84 338.886 1231.83 337.701C1231.83 336.532 1232.1 335.51 1232.69 334.601C1233.27 333.708 1234.08 333.01 1235.15 332.507C1236.22 332.02 1237.44 331.76 1238.84 331.76C1240.48 331.744 1241.89 332.085 1243.06 332.734C1244.22 333.4 1245.04 334.309 1245.49 335.493L1248.82 335.477L1248.8 331.679L1253.14 331.663L1253.2 343.803L1248.87 343.82L1248.85 339.535L1245.59 339.551C1245.15 340.785 1244.35 341.758 1243.19 342.473ZM1252.47 353.817L1248.82 350.945C1248.06 351.805 1247.16 352.47 1246.14 352.941C1245.12 353.412 1244.05 353.639 1242.93 353.655L1239.58 351.026C1238.8 351.886 1237.91 352.552 1236.91 353.006C1235.92 353.46 1234.86 353.704 1233.77 353.704L1233.76 349.776C1234.44 349.776 1235.09 349.549 1235.69 349.078C1236.29 348.624 1236.79 347.991 1237.2 347.196C1237.6 346.4 1237.86 345.524 1237.96 344.566L1242.15 345.232C1242.03 346.189 1241.82 347.082 1241.5 347.91L1243.9 349.533C1244.71 349.241 1245.43 348.624 1246.03 347.715C1246.63 346.79 1247 345.735 1247.13 344.518L1251.32 345.183C1251.19 346.157 1250.98 347.033 1250.68 347.828L1254.94 350.701L1252.47 353.817ZM1236.87 339.389C1237.36 339.811 1238.02 340.022 1238.87 340.022C1239.71 340.022 1240.36 339.794 1240.85 339.373C1241.34 338.951 1241.58 338.366 1241.56 337.652C1241.56 336.938 1241.32 336.37 1240.82 335.932C1240.33 335.51 1239.66 335.299 1238.82 335.299C1237.98 335.299 1237.33 335.526 1236.84 335.948C1236.35 336.37 1236.11 336.954 1236.13 337.668C1236.13 338.399 1236.37 338.967 1236.87 339.389Z" fill="black"/>
<path d="M1278.73 340.509L1278.75 343.82L1256.58 343.933L1256.56 340.622L1278.73 340.509ZM1267.55 336.386C1266.28 337.425 1264.76 338.236 1262.95 338.821C1261.15 339.405 1259.24 339.73 1257.19 339.778L1257.18 336.321C1258.59 336.256 1259.95 336.013 1261.25 335.558C1262.55 335.104 1263.64 334.487 1264.51 333.692C1265.39 332.897 1265.94 332.004 1266.15 330.981L1270.55 331.696C1270.4 332.393 1270.16 333.043 1269.84 333.643L1278.39 336.451L1277.03 339.697L1267.55 336.386ZM1273.23 344.875L1277.46 344.858L1277.51 353.46L1257.91 353.558L1257.86 344.956L1262.09 344.94V346.092L1273.23 346.027V344.875ZM1273.26 350.344V349.111L1262.13 349.176V350.409L1273.26 350.344Z" fill="black"/>
<path d="M1286.72 348.429L1291.31 348.413C1292.35 348.413 1293.39 348.315 1294.42 348.121C1295.46 347.926 1296.31 347.666 1296.97 347.342L1296.99 351.285C1296.34 351.61 1295.51 351.87 1294.47 352.065C1293.45 352.259 1292.4 352.357 1291.32 352.357L1282.27 352.405L1282.15 331.906L1286.62 331.89L1286.72 348.429ZM1302.49 353.314L1298.16 353.331L1298.04 331.42L1302.38 331.403L1302.49 353.314Z" fill="black"/>
<path d="M1315.51 348.299C1316.56 348.299 1317.62 348.202 1318.66 348.023C1319.69 347.845 1320.54 347.601 1321.17 347.293L1321.19 351.172C1320.55 351.496 1319.68 351.756 1318.56 351.935C1317.44 352.113 1316.32 352.211 1315.22 352.227L1306.73 352.276L1306.61 331.906L1319.37 331.842L1319.39 335.769L1311.04 335.818L1311.11 348.332L1315.51 348.299ZM1329.08 343.479L1326.51 343.495L1326.56 353.184L1322.23 353.201L1322.11 331.29L1326.45 331.273L1326.5 339.275L1329.06 339.259L1329.08 343.479Z" fill="black"/>
<path d="M1334.97 348.591C1335.45 349.078 1335.7 349.695 1335.7 350.425C1335.7 351.155 1335.47 351.772 1334.98 352.259C1334.51 352.746 1333.9 352.989 1333.17 353.006C1332.43 353.006 1331.82 352.762 1331.33 352.291C1330.84 351.804 1330.6 351.204 1330.58 350.457C1330.58 349.727 1330.83 349.11 1331.3 348.623C1331.79 348.136 1332.39 347.893 1333.13 347.877C1333.88 347.861 1334.5 348.104 1334.97 348.591Z" fill="black"/>
<rect x="1271.5" y="67.5" width="614" height="64" fill="#F5F5F5" stroke="black"/>
<path d="M1430.96 97.0111V101.146H1401.79V97.0111H1413.54V96.0685C1406.7 95.6392 1403.28 93.838 1403.28 90.6556C1403.28 88.7517 1404.45 87.3611 1406.79 86.4931C1409.13 85.6159 1412.32 85.1865 1416.37 85.1865C1420.42 85.1865 1423.62 85.6252 1425.96 86.4931C1428.3 87.3704 1429.46 88.7517 1429.46 90.6556C1429.46 93.838 1426.04 95.6392 1419.21 96.0685V97.0111H1430.96ZM1409.08 110.656H1429.57V114.351H1403.51V106.726H1423.7V105.756H1403.44V102.191H1429.27V109.685H1409.08V110.656ZM1411.19 91.7381C1412.43 91.9808 1414.16 92.1115 1416.37 92.1115C1418.59 92.1115 1420.3 91.9901 1421.56 91.7381C1422.81 91.4955 1423.43 91.1315 1423.43 90.6648C1423.43 90.1982 1422.81 89.8343 1421.54 89.5916C1420.28 89.349 1418.56 89.2183 1416.37 89.2183C1414.19 89.2183 1412.47 89.3396 1411.21 89.5916C1409.95 89.8343 1409.31 90.1982 1409.31 90.6648C1409.31 91.1315 1409.94 91.4861 1411.19 91.7381Z" fill="black"/>
<path d="M1448.69 86.747C1450.13 87.4661 1451.26 88.4747 1452.07 89.7728C1452.88 91.0708 1453.29 92.5743 1453.29 94.2739C1453.29 96.0016 1452.88 97.5144 1452.07 98.8125C1451.26 100.111 1450.13 101.119 1448.69 101.82C1447.25 102.529 1445.58 102.875 1443.69 102.875C1441.8 102.875 1440.13 102.52 1438.69 101.82C1437.25 101.11 1436.12 100.111 1435.31 98.8125C1434.51 97.5144 1434.1 96.0016 1434.1 94.2739C1434.1 92.5743 1434.51 91.0708 1435.31 89.7728C1436.12 88.4747 1437.25 87.4661 1438.69 86.747C1440.13 86.028 1441.8 85.6731 1443.69 85.6731C1445.57 85.6731 1447.24 86.028 1448.69 86.747ZM1442.52 109.244H1462.81V114.352H1436.64V104.304H1442.51V109.244H1442.52ZM1440.9 91.435C1440.18 92.1167 1439.83 93.0692 1439.83 94.2739C1439.83 95.4786 1440.19 96.4312 1440.9 97.1129C1441.62 97.7946 1442.54 98.1401 1443.68 98.1401C1444.82 98.1401 1445.75 97.7946 1446.46 97.1129C1447.18 96.4312 1447.53 95.4786 1447.53 94.2739C1447.53 93.0692 1447.17 92.1167 1446.46 91.435C1445.74 90.7533 1444.82 90.4078 1443.68 90.4078C1442.54 90.4078 1441.61 90.7533 1440.9 91.435ZM1462.41 106.881H1456.64V85.6357H1462.41V106.881Z" fill="black"/>
<path d="M1495.12 109.657V114.352H1469.12V105.331H1473.68V102.503H1466.85V98.1776H1480.02C1481.49 98.1776 1482.88 98.0945 1484.2 97.9281C1485.52 97.7618 1486.59 97.5029 1487.42 97.1425V101.468C1485.84 102.161 1483.34 102.503 1479.92 102.503H1479.32V106.792H1474.8V109.657H1495.12ZM1470.65 95.7284C1469.05 94.7395 1468.26 93.3069 1468.26 91.4214C1468.26 89.536 1469.06 88.1034 1470.65 87.1145C1472.25 86.1256 1474.37 85.6357 1477.03 85.6357C1479.69 85.6357 1481.81 86.1256 1483.41 87.1145C1485.01 88.1034 1485.8 89.536 1485.8 91.4214C1485.8 93.3069 1485 94.7395 1483.41 95.7284C1481.81 96.7174 1479.69 97.2072 1477.03 97.2072C1474.37 97.2164 1472.25 96.7174 1470.65 95.7284ZM1474.6 90.1737C1474.01 90.451 1473.72 90.8669 1473.72 91.4214C1473.72 91.976 1474.02 92.3919 1474.6 92.6692C1475.2 92.9465 1476.01 93.0851 1477.03 93.0851C1478.05 93.0851 1478.86 92.9465 1479.46 92.6692C1480.05 92.3919 1480.34 91.976 1480.34 91.4214C1480.34 90.8669 1480.04 90.451 1479.46 90.1737C1478.86 89.8965 1478.05 89.7578 1477.03 89.7578C1476.01 89.7578 1475.2 89.8965 1474.6 90.1737ZM1489.05 103.298V85.9314H1494.71V107.993H1489.05V107.198H1481.68V103.307H1489.05V103.298Z" fill="black"/>
<path d="M1509.48 86.3084H1526.44V94.9213C1526.44 98.6673 1525.72 101.899 1524.27 104.627C1522.84 107.355 1520.84 109.429 1518.28 110.849C1515.72 112.269 1512.78 112.997 1509.48 113.016V107.701C1511.97 107.682 1514.09 107.14 1515.85 106.085C1517.61 105.029 1518.9 103.441 1519.74 101.311H1509.48V96.1637H1520.73V95.323V91.521H1509.48V86.3084ZM1536.4 85.6357V114.352H1530.66V85.6357H1536.4Z" fill="black"/>
<path d="M1570.05 108.266V113.455H1540.88V108.266H1570.05ZM1568.8 105.615H1542.51V86.5332H1568.46V91.4897H1548.14V93.7308H1568V98.4176H1548.14V100.659H1568.8V105.615Z" fill="black"/>
<path d="M1585.57 107.693C1587.02 107.693 1588.4 107.6 1589.73 107.404C1591.07 107.217 1592.16 106.928 1593.01 106.545V111.858C1592.16 112.241 1591.06 112.521 1589.73 112.718C1588.4 112.904 1586.97 113.007 1585.44 113.007H1573.19V107.693H1579.89V103.491C1577.99 102.949 1576.49 101.913 1575.37 100.381C1574.25 98.8499 1573.7 97.0008 1573.7 94.8529C1573.7 93.0786 1574.08 91.5097 1574.84 90.1463C1575.61 88.7829 1576.69 87.7183 1578.06 86.9712C1579.43 86.2241 1580.99 85.8412 1582.73 85.8412C1584.47 85.8412 1586.03 86.2148 1587.42 86.9712C1588.81 87.7183 1589.89 88.7829 1590.68 90.1463C1591.47 91.5097 1591.87 93.0786 1591.87 94.8529C1591.87 96.9821 1591.29 98.8218 1590.16 100.363C1589.02 101.913 1587.49 102.949 1585.57 103.491V107.693ZM1580.16 92.0047C1579.53 92.7331 1579.21 93.6763 1579.21 94.8436C1579.21 96.0109 1579.53 96.9541 1580.16 97.6825C1580.78 98.4109 1581.64 98.7751 1582.73 98.7751C1583.82 98.7751 1584.69 98.4016 1585.37 97.6638C1586.05 96.9261 1586.39 95.9829 1586.39 94.8436C1586.39 93.7043 1586.05 92.7611 1585.37 92.0234C1584.69 91.2856 1583.81 90.9121 1582.73 90.9121C1581.65 90.9121 1580.78 91.2762 1580.16 92.0047ZM1603.7 101.371H1600.38V114.352H1594.67V85.6357H1600.38V95.8521H1603.7V101.371Z" fill="black"/>
<path d="M1634.49 91.5267H1614.92V87.3683H1621.83V85.1865H1627.59V87.3683H1634.5V91.5267H1634.49ZM1618.49 101.373C1616.82 100.44 1615.99 99.1536 1615.99 97.4939C1615.99 95.8343 1616.82 94.5476 1618.49 93.6152C1620.15 92.6828 1622.22 92.226 1624.71 92.226C1627.18 92.226 1629.26 92.6922 1630.93 93.6152C1632.59 94.5476 1633.42 95.8343 1633.42 97.4939C1633.42 99.1536 1632.59 100.44 1630.93 101.373C1629.26 102.305 1627.19 102.762 1624.71 102.762C1622.22 102.771 1620.15 102.305 1618.49 101.373ZM1616.79 103.676H1642.07V114.351H1616.79V103.676ZM1622.24 96.5242C1621.62 96.7667 1621.32 97.093 1621.32 97.4939C1621.32 97.8949 1621.62 98.2212 1622.24 98.4636C1622.85 98.706 1623.67 98.8366 1624.71 98.8366C1625.74 98.8366 1626.56 98.7153 1627.17 98.4636C1627.79 98.2212 1628.1 97.8949 1628.1 97.4939C1628.1 97.093 1627.79 96.7667 1627.17 96.5242C1626.56 96.2818 1625.74 96.1513 1624.71 96.1513C1623.67 96.1513 1622.85 96.2818 1622.24 96.5242ZM1622.39 110.016H1636.47V108.002H1622.39V110.016ZM1645.43 96.8599H1642.08V102.669H1636.41V85.6807H1642.08V91.4894H1645.43V96.8599Z" fill="black"/>
<path d="M1655.02 94.0806C1655.02 98.2096 1654.79 101.535 1654.31 104.067C1653.84 106.598 1653.07 108.513 1652 109.802C1650.94 111.092 1649.5 111.83 1647.67 112.007V107.234C1648.35 107.075 1648.87 106.533 1649.23 105.599C1649.6 104.665 1649.87 103.319 1650.03 101.563C1650.19 99.807 1650.26 97.4902 1650.26 94.6224V90.9231H1647.67V86.3177H1655.01V94.0806H1655.02ZM1665.02 85.7759H1669.86V113.857H1665.02V101.283H1662.73C1662.37 105.188 1661.57 108.056 1660.33 109.896C1659.1 111.736 1657.3 112.773 1654.95 113.025V108.252C1656.07 107.962 1656.89 106.776 1657.41 104.683C1657.92 102.6 1658.18 99.3399 1658.18 94.8933V90.9231H1656.03V86.3177H1663.04V94.3235V96.0423H1665.02V85.7759ZM1676.39 85.6357V114.352H1671.47V85.6357H1676.39Z" fill="black"/>
<path d="M1692.56 107.89C1693.93 107.89 1695.3 107.768 1696.66 107.535C1698.03 107.301 1699.15 106.984 1700.03 106.573V111.616C1699.17 112.045 1698.04 112.381 1696.63 112.624C1695.22 112.867 1693.8 112.998 1692.38 112.998H1680.94V97.0662H1691.7V91.4163H1680.88V86.3081H1697.39V102.109H1686.64V107.89H1692.56ZM1710.49 101.642H1707.11V114.352H1701.39V85.6357H1707.11V96.123H1710.49V101.642Z" fill="black"/>
<path d="M1730.5 102.311H1713.18V85.9627H1730.49V102.311H1730.5ZM1741 109.27V114.352H1714.61V104.3H1720.46V109.279H1741V109.27ZM1724.85 90.7736H1718.83V97.4996H1724.85V90.7736ZM1734.95 99.9844H1731.85V94.9774H1734.95V92.7261H1731.85V87.719H1734.95V85.6357H1740.59V106.925H1734.95V99.9844Z" fill="black"/>
<rect x="1077.5" y="0.5" width="458" height="55" fill="#F5F5F5" stroke="black"/>
<path d="M1315.68 29.0106C1314.13 30.0718 1312.24 30.5935 1310.03 30.5935C1308.24 30.5935 1306.67 30.2517 1305.3 29.5772C1303.93 28.9026 1302.87 27.9313 1302.12 26.6812C1301.37 25.431 1301 23.9741 1301 22.3102C1301 20.6733 1301.38 19.2254 1302.14 17.9752C1302.9 16.7251 1303.96 15.7538 1305.32 15.0613C1306.68 14.3687 1308.24 14.027 1310.03 14.027C1312.18 14.027 1314.01 14.5216 1315.53 15.5199C1317.05 16.5093 1318.09 17.8763 1318.66 19.6031H1322.74V14H1328.24V34.4967H1322.74V24.7205H1318.76C1318.26 26.5103 1317.24 27.9493 1315.68 29.0106ZM1328.64 36.7452V41.6378H1303.67V31.9605H1309.27V36.7542H1328.64V36.7452ZM1307.45 25.0443C1308.11 25.7009 1308.97 26.0336 1310.03 26.0336C1311.08 26.0336 1311.94 25.7009 1312.6 25.0443C1313.25 24.3878 1313.57 23.4704 1313.57 22.3102C1313.57 21.15 1313.25 20.2327 1312.6 19.5761C1311.94 18.9196 1311.08 18.5868 1310.03 18.5868C1308.97 18.5868 1308.11 18.9196 1307.45 19.5761C1306.8 20.2327 1306.48 21.15 1306.48 22.3102C1306.48 23.4704 1306.8 24.3878 1307.45 25.0443Z" fill="black"/>
<path d="M1348.04 14.1349H1353.11V41.1612H1348.04V37.6638L1343.94 39.9295L1340.36 33.4561C1338.72 37.9245 1336.1 40.2172 1332.52 40.352V35.0115C1333.91 34.8137 1335.02 33.3572 1335.84 30.624C1336.66 27.8908 1337.09 24.2226 1337.14 19.6013H1333.07V14.6474H1346.24V19.6013H1342.34C1342.29 22.0828 1342.17 24.3394 1341.95 26.3623L1348.03 36.8456V28.9787H1344.49V23.8359H1348.03V14.1349H1348.04ZM1360.16 14V41.6378H1355.02V14H1360.16Z" fill="black"/>
<path d="M1399.46 14V41.6378H1393.96V29.5361H1390.28C1390.04 33.2673 1389.17 36.0545 1387.69 37.9066C1386.21 39.7497 1384.23 40.6757 1381.75 40.6757C1379.05 40.6757 1376.94 39.5788 1375.41 37.3941C1373.89 35.2003 1373.12 31.9097 1373.12 27.5042C1373.12 23.0987 1373.89 19.8081 1375.41 17.6143C1376.94 15.4206 1379.06 14.3327 1381.75 14.3327C1384.09 14.3327 1386 15.1688 1387.48 16.8411C1388.96 18.5134 1389.87 21.0398 1390.21 24.4294H1393.96V14H1399.46ZM1384.9 27.4952C1384.9 22.0558 1383.85 19.3405 1381.75 19.3405C1379.62 19.3405 1378.55 22.0558 1378.55 27.4952C1378.55 32.9346 1379.62 35.6499 1381.75 35.6499C1383.85 35.6588 1384.9 32.9346 1384.9 27.4952Z" fill="black"/>
<path d="M1421.47 19.6354H1410.61V35.3642H1416.49C1417.8 35.3642 1419.11 35.2474 1420.41 35.0227C1421.71 34.798 1422.79 34.4924 1423.63 34.097V39.0133C1422.81 39.4268 1421.71 39.7503 1420.35 39.984C1418.98 40.2177 1417.62 40.3435 1416.26 40.3435H1405.07V14.6562H1421.46V19.6354H1421.47ZM1430.55 41.6378H1425.09V14H1430.55V41.6378Z" fill="black"/>
<path d="M1446.84 24.7225L1454.97 37.4044L1450.22 40.3165L1444.94 31.5803C1443.8 34.3845 1442.37 36.5416 1440.64 38.0515C1438.91 39.5615 1436.99 40.3255 1434.87 40.3524V34.6542C1436.29 34.5014 1437.54 33.5576 1438.6 31.8229C1439.68 30.0883 1440.5 27.7335 1441.1 24.7495C1441.69 21.7745 1441.98 18.3771 1441.98 14.5572L1447.61 14.755C1447.62 18.422 1447.36 21.7476 1446.84 24.7225ZM1462.08 14.0089V41.6378H1456.54V28.048H1450.64V22.934H1456.54V14H1462.08V14.0089Z" fill="black"/>
<path d="M1478.29 35.3283C1479.62 35.3283 1480.93 35.2204 1482.23 35.0047C1483.52 34.789 1484.57 34.4834 1485.4 34.097V39.0492C1484.58 39.4627 1483.51 39.7773 1482.18 40.002C1480.85 40.2267 1479.5 40.3435 1478.13 40.3435H1467.26V14.4944H1472.82V35.3283H1478.29ZM1495.33 29.4053H1492.11V41.6378H1486.68V14H1492.11V24.0934H1495.33V29.4053Z" fill="black"/>
</svg>
