<svg width="430" height="449" viewBox="0 0 430 449" fill="none" xmlns="http://www.w3.org/2000/svg">
<path d="M66.5 380.5H363.5V448.5H66.5V380.5Z" fill="black" stroke="#FFE000"/>
<path d="M103.621 430.036H97.1476V406.541H92V400.894H103.621V430.036Z" fill="#FF0000"/>
<path d="M114.99 424.189C115.66 424.866 115.988 425.723 115.988 426.744C115.988 427.764 115.653 428.621 114.99 429.299C114.319 429.977 113.477 430.319 112.449 430.319C111.421 430.319 110.572 429.977 109.894 429.299C109.216 428.621 108.874 427.764 108.874 426.744C108.874 425.723 109.216 424.866 109.894 424.189C110.572 423.511 111.429 423.168 112.449 423.168C113.47 423.168 114.327 423.511 114.99 424.189Z" fill="#FF0000"/>
<path d="M138.825 413.551C137.216 414.407 135.257 414.839 132.94 414.839C130.988 414.839 129.275 414.527 127.807 413.908C126.34 413.29 125.215 412.426 124.425 411.316C123.636 410.206 123.248 408.917 123.248 407.435C123.248 405.982 123.643 404.693 124.425 403.576C125.215 402.458 126.34 401.587 127.807 400.968C129.275 400.35 130.981 400.037 132.94 400.037C135.16 400.037 137.052 400.432 138.624 401.214C140.196 402.004 141.321 403.099 141.984 404.507H146.811V400H152.853V414.944H146.811V410.012H142.163C141.552 411.509 140.434 412.694 138.825 413.551ZM153.18 426.349V430.536H125.93V421.417H146.886V420.203H125.863V416.016H152.86V425.135H131.905V426.349H153.18ZM130.229 409.364C130.899 409.841 131.8 410.079 132.948 410.079C134.095 410.079 134.996 409.841 135.667 409.364C136.337 408.887 136.665 408.247 136.665 407.435C136.665 406.623 136.33 405.982 135.667 405.505C134.996 405.028 134.095 404.79 132.948 404.79C131.8 404.79 130.899 405.028 130.229 405.505C129.558 405.982 129.23 406.623 129.23 407.435C129.223 408.247 129.558 408.887 130.229 409.364Z" fill="#FF0000"/>
<path d="M176.639 417.521H164.943V423.675H171.558C172.989 423.675 174.434 423.54 175.887 423.265C177.339 422.989 178.531 422.639 179.462 422.207V427.645C178.553 428.1 177.361 428.457 175.872 428.718C174.382 428.979 172.862 429.113 171.313 429.113H158.939V412.165H170.635V406.161H158.872V400.723H176.646V417.521H176.639ZM187.113 430.536H181.071V400H187.113V430.536Z" fill="#FF0000"/>
<path d="M221.656 400V430.536H215.615V416.91H210.929V429.105H193.155V400.715H199.092V409.692H205.029V400.715H210.929V411.264H215.615V400H221.656ZM205.029 423.563V415.197H199.092V423.563H205.029Z" fill="#FF0000"/>
<path d="M257.272 429.463H226.379V423.816H257.272V429.463ZM255.589 406.325H234.238V414.012H255.946V419.592H228.055V400.715H255.589V406.325Z" fill="#FF0000"/>
<path d="M277.118 413.588C275.285 414.467 273.304 414.959 271.181 415.055V409.796C272.775 409.602 274.205 409.081 275.457 408.224C276.708 407.368 277.691 406.243 278.407 404.842C279.122 403.442 279.494 401.877 279.517 400.142L285.558 400.499C285.558 402.361 285.216 404.12 284.523 405.788L292.926 410.221L290.14 414.586L281.878 410.042C280.537 411.524 278.95 412.701 277.118 413.588ZM300.643 426.349V430.536H273.036V421.417H294.349V420.203H272.969V416.016H300.323V425.135H279.01V426.349H300.643ZM300.323 414.944H294.282V400H300.323V414.944Z" fill="#FF0000"/>
<path d="M319.312 423.384C320.221 423.22 320.936 423.026 321.457 422.81V427.958C320.601 428.338 319.513 428.628 318.202 428.815C316.891 429.008 315.505 429.098 314.053 429.098H304.972V423.809H306.655V406.004H305.225V400.715H320.742V406.004H319.312V423.384ZM311.944 423.809H314.015V406.004H311.944V423.809ZM335.582 400V430.536H330.114V416.948H327.931V429.999H322.53V400.142H327.931V411.226H330.114V400H335.582Z" fill="#FF0000"/>
<path d="M420.981 351H9.00468C5.13622 351 2 346.504 2 340.958V10.1803C2 5.66431 4.55595 2 7.70598 2H420.995C424.864 2 428 6.49621 428 12.0422V340.938C428 346.484 424.864 351 420.981 351Z" fill="black" stroke="#FFE000" stroke-width="3" stroke-miterlimit="10"/>
<path d="M413.314 54.7471H14.6003V337.694H413.314V54.7471Z" fill="black" stroke="#FFE000" stroke-width="3" stroke-miterlimit="10"/>
<path d="M404.35 36.3179H334.995C330.025 36.3179 326 32.2926 326 27.3226V2H413.345V27.3226C413.325 32.2926 409.3 36.3179 404.35 36.3179Z" fill="black" stroke="#FFE000" stroke-width="3" stroke-miterlimit="10"/>
<path d="M366.521 19.1327L360.504 11H366.521L369.725 15.703L372.867 11H378.535L372.662 19.0095L378.864 27.4503H372.847L369.458 22.5009L366.09 27.4503H360.422L366.521 19.1327Z" fill="white"/>
<path d="M95.2804 132.897C94.1533 133.535 92.8727 133.923 91.4482 134.057V132.033C93.0597 131.818 94.3595 131.213 95.3523 130.216C96.3403 129.218 96.9159 127.976 97.0693 126.484H91.7072V124.551H104.436V126.484H99.3715C99.3235 127.237 99.17 127.957 98.9111 128.647L105.079 132.168L103.995 133.87L98.0333 130.393C97.3235 131.429 96.4075 132.259 95.2804 132.897ZM107.079 135.117H109.314V143.453H92.6473V135.117H94.8823V137.304H107.084V135.117H107.079ZM107.079 141.587V139.146H94.8775V141.587H107.079ZM109.309 124.048V134.268H107.031V124.048H109.309Z" fill="#FF0000"/>
<path d="M125.103 124.163H127.242V143.362H125.103V134.408H122.504C122.441 137.276 122.029 139.391 121.261 140.748C120.494 142.105 119.391 142.786 117.947 142.786C116.427 142.786 115.285 142.048 114.518 140.566C113.751 139.084 113.367 136.777 113.367 133.65C113.367 130.518 113.751 128.211 114.518 126.734C115.285 125.252 116.427 124.513 117.947 124.513C119.343 124.513 120.422 125.141 121.18 126.403C121.938 127.659 122.374 129.611 122.48 132.249H125.103V124.163ZM119.751 138.988C120.144 137.837 120.336 136.057 120.336 133.645C120.336 131.237 120.139 129.453 119.751 128.302C119.357 127.151 118.758 126.575 117.942 126.575C117.127 126.575 116.523 127.151 116.125 128.302C115.727 129.453 115.525 131.232 115.525 133.645C115.525 136.053 115.727 137.837 116.125 138.988C116.523 140.139 117.132 140.714 117.942 140.714C118.753 140.714 119.362 140.139 119.751 138.988ZM132.01 124.048V143.707H129.847V124.048H132.01Z" fill="#FF0000"/>
<path d="M142.901 131.942L149.05 141.333L147.141 142.575L142.23 134.844C141.554 137.194 140.633 139.031 139.467 140.36C138.302 141.688 136.949 142.412 135.415 142.537V140.211C136.642 140.009 137.683 139.199 138.532 137.77C139.386 136.34 140.028 134.479 140.465 132.187C140.901 129.894 141.127 127.343 141.146 124.532L143.472 124.623C143.477 127.233 143.285 129.669 142.901 131.942ZM153.765 124.048V143.707H151.486V133.3H146.422V131.161H151.486V124.048H153.765Z" fill="#FF0000"/>
<path d="M171.813 127.156H177.04V129.18H164.287V127.156H169.491V124H171.817V127.156H171.813ZM173.496 131.492C174.326 131.99 174.968 132.695 175.429 133.611C175.889 134.523 176.119 135.573 176.119 136.753C176.119 137.933 175.889 138.983 175.429 139.894C174.968 140.806 174.326 141.516 173.496 142.014C172.666 142.513 171.721 142.763 170.666 142.763C169.611 142.763 168.661 142.513 167.837 142.014C167.007 141.516 166.359 140.81 165.889 139.894C165.419 138.983 165.189 137.933 165.189 136.753C165.189 135.573 165.424 134.523 165.889 133.611C166.359 132.7 167.007 131.99 167.837 131.492C168.666 130.993 169.611 130.743 170.666 130.743C171.721 130.743 172.666 130.993 173.496 131.492ZM172.321 140.297C172.81 139.976 173.199 139.506 173.482 138.892C173.765 138.278 173.908 137.564 173.908 136.753C173.908 135.938 173.765 135.228 173.482 134.614C173.199 134 172.81 133.53 172.321 133.209C171.832 132.887 171.275 132.724 170.661 132.724C169.712 132.724 168.925 133.089 168.311 133.818C167.697 134.547 167.39 135.525 167.39 136.753C167.39 137.981 167.697 138.959 168.311 139.688C168.925 140.417 169.707 140.782 170.661 140.782C171.275 140.782 171.827 140.623 172.321 140.297ZM184.407 134.197H181.645V143.703H179.366V124.043H181.645V132.01H184.407V134.197Z" fill="#FF0000"/>
<path d="M186.916 140.321C188.681 140.321 190.21 139.88 191.51 138.997C192.805 138.115 193.798 136.863 194.479 135.247C195.16 133.626 195.505 131.726 195.505 129.549V126.854H186.92V124.758H197.832V129.501C197.832 132.11 197.39 134.393 196.508 136.35C195.625 138.307 194.359 139.818 192.709 140.887C191.059 141.952 189.131 142.489 186.92 142.489V140.321H186.916ZM202.062 124.048H204.34V143.707H202.062V124.048Z" fill="#FF0000"/>
<path d="M216.177 134.729C215.395 135.65 214.335 136.11 213.002 136.11C211.544 136.11 210.417 135.578 209.616 134.508C208.82 133.443 208.417 131.985 208.417 130.144C208.417 128.302 208.815 126.854 209.616 125.794C210.417 124.734 211.544 124.206 213.002 124.206C214.258 124.206 215.275 124.614 216.052 125.424C216.829 126.24 217.309 127.371 217.491 128.83H220.139V124.158H222.278V138.455H220.139V130.925H217.539C217.41 132.542 216.959 133.808 216.177 134.729ZM227.525 141.381V143.453H210.095V137.376H212.398V141.381H227.525ZM211.194 133.127C211.616 133.827 212.22 134.172 213.002 134.172C213.769 134.172 214.364 133.822 214.786 133.127C215.208 132.427 215.419 131.434 215.419 130.144C215.419 128.854 215.208 127.861 214.786 127.16C214.364 126.46 213.769 126.115 213.002 126.115C212.22 126.115 211.616 126.465 211.194 127.16C210.772 127.861 210.561 128.854 210.561 130.144C210.561 131.434 210.772 132.431 211.194 133.127ZM227.04 138.801H224.877V124.043H227.04V138.801Z" fill="#FF0000"/>
<path d="M247.871 134.541V136.2H255.214V140.78H240.528V142.071H255.559V143.749H238.293V139.169H252.979V137.879H238.245V136.2H245.612V134.541H236.931V132.766H256.567V134.541H247.871ZM255.147 131.318H238.341V124.435H240.576V126.138H252.917V124.435H255.152V131.318H255.147ZM252.912 129.591V127.84H240.571V129.591H252.912Z" fill="#FF0000"/>
<path d="M270.378 132.911C269.879 133.77 269.17 134.446 268.249 134.935C267.328 135.424 266.244 135.674 265.002 135.674C263.76 135.674 262.671 135.429 261.745 134.935C260.815 134.446 260.105 133.765 259.606 132.897C259.107 132.029 258.858 131.05 258.858 129.962C258.858 128.873 259.107 127.894 259.606 127.026C260.105 126.158 260.819 125.482 261.745 124.988C262.676 124.499 263.76 124.249 265.002 124.249C266.244 124.249 267.328 124.494 268.249 124.988C269.17 125.477 269.879 126.153 270.378 127.012C270.877 127.87 271.126 128.854 271.126 129.957C271.126 131.069 270.877 132.048 270.378 132.911ZM262.796 141.381H277.208V143.453H260.469V137.031H262.796V141.381ZM262.196 132.714C262.901 133.396 263.836 133.741 265.007 133.741C266.172 133.741 267.107 133.4 267.803 132.714C268.503 132.033 268.848 131.113 268.848 129.962C268.848 128.81 268.493 127.89 267.788 127.199C267.083 126.508 266.153 126.163 265.002 126.163C263.836 126.163 262.901 126.508 262.191 127.199C261.481 127.89 261.131 128.81 261.131 129.962C261.131 131.113 261.491 132.029 262.196 132.714ZM279.438 128.719V130.906H276.676V138.643H274.397V124.048H276.676V128.719H279.438Z" fill="#FF0000"/>
<path d="M288.992 127.156H294.22V129.18H281.467V127.156H286.671V124H288.997V127.156H288.992ZM290.676 131.492C291.506 131.99 292.148 132.695 292.609 133.611C293.069 134.523 293.299 135.573 293.299 136.753C293.299 137.933 293.069 138.983 292.609 139.894C292.148 140.806 291.506 141.516 290.676 142.014C289.846 142.513 288.901 142.763 287.846 142.763C286.791 142.763 285.841 142.513 285.016 142.014C284.187 141.516 283.539 140.81 283.069 139.894C282.599 138.983 282.369 137.933 282.369 136.753C282.369 135.573 282.604 134.523 283.069 133.611C283.539 132.7 284.187 131.99 285.016 131.492C285.846 130.993 286.791 130.743 287.846 130.743C288.901 130.743 289.846 130.993 290.676 131.492ZM289.501 140.297C289.99 139.976 290.378 139.506 290.661 138.892C290.944 138.278 291.088 137.564 291.088 136.753C291.088 135.938 290.944 135.228 290.661 134.614C290.378 134 289.99 133.53 289.501 133.209C289.012 132.887 288.455 132.724 287.841 132.724C286.892 132.724 286.105 133.089 285.491 133.818C284.877 134.547 284.57 135.525 284.57 136.753C284.57 137.981 284.877 138.959 285.491 139.688C286.105 140.417 286.887 140.782 287.841 140.782C288.455 140.782 289.007 140.623 289.501 140.297ZM301.587 134.197H298.825V143.703H296.546V124.043H298.825V132.01H301.587V134.197Z" fill="#FF0000"/>
<path d="M322.81 140.623V142.762H303.174V140.623H310.493V131.851H312.843V140.623H322.81ZM319.126 126.878H304.368V124.739H321.495V137.722H319.126V126.878Z" fill="#FF0000"/>
<path d="M327.208 145.549H325.318L326.057 140.345H328.359L327.208 145.549Z" fill="#FF0000"/>
<path d="M69.6354 174.398V176.518H50V174.398H58.657V169.885H60.9352V174.398H69.6354ZM55.7889 169.036C54.2302 169.789 52.4844 170.226 50.5515 170.35V168.255C51.9328 168.149 53.1942 167.828 54.3405 167.3C55.482 166.773 56.4316 166.063 57.1846 165.18C57.9376 164.298 58.422 163.291 58.6331 162.154H51.0599V160.058H58.5899V157.55H60.94V160.058H68.5611V162.154H61.0551C60.9496 162.873 60.7625 163.574 60.5035 164.25L69.0886 168.576L68.1007 170.442L59.5155 166C58.5851 167.271 57.3477 168.283 55.7889 169.036Z" fill="#FF0000"/>
<path d="M91.7839 174.379V176.518H72.1484V174.379H79.4674V165.607H81.8175V174.379H91.7839ZM88.1004 160.633H73.3427V158.494H90.4698V171.478H88.1004V160.633Z" fill="#FF0000"/>
<path d="M113.933 167.607V169.497H94.2974V167.607H102.978V164.614H105.233V167.607H113.933ZM99.9088 164.672C98.3117 165.353 96.6762 165.713 95.0072 165.741V163.761C96.2973 163.713 97.5731 163.425 98.8393 162.888C100.105 162.351 101.189 161.602 102.086 160.643C102.983 159.684 103.554 158.581 103.803 157.339L106.081 157.708C105.899 158.629 105.568 159.511 105.094 160.355L113.333 164.087L112.48 165.837L103.914 161.924C102.844 163.075 101.506 163.991 99.9088 164.672ZM95.4916 171.43H112.551V177.482H110.249V173.315H95.4916V171.43Z" fill="#FF0000"/>
<path d="M128.48 174.264C129.324 174.264 130.149 174.197 130.954 174.068C131.76 173.938 132.46 173.751 133.06 173.502V175.507C132.494 175.766 131.774 175.962 130.906 176.092C130.038 176.221 129.146 176.288 128.225 176.288H123.482V158.471H125.717V174.264H128.48ZM134.882 157.919H137.021V177.118H134.882V167.152H129.703V165.032H134.882V157.919ZM141.784 157.804V177.463H139.621V157.804H141.784Z" fill="#FF0000"/>
<path d="M164.671 174.423V176.519H145.036V174.423H164.671ZM163.678 171.085H146.345V158.514H163.381V160.562H148.623V163.785H163.127V165.79H148.623V169.037H163.678V171.085Z" fill="#FF0000"/>
<path d="M175.329 171.2H174.935V177.463H172.657V171.2H167.18V169.195H175.305C178.326 169.195 180.475 168.936 181.751 168.413V170.437C180.403 170.945 178.259 171.2 175.329 171.2ZM171.036 166.998C170.154 166.605 169.463 166.058 168.964 165.353C168.465 164.648 168.216 163.828 168.216 162.888C168.216 161.953 168.465 161.132 168.964 160.423C169.463 159.718 170.154 159.166 171.036 158.778C171.919 158.389 172.926 158.192 174.062 158.192C175.199 158.192 176.206 158.389 177.089 158.778C177.971 159.166 178.662 159.718 179.161 160.423C179.66 161.128 179.909 161.948 179.909 162.888C179.909 163.823 179.66 164.643 179.161 165.353C178.662 166.058 177.971 166.61 177.089 166.998C176.206 167.391 175.199 167.583 174.062 167.583C172.926 167.588 171.919 167.391 171.036 166.998ZM171.405 160.84C170.739 161.363 170.403 162.044 170.403 162.888C170.403 163.732 170.739 164.413 171.405 164.936C172.072 165.459 172.959 165.718 174.062 165.718C175.151 165.718 176.029 165.459 176.7 164.936C177.367 164.413 177.703 163.732 177.703 162.888C177.703 162.044 177.367 161.363 176.7 160.84C176.034 160.317 175.156 160.058 174.062 160.058C172.959 160.058 172.072 160.317 171.405 160.84ZM185.688 157.804V177.463H183.41V175.07H177.449V173.137H183.41V157.804H185.688Z" fill="#FF0000"/>
<path d="M208.964 174.379V176.519H189.328V174.379H208.964ZM205.208 167.861H190.59V165.742H205.208V160.658H190.59V158.519H207.511V172.514H205.208V167.861Z" fill="#FF0000"/>
<path d="M211.472 174.149H219.506C220.887 174.149 222.144 174.073 223.28 173.919C224.417 173.766 225.304 173.535 225.952 173.228V175.348C225.29 175.641 224.388 175.871 223.237 176.039C222.086 176.207 220.796 176.293 219.371 176.293H211.477V174.149H211.472ZM215.088 169.818C214.168 169.296 213.448 168.562 212.925 167.622C212.403 166.677 212.144 165.607 212.144 164.408C212.144 163.209 212.403 162.14 212.925 161.195C213.448 160.25 214.168 159.516 215.088 158.998C216.009 158.475 217.055 158.216 218.22 158.216C219.386 158.216 220.431 158.475 221.352 158.998C222.273 159.521 222.993 160.255 223.515 161.195C224.038 162.14 224.297 163.209 224.297 164.408C224.297 165.607 224.038 166.677 223.515 167.622C222.993 168.567 222.273 169.3 221.352 169.818C220.431 170.341 219.386 170.6 218.22 170.6C217.05 170.6 216.009 170.341 215.088 169.818ZM220.23 167.991C220.805 167.631 221.256 167.137 221.578 166.519C221.899 165.9 222.062 165.195 222.062 164.413C222.062 163.631 221.899 162.926 221.578 162.293C221.256 161.665 220.801 161.171 220.22 160.806C219.635 160.447 218.969 160.264 218.216 160.264C217.448 160.264 216.772 160.447 216.192 160.806C215.606 161.166 215.16 161.66 214.844 162.293C214.527 162.921 214.374 163.626 214.374 164.413C214.374 165.612 214.729 166.595 215.434 167.372C216.139 168.149 217.069 168.533 218.22 168.533C218.983 168.528 219.654 168.351 220.23 167.991ZM227.611 157.804H229.889V177.463H227.611V157.804Z" fill="#FF0000"/>
<path d="M253.741 161.233H240.206V159.458H245.822V157.454H248.124V159.458H253.741V161.233ZM244.014 168.931C243.131 168.648 242.431 168.24 241.918 167.713C241.405 167.185 241.146 166.557 241.146 165.837C241.146 165.099 241.405 164.466 241.918 163.938C242.431 163.41 243.131 163.008 244.014 162.729C244.896 162.451 245.884 162.317 246.973 162.317C248.062 162.317 249.045 162.456 249.918 162.729C250.791 163.008 251.486 163.41 252 163.938C252.513 164.466 252.772 165.099 252.772 165.837C252.772 166.557 252.513 167.185 252 167.713C251.486 168.24 250.791 168.648 249.918 168.931C249.045 169.214 248.062 169.358 246.973 169.358C245.88 169.358 244.896 169.219 244.014 168.931ZM241.745 170.6H258.412V177.209H241.745V170.6ZM244.335 164.538C243.669 164.883 243.333 165.314 243.333 165.837C243.333 166.36 243.669 166.792 244.335 167.137C245.002 167.482 245.88 167.655 246.973 167.655C248.062 167.655 248.94 167.482 249.611 167.137C250.278 166.792 250.613 166.36 250.613 165.837C250.613 165.314 250.278 164.883 249.611 164.538C248.944 164.192 248.067 164.02 246.973 164.02C245.88 164.02 245.002 164.192 244.335 164.538ZM244 175.391H256.153V172.422H244V175.391ZM258.412 157.804V169.521H256.134V157.804H258.412Z" fill="#FF0000"/>
<path d="M262.21 166.111H281.846V167.885H262.21V166.111ZM265.769 164.029C264.182 163.454 263.385 162.542 263.385 161.3C263.385 160.072 264.182 159.171 265.769 158.595C267.357 158.02 269.443 157.732 272.019 157.732C274.594 157.732 276.68 158.02 278.268 158.595C279.855 159.171 280.652 160.072 280.652 161.3C280.652 162.542 279.855 163.454 278.268 164.029C276.68 164.605 274.594 164.893 272.019 164.893C269.443 164.893 267.357 164.605 265.769 164.029ZM263.568 172.538H278.254V171.156H263.525V169.454H280.493V174.149H265.808V175.53H280.839V177.233H263.573V172.538H263.568ZM276.556 162.682C277.721 162.375 278.306 161.914 278.306 161.3C278.306 160.686 277.721 160.226 276.546 159.919C275.371 159.612 273.865 159.459 272.023 159.459C270.182 159.459 268.676 159.612 267.501 159.919C266.326 160.226 265.74 160.686 265.74 161.3C265.74 161.914 266.326 162.375 267.491 162.682C268.656 162.989 270.167 163.142 272.028 163.142C273.889 163.142 275.385 162.989 276.556 162.682Z" fill="#FF0000"/>
<path d="M303.395 166.941H291.702V158.144H293.937V160.586H301.165V158.144H303.4V166.941H303.395ZM309.635 175.435V177.209H292.508V172.12H306.896V170.509H292.46V168.734H309.15V173.799H294.762V175.435H309.635ZM301.165 165.099V162.403H293.937V165.099H301.165ZM309.15 167.655H306.872V157.804H309.15V167.655Z" fill="#FF0000"/>
<path d="M314.076 166.207H322.872V160.61H314.033V158.514H325.15V168.298H316.354V174.192H322.109C323.045 174.192 323.98 174.106 324.906 173.938C325.836 173.77 326.599 173.54 327.198 173.248V175.343C326.613 175.636 325.855 175.866 324.92 176.034C323.985 176.202 323.025 176.288 322.042 176.288H314.076V166.207ZM329.021 157.804H331.299V177.463H329.021V157.804Z" fill="#FF0000"/>
<path d="M354.733 174.379V176.518H335.098V174.379H342.417V165.607H344.767V174.379H354.733ZM351.05 160.633H336.292V158.494H353.419V171.478H351.05V160.633Z" fill="#FF0000"/>
<path d="M364.747 166.849L371.054 174.768L369.26 176.125L364.081 169.425C363.404 171.468 362.503 173.08 361.376 174.259C360.248 175.439 358.949 176.116 357.471 176.283V174.029C358.608 173.813 359.591 173.108 360.416 171.909C361.246 170.71 361.884 169.137 362.325 167.19C362.771 165.243 363.006 163.046 363.04 160.605H357.927V158.509H370.292V160.605H365.342C365.332 162.883 365.131 164.96 364.747 166.849ZM377.802 167.953H375.04V177.458H372.762V157.799H375.04V165.765H377.802V167.953Z" fill="#FF0000"/>
<path d="M91.8297 265.087C90.9376 264.42 90.247 263.403 89.7482 262.036C89.2494 260.669 89 258.976 89 256.947C89 254.919 89.2494 253.226 89.7482 251.859C90.247 250.492 90.9424 249.475 91.8297 248.808C92.7218 248.142 93.7626 247.806 94.9616 247.806C96.1415 247.806 97.1774 248.142 98.0695 248.808C98.9616 249.475 99.6523 250.492 100.151 251.859C100.65 253.226 100.899 254.919 100.899 256.947C100.899 258.976 100.65 260.669 100.151 262.036C99.6523 263.403 98.9568 264.42 98.0695 265.087C97.1774 265.753 96.1415 266.089 94.9616 266.089C93.7626 266.089 92.7218 265.753 91.8297 265.087ZM97.6091 262.257C98.2853 261.096 98.6211 259.331 98.6211 256.952C98.6211 254.588 98.2853 252.823 97.6091 251.657C96.9328 250.492 96.0503 249.907 94.9616 249.907C93.8585 249.907 92.9664 250.487 92.2902 251.643C91.6139 252.804 91.2782 254.569 91.2782 256.947C91.2782 259.326 91.6139 261.096 92.2806 262.252C92.9472 263.413 93.8441 263.988 94.9616 263.988C96.0503 263.993 96.9328 263.413 97.6091 262.257ZM104.237 247.35H106.539V267.01H104.237V247.35Z" fill="#FF0000"/>
<path d="M119.594 252.597V249.768H111.076V247.835H121.848V254.463H113.378V257.365H118.05C119.402 257.365 120.611 257.293 121.685 257.144C122.76 257 123.613 256.789 124.242 256.511V258.42C123.628 258.679 122.764 258.89 121.652 259.053C120.539 259.216 119.292 259.293 117.911 259.293H111.119V252.592H119.594V252.597ZM129.239 264.708V266.755H112.088V261.091H114.438V264.708H129.239ZM126.525 253.657H123.139V251.537H126.525V247.345H128.827V262.012H126.525V253.657Z" fill="#FF0000"/>
<path d="M135.983 258.631H133.287V255.983H135.983V258.631ZM143.167 258.631H140.472V255.983H143.167V258.631ZM150.256 258.631H147.561V255.983H150.256V258.631Z" fill="#FF0000"/>
<path d="M167.662 263.696C170.626 263.696 172.741 263.417 174.017 262.866V265.005C172.664 265.557 170.525 265.835 167.595 265.835H160.089V263.696H165.408V259.115H167.662V263.696ZM164.108 258.099C163.072 258.837 161.854 259.278 160.458 259.432V257.336C162.021 257.091 163.23 256.329 164.084 255.043C164.938 253.763 165.432 252.17 165.571 250.266H160.736V248.194H172.477V250.266H167.873C167.81 251.312 167.652 252.3 167.388 253.235L173.077 257.772L171.719 259.408L166.607 255.216C165.974 256.405 165.144 257.365 164.108 258.099ZM180.645 257.317H177.93V267.01H175.652V247.35H177.93V255.13H180.645V257.317Z" fill="#FF0000"/>
<path d="M185.964 257.293C184.861 258.075 183.623 258.559 182.256 258.741V256.621C183.436 256.405 184.472 255.864 185.364 255C186.256 254.132 186.937 253.048 187.412 251.744C187.887 250.439 188.132 249.034 188.151 247.533L190.429 247.672C190.429 249.36 190.151 250.933 189.599 252.391L195.724 257.019L194.367 258.583L188.702 254.276C187.983 255.504 187.072 256.511 185.964 257.293ZM183.825 260.401H200.722V267.01H198.395V262.381H183.825V260.401ZM200.722 247.35V259.322H198.443V253.015H193.7V250.943H198.443V247.35H200.722Z" fill="#FF0000"/>
<path d="M208.04 265.087C207.148 264.42 206.458 263.403 205.959 262.036C205.46 260.669 205.211 258.976 205.211 256.947C205.211 254.919 205.46 253.226 205.959 251.859C206.458 250.492 207.153 249.475 208.04 248.808C208.933 248.142 209.973 247.806 211.172 247.806C212.352 247.806 213.388 248.142 214.28 248.808C215.172 249.475 215.863 250.492 216.362 251.859C216.861 253.226 217.11 254.919 217.11 256.947C217.11 258.976 216.861 260.669 216.362 262.036C215.863 263.403 215.168 264.42 214.28 265.087C213.388 265.753 212.352 266.089 211.172 266.089C209.978 266.089 208.933 265.753 208.04 265.087ZM213.82 262.257C214.496 261.096 214.832 259.331 214.832 256.952C214.832 254.588 214.496 252.823 213.82 251.657C213.144 250.492 212.261 249.907 211.172 249.907C210.069 249.907 209.177 250.487 208.501 251.643C207.825 252.804 207.489 254.569 207.489 256.947C207.489 259.326 207.825 261.096 208.491 262.252C209.158 263.413 210.055 263.988 211.172 263.988C212.261 263.993 213.144 263.413 213.82 262.257ZM220.453 247.35H222.755V267.01H220.453V247.35Z" fill="#FF0000"/>
<path d="M241.7 263.763C242.635 263.763 243.571 263.676 244.496 263.508C245.427 263.341 246.189 263.11 246.789 262.818V264.89C246.204 265.182 245.432 265.413 244.477 265.58C243.518 265.748 242.554 265.835 241.59 265.835H233.902V248.06H245.249V250.132H236.223V263.763H241.7ZM253.532 257.499H250.77V267.005H248.492V247.345H250.77V255.312H253.532V257.499Z" fill="#FF0000"/>
<path d="M265.479 257.384C264.391 258.046 263.177 258.448 261.844 258.602V256.621C263.316 256.405 264.525 255.796 265.47 254.789C266.415 253.782 267 252.554 267.23 251.096H262.05V249.187H267.254V247H269.556V249.187H274.688V251.096H269.532C269.455 251.772 269.292 252.429 269.048 253.077L275.033 256.693L273.949 258.42L268.146 254.827C267.46 255.873 266.568 256.727 265.479 257.384ZM276.693 262.496L280.789 265.144L279.614 266.846L275.767 264.132C275.167 264.914 274.453 265.532 273.614 265.983C272.779 266.434 271.882 266.693 270.932 266.755L267.527 264.223C266.913 264.976 266.194 265.566 265.364 265.998C264.534 266.429 263.661 266.679 262.741 266.755V264.731C263.46 264.669 264.136 264.41 264.765 263.95C265.393 263.489 265.916 262.88 266.328 262.117C266.741 261.355 266.99 260.516 267.067 259.595L269.254 259.892C269.148 260.861 268.899 261.758 268.515 262.587L271.532 264.659C272.482 264.4 273.302 263.806 273.983 262.875C274.664 261.945 275.062 260.851 275.167 259.595L277.331 259.916C277.244 260.808 277.028 261.667 276.693 262.496ZM282.127 251.743V253.93H279.364V258.995H277.086V247.345H279.364V251.743H282.127Z" fill="#FF0000"/>
<path d="M292.438 263.715C293.373 263.715 294.309 263.633 295.234 263.475C296.165 263.312 296.927 263.096 297.527 262.818V264.89C296.942 265.182 296.184 265.413 295.249 265.58C294.313 265.748 293.359 265.835 292.395 265.835H284.635V247.945H286.961V263.715H292.438ZM304.27 257.499H301.508V267.005H299.229V247.345H301.508V255.312H304.27V257.499Z" fill="#FF0000"/>
<path d="M325.499 263.969V266.065H305.863V263.969H310.376V258.65C309.24 258.127 308.362 257.441 307.739 256.588C307.115 255.734 306.808 254.765 306.808 253.676C306.808 252.477 307.173 251.427 307.902 250.521C308.631 249.614 309.667 248.919 311.01 248.425C312.352 247.935 313.906 247.686 315.671 247.686C317.436 247.686 318.99 247.931 320.333 248.425C321.676 248.914 322.712 249.614 323.441 250.521C324.17 251.427 324.535 252.477 324.535 253.676C324.535 254.765 324.223 255.739 323.604 256.588C322.986 257.437 322.113 258.118 320.99 258.626V263.969H325.499ZM310.026 255.715C310.564 256.305 311.321 256.76 312.295 257.086C313.269 257.408 314.396 257.571 315.667 257.571C316.938 257.571 318.069 257.408 319.053 257.086C320.036 256.765 320.794 256.31 321.331 255.715C321.868 255.125 322.137 254.444 322.137 253.676C322.137 252.895 321.868 252.209 321.331 251.614C320.794 251.024 320.031 250.569 319.053 250.242C318.069 249.921 316.942 249.758 315.667 249.758C314.391 249.758 313.269 249.921 312.295 250.242C311.321 250.564 310.564 251.019 310.026 251.614C309.489 252.204 309.221 252.89 309.221 253.676C309.221 254.449 309.489 255.125 310.026 255.715ZM312.65 263.969H318.703V259.365C317.782 259.547 316.77 259.643 315.662 259.643C314.573 259.643 313.566 259.552 312.645 259.365V263.969H312.65Z" fill="#FF0000"/>
<path d="M333.292 258.113C333.652 257.293 334.318 256.549 335.282 255.892C336.098 255.307 336.683 254.779 337.043 254.305C337.402 253.83 337.585 253.283 337.585 252.669C337.585 251.777 337.273 251.067 336.654 250.53C336.031 249.993 335.177 249.724 334.088 249.724C333.335 249.724 332.688 249.887 332.141 250.209C331.594 250.53 331.182 250.947 330.899 251.451C330.616 251.959 330.458 252.487 330.429 253.038H328.079C328.107 252.055 328.376 251.149 328.884 250.324C329.393 249.499 330.093 248.837 330.99 248.357C331.887 247.873 332.913 247.633 334.064 247.633C335.278 247.633 336.323 247.854 337.206 248.29C338.088 248.727 338.76 249.326 339.22 250.084C339.681 250.842 339.911 251.705 339.911 252.674C339.911 254.271 339.057 255.676 337.354 256.885C336.693 257.331 336.194 257.782 335.858 258.242C335.522 258.703 335.292 259.177 335.177 259.671C335.062 260.161 335.004 260.746 335.004 261.422H332.75C332.75 260.031 332.928 258.933 333.292 258.113ZM332.726 266.4C332.405 266.069 332.242 265.667 332.242 265.192C332.242 264.717 332.405 264.319 332.726 263.993C333.047 263.671 333.446 263.508 333.925 263.508C334.405 263.508 334.803 263.671 335.134 263.993C335.465 264.314 335.628 264.712 335.628 265.192C335.628 265.681 335.465 266.089 335.143 266.41C334.822 266.731 334.414 266.894 333.925 266.894C333.446 266.894 333.047 266.727 332.726 266.4Z" fill="#FF0000"/>
<path d="M144.82 205.211C146.096 205.029 147.175 204.713 148.067 204.266V206.362C147.405 206.698 146.504 206.972 145.362 207.178C144.221 207.384 142.954 207.489 141.573 207.489H134V205.418H136.326V191.787H134.115V189.715H147.055V191.787H144.82V205.211ZM141.597 205.418C142.043 205.418 142.374 205.408 142.585 205.394V191.787H138.58V205.418H141.597ZM151.914 189.005V208.665H149.635V189.005H151.914Z" fill="#FF0000"/>
<path d="M163.746 197.657L170.101 206.127L168.259 207.441L163.031 200.305C162.293 202.501 161.333 204.218 160.154 205.46C158.974 206.703 157.612 207.379 156.077 207.484V205.182C157.353 204.981 158.446 204.166 159.367 202.731C160.288 201.297 160.988 199.427 161.463 197.125C161.938 194.823 162.182 192.276 162.202 189.48L164.528 189.571C164.494 192.65 164.235 195.341 163.746 197.657ZM174.082 189.005V208.664H171.803V189.005H174.082Z" fill="#FF0000"/>
<path d="M190.058 199.062H178.571V189.345H180.806V192.175H187.827V189.345H190.062V199.062H190.058ZM193.659 201.791C195.204 202.429 195.971 203.413 195.971 204.751C195.971 206.089 195.199 207.072 193.659 207.71C192.115 208.348 190.082 208.664 187.549 208.664C185.017 208.664 182.978 208.348 181.439 207.71C179.895 207.072 179.127 206.089 179.127 204.751C179.127 203.413 179.899 202.429 181.439 201.791C182.983 201.154 185.017 200.837 187.549 200.837C190.082 200.837 192.12 201.154 193.659 201.791ZM187.827 197.178V194.046H180.806V197.178H187.827ZM191.89 206.281C193.002 205.935 193.559 205.427 193.559 204.751C193.559 204.074 193.002 203.566 191.89 203.221C190.777 202.875 189.329 202.703 187.549 202.703C185.784 202.703 184.341 202.875 183.223 203.221C182.101 203.566 181.544 204.074 181.544 204.751C181.544 205.427 182.101 205.935 183.213 206.281C184.326 206.626 185.775 206.799 187.554 206.799C189.333 206.799 190.777 206.626 191.89 206.281ZM198.436 193.149V195.336H195.674V200.218H193.396V189.005H195.674V193.149H198.436Z" fill="#FF0000"/>
<path d="M237.448 197.499C235.443 198.775 232.671 199.408 229.127 199.408V197.427C231.952 197.412 234.163 196.952 235.755 196.046C237.352 195.139 238.148 193.82 238.148 192.084V191.417H229.122V189.484H240.451V191.695C240.451 194.29 239.448 196.223 237.448 197.499ZM243.813 203.46L248.096 206.866L246.714 208.477L242.916 205.23C242.302 206.18 241.563 206.933 240.705 207.484C239.846 208.036 238.94 208.343 237.99 208.405L234.604 205.321C233.99 206.228 233.256 206.952 232.407 207.499C231.554 208.046 230.662 208.348 229.726 208.41V206.338C230.446 206.276 231.122 205.964 231.75 205.393C232.379 204.827 232.906 204.093 233.328 203.197C233.75 202.3 234 201.345 234.076 200.329L236.263 200.626C236.172 201.652 235.933 202.635 235.549 203.571L238.633 206.194C239.232 205.993 239.793 205.609 240.326 205.034C240.853 204.458 241.295 203.758 241.64 202.928C241.985 202.098 242.187 201.23 242.249 200.329L244.46 200.65C244.364 201.619 244.148 202.554 243.813 203.46ZM249.18 193.077V195.264H246.417V199.82H244.139V189H246.417V193.077H249.18Z" fill="#FF0000"/>
<path d="M258.547 198.026L264.969 205.969L263.175 207.326L257.88 200.583C257.204 202.64 256.297 204.261 255.151 205.451C254.009 206.64 252.69 207.321 251.204 207.489V205.235C252.355 205.019 253.348 204.314 254.187 203.115C255.021 201.916 255.674 200.343 256.134 198.396C256.594 196.449 256.839 194.252 256.873 191.811H251.669V189.715H264.216V191.811H259.175C259.156 193.993 258.945 196.065 258.547 198.026ZM269.112 189.005V208.664H266.834V189.005H269.112Z" fill="#FF0000"/>
<path d="M285.093 200.098H273.606V189.484H285.093V200.098ZM276.575 206.338H291.242V208.41H274.273V202.031H276.575V206.338ZM282.834 191.465H275.861V198.118H282.834V191.465ZM293.472 193.676V195.863H290.709V203.6H288.431V189.005H290.709V193.676H293.472Z" fill="#FF0000"/>
<path d="M211.817 189.163H213.957V208.362H211.817V199.408H209.218C209.156 202.276 208.743 204.391 207.976 205.749C207.208 207.106 206.105 207.787 204.662 207.787C203.141 207.787 202 207.048 201.232 205.566C200.465 204.084 200.081 201.777 200.081 198.65C200.081 195.518 200.465 193.211 201.232 191.734C202 190.252 203.141 189.514 204.662 189.514C206.057 189.514 207.136 190.142 207.894 191.403C208.652 192.66 209.088 194.612 209.194 197.25H211.817V189.163ZM206.465 203.988C206.858 202.837 207.05 201.058 207.05 198.645C207.05 196.238 206.853 194.454 206.465 193.303C206.072 192.151 205.472 191.576 204.657 191.576C203.841 191.576 203.237 192.151 202.839 193.303C202.441 194.454 202.24 196.233 202.24 198.645C202.24 201.053 202.441 202.837 202.839 203.988C203.237 205.139 203.846 205.715 204.657 205.715C205.467 205.715 206.072 205.139 206.465 203.988ZM218.724 189.048V208.708H216.561V189.048H218.724Z" fill="#FF0000"/>
</svg>
