<svg width="1614" height="156" viewBox="0 0 1614 156" fill="none" xmlns="http://www.w3.org/2000/svg">
<rect x="48.2144" y="31.5" width="693" height="42" fill="black" stroke="#FFE000"/>
<rect x="162.214" y="93.5" width="676" height="42" fill="black" stroke="#FFE000"/>
<path d="M217.016 60.2624C217.954 60.2624 218.872 60.1879 219.768 60.0442C220.664 59.9006 221.442 59.693 222.109 59.4163V61.6406C221.48 61.912 220.674 62.1248 219.704 62.2792C218.733 62.4335 217.741 62.508 216.733 62.508H211.714V42.7875H221.16V45.0331H214.194V60.2571H217.016V60.2624ZM232.072 42V63.8117H229.667V53.1586H226.109V63.4286H223.704V42.1277H226.109V50.7853H229.667V42H232.072Z" fill="white"/>
<path d="M256.065 60.6993V63.0844H234.253V60.6993H239.698V55.4598H235.377V53.102H239.24V45.1119H235.606V42.7268H254.685V45.1119H251.051V53.102H254.914V55.4598H250.62V60.6993H256.065ZM241.797 53.102H248.499V45.1119H241.797V53.102ZM242.229 60.6993H248.084V55.4598H242.229V60.6993Z" fill="white"/>
<path d="M263.831 53.1984C262.624 53.9911 261.245 54.4699 259.7 54.6401V52.3419C261.464 52.0706 262.874 51.2567 263.935 49.9054C264.991 48.5541 265.59 46.8305 265.72 44.7344H259.976V42.5639H273.587V44.7344H268.217C268.165 45.841 267.983 46.9209 267.666 47.9796L274.211 52.6026L272.889 54.4646L266.771 50.0703C266.016 51.363 265.038 52.4058 263.831 53.1984ZM260.996 56.4808H279.325V63.8117H276.802V58.6779H260.996V56.4808ZM279.331 42V55.2785H276.859V49.2245H272.739V47.0273H276.859V42H279.331Z" fill="white"/>
<path d="M286.889 53.8295C285.86 53.2979 285.072 52.5579 284.518 51.6147C283.964 50.6715 283.693 49.6084 283.693 48.4254C283.693 47.2425 283.97 46.1794 284.518 45.2362C285.072 44.2929 285.86 43.5582 286.889 43.0214C287.918 42.4899 289.114 42.2189 290.487 42.2189C291.856 42.2189 293.052 42.4846 294.07 43.0214C295.089 43.5529 295.877 44.2877 296.425 45.2205C296.979 46.1533 297.251 47.2216 297.251 48.4202C297.251 49.6188 296.974 50.6871 296.425 51.6199C295.872 52.5527 295.089 53.2875 294.07 53.819C293.052 54.3506 291.856 54.6216 290.487 54.6216C289.119 54.632 287.918 54.3662 286.889 53.8295ZM285.573 56.1068H288.106V60.8334H304.05V63.0846H285.573V56.1068ZM293.595 51.4167C294.378 50.6767 294.775 49.6761 294.775 48.4254C294.775 47.1748 294.378 46.1742 293.584 45.4238C292.791 44.6734 291.757 44.2982 290.487 44.2982C289.203 44.2982 288.158 44.6734 287.364 45.4238C286.571 46.1742 286.174 47.1748 286.174 48.4254C286.174 49.6761 286.571 50.6715 287.364 51.4167C288.158 52.1567 289.197 52.5319 290.487 52.5319C291.772 52.5319 292.811 52.1619 293.595 51.4167ZM300.99 42H303.471V57.8577H300.99V42Z" fill="white"/>
<path d="M335.314 51.1973V53.1188H314.229V51.1973H323.551V49.7276C321.11 49.6445 319.158 49.2913 317.69 48.6681C316.222 48.045 315.491 47.1102 315.491 45.8638C315.491 44.5343 316.346 43.558 318.05 42.9348C319.755 42.3116 321.995 42 324.761 42C327.527 42 329.767 42.3116 331.472 42.9348C333.176 43.558 334.031 44.5343 334.031 45.8638C334.031 47.1102 333.3 48.045 331.832 48.6681C330.364 49.2913 328.412 49.6445 325.971 49.7276V51.1973H335.314ZM318.081 61.241H334.222V63.0846H315.681V58.0004H331.456V56.5047H315.635V54.6611H333.851V59.7454H318.081V61.241ZM319.884 47.3594C321.135 47.6918 322.758 47.858 324.756 47.858C326.749 47.858 328.371 47.6918 329.628 47.3594C330.879 47.0271 331.508 46.5285 331.508 45.8638C331.508 45.199 330.879 44.7005 329.618 44.3681C328.356 44.0358 326.739 43.8696 324.761 43.8696C322.783 43.8696 321.166 44.0358 319.904 44.3681C318.643 44.7005 318.014 45.199 318.014 45.8638C318.009 46.5285 318.632 47.0271 319.884 47.3594Z" fill="white"/>
<path d="M360.034 51.229V53.106H338.949V51.229H360.034ZM342.807 61.3088H358.947V63.0844H340.407V58.0926H356.176V56.5809H340.355V54.8054H358.576V59.7971H342.807V61.3088ZM356.053 48.4744H340.407V46.6481H356.053V44.5531H340.407V42.7268H358.504V50.1789H356.058V48.4744H356.053Z" fill="white"/>
<path d="M373.807 50.8903C372.514 51.5991 371.073 52.0524 369.485 52.2557V50.0566C370.866 49.8221 372.077 49.3322 373.125 48.5818C374.173 47.8314 374.98 46.9038 375.548 45.7938C376.115 44.6838 376.399 43.4904 376.399 42.2032L378.991 42.3544C378.991 43.7718 378.713 45.0903 378.151 46.3045L385.25 50.0305L383.995 51.9065L377.026 48.1545C376.17 49.2697 375.1 50.1816 373.807 50.8903ZM390.57 61.1356V63.0846H371.084V57.4304H387.454V55.5804H371.03V53.6315H390.019V59.2856H373.649V61.1356H390.57ZM390.019 52.4537H387.427V42H390.019V52.4537Z" fill="white"/>
<path d="M403.053 60.007C404.058 59.8527 404.935 59.5973 405.679 59.2408V61.4863C404.999 61.8269 404.053 62.0823 402.846 62.2526C401.639 62.4228 400.262 62.508 398.71 62.508H393.478V60.2624H395.419V45.0384H393.633V42.7929H404.861V45.0384H403.048V60.007H403.053ZM398.789 60.2624C399.709 60.2624 400.374 60.2464 400.778 60.2092V45.0384H397.689V60.2624H398.789ZM414.563 42V63.8117H412.24V53.1586H408.976V63.4286H406.652V42.1277H408.976V50.7853H412.24V42H414.563Z" fill="white"/>
<path d="M430.559 53.9337H424.742V51.8805H433.439C436.725 51.8805 439.025 51.5991 440.34 51.0311V53.0843C439.092 53.6523 436.766 53.9337 433.367 53.9337H432.998V57.7587H430.559V53.9337ZM427.715 49.2801C426.575 48.5453 426 47.5187 426 46.2055C426 44.887 426.57 43.8656 427.715 43.1413C428.854 42.4169 430.364 42.0521 432.238 42.0521C434.112 42.0521 435.616 42.4169 436.761 43.1413C437.901 43.8656 438.476 44.887 438.476 46.2055C438.476 47.5239 437.906 48.5505 436.761 49.2801C435.621 50.0148 434.112 50.3797 432.238 50.3797C430.364 50.3797 428.854 50.0148 427.715 49.2801ZM445.099 60.9845V63.0846H426.688V56.6071H429.127V60.9845H445.099ZM429.45 44.5639C428.741 44.9391 428.392 45.4863 428.392 46.2002C428.392 46.9142 428.747 47.4666 429.45 47.8522C430.159 48.2378 431.083 48.4254 432.233 48.4254C433.383 48.4254 434.312 48.2326 435.016 47.8522C435.719 47.4718 436.073 46.9194 436.073 46.2002C436.073 45.4811 435.719 44.9391 435.016 44.5639C434.312 44.1887 433.383 44.0011 432.233 44.0011C431.088 44.0011 430.159 44.1887 429.45 44.5639ZM442.121 55.4085V42H444.56V58.7332H442.121V57.4096H435.74V55.4085H442.121Z" fill="white"/>
<path d="M451.931 53.8295C450.902 53.2979 450.113 52.5579 449.56 51.6147C449.006 50.6715 448.734 49.6084 448.734 48.4254C448.734 47.2425 449.011 46.1794 449.56 45.2362C450.113 44.2929 450.902 43.5582 451.931 43.0214C452.959 42.4899 454.155 42.2189 455.529 42.2189C456.897 42.2189 458.093 42.4846 459.112 43.0214C460.13 43.5529 460.919 44.2877 461.467 45.2205C462.021 46.1533 462.292 47.2216 462.292 48.4202C462.292 49.6188 462.015 50.6871 461.467 51.6199C460.913 52.5527 460.13 53.2875 459.112 53.819C458.093 54.3506 456.897 54.6216 455.529 54.6216C454.161 54.632 452.959 54.3662 451.931 53.8295ZM450.614 56.1068H453.147V60.8334H469.092V63.0846H450.614V56.1068ZM458.636 51.4167C459.42 50.6767 459.817 49.6761 459.817 48.4254C459.817 47.1748 459.42 46.1742 458.626 45.4238C457.832 44.6734 456.798 44.2982 455.529 44.2982C454.244 44.2982 453.2 44.6734 452.406 45.4238C451.612 46.1742 451.215 47.1748 451.215 48.4254C451.215 49.6761 451.612 50.6715 452.406 51.4167C453.2 52.1619 454.239 52.5319 455.529 52.5319C456.819 52.5319 457.853 52.1619 458.636 51.4167ZM466.032 42H468.512V57.8577H466.032V42Z" fill="white"/>
<path d="M486.001 42.1277H488.42V63.4286H486.001V53.4938H483.061C482.99 56.6759 482.524 59.0226 481.656 60.5285C480.788 62.0344 479.54 62.79 477.908 62.79C476.188 62.79 474.897 61.9705 474.029 60.3263C473.161 58.682 472.727 56.1225 472.727 52.6531C472.727 49.1783 473.161 46.6241 474.029 44.9799C474.897 43.3356 476.188 42.5162 477.908 42.5162C479.486 42.5162 480.707 43.2132 481.564 44.6127C482.421 46.0122 482.914 48.1726 483.034 51.0993H486.001V42.1277ZM479.947 58.5756C480.392 57.2985 480.609 55.3243 480.609 52.6478C480.609 49.9765 480.387 47.997 479.947 46.7199C479.502 45.4428 478.824 44.8043 477.902 44.8043C476.98 44.8043 476.297 45.4428 475.846 46.7199C475.396 47.997 475.168 49.9712 475.168 52.6478C475.168 55.319 475.396 57.2985 475.846 58.5756C476.297 59.8527 476.985 60.4912 477.902 60.4912C478.819 60.4912 479.508 59.8527 479.947 58.5756ZM493.812 42V63.8117H491.366V42H493.812Z" fill="white"/>
<path d="M509.831 60.2624C510.736 60.2624 511.621 60.1879 512.485 60.0442C513.349 59.9006 514.101 59.693 514.744 59.4163V61.6406C514.137 61.912 513.36 62.1248 512.424 62.2792C511.487 62.4335 510.53 62.508 509.558 62.508H504.717V42.7875H513.828V45.0331H507.109V60.2571H509.831V60.2624ZM524.348 42V63.8117H522.028V53.1586H518.597V63.4286H516.277V42.1277H518.597V50.7853H522.028V42H524.348Z" fill="white"/>
<path d="M541.846 46.3521H527.256V44.3604H533.293V42H535.809V44.3604H541.846V46.3521ZM531.297 55.6297C530.333 55.2918 529.573 54.8003 529.022 54.1449C528.467 53.4895 528.194 52.7215 528.194 51.8357C528.194 50.9499 528.472 50.1819 529.022 49.5265C529.578 48.8712 530.333 48.3745 531.297 48.0417C532.261 47.7038 533.346 47.5399 534.556 47.5399C535.767 47.5399 536.846 47.7089 537.8 48.0417C538.754 48.3797 539.508 48.8712 540.064 49.5163C540.619 50.1615 540.892 50.9397 540.892 51.8408C540.892 52.742 540.614 53.5151 540.064 54.1654C539.508 54.8105 538.754 55.302 537.8 55.64C536.846 55.9779 535.762 56.1418 534.556 56.1418C533.351 56.1418 532.261 55.9625 531.297 55.6297ZM531.333 60.9239H547.358V63.0846H528.818V57.3347H531.333V60.9239ZM531.685 50.0847C530.961 50.5455 530.605 51.124 530.605 51.8306C530.605 52.5525 530.967 53.1362 531.685 53.5868C532.408 54.0374 533.361 54.2626 534.551 54.2626C535.741 54.2626 536.7 54.0374 537.417 53.5868C538.141 53.1362 538.497 52.5525 538.497 51.8306C538.497 51.124 538.135 50.5455 537.417 50.0847C536.7 49.6238 535.741 49.3985 534.551 49.3985C533.361 49.3985 532.408 49.629 531.685 50.0847ZM549.795 48.1185V50.4533H546.777V58.0976H544.288V42.3686H546.777V48.1185H549.795Z" fill="white"/>
<path d="M567.323 51.7059L573.942 61.0021L571.973 62.4601L566.559 54.6698C565.805 57.0697 564.805 58.9481 563.554 60.2997C562.308 61.6513 560.872 62.3909 559.247 62.508V59.9538C560.611 59.7303 561.77 58.831 562.729 57.2453C563.687 55.6596 564.415 53.5949 564.908 51.0407C565.4 48.4866 565.656 45.6504 565.672 42.5374L568.158 42.6386C568.128 46.0973 567.851 49.1198 567.323 51.7059ZM581.059 53.265H578.105V63.8117H575.67V42H578.105V50.8385H581.059V53.265Z" fill="white"/>
<path d="M588.139 60.2624C590.675 60.2624 592.707 59.9219 594.24 59.2408V61.5129C593.55 61.8375 592.66 62.0823 591.585 62.2526C590.505 62.4228 589.317 62.508 588.015 62.508H583.967V51.3441H589.867V45.0331H583.967V42.7875H592.141V53.5896H586.24V60.2571H588.139V60.2624ZM596.236 42.1277H598.53V63.4286H596.236V55.766H593.448V53.4406H596.236V49.4284H593.448V47.1031H596.236V42.1277ZM603.597 42V63.8117H601.303V42H603.597Z" fill="white"/>
<path d="M620.903 42.1277H623.191V63.4286H620.903V57.5007H617.484C617.149 59.2886 616.599 60.6189 615.84 61.4863C615.08 62.3537 614.101 62.79 612.913 62.79C611.269 62.79 610.033 61.9705 609.206 60.3263C608.378 58.682 607.959 56.1225 607.959 52.6531C607.959 49.1783 608.373 46.6241 609.206 44.9799C610.033 43.3356 611.269 42.5162 612.913 42.5162C615.159 42.5162 616.625 44.0327 617.311 47.0605H620.903V42.1277ZM614.871 58.5916C615.29 57.3251 615.499 55.3456 615.499 52.6531C615.499 49.9606 615.29 47.981 614.871 46.7146C614.452 45.4481 613.798 44.8096 612.913 44.8096C612.023 44.8096 611.368 45.4482 610.939 46.7252C610.509 48.0023 610.3 49.9765 610.3 52.6531C610.3 55.3243 610.515 57.3038 610.939 58.5809C611.368 59.858 612.023 60.4966 612.913 60.4966C613.798 60.4912 614.452 59.858 614.871 58.5916ZM620.903 55.1807V49.3805H617.688C617.787 50.349 617.84 51.4398 617.84 52.6478C617.84 53.5683 617.814 54.4091 617.766 55.1753H620.903V55.1807ZM628.317 42V63.8117H625.982V42H628.317Z" fill="white"/>
<path d="M653.038 60.7628V63.0844H631.226V60.7628H636.239V54.8712C634.977 54.2921 634.002 53.5325 633.309 52.5868C632.616 51.6412 632.275 50.5681 632.275 49.3621C632.275 48.034 632.68 46.8706 633.49 45.8665C634.3 44.8624 635.451 44.0921 636.942 43.5449C638.434 43.0031 640.16 42.7268 642.121 42.7268C644.082 42.7268 645.808 42.9977 647.3 43.5449C648.791 44.0868 649.942 44.8624 650.752 45.8665C651.562 46.8706 651.967 48.034 651.967 49.3621C651.967 50.5681 651.62 51.6465 650.933 52.5868C650.24 53.5325 649.276 54.2815 648.029 54.8447V60.7628H653.038ZM635.856 51.62C636.452 52.2734 637.294 52.7781 638.376 53.1393C639.457 53.5006 640.709 53.6759 642.121 53.6759C643.533 53.6759 644.79 53.4953 645.882 53.1393C646.975 52.7834 647.816 52.2787 648.413 51.62C649.01 50.9665 649.308 50.2121 649.308 49.3621C649.308 48.4962 649.01 47.7365 648.413 47.0778C647.816 46.4243 646.969 45.9196 645.882 45.5584C644.796 45.1971 643.538 45.0218 642.121 45.0218C640.704 45.0218 639.457 45.2024 638.376 45.5584C637.294 45.9143 636.452 46.419 635.856 47.0778C635.259 47.7312 634.961 48.4909 634.961 49.3621C634.961 50.2121 635.259 50.9665 635.856 51.62ZM638.77 60.7628H645.493V55.6628C644.471 55.8646 643.346 55.9709 642.116 55.9709C640.906 55.9709 639.787 55.87 638.765 55.6628V60.7628H638.77Z" fill="white"/>
<path d="M655.746 62.6656C655.391 62.3833 655.219 62.0412 655.219 61.6306C655.219 61.2201 655.396 60.8737 655.746 60.5957C656.095 60.3177 656.531 60.1765 657.047 60.1765C657.563 60.1765 657.993 60.3177 658.338 60.5957C658.682 60.8779 658.854 61.2201 658.854 61.6306C658.854 62.0412 658.682 62.3876 658.338 62.6656C657.993 62.9479 657.563 63.0847 657.047 63.0847C656.531 63.0847 656.1 62.9479 655.746 62.6656Z" fill="white"/>
<path d="M325.881 122.366C324.883 121.676 324.11 120.623 323.552 119.207C322.993 117.792 322.714 116.039 322.714 113.938C322.714 111.842 322.993 110.084 323.552 108.668C324.11 107.253 324.888 106.2 325.881 105.51C326.88 104.819 328.045 104.472 329.387 104.472C330.707 104.472 331.867 104.819 332.865 105.51C333.864 106.2 334.637 107.253 335.195 108.668C335.753 110.084 336.032 111.837 336.032 113.938C336.032 116.034 335.753 117.792 335.195 119.207C334.637 120.623 333.858 121.676 332.865 122.366C331.867 123.056 330.707 123.404 329.387 123.404C328.045 123.404 326.88 123.061 325.881 122.366ZM332.35 119.436C333.107 118.234 333.482 116.406 333.482 113.943C333.482 111.494 333.107 109.667 332.35 108.46C331.593 107.253 330.605 106.647 329.387 106.647C328.152 106.647 327.154 107.248 326.397 108.445C325.64 109.647 325.264 111.475 325.264 113.938C325.264 116.401 325.64 118.234 326.386 119.431C327.132 120.628 328.136 121.229 329.387 121.229C330.605 121.234 331.593 120.638 332.35 119.436ZM339.768 104H342.345V124.358H339.768V104Z" fill="white"/>
<path d="M364.993 114.973V116.923C367.449 117.004 369.406 117.334 370.864 117.921C372.321 118.507 373.053 119.4 373.053 120.603C373.053 121.916 372.198 122.874 370.493 123.465C368.788 124.057 366.548 124.358 363.782 124.358C361.017 124.358 358.777 124.062 357.072 123.465C355.367 122.869 354.512 121.916 354.512 120.603C354.512 119.4 355.244 118.507 356.701 117.921C358.159 117.334 360.116 117.004 362.572 116.923V114.973H353.25V113.048H374.335V114.973H364.993ZM363.432 109.003C362.392 109.805 361.068 110.427 359.451 110.868C357.834 111.309 356.129 111.544 354.332 111.58V109.63C355.62 109.599 356.876 109.434 358.102 109.138C359.328 108.843 360.383 108.421 361.264 107.875C362.145 107.329 362.696 106.682 362.907 105.925H354.677V104H372.872V105.925H365.405C365.338 106.471 365.147 106.978 364.838 107.439L373.439 109.795L372.795 111.67L363.432 109.003ZM368.577 119.209C367.31 118.919 365.709 118.778 363.782 118.778C361.856 118.778 360.26 118.924 358.998 119.209C357.736 119.5 357.108 119.961 357.108 120.603C357.108 121.26 357.736 121.736 358.998 122.037C360.26 122.332 361.851 122.483 363.782 122.483C365.709 122.483 367.31 122.332 368.577 122.037C369.844 121.741 370.483 121.265 370.483 120.603C370.478 119.961 369.844 119.495 368.577 119.209Z" fill="white"/>
<path d="M404.871 104V124.358H402.262V114.653H397.939C397.835 117.544 397.181 119.729 395.973 121.199C394.77 122.669 393.193 123.404 391.238 123.404C389.183 123.404 387.546 122.609 386.332 121.02C385.118 119.431 384.514 117.072 384.514 113.938C384.514 110.809 385.118 108.445 386.332 106.856C387.546 105.266 389.178 104.472 391.238 104.472C393.116 104.472 394.649 105.137 395.824 106.473C397 107.809 397.686 109.796 397.879 112.433H402.257V104H404.871ZM394.209 119.436C394.956 118.234 395.33 116.406 395.33 113.943C395.33 111.48 394.956 109.647 394.209 108.45C393.462 107.248 392.473 106.652 391.243 106.652C389.996 106.652 388.996 107.253 388.249 108.45C387.502 109.652 387.129 111.48 387.129 113.943C387.129 116.406 387.502 118.239 388.249 119.436C388.996 120.638 389.996 121.234 391.243 121.234C392.473 121.234 393.462 120.638 394.209 119.436Z" fill="white"/>
<path d="M413.935 116.247C413.282 116.327 412.63 116.367 411.977 116.367H409.234V104.508H415.5V106.511H411.61V114.36H412.589C413.813 114.36 414.817 114.229 415.597 113.972V115.905C415.143 116.051 414.588 116.166 413.935 116.247ZM428.864 122.234V124.358H410.509V118.103H412.982V122.234H428.864ZM419.564 116.367H416.505V104.508H422.894V106.511H418.881V114.36H420.054C421.425 114.36 422.552 114.174 423.429 113.806V115.789C422.516 116.171 421.231 116.367 419.564 116.367ZM426.024 109.072V104H428.421V119.386H426.024V111.15H422.012V109.072H426.024Z" fill="white"/>
<path d="M447.657 113.059L454.718 121.735L452.618 123.096L446.842 115.825C446.038 118.065 444.972 119.818 443.637 121.08C442.308 122.341 440.777 123.032 439.043 123.141V120.757C440.498 120.548 441.734 119.709 442.757 118.229C443.78 116.749 444.556 114.822 445.081 112.438C445.606 110.054 445.88 107.407 445.896 104.502L448.549 104.596C448.516 107.824 448.22 110.645 447.657 113.059ZM462.309 114.514H459.159V124.358H456.561V104H459.159V112.249H462.309V114.514Z" fill="white"/>
<path d="M468.09 121.045C470.72 121.045 472.827 120.727 474.417 120.091V122.212C473.702 122.515 472.784 122.743 471.664 122.902C470.544 123.061 469.311 123.141 467.962 123.141H463.763V112.721H469.882V106.831H463.763V104.735H472.24V114.817H466.116V121.04H468.09V121.045ZM476.487 104.119H478.866V124H476.487V116.848H473.595V114.678H476.487V110.933H473.595V108.763H476.487V104.119ZM484.121 104V124.358H481.741V104H484.121Z" fill="white"/>
<path d="M500.114 104.119H502.366V124H500.114V114.728H497.377C497.311 117.698 496.877 119.888 496.069 121.293C495.261 122.699 494.099 123.404 492.579 123.404C490.978 123.404 489.776 122.639 488.968 121.104C488.16 119.57 487.756 117.181 487.756 113.943C487.756 110.7 488.16 108.316 488.968 106.781C489.776 105.247 490.978 104.482 492.579 104.482C494.049 104.482 495.185 105.132 495.983 106.439C496.781 107.745 497.24 109.761 497.351 112.493H500.114V104.119ZM494.478 119.471C494.892 118.279 495.094 116.436 495.094 113.938C495.094 111.445 494.887 109.597 494.478 108.405C494.064 107.213 493.432 106.617 492.574 106.617C491.715 106.617 491.079 107.213 490.66 108.405C490.241 109.597 490.028 111.44 490.028 113.938C490.028 116.431 490.241 118.279 490.66 119.471C491.079 120.662 491.72 121.258 492.574 121.258C493.432 121.258 494.064 120.662 494.478 119.471ZM507.386 104V124.358H505.109V104H507.386Z" fill="white"/>
<path d="M524.758 107.21H529.404V109.326H517.565V107.21H522.211V104H524.753V107.21H524.758ZM526.267 111.65C527.046 112.135 527.657 112.844 528.095 113.78C528.539 114.716 528.755 115.841 528.755 117.159C528.755 118.477 528.533 119.601 528.095 120.538C527.652 121.474 527.046 122.183 526.267 122.668C525.489 123.154 524.596 123.391 523.596 123.391C522.595 123.391 521.703 123.149 520.935 122.668C520.167 122.183 519.561 121.474 519.118 120.538C518.674 119.601 518.458 118.477 518.458 117.159C518.458 115.841 518.68 114.716 519.118 113.78C519.561 112.844 520.167 112.135 520.935 111.65C521.703 111.164 522.59 110.926 523.596 110.926C524.602 110.926 525.489 111.164 526.267 111.65ZM525.618 120.211C526.138 119.473 526.397 118.457 526.397 117.154C526.397 115.851 526.138 114.835 525.618 114.097C525.099 113.359 524.423 112.992 523.596 112.992C522.784 112.992 522.119 113.359 521.611 114.097C521.102 114.835 520.843 115.851 520.843 117.154C520.843 118.457 521.097 119.473 521.611 120.211C522.119 120.949 522.784 121.316 523.596 121.316C524.423 121.316 525.099 120.944 525.618 120.211ZM539.377 104.05V124.358H536.987V114.439H533.428V124.001H531.038V104.168H533.428V112.229H536.987V104.05H539.377Z" fill="white"/>
<path d="M555.274 113.834C554.012 114.002 552.598 114.082 551.031 114.082H543.012V104.497H556.618V106.498H545.596V112.075H551.183C552.696 112.075 554.067 111.996 555.296 111.837C556.526 111.678 557.494 111.455 558.207 111.172V113.173C557.516 113.446 556.537 113.665 555.274 113.834ZM560.132 116.948C561.884 117.633 562.755 118.696 562.755 120.141C562.755 121.586 561.879 122.654 560.132 123.334C558.386 124.015 556.074 124.358 553.202 124.358C550.329 124.358 548.017 124.015 546.271 123.334C544.519 122.649 543.649 121.586 543.649 120.141C543.649 118.696 544.525 117.628 546.271 116.948C548.023 116.262 550.329 115.924 553.202 115.924C556.069 115.92 558.381 116.262 560.132 116.948ZM558.109 121.83C559.36 121.447 559.991 120.886 559.991 120.136C559.991 119.391 559.365 118.825 558.109 118.442C556.857 118.06 555.22 117.871 553.202 117.871C551.2 117.871 549.568 118.06 548.306 118.442C547.043 118.825 546.412 119.386 546.412 120.136C546.412 120.881 547.038 121.447 548.295 121.83C549.546 122.212 551.183 122.401 553.202 122.401C555.22 122.406 556.852 122.212 558.109 121.83ZM565.551 108.172V110.437H562.417V115.254H559.833V104H562.417V108.172H565.551Z" fill="white"/>
<path d="M575.623 107.26H581.102V109.351H567.732V107.26H573.186V104H575.623V107.26ZM577.382 111.744C578.252 112.259 578.925 112.987 579.408 113.934C579.89 114.88 580.132 115.96 580.132 117.179C580.132 118.397 579.89 119.482 579.408 120.424C578.925 121.365 578.252 122.098 577.382 122.614C576.513 123.129 575.523 123.386 574.417 123.386C573.311 123.386 572.316 123.129 571.452 122.614C570.582 122.098 569.903 121.37 569.411 120.424C568.918 119.482 568.677 118.397 568.677 117.179C568.677 115.96 568.923 114.875 569.411 113.934C569.903 112.992 570.582 112.259 571.452 111.744C572.321 111.228 573.311 110.971 574.417 110.971C575.523 110.971 576.513 111.228 577.382 111.744ZM576.151 120.84C576.664 120.508 577.071 120.022 577.367 119.388C577.664 118.754 577.815 118.016 577.815 117.179C577.815 116.341 577.664 115.603 577.367 114.969C577.071 114.335 576.664 113.849 576.151 113.517C575.638 113.185 575.055 113.017 574.412 113.017C573.417 113.017 572.592 113.393 571.949 114.147C571.306 114.9 570.984 115.91 570.984 117.179C570.984 118.447 571.306 119.458 571.949 120.211C572.592 120.964 573.412 121.34 574.412 121.34C575.06 121.34 575.638 121.172 576.151 120.84ZM588.817 114.538H585.922V124.358H583.534V104.05H585.922V112.279H588.817V114.538Z" fill="white"/>
<path d="M599.36 112.964L606.288 121.735L604.28 123.096L598.58 115.706C597.775 117.981 596.729 119.759 595.443 121.045C594.156 122.331 592.671 123.032 590.998 123.141V120.757C592.389 120.548 593.581 119.704 594.585 118.219C595.589 116.734 596.353 114.797 596.87 112.413C597.388 110.029 597.655 107.392 597.676 104.497L600.212 104.591C600.181 107.775 599.893 110.566 599.36 112.964ZM610.629 104V124.358H608.145V104H610.629Z" fill="white"/>
<path d="M624.822 120.951C625.826 120.951 626.83 120.866 627.824 120.702C628.823 120.533 629.641 120.31 630.285 120.022V122.167C629.657 122.47 628.843 122.709 627.839 122.883C626.835 123.056 625.811 123.146 624.776 123.146H616.445V104.621H618.942V120.951H624.822ZM637.529 114.514H634.564V124.358H632.118V104H634.564V112.249H637.529V114.514Z" fill="white"/>
<path d="M660.795 122.119V124.358H638.983V122.119H643.997V116.438C642.734 115.88 641.759 115.147 641.067 114.235C640.374 113.323 640.033 112.289 640.033 111.126C640.033 109.845 640.438 108.723 641.248 107.755C642.057 106.787 643.208 106.044 644.7 105.516C646.192 104.994 647.918 104.727 649.879 104.727C651.839 104.727 653.565 104.989 655.057 105.516C656.549 106.039 657.7 106.787 658.509 107.755C659.319 108.723 659.724 109.845 659.724 111.126C659.724 112.289 659.378 113.328 658.691 114.235C657.998 115.147 657.034 115.869 655.787 116.412V122.119H660.795ZM643.613 113.303C644.21 113.933 645.052 114.42 646.133 114.768C647.215 115.116 648.467 115.285 649.879 115.285C651.29 115.285 652.548 115.111 653.64 114.768C654.732 114.425 655.574 113.938 656.171 113.303C656.767 112.673 657.066 111.945 657.066 111.126C657.066 110.291 656.767 109.558 656.171 108.923C655.574 108.293 654.727 107.806 653.64 107.458C652.553 107.109 651.296 106.94 649.879 106.94C648.461 106.94 647.215 107.115 646.133 107.458C645.052 107.801 644.21 108.288 643.613 108.923C643.016 109.553 642.718 110.286 642.718 111.126C642.718 111.945 643.011 112.673 643.613 113.303ZM646.527 122.119H653.251V117.201C652.228 117.396 651.104 117.498 649.873 117.498C648.664 117.498 647.545 117.401 646.522 117.201V122.119H646.527Z" fill="white"/>
<path d="M668.743 115.408C669.14 114.572 669.878 113.814 670.944 113.145C671.846 112.548 672.493 112.011 672.891 111.527C673.289 111.043 673.49 110.485 673.49 109.86C673.49 108.951 673.146 108.227 672.461 107.68C671.777 107.132 670.827 106.858 669.623 106.858C668.79 106.858 668.074 107.025 667.469 107.352C666.865 107.68 666.408 108.105 666.095 108.618C665.782 109.136 665.607 109.674 665.576 110.236H662.976C663.008 109.234 663.305 108.31 663.867 107.469C664.43 106.624 665.204 105.954 666.196 105.465C667.188 104.972 668.323 104.727 669.597 104.727C670.939 104.727 672.095 104.952 673.071 105.397C674.047 105.842 674.79 106.453 675.299 107.225C675.809 107.997 676.063 108.877 676.063 109.865C676.063 111.492 675.119 112.925 673.236 114.156C672.504 114.611 671.952 115.07 671.581 115.54C671.209 116.009 670.955 116.493 670.827 116.996C670.7 117.495 670.636 118.091 670.636 118.781H668.143C668.143 117.368 668.345 116.244 668.743 115.408ZM668.117 123.854C667.761 123.517 667.581 123.106 667.581 122.623C667.581 122.139 667.761 121.733 668.117 121.401C668.472 121.073 668.912 120.907 669.443 120.907C669.973 120.907 670.414 121.073 670.78 121.401C671.146 121.728 671.326 122.134 671.326 122.623C671.326 123.121 671.146 123.537 670.79 123.864C670.435 124.192 669.984 124.358 669.443 124.358C668.918 124.358 668.477 124.192 668.117 123.854Z" fill="white"/>
<path d="M56.8301 3.31642L2.62849 97.0422C0.843859 100.131 3.07041 104 6.65666 104H115.06C118.629 104 120.873 100.131 119.088 97.0422L64.8864 3.31642C63.0848 0.227861 58.6147 0.227861 56.8301 3.31642Z" fill="#FFE000" stroke="black" stroke-width="2" stroke-miterlimit="10"/>
<path d="M63.9667 69.6702H57.7477L55.4368 42.3472H66.2606L63.9667 69.6702ZM64.6804 74.8357C65.6829 75.8382 66.1757 77.1126 66.1757 78.6418C66.1757 80.1881 65.6829 81.4456 64.6804 82.4311C63.6778 83.4166 62.4035 83.9094 60.8742 83.9094C59.3449 83.9094 58.0705 83.4166 57.068 82.4311C56.0655 81.4456 55.5727 80.1881 55.5727 78.6418C55.5727 77.1126 56.0655 75.8382 57.068 74.8357C58.0705 73.8331 59.3449 73.3404 60.8742 73.3404C62.4035 73.3404 63.6778 73.8331 64.6804 74.8357Z" fill="black"/>
<rect x="1306.5" y="114.5" width="307" height="40.3979" fill="black" stroke="#FFE000"/>
<path d="M1331.33 141.503C1330.6 140.957 1330.03 140.126 1329.62 139.008C1329.21 137.891 1329 136.506 1329 134.847C1329 133.192 1329.21 131.804 1329.62 130.686C1330.03 129.569 1330.6 128.737 1331.33 128.192C1332.07 127.647 1332.93 127.373 1333.92 127.373C1334.89 127.373 1335.75 127.647 1336.48 128.192C1337.22 128.737 1337.79 129.569 1338.2 130.686C1338.61 131.804 1338.82 133.189 1338.82 134.847C1338.82 136.502 1338.61 137.891 1338.2 139.008C1337.79 140.126 1337.21 140.957 1336.48 141.503C1335.75 142.048 1334.89 142.322 1333.92 142.322C1332.93 142.322 1332.07 142.052 1331.33 141.503ZM1336.1 139.189C1336.66 138.24 1336.94 136.797 1336.94 134.851C1336.94 132.918 1336.66 131.475 1336.1 130.522C1335.54 129.569 1334.82 129.09 1333.92 129.09C1333.01 129.09 1332.27 129.565 1331.71 130.51C1331.16 131.459 1330.88 132.902 1330.88 134.847C1330.88 136.793 1331.16 138.24 1331.71 139.185C1332.26 140.13 1333 140.605 1333.92 140.605C1334.82 140.608 1335.54 140.138 1336.1 139.189ZM1341.57 127H1343.47V143.075H1341.57V127Z" fill="white"/>
<path d="M1346.68 127.584H1355.7V142.118H1346.68V127.584ZM1353.85 140.365V129.333H1348.53V140.365H1353.85ZM1358.77 127H1360.61V143.075H1358.77V127Z" fill="white"/>
<path d="M1370.3 134.381L1375.49 140.875L1374.04 141.985L1369.76 136.471C1369.21 138.153 1368.48 139.479 1367.55 140.452C1366.63 141.424 1365.57 141.981 1364.37 142.118V140.275C1365.3 140.099 1366.1 139.522 1366.78 138.542C1367.45 137.561 1367.98 136.275 1368.35 134.683C1368.72 133.09 1368.92 131.294 1368.95 129.298H1364.74V127.584H1374.88V129.298H1370.81C1370.79 131.079 1370.62 132.773 1370.3 134.381ZM1378.83 127V143.075H1376.99V127H1378.83Z" fill="white"/>
<path d="M1411.16 127.094H1412.88V142.793H1411.16V135.471H1409.07C1409.02 137.816 1408.68 139.546 1408.07 140.655C1407.45 141.765 1406.56 142.322 1405.4 142.322C1404.18 142.322 1403.26 141.718 1402.64 140.506C1402.02 139.295 1401.71 137.408 1401.71 134.851C1401.71 132.29 1402.02 130.408 1402.64 129.196C1403.26 127.984 1404.18 127.38 1405.4 127.38C1406.52 127.38 1407.39 127.894 1408 128.926C1408.61 129.957 1408.96 131.549 1409.05 133.706H1411.16V127.094ZM1406.85 139.216C1407.17 138.275 1407.32 136.82 1407.32 134.847C1407.32 132.879 1407.16 131.42 1406.85 130.479C1406.53 129.537 1406.05 129.067 1405.4 129.067C1404.74 129.067 1404.25 129.537 1403.93 130.479C1403.61 131.42 1403.45 132.875 1403.45 134.847C1403.45 136.816 1403.61 138.275 1403.93 139.216C1404.25 140.157 1404.74 140.628 1405.4 140.628C1406.05 140.628 1406.53 140.157 1406.85 139.216ZM1416.72 127V143.075H1414.98V127H1416.72Z" fill="white"/>
<path d="M1424.75 127.584H1433.7V142.118H1424.75V127.584ZM1426.62 140.385H1431.84V129.314H1426.62V140.385ZM1440.83 135.302H1438.57V143.075H1436.7V127H1438.57V133.514H1440.83V135.302Z" fill="white"/>
<path d="M1457.98 139.175H1451.11V143.611H1449.27V139.175H1442.44V137.465H1457.97V139.175H1457.98ZM1446.56 135.488C1445.51 135.148 1444.71 134.661 1444.14 134.022C1443.57 133.384 1443.28 132.634 1443.28 131.767C1443.28 130.901 1443.56 130.151 1444.14 129.512C1444.71 128.874 1445.51 128.387 1446.56 128.046C1447.6 127.706 1448.82 127.536 1450.2 127.536C1451.59 127.536 1452.8 127.706 1453.84 128.046C1454.89 128.387 1455.7 128.874 1456.26 129.512C1456.83 130.151 1457.12 130.901 1457.12 131.767C1457.12 132.634 1456.84 133.384 1456.26 134.022C1455.7 134.661 1454.89 135.148 1453.84 135.488C1452.8 135.829 1451.59 135.999 1450.2 135.999C1448.82 135.999 1447.6 135.829 1446.56 135.488ZM1446.55 129.872C1445.62 130.329 1445.15 130.963 1445.15 131.767C1445.15 132.572 1445.62 133.202 1446.55 133.663C1447.48 134.119 1448.69 134.351 1450.2 134.351C1451.7 134.351 1452.92 134.123 1453.85 133.663C1454.78 133.206 1455.24 132.572 1455.24 131.767C1455.24 130.963 1454.78 130.332 1453.85 129.872C1452.92 129.416 1451.7 129.184 1450.2 129.184C1448.69 129.188 1447.48 129.416 1446.55 129.872Z" fill="white"/>
<path d="M1475.66 140.755V142.539H1460.12V140.755H1475.66ZM1464.43 135.952C1463.16 136.809 1461.83 137.241 1460.43 137.241V135.436C1461.52 135.436 1462.58 135.056 1463.6 134.291C1464.62 133.531 1465.49 132.507 1466.21 131.218C1466.93 129.929 1467.43 128.525 1467.7 127L1469.56 127.344C1469.34 128.637 1468.97 129.829 1468.46 130.918L1475.31 135.776L1474.33 137.293L1467.68 132.435C1466.78 133.923 1465.7 135.096 1464.43 135.952Z" fill="white"/>
<path d="M1477.27 134.669H1492.81V136.012H1477.27V134.669ZM1478.34 139.497H1489.98V138.472H1478.3V137.168H1491.73V140.727H1480.09V141.771H1492V143.075H1478.34V139.497ZM1478.4 129.919H1489.95V128.84H1478.4V127.536H1491.7V131.149H1480.14V132.212H1491.91V133.516H1478.4V129.919Z" fill="white"/>
<path d="M1516.38 134.012V135.477H1500.31V134.012H1507.41V132.892C1505.55 132.828 1504.06 132.559 1502.95 132.084C1501.83 131.609 1501.27 130.896 1501.27 129.946C1501.27 128.932 1501.92 128.188 1503.22 127.713C1504.52 127.238 1506.23 127 1508.34 127C1510.45 127 1512.15 127.238 1513.45 127.713C1514.75 128.188 1515.4 128.932 1515.4 129.946C1515.4 130.896 1514.85 131.609 1513.73 132.084C1512.61 132.559 1511.12 132.828 1509.26 132.892V134.012H1516.38ZM1503.24 141.67H1515.55V143.075H1501.41V139.199H1513.44V138.059H1501.38V136.653H1515.27V140.529H1503.24V141.67ZM1504.62 131.086C1505.58 131.34 1506.81 131.466 1508.34 131.466C1509.86 131.466 1511.09 131.34 1512.05 131.086C1513.01 130.833 1513.48 130.453 1513.48 129.946C1513.48 129.439 1513.01 129.059 1512.04 128.805C1511.08 128.552 1509.85 128.425 1508.34 128.425C1506.83 128.425 1505.6 128.552 1504.64 128.805C1503.68 129.059 1503.2 129.439 1503.2 129.946C1503.19 130.453 1503.67 130.833 1504.62 131.086Z" fill="white"/>
<path d="M1524.99 140.404C1525.74 140.404 1526.48 140.342 1527.22 140.216C1527.96 140.091 1528.56 139.926 1529.04 139.726V141.42C1528.57 141.632 1527.97 141.805 1527.22 141.93C1526.46 142.056 1525.7 142.118 1524.92 142.118H1519.1V133.93H1525.16V129.298H1519.06V127.584H1526.94V135.624H1520.89V140.404H1524.99ZM1532.99 127V143.075H1531.18V137.091H1528.2V135.377H1531.18V132.345H1528.2V130.632H1531.18V127H1532.99Z" fill="white"/>
<path d="M1551.21 140.77V142.539H1536.21V140.77H1542.81V137.112H1537.19V127.536H1538.92V130.448H1548.49V127.536H1550.21V137.112H1544.58V140.77H1551.21ZM1538.92 135.418H1548.49V132.142H1538.92V135.418Z" fill="white"/>
<path d="M1558.65 134.004L1562.46 141.083L1560.93 141.91L1558.17 136.64C1557.78 138.259 1557.22 139.518 1556.52 140.424C1555.81 141.326 1554.94 141.891 1553.89 142.118V140.236C1555.08 139.836 1555.94 138.546 1556.45 136.369C1556.97 134.192 1557.23 131.2 1557.24 127.4L1558.99 127.475C1558.99 129.855 1558.88 132.032 1558.65 134.004ZM1563.2 127.094H1564.93V142.793H1563.2V134.267H1560.71V132.498H1563.2V127.094ZM1568.89 127V143.075H1567.16V127H1568.89Z" fill="white"/>
<path d="M1587.65 140.828V142.539H1571.57V140.828H1575.27V136.486C1574.34 136.06 1573.62 135.5 1573.11 134.803C1572.6 134.106 1572.35 133.315 1572.35 132.426C1572.35 131.447 1572.65 130.59 1573.24 129.85C1573.84 129.11 1574.69 128.542 1575.79 128.139C1576.89 127.739 1578.16 127.536 1579.6 127.536C1581.05 127.536 1582.32 127.736 1583.42 128.139C1584.52 128.538 1585.37 129.11 1585.96 129.85C1586.56 130.59 1586.86 131.447 1586.86 132.426C1586.86 133.315 1586.6 134.11 1586.1 134.803C1585.59 135.5 1584.88 136.052 1583.96 136.467V140.828H1587.65ZM1574.99 134.09C1575.43 134.572 1576.05 134.944 1576.84 135.21C1577.64 135.476 1578.56 135.605 1579.6 135.605C1580.64 135.605 1581.57 135.472 1582.38 135.21C1583.18 134.948 1583.8 134.576 1584.24 134.09C1584.68 133.609 1584.9 133.053 1584.9 132.426C1584.9 131.788 1584.68 131.228 1584.24 130.743C1583.8 130.261 1583.18 129.889 1582.38 129.623C1581.57 129.357 1580.65 129.227 1579.6 129.227C1578.56 129.227 1577.64 129.36 1576.84 129.623C1576.05 129.885 1575.43 130.257 1574.99 130.743C1574.55 131.224 1574.33 131.784 1574.33 132.426C1574.33 133.053 1574.55 133.609 1574.99 134.09ZM1577.13 140.828H1582.09V137.07C1581.34 137.218 1580.51 137.297 1579.6 137.297C1578.71 137.297 1577.88 137.222 1577.13 137.07V140.828H1577.13Z" fill="white"/>
<path d="M1589.19 142.675C1588.87 142.409 1588.72 142.073 1588.72 141.668C1588.72 141.276 1588.87 140.947 1589.19 140.678C1589.5 140.408 1589.88 140.277 1590.33 140.277C1590.78 140.277 1591.16 140.412 1591.47 140.678C1591.78 140.943 1591.94 141.272 1591.94 141.668C1591.94 142.073 1591.78 142.409 1591.48 142.675C1591.18 142.94 1590.79 143.075 1590.33 143.075C1589.88 143.075 1589.5 142.944 1589.19 142.675ZM1588.96 127.536H1591.72L1591.16 138.549H1589.5L1588.96 127.536Z" fill="white"/>
<path d="M1391.11 136.983C1393.39 136.983 1395.02 136.775 1396.01 136.364V138.05C1394.98 138.461 1393.35 138.67 1391.13 138.67H1390.98V143H1389.25V138.67H1385V136.983H1391.11ZM1387.82 134.958C1387.15 134.61 1386.63 134.126 1386.26 133.506C1385.88 132.887 1385.7 132.179 1385.7 131.377C1385.7 130.576 1385.88 129.868 1386.26 129.249C1386.63 128.629 1387.15 128.145 1387.82 127.796C1388.5 127.448 1389.26 127.271 1390.12 127.271C1390.97 127.271 1391.74 127.448 1392.41 127.796C1393.08 128.145 1393.6 128.629 1393.98 129.249C1394.36 129.868 1394.55 130.576 1394.55 131.377C1394.55 132.179 1394.36 132.887 1393.98 133.506C1393.6 134.126 1393.08 134.61 1392.41 134.958C1391.74 135.307 1390.97 135.484 1390.12 135.484C1389.26 135.484 1388.5 135.312 1387.82 134.958ZM1388.13 129.545C1387.62 130.034 1387.36 130.643 1387.36 131.383C1387.36 132.122 1387.62 132.731 1388.13 133.22C1388.63 133.709 1389.3 133.949 1390.13 133.949C1390.95 133.949 1391.61 133.704 1392.12 133.22C1392.62 132.731 1392.88 132.122 1392.88 131.383C1392.88 130.643 1392.63 130.034 1392.12 129.545C1391.61 129.056 1390.95 128.817 1390.13 128.817C1389.3 128.817 1388.63 129.056 1388.13 129.545ZM1399 127V143H1397.27V127H1399Z" fill="white"/>
</svg>
