<svg width="430" height="449" viewBox="0 0 430 449" fill="none" xmlns="http://www.w3.org/2000/svg">
<path d="M41.4999 380.5H388.5V448.5H41.4999V380.5Z" fill="black" stroke="#FFE000"/>
<path d="M78.5342 400.211C80.1477 401.028 81.377 402.146 82.2375 403.58C83.098 405.015 83.5282 406.642 83.5282 408.469C83.5282 409.557 83.3285 410.613 82.9212 411.631C82.514 412.656 81.8302 413.813 80.8545 415.109C79.8864 416.404 78.5111 417.962 76.744 419.789L72.4261 424.269H84.1198V429.968H62.6223V426.12L72.4722 415.941C74.1701 414.191 75.338 412.749 75.9757 411.631C76.6134 410.513 76.9361 409.479 76.9361 408.539C76.9361 407.382 76.598 406.472 75.9219 405.817C75.2458 405.161 74.2085 404.837 72.8025 404.837C71.4964 404.837 70.4745 405.285 69.7216 406.171C68.9686 407.058 68.5999 408.122 68.5999 409.356H62C62 407.405 62.461 405.639 63.383 404.066C64.3049 402.486 65.5803 401.244 67.2169 400.35C68.8534 399.455 70.7127 399 72.8025 399C75.0076 398.992 76.9207 399.401 78.5342 400.211Z" fill="#00FF38"/>
<path d="M94.8824 423.647C95.5773 424.346 95.917 425.229 95.917 426.281C95.917 427.341 95.5696 428.217 94.8824 428.916C94.1876 429.614 93.3151 429.968 92.2496 429.968C91.1842 429.968 90.304 429.614 89.6014 428.916C88.8989 428.217 88.5437 427.333 88.5437 426.281C88.5437 425.221 88.8989 424.346 89.6014 423.647C90.304 422.948 91.1919 422.594 92.2496 422.594C93.3074 422.594 94.1876 422.948 94.8824 423.647Z" fill="#00FF38"/>
<path d="M121.865 399.618H127.549V429.898H121.865V425.985L117.275 428.523L113.268 421.271C111.424 426.272 108.495 428.848 104.488 428.992V423.008C106.044 422.789 107.281 421.15 108.207 418.098C109.132 415.038 109.618 410.92 109.664 405.753H105.111V400.207H119.862V405.753H115.491C115.446 408.533 115.294 411.056 115.051 413.33L121.865 425.078V416.269H117.897V410.505H121.865V399.618ZM135.456 399.475V430.442H129.704V399.475H135.456Z" fill="#00FF38"/>
<path d="M159.909 416.534H139.88V399.833H159.909V405.171H164.37V399.475H170.865V420.364H164.37V410.83H159.909V416.534ZM170.104 430.442L155.801 425.605C153.959 427.06 151.757 428.173 149.21 428.934C146.663 429.696 143.989 430.084 141.194 430.084V424.425C143.268 424.425 145.214 424.156 147.016 423.619C148.818 423.081 150.339 422.305 151.573 421.289C152.806 420.274 153.623 419.072 154.031 417.691L160.526 418.766C160.27 419.625 159.925 420.461 159.485 421.274L172.323 425.075L170.104 430.442ZM153.495 404.887H146.303V411.479H153.495V404.887Z" fill="#00FF38"/>
<path d="M184.573 423.62C185.856 423.62 187.177 423.53 188.522 423.348C189.866 423.167 191.01 422.91 191.952 422.57V427.866C191.064 428.229 189.874 428.508 188.39 428.697C186.907 428.886 185.447 428.984 184.017 428.984H176.747V400.192H190.577V405.556H182.789V423.613H184.573V423.62ZM207.714 399.475V430.442H201.858V416.662H199.223V429.898H193.436V399.618H199.223V410.86H201.858V399.475H207.714Z" fill="#00FF38"/>
<path d="M244.581 423.318V428.968H212.138V423.318H225.132V419.794H213.945V407.028H236.554V404.902H213.875V399.475H242.828V412.211H220.22V414.374H243.204V419.802H231.602V423.326H244.581V423.318Z" fill="#00FF38"/>
<path d="M293.244 414.625V419.759H259.327V414.625H272.953V410.338H279.627V414.625H293.244ZM276.134 406.798C274.196 408.522 271.849 409.892 269.084 410.9C266.32 411.908 263.4 412.439 260.309 412.486V407.167C262.451 407.09 264.521 406.667 266.508 405.889C268.495 405.112 270.172 404.042 271.53 402.672C272.887 401.302 273.738 399.747 274.081 398L280.796 399.031C280.51 400.363 280.06 401.556 279.463 402.618L293.089 407.898L290.537 412.663L276.134 406.798ZM268.046 425.232H291.682V430.442H261.298V421.168H268.054V425.232H268.046Z" fill="#00FF38"/>
<path d="M294.719 400.207H313.376V408.586C313.376 412.741 312.619 416.36 311.098 419.427C309.577 422.495 307.411 424.859 304.611 426.514C301.802 428.168 298.51 428.999 294.719 428.999V423.197C298.63 423.174 301.616 421.883 303.661 419.314C305.705 416.753 306.735 413.172 306.735 408.578V405.783H294.719V400.207ZM328.636 416.738H324.772V430.442H318.245V399.475H324.772V410.792H328.636V416.738Z" fill="#00FF38"/>
<path d="M345.707 406.612V404.499H333.06V399.84H351.832V410.987H339.261V413.137H346.959C348.403 413.137 349.762 413.047 351.045 412.868C352.328 412.689 353.374 412.443 354.176 412.136V416.72C353.367 417.056 352.298 417.318 350.954 417.512C349.609 417.706 348.189 417.795 346.7 417.795H333.136V406.612H345.707ZM334.045 419.617H361.829V430.442H355.52V424.671H334.037V419.617H334.045ZM365.502 411.375H361.836V418.542H355.643V399.475H361.836V405.492H365.502V411.375Z" fill="#00FF38"/>
<path d="M420.981 351H9.00468C5.13622 351 2 346.504 2 340.958V10.1803C2 5.66431 4.55595 2 7.70598 2H420.995C424.864 2 428 6.49621 428 12.0422V340.938C428 346.484 424.864 351 420.981 351Z" fill="black" stroke="#FFE000" stroke-width="3" stroke-miterlimit="10"/>
<path d="M413.314 54.7471H14.6003V337.694H413.314V54.7471Z" fill="black" stroke="#FFE000" stroke-width="3" stroke-miterlimit="10"/>
<path d="M404.35 36.3179H334.995C330.025 36.3179 326 32.2926 326 27.3226V2H413.345V27.3226C413.325 32.2926 409.3 36.3179 404.35 36.3179Z" fill="black" stroke="#FFE000" stroke-width="3" stroke-miterlimit="10"/>
<path d="M366.521 19.1327L360.504 11H366.521L369.725 15.703L372.867 11H378.535L372.662 19.0095L378.864 27.4503H372.847L369.458 22.5009L366.09 27.4503H360.422L366.521 19.1327Z" fill="white"/>
<path d="M121 125.847C120.075 125.367 119.361 124.707 118.848 123.861C118.334 123.015 118.055 122.065 118.014 121.001H120.3C120.327 122.018 120.693 122.854 121.39 123.509C122.086 124.165 123.034 124.488 124.239 124.488C125.031 124.488 125.727 124.308 126.327 123.951C126.928 123.595 127.39 123.096 127.711 122.46C128.031 121.823 128.196 121.106 128.196 120.317C128.196 119.543 128.031 118.844 127.702 118.217C127.372 117.59 126.909 117.106 126.318 116.759C125.723 116.407 125.045 116.236 124.285 116.236C123.391 116.236 122.645 116.436 122.04 116.84C121.44 117.243 120.968 117.761 120.634 118.403H118.371L118.875 107.889H129.561V109.965H120.987L120.68 115.942C121.06 115.457 121.587 115.039 122.265 114.697C122.938 114.355 123.739 114.184 124.66 114.184C125.76 114.184 126.753 114.441 127.638 114.958C128.526 115.476 129.218 116.198 129.717 117.125C130.216 118.051 130.464 119.115 130.464 120.317C130.464 121.519 130.203 122.593 129.685 123.543C129.163 124.493 128.43 125.234 127.486 125.766C126.543 126.298 125.462 126.564 124.243 126.564C123.002 126.564 121.926 126.327 121 125.847Z" fill="#00FF38"/>
<path d="M138.716 119.703C137.521 119.703 136.43 119.458 135.446 118.965C134.461 118.472 133.677 117.784 133.103 116.902C132.529 116.02 132.242 114.997 132.242 113.839C132.242 112.667 132.539 111.627 133.127 110.722C133.715 109.817 134.513 109.12 135.527 108.627C136.536 108.134 137.659 107.889 138.902 107.889C140.14 107.889 141.269 108.134 142.287 108.627C143.306 109.12 144.109 109.817 144.697 110.722C145.285 111.627 145.581 112.667 145.581 113.839C145.581 114.681 145.433 115.472 145.132 116.219C144.831 116.965 144.386 117.766 143.788 118.617L138.807 125.675H136.053L140.69 119.291C140.078 119.567 139.419 119.703 138.716 119.703ZM136.636 110.387C135.986 110.735 135.484 111.21 135.135 111.808C134.781 112.409 134.609 113.079 134.609 113.816C134.609 114.572 134.786 115.246 135.135 115.848C135.489 116.45 135.986 116.925 136.636 117.269C137.286 117.617 138.042 117.789 138.897 117.789C139.768 117.789 140.533 117.617 141.183 117.269C141.833 116.92 142.335 116.445 142.684 115.834C143.038 115.228 143.21 114.554 143.21 113.816C143.21 113.079 143.033 112.409 142.684 111.808C142.33 111.206 141.833 110.731 141.183 110.387C140.533 110.039 139.772 109.867 138.897 109.867C138.042 109.867 137.286 110.039 136.636 110.387Z" fill="#00FF38"/>
<path d="M167.813 123.588V125.675H147.36V123.588H156.377V119.144H158.751V123.588H167.813ZM153.385 118.309C151.761 119.05 149.943 119.48 147.929 119.602V117.539C149.368 117.435 150.682 117.119 151.876 116.599C153.065 116.08 154.054 115.381 154.839 114.512C155.623 113.644 156.128 112.652 156.348 111.533H148.459V109.47H156.303V107H158.751V109.47H166.689V111.533H158.87C158.761 112.241 158.566 112.931 158.296 113.596L167.239 117.855L166.209 119.692L157.267 115.32C156.303 116.571 155.009 117.567 153.385 118.309Z" fill="#00FF38"/>
<path d="M177.127 123.266C180.076 123.266 182.181 122.989 183.45 122.44V124.569C182.104 125.118 179.976 125.395 177.06 125.395H169.592V123.266H174.884V119.438C173.448 119.195 172.288 118.531 171.4 117.457C170.513 116.383 170.074 115.057 170.074 113.482C170.074 112.307 170.327 111.257 170.828 110.331C171.333 109.406 172.035 108.69 172.937 108.179C173.839 107.668 174.86 107.41 176.005 107.41C177.136 107.41 178.153 107.668 179.064 108.179C179.971 108.69 180.687 109.41 181.207 110.331C181.727 111.253 181.985 112.307 181.985 113.482C181.985 114.522 181.78 115.462 181.364 116.312C180.954 117.161 180.381 117.854 179.647 118.398C178.912 118.942 178.072 119.285 177.127 119.438V123.266ZM173.3 116.355C173.972 117.109 174.874 117.491 176.001 117.491C176.736 117.491 177.385 117.314 177.957 116.966C178.53 116.613 178.974 116.135 179.284 115.524C179.599 114.913 179.752 114.236 179.752 113.486C179.752 112.723 179.594 112.035 179.284 111.424C178.969 110.814 178.53 110.331 177.967 109.983C177.404 109.63 176.745 109.458 175.996 109.458C174.865 109.458 173.963 109.835 173.295 110.594C172.627 111.353 172.288 112.317 172.288 113.491C172.293 114.641 172.632 115.601 173.3 116.355ZM190.045 116.918H187.344V126.564H185.077V107H187.344V114.742H190.045V116.918Z" fill="#00FF38"/>
<path d="M202.657 116.198C201.565 116.875 200.328 117.285 198.938 117.424V115.387C200.506 115.172 201.766 114.537 202.713 113.474C203.661 112.415 204.202 111.074 204.337 109.457H199.185V107.51H211.394V109.457H206.554C206.507 110.192 206.367 110.955 206.129 111.747L212.019 115.549L210.922 117.242L205.299 113.555C204.627 114.638 203.745 115.515 202.657 116.198ZM214.46 119.599C215.967 120.238 216.723 121.24 216.723 122.6C216.723 123.959 215.967 124.956 214.46 125.6C212.952 126.24 210.95 126.564 208.458 126.564C205.966 126.564 203.964 126.244 202.457 125.6C200.949 124.961 200.193 123.959 200.193 122.6C200.193 121.24 200.949 120.243 202.457 119.599C203.964 118.96 205.966 118.635 208.458 118.635C210.95 118.635 212.952 118.955 214.46 119.599ZM212.724 124.164C213.82 123.807 214.371 123.282 214.371 122.595C214.371 121.908 213.82 121.383 212.724 121.025C211.627 120.668 210.204 120.486 208.458 120.486C206.713 120.486 205.289 120.668 204.193 121.025C203.096 121.383 202.545 121.908 202.545 122.595C202.545 123.282 203.096 123.807 204.193 124.164C205.289 124.522 206.713 124.703 208.458 124.703C210.204 124.703 211.627 124.522 212.724 124.164ZM214.348 110.688V107H216.564V117.991H214.348V112.658H210.628V110.688H214.348Z" fill="#00FF38"/>
<path d="M228.404 115.954C226.448 117.314 223.743 117.992 220.285 117.992V115.978C223.069 115.963 225.236 115.472 226.775 114.498C228.315 113.529 229.087 112.083 229.087 110.155V109.444H220.28V107.473H231.333V109.787C231.333 112.541 230.355 114.598 228.404 115.954ZM220.935 119.758H237.154V126.564H234.908V121.729H220.935V119.758ZM239.844 113.505H237.149V118.684H234.926V107H237.149V111.329H239.844V113.505Z" fill="#00FF38"/>
<path d="M255.653 115.71L261.322 124.049L259.635 125.356L254.999 118.369C254.353 120.522 253.497 122.206 252.426 123.419C251.359 124.631 250.129 125.294 248.737 125.399V123.108C249.905 122.908 250.897 122.101 251.719 120.679C252.54 119.257 253.163 117.405 253.585 115.114C254.006 112.823 254.226 110.279 254.239 107.487L256.369 107.578C256.338 110.675 256.101 113.386 255.653 115.71ZM267.412 117.104H264.883V126.564H262.797V107H264.883V114.928H267.412V117.104Z" fill="#00FF38"/>
<path d="M272.949 124.65C272.044 123.987 271.344 122.975 270.838 121.615C270.333 120.254 270.08 118.569 270.08 116.551C270.08 114.536 270.333 112.847 270.838 111.487C271.344 110.126 272.049 109.114 272.949 108.451C273.854 107.788 274.909 107.453 276.125 107.453C277.321 107.453 278.372 107.788 279.276 108.451C280.181 109.114 280.881 110.126 281.387 111.487C281.893 112.847 282.146 114.532 282.146 116.551C282.146 118.565 281.893 120.254 281.387 121.615C280.881 122.975 280.176 123.987 279.276 124.65C278.372 125.314 277.321 125.648 276.125 125.648C274.909 125.648 273.854 125.314 272.949 124.65ZM278.809 121.834C279.495 120.679 279.836 118.923 279.836 116.555C279.836 114.202 279.495 112.446 278.809 111.286C278.124 110.126 277.229 109.544 276.125 109.544C275.006 109.544 274.102 110.121 273.416 111.272C272.73 112.427 272.39 114.183 272.39 116.551C272.39 118.918 272.73 120.679 273.406 121.829C274.082 122.98 274.992 123.557 276.125 123.557C277.229 123.562 278.124 122.984 278.809 121.834ZM285.531 107H287.865V126.564H285.531V107Z" fill="#00FF38"/>
<path d="M304.071 107.115H306.214V126.22H304.071V117.309H301.466C301.404 120.164 300.99 122.268 300.222 123.619C299.453 124.97 298.347 125.648 296.901 125.648C295.377 125.648 294.234 124.913 293.465 123.438C292.696 121.963 292.311 119.667 292.311 116.555C292.311 113.439 292.696 111.148 293.465 109.673C294.234 108.198 295.377 107.463 296.901 107.463C298.299 107.463 299.381 108.088 300.14 109.343C300.899 110.599 301.336 112.537 301.442 115.162H304.071V107.115ZM298.708 121.868C299.102 120.722 299.294 118.951 299.294 116.551C299.294 114.155 299.097 112.379 298.708 111.234C298.314 110.088 297.713 109.515 296.896 109.515C296.079 109.515 295.474 110.088 295.075 111.234C294.676 112.379 294.474 114.15 294.474 116.551C294.474 118.947 294.676 120.722 295.075 121.868C295.474 123.013 296.084 123.586 296.896 123.586C297.708 123.586 298.314 123.013 298.708 121.868ZM310.986 107V126.564H308.819V107H310.986Z" fill="#00FF38"/>
<path d="M116.235 148.589V150.311H96.6713V148.589H116.235ZM100.246 157.838H115.222V159.467H98.0189V154.887H112.651V153.5H97.9711V151.871H114.878V156.451H100.246V157.838ZM112.541 146.066H98.0236V144.391H112.541V142.468H98.0236V140.792H114.816V147.63H112.546V146.066H112.541Z" fill="#00FF38"/>
<path d="M119.834 144.931H128.887V142.302H119.792V140.389H131.069V146.801H122.016V149.479H127.02C128.308 149.479 129.475 149.402 130.522 149.248C131.569 149.094 132.394 148.878 133.001 148.604V150.517C132.408 150.796 131.578 151.007 130.508 151.161C129.443 151.315 128.247 151.392 126.927 151.392H119.834V144.931ZM134.465 155.266H120.501V153.305H136.689V159.467H134.465V155.266ZM134.488 139.903H136.689V152.223H134.488V139.903Z" fill="#00FF38"/>
<path d="M166.035 139.903V159.467H163.694V150.05H159.365V158.298H148.249V140.476H150.541V147.211H157.069V140.476H159.36V147.922H163.689V139.903H166.035ZM157.069 156.212V149.292H150.541V156.212H157.069Z" fill="#00FF38"/>
<path d="M188.266 151.431V153.222H168.702V151.431H188.266ZM172.372 157.63H187.258V159.467H170.055V154.719H172.372V157.63ZM187.143 149.659H170.122V140.792H186.957V142.518H172.392V144.398H186.637V146.054H172.392V147.933H187.139V149.659H187.143Z" fill="#00FF38"/>
<path d="M190.045 148.309H210.498V150.09H190.045V148.309ZM193.752 146.221C192.098 145.644 191.269 144.729 191.269 143.483C191.269 142.251 192.098 141.347 193.752 140.769C195.406 140.192 197.579 139.903 200.262 139.903C202.944 139.903 205.118 140.192 206.771 140.769C208.425 141.347 209.254 142.251 209.254 143.483C209.254 144.729 208.425 145.644 206.771 146.221C205.118 146.798 202.944 147.087 200.262 147.087C197.579 147.087 195.406 146.798 193.752 146.221ZM191.464 154.757H206.761V153.371H191.414V151.663H209.089V156.373H193.792V157.759H209.449V159.467H191.464V154.757ZM204.988 144.869C206.202 144.561 206.811 144.099 206.811 143.483C206.811 142.867 206.202 142.405 204.978 142.097C203.754 141.789 202.185 141.636 200.267 141.636C198.348 141.636 196.779 141.789 195.555 142.097C194.331 142.405 193.722 142.867 193.722 143.483C193.722 144.099 194.331 144.561 195.545 144.869C196.759 145.177 198.333 145.331 200.272 145.331C202.21 145.331 203.774 145.177 204.988 144.869Z" fill="#00FF38"/>
<path d="M238.066 154.197H229.418V160.356H227.101V154.197H218.502V152.07H238.061V154.197H238.066ZM236.828 149.759H219.859V140.792H222.2V147.674H236.828V149.759Z" fill="#00FF38"/>
<path d="M240.734 156.507H260.298V158.578H240.734V156.507ZM242.038 145.977H256.766V142.816H242.038V140.792H259.012V147.958H244.284V151.19H259.308V153.213H242.038V145.977Z" fill="#00FF38"/>
<path d="M262.965 149.755H281.64V151.793H262.965V149.755ZM264.256 153.556H266.469V157.429H280.678V159.467H264.256V153.556ZM264.302 139.903H266.491V145.534H280.482V147.572H264.302V139.903Z" fill="#00FF38"/>
<path d="M297.978 150.228C296.174 150.992 293.99 151.374 291.422 151.374V149.334C294.235 149.32 296.442 148.794 298.045 147.762C299.648 146.73 300.455 145.245 300.455 143.3V142.383H291.422V140.386H302.759V142.999C302.759 143.625 302.706 144.198 302.595 144.719H307.04V139.903H309.319V153.319H307.04V146.807H301.88C301.083 148.321 299.783 149.463 297.978 150.228ZM309.252 159.467L300.752 155.731C299.74 156.83 298.482 157.69 296.985 158.302C295.487 158.913 293.932 159.228 292.32 159.243V157.112C293.563 157.098 294.758 156.868 295.9 156.424C297.042 155.98 298.026 155.344 298.847 154.508C299.668 153.677 300.21 152.702 300.469 151.584L302.749 151.995C302.567 152.745 302.298 153.448 301.943 154.107L310.097 157.48L309.252 159.467Z" fill="#00FF38"/>
<path d="M311.875 150.25H332.329V152.185H311.875V150.25ZM317.476 148.011C316.107 147.69 315.023 147.204 314.214 146.561C313.404 145.917 313.005 145.125 313.005 144.188C313.005 143.251 313.409 142.459 314.214 141.815C315.023 141.171 316.112 140.691 317.486 140.374C318.86 140.057 320.393 139.903 322.092 139.903C323.786 139.903 325.319 140.062 326.698 140.374C328.072 140.691 329.166 141.171 329.971 141.815C330.78 142.459 331.18 143.251 331.18 144.188C331.18 145.125 330.775 145.917 329.971 146.561C329.161 147.204 328.077 147.69 326.708 148.011C325.339 148.333 323.801 148.496 322.092 148.496C320.383 148.496 318.845 148.333 317.476 148.011ZM313.289 153.867H315.712V157.508H331.275V159.467H313.289V153.867ZM326.778 145.994C328.032 145.557 328.662 144.952 328.662 144.183C328.662 143.415 328.032 142.814 326.778 142.387C325.524 141.959 323.961 141.743 322.092 141.743C320.224 141.743 318.66 141.959 317.406 142.387C316.152 142.819 315.522 143.415 315.522 144.183C315.522 144.952 316.152 145.557 317.406 145.994C318.66 146.431 320.224 146.652 322.092 146.652C323.961 146.652 325.524 146.431 326.778 145.994Z" fill="#00FF38"/>
<path d="M147.36 188.595H139.108V194.149H136.896V188.595H128.685V186.455H147.36V188.595ZM133.949 183.036C132.425 183.903 130.815 184.348 129.123 184.363V182.179C130.437 182.179 131.709 181.801 132.946 181.051C134.182 180.3 135.226 179.274 136.088 177.971C136.951 176.669 137.512 175.245 137.776 173.696L140.011 174.068C139.792 175.337 139.414 176.548 138.871 177.695L146.885 182.411L145.877 184.339L137.822 179.458C136.764 180.978 135.477 182.169 133.949 183.036Z" fill="#00FF38"/>
<path d="M159.035 182.158C157.08 183.418 154.375 184.048 150.917 184.048V182.077C153.687 182.062 155.849 181.609 157.398 180.712C158.947 179.819 159.723 178.502 159.723 176.76V176.096H150.917V174.173H161.969V176.373C161.969 178.97 160.991 180.898 159.035 182.158ZM165.83 186.043C167.327 186.702 168.076 187.737 168.076 189.16C168.076 190.582 167.327 191.618 165.83 192.276C164.332 192.935 162.339 193.26 159.854 193.26C157.37 193.26 155.376 192.93 153.879 192.276C152.382 191.618 151.633 190.582 151.633 189.16C151.633 187.737 152.382 186.702 153.879 186.043C155.376 185.384 157.37 185.06 159.854 185.06C162.339 185.055 164.332 185.384 165.83 186.043ZM164.103 190.821C165.179 190.463 165.722 189.909 165.722 189.16C165.722 188.425 165.179 187.871 164.094 187.499C163.008 187.126 161.595 186.936 159.859 186.936C158.137 186.936 156.729 187.122 155.638 187.499C154.543 187.871 154.001 188.425 154.001 189.16C154.001 189.895 154.543 190.444 155.629 190.811C156.715 191.179 158.128 191.36 159.864 191.36C161.609 191.355 163.022 191.179 164.103 190.821ZM170.481 177.705V179.881H167.786V184.396H165.563V173.696H167.786V177.705H170.481Z" fill="#00FF38"/>
<path d="M182.278 183.918C181.136 184.73 179.873 185.228 178.484 185.417V183.26C179.704 183.042 180.769 182.486 181.69 181.587C182.606 180.688 183.319 179.566 183.821 178.221C184.322 176.877 184.582 175.427 184.597 173.879L186.887 174.02C186.887 175.707 186.602 177.317 186.029 178.845L192.368 183.536L191.003 185.209L185.127 180.775C184.37 182.056 183.421 183.105 182.278 183.918ZM197.159 191.219V193.26H179.873V186.945H182.187V191.214H197.159V191.219ZM196.629 188.41H194.339V173.696H196.629V188.41Z" fill="#00FF38"/>
<path d="M204.431 183.872C203.328 184.533 202.093 184.932 200.716 185.063V183.126C202.215 182.915 203.45 182.309 204.416 181.315C205.382 180.315 205.978 179.11 206.198 177.702H200.926V175.835H206.222V173.696H208.565V175.835H213.788V177.702H208.565C208.472 178.378 208.306 179.016 208.072 179.616L214.139 183.243L213.036 184.909L207.154 181.352C206.442 182.37 205.529 183.21 204.431 183.872ZM217.024 186.945C218.6 187.508 219.391 188.418 219.391 189.68C219.391 190.928 218.6 191.833 217.024 192.406C215.447 192.978 213.339 193.26 210.698 193.26C208.057 193.26 205.949 192.973 204.372 192.406C202.796 191.833 202.005 190.928 202.005 189.68C202.005 188.418 202.796 187.508 204.372 186.945C205.949 186.382 208.057 186.1 210.698 186.1C213.339 186.1 215.447 186.382 217.024 186.945ZM215.218 191.045C216.36 190.754 216.926 190.299 216.926 189.685C216.926 189.07 216.355 188.615 215.218 188.324C214.08 188.033 212.572 187.883 210.698 187.883C208.824 187.883 207.315 188.028 206.178 188.324C205.041 188.62 204.47 189.07 204.47 189.685C204.47 190.299 205.041 190.754 206.178 191.045C207.315 191.336 208.824 191.486 210.698 191.486C212.572 191.486 214.08 191.336 215.218 191.045ZM216.838 178.692V174.029H219.157V185.49H216.838V180.672H212.997V178.692H216.838Z" fill="#00FF38"/>
<path d="M222.059 189.962H230.205C231.605 189.962 232.88 189.885 234.032 189.732C235.185 189.58 236.084 189.351 236.741 189.045V191.155C236.07 191.446 235.156 191.675 233.988 191.842C232.821 192.009 231.513 192.095 230.069 192.095H222.064V189.962H222.059ZM225.726 185.652C224.792 185.131 224.063 184.401 223.532 183.466C223.002 182.525 222.74 181.461 222.74 180.268C222.74 179.075 223.002 178.01 223.532 177.07C224.063 176.13 224.792 175.399 225.726 174.884C226.659 174.369 227.72 174.106 228.901 174.106C230.083 174.106 231.143 174.364 232.077 174.884C233.011 175.404 233.74 176.134 234.27 177.07C234.801 178.01 235.063 179.075 235.063 180.268C235.063 181.461 234.801 182.525 234.27 183.466C233.74 184.406 233.011 185.136 232.077 185.652C231.143 186.172 230.083 186.43 228.901 186.43C227.715 186.43 226.659 186.172 225.726 185.652ZM230.939 183.833C231.523 183.475 231.98 182.984 232.306 182.368C232.632 181.752 232.797 181.051 232.797 180.273C232.797 179.495 232.632 178.793 232.306 178.163C231.98 177.533 231.518 177.046 230.929 176.683C230.336 176.325 229.66 176.144 228.897 176.144C228.118 176.144 227.433 176.325 226.844 176.683C226.251 177.041 225.799 177.533 225.478 178.163C225.157 178.788 225.001 179.49 225.001 180.273C225.001 181.466 225.361 182.444 226.076 183.217C226.791 183.991 227.734 184.372 228.901 184.372C229.675 184.368 230.356 184.191 230.939 183.833ZM238.424 173.696H240.734V193.26H238.424V173.696Z" fill="#00FF38"/>
<path d="M249.626 190.626C251.428 190.626 252.99 190.167 254.316 189.249C255.638 188.331 256.651 187.028 257.347 185.347C258.042 183.66 258.394 181.689 258.394 179.419V176.615H249.631V174.434H260.769V179.369C260.769 182.083 260.318 184.459 259.417 186.494C258.517 188.53 257.224 190.102 255.54 191.215C253.856 192.323 251.888 192.881 249.631 192.881V190.626H249.626ZM265.086 173.696H267.412V194.149H265.086V173.696Z" fill="#00FF38"/>
<path d="M290.533 185.498V187.432H270.969V185.498H279.595V183.143H272.369V174.585H274.615V177.008H286.887V174.585H289.114V183.143H281.888V185.498H290.533ZM274.634 192.191H289.52V194.149H272.317V188.855H274.634V192.191ZM274.615 181.302H286.887V178.786H274.615V181.302Z" fill="#00FF38"/>
<path d="M292.828 193.645C292.482 193.311 292.311 192.887 292.311 192.378C292.311 191.884 292.482 191.47 292.828 191.131C293.173 190.792 293.594 190.627 294.09 190.627C294.586 190.627 295.007 190.797 295.353 191.131C295.698 191.465 295.869 191.879 295.869 192.378C295.869 192.887 295.698 193.311 295.363 193.645C295.027 193.979 294.601 194.149 294.09 194.149C293.594 194.149 293.173 193.979 292.828 193.645ZM292.577 174.585H295.633L295.007 188.447H293.178L292.577 174.585Z" fill="#00FF38"/>
<path d="M86 248.062H105.564V250.173H86V248.062ZM101.87 234.499H87.1899V232.388H104.255V245.842H101.87V234.499Z" fill="#00FF38"/>
<path d="M117.462 236.792V233.94H109.121V231.991H119.669V238.672H111.375V241.597H115.95C117.274 241.597 118.458 241.524 119.51 241.375C120.562 241.23 121.398 241.017 122.013 240.736V242.66C121.412 242.922 120.566 243.134 119.477 243.299C118.387 243.463 117.166 243.54 115.814 243.54H109.163V236.787H117.462V236.792ZM126.907 248.998V251.062H110.112V245.353H112.413V248.998H126.907ZM124.248 237.86H120.933V235.723H124.248V231.498H126.503V246.281H124.248V237.86Z" fill="#00FF38"/>
<path d="M135.319 247.879C136.125 247.879 136.917 247.802 137.7 247.65C138.483 247.497 139.172 247.282 139.769 247.01V249.005C139.2 249.282 138.492 249.497 137.644 249.659C136.796 249.821 135.939 249.898 135.072 249.898H130.464V232.209H138.939V234.224H132.63V247.879H135.319ZM141.539 231.613H143.618V250.719H141.539V241.488H136.661V239.378H141.535V231.613H141.539ZM148.249 231.498V251.062H146.148V231.498H148.249Z" fill="#00FF38"/>
<path d="M166.197 247.783C167.116 247.783 168.025 247.697 168.925 247.53C169.824 247.363 170.552 247.139 171.118 246.867V248.953C170.552 249.244 169.82 249.473 168.915 249.64C168.011 249.807 167.088 249.893 166.156 249.893H158.92V232.09H161.17V247.783H166.197ZM175.817 231.498V251.062H173.614V240.591H166.578V238.438H173.614V231.498H175.817Z" fill="#00FF38"/>
<path d="M198.938 246.468H190.706V251.952H188.472V246.468H180.263V244.302H198.933V246.468H198.938ZM197.624 241.93H181.558V232.388H197.624V241.93ZM195.454 234.505H183.72V239.831H195.454V234.505Z" fill="#00FF38"/>
<path d="M208.72 241.06C210.628 241.046 212.299 240.804 213.724 240.34C215.153 239.875 216.258 239.188 217.037 238.274C217.815 237.36 218.21 236.253 218.21 234.956V234.004H208.72V231.982H220.576V234.676C220.576 236.519 220.078 238.071 219.087 239.329C218.092 240.591 216.711 241.534 214.936 242.163C213.162 242.792 211.091 243.101 208.725 243.101V241.06H208.72ZM209.716 244.751H212.082V248.997H227.394V251.062H209.716V244.751ZM224.505 231.498H226.847V246.24H224.505V231.498Z" fill="#00FF38"/>
<path d="M234.145 240.653C232.944 241.35 231.581 241.77 230.062 241.922V239.884C231.743 239.669 233.095 239.025 234.12 237.946C235.144 236.868 235.74 235.536 235.901 233.947H230.33V232.004H243.532V233.952H238.298C238.248 234.687 238.112 235.412 237.885 236.128L244.183 239.794L242.997 241.488L237.012 237.937C236.305 239.054 235.346 239.961 234.145 240.653ZM246.378 243.941C248.003 244.6 248.811 245.621 248.811 247.01C248.811 248.399 247.998 249.425 246.378 250.079C244.758 250.733 242.613 251.062 239.949 251.062C237.284 251.062 235.139 250.733 233.519 250.079C231.894 249.42 231.087 248.399 231.087 247.01C231.087 245.621 231.899 244.595 233.519 243.941C235.144 243.283 237.284 242.958 239.949 242.958C242.613 242.958 244.753 243.283 246.378 243.941ZM244.501 248.638C245.662 248.27 246.247 247.731 246.247 247.01C246.247 246.294 245.667 245.75 244.501 245.383C243.34 245.015 241.821 244.834 239.949 244.834C238.092 244.834 236.577 245.015 235.407 245.383C234.236 245.75 233.65 246.289 233.65 247.01C233.65 247.726 234.231 248.27 235.397 248.638C236.557 249.005 238.076 249.187 239.949 249.187C241.821 249.187 243.335 249.005 244.501 248.638ZM251.405 235.235V237.388H248.498V242.314H246.101V231.498H248.498V235.231H251.405V235.235Z" fill="#00FF38"/>
<path d="M265.22 235.536H251.405V233.688H257.121V231.498H259.503V233.688H265.22V235.536ZM255.231 244.142C254.318 243.829 253.598 243.373 253.077 242.765C252.551 242.157 252.293 241.444 252.293 240.622C252.293 239.801 252.556 239.088 253.077 238.48C253.603 237.872 254.318 237.412 255.231 237.103C256.144 236.789 257.171 236.637 258.317 236.637C259.464 236.637 260.486 236.794 261.389 237.103C262.292 237.416 263.007 237.872 263.533 238.471C264.059 239.069 264.317 239.791 264.317 240.627C264.317 241.463 264.054 242.18 263.533 242.784C263.007 243.382 262.292 243.838 261.389 244.151C260.486 244.465 259.459 244.617 258.317 244.617C257.176 244.617 256.144 244.455 255.231 244.142ZM255.266 249.058H270.44V251.062H252.884V245.728H255.266V249.058ZM255.598 239.003C254.913 239.43 254.576 239.967 254.576 240.622C254.576 241.292 254.918 241.834 255.598 242.252C256.283 242.67 257.186 242.879 258.312 242.879C259.439 242.879 260.347 242.67 261.027 242.252C261.711 241.834 262.049 241.292 262.049 240.622C262.049 239.967 261.706 239.43 261.027 239.003C260.347 238.575 259.439 238.366 258.312 238.366C257.186 238.362 256.283 238.575 255.598 239.003ZM272.747 237.179V239.345H269.889V246.436H267.532V231.845H269.889V237.179H272.747Z" fill="#00FF38"/>
<path d="M289.062 247.788C289.951 247.788 290.841 247.707 291.721 247.549C292.606 247.387 293.331 247.172 293.901 246.896V248.957C293.345 249.249 292.624 249.478 291.735 249.645C290.845 249.812 289.937 249.898 289.021 249.898H281.64V232.095H283.852V247.788H289.062ZM300.315 241.602H297.687V251.062H295.521V231.498H297.687V239.426H300.315V241.602Z" fill="#00FF38"/>
<path d="M319.879 231.503V251.062H317.676V241.581H313.492V249.893H302.983V232.209H313.492V239.448H317.676V231.498H319.879V231.503ZM311.285 234.318H305.186V247.784H311.285V234.318Z" fill="#00FF38"/>
<path d="M331.982 240.476L338.679 248.38L336.808 249.731L331.287 243.02C330.582 245.068 329.637 246.681 328.441 247.864C327.251 249.048 325.876 249.726 324.325 249.893V247.65C325.526 247.435 326.561 246.733 327.436 245.54C328.311 244.347 328.986 242.781 329.467 240.844C329.947 238.906 330.202 236.72 330.237 234.29H324.81V232.205H337.894V234.29H332.637C332.612 236.462 332.397 238.524 331.982 240.476ZM343 231.498V251.062H340.624V231.498H343Z" fill="#00FF38"/>
<path d="M103.215 284.137C102.29 283.658 101.575 282.997 101.062 282.152C100.549 281.306 100.27 280.356 100.228 279.292H102.514C102.541 280.308 102.908 281.144 103.604 281.8C104.3 282.456 105.249 282.779 106.453 282.779C107.246 282.779 107.942 282.598 108.542 282.242C109.142 281.886 109.605 281.387 109.925 280.75C110.246 280.114 110.411 279.396 110.411 278.608C110.411 277.833 110.246 277.135 109.916 276.508C109.586 275.881 109.124 275.396 108.533 275.049C107.937 274.698 107.259 274.527 106.499 274.527C105.606 274.527 104.859 274.726 104.255 275.13C103.655 275.534 103.183 276.052 102.848 276.693H100.586L101.089 266.18H111.776V268.256H103.201L102.894 274.232C103.274 273.748 103.801 273.33 104.479 272.988C105.152 272.646 105.954 272.475 106.875 272.475C107.974 272.475 108.968 272.731 109.852 273.249C110.741 273.767 111.432 274.489 111.932 275.415C112.431 276.342 112.678 277.406 112.678 278.608C112.678 279.81 112.417 280.883 111.899 281.833C111.377 282.783 110.644 283.524 109.701 284.057C108.757 284.589 107.676 284.855 106.458 284.855C105.216 284.855 104.14 284.617 103.215 284.137Z" fill="#00FF38"/>
<path d="M117.669 284.209C116.659 283.777 115.869 283.179 115.305 282.403C114.741 281.632 114.457 280.755 114.457 279.775C114.457 278.93 114.658 278.187 115.055 277.546C115.457 276.906 115.957 276.39 116.561 275.996C117.164 275.601 117.782 275.336 118.409 275.206C117.875 275.058 117.36 274.793 116.855 274.417C116.355 274.036 115.938 273.563 115.609 272.991C115.281 272.42 115.114 271.775 115.114 271.065C115.114 270.173 115.369 269.356 115.879 268.613C116.389 267.87 117.1 267.28 118.007 266.839C118.919 266.403 119.959 266.18 121.136 266.18C122.298 266.18 123.333 266.398 124.245 266.839C125.157 267.276 125.864 267.87 126.374 268.622C126.884 269.374 127.139 270.187 127.139 271.065C127.139 271.78 126.972 272.42 126.643 272.991C126.315 273.563 125.898 274.041 125.398 274.417C124.893 274.798 124.378 275.058 123.843 275.206C124.471 275.341 125.089 275.606 125.692 275.996C126.295 276.39 126.8 276.906 127.198 277.546C127.6 278.187 127.796 278.93 127.796 279.775C127.796 280.755 127.511 281.632 126.947 282.403C126.383 283.174 125.594 283.777 124.584 284.209C123.573 284.641 122.421 284.855 121.136 284.855C119.836 284.855 118.679 284.641 117.669 284.209ZM123.377 282.473C124.02 282.19 124.52 281.799 124.873 281.303C125.226 280.806 125.403 280.253 125.403 279.64C125.403 279.018 125.216 278.452 124.848 277.946C124.481 277.44 123.971 277.045 123.318 276.752C122.666 276.465 121.94 276.316 121.141 276.316C120.327 276.316 119.591 276.46 118.939 276.752C118.287 277.045 117.777 277.44 117.409 277.946C117.041 278.452 116.855 279.014 116.855 279.64C116.855 280.249 117.031 280.801 117.384 281.303C117.738 281.799 118.238 282.19 118.89 282.473C119.542 282.756 120.293 282.895 121.136 282.895C121.98 282.895 122.73 282.751 123.377 282.473ZM123.024 273.758C123.573 273.488 124.005 273.126 124.319 272.666C124.633 272.207 124.79 271.691 124.79 271.13C124.79 270.582 124.638 270.08 124.329 269.625C124.025 269.17 123.593 268.813 123.044 268.543C122.495 268.274 121.857 268.144 121.136 268.144C120.052 268.144 119.174 268.423 118.498 268.98C117.821 269.537 117.487 270.238 117.487 271.088C117.487 271.654 117.644 272.17 117.958 272.639C118.272 273.108 118.704 273.479 119.253 273.753C119.802 274.027 120.43 274.166 121.136 274.166C121.842 274.166 122.475 274.022 123.024 273.758Z" fill="#00FF38"/>
<path d="M150.028 281.878V283.965H129.574V281.878H138.592V277.435H140.965V281.878H150.028ZM135.604 276.599C133.981 277.341 132.162 277.77 130.149 277.893V275.83C131.588 275.726 132.902 275.409 134.096 274.89C135.285 274.371 136.274 273.672 137.058 272.803C137.843 271.934 138.347 270.943 138.567 269.823H130.678V267.76H138.522V265.291H140.97V267.76H148.909V269.823H141.09C140.98 270.532 140.785 271.221 140.515 271.887L149.458 276.146L148.429 277.983L139.486 273.61C138.517 274.862 137.228 275.858 135.604 276.599Z" fill="#00FF38"/>
<path d="M164.122 265.405H166.367V284.511H164.122V275.6H161.394C161.329 278.454 160.896 280.559 160.091 281.91C159.285 283.26 158.128 283.938 156.613 283.938C155.017 283.938 153.819 283.203 153.014 281.728C152.209 280.253 151.806 277.958 151.806 274.846C151.806 271.729 152.209 269.438 153.014 267.963C153.819 266.489 155.017 265.753 156.613 265.753C158.078 265.753 159.21 266.379 160.005 267.634C160.801 268.889 161.259 270.827 161.369 273.452H164.122V265.405ZM158.505 280.158C158.918 279.013 159.119 277.242 159.119 274.841C159.119 272.445 158.913 270.67 158.505 269.524C158.093 268.379 157.463 267.806 156.608 267.806C155.752 267.806 155.118 268.379 154.7 269.524C154.282 270.67 154.071 272.44 154.071 274.841C154.071 277.237 154.282 279.013 154.7 280.158C155.118 281.304 155.757 281.876 156.608 281.876C157.458 281.876 158.098 281.304 158.505 280.158ZM171.37 265.291V284.855H169.1V265.291H171.37Z" fill="#00FF38"/>
<path d="M199.827 279.584H191.18V285.744H188.862V279.584H180.263V277.457H199.822V279.584H199.827ZM198.585 275.146H181.615V266.18H183.956V273.061H198.585V275.146Z" fill="#00FF38"/>
<path d="M202.495 281.894H221.169V283.965H202.495V281.894ZM203.74 271.364H217.799V268.203H203.74V266.18H219.942V273.345H205.884V276.577H220.225V278.601H203.74V271.364Z" fill="#00FF38"/>
<path d="M227.425 274.95C226.358 275.689 225.161 276.15 223.837 276.332V274.259C225.002 274.029 226.018 273.496 226.889 272.656C227.76 271.817 228.427 270.775 228.893 269.523C229.354 268.27 229.578 266.922 229.564 265.482L231.777 265.622C231.791 267.248 231.525 268.794 230.971 270.252L236.874 274.537L235.579 276.126L230.099 272.095C229.382 273.261 228.492 274.211 227.425 274.95ZM242.129 284.855L238.304 281.678C237.708 282.585 236.986 283.3 236.147 283.832C235.304 284.36 234.414 284.658 233.473 284.72L230.095 281.726C229.498 282.599 228.781 283.305 227.947 283.832C227.113 284.36 226.223 284.658 225.286 284.72V282.647C225.985 282.585 226.652 282.287 227.276 281.75C227.9 281.212 228.422 280.512 228.832 279.653C229.242 278.794 229.484 277.858 229.559 276.841L231.684 277.162C231.595 278.132 231.371 279.072 231.013 279.994L234.097 282.551C234.693 282.369 235.252 281.999 235.774 281.447C236.296 280.896 236.729 280.214 237.07 279.408C237.414 278.602 237.615 277.748 237.675 276.841L239.823 277.162C239.735 278.132 239.525 279.053 239.199 279.926L243.401 283.199L242.129 284.855ZM239.623 272.623H235.509V270.732H239.623V268.842H235.509V266.951H239.623V265.291H241.813V276.231H239.623V272.623Z" fill="#00FF38"/>
<path d="M254.731 281.628C255.663 281.628 256.595 281.547 257.517 281.375C258.445 281.208 259.205 280.979 259.802 280.688V282.75C259.219 283.041 258.449 283.27 257.498 283.437C256.542 283.604 255.581 283.69 254.621 283.69H246.958V266.002H258.268V268.064H249.272V281.628H254.731ZM266.523 275.395H263.769V284.855H261.499V265.291H263.769V273.218H266.523V275.395Z" fill="#00FF38"/>
<path d="M286.976 281.854V283.965H267.412V281.854H274.704V273.196H277.046V281.854H286.976ZM283.306 268.291H268.602V266.18H285.666V278.995H283.306V268.291Z" fill="#00FF38"/>
<path d="M309.208 281.937V283.965H289.644V281.937H294.14V276.79C293.008 276.284 292.133 275.62 291.512 274.794C290.891 273.968 290.585 273.03 290.585 271.977C290.585 270.817 290.948 269.8 291.675 268.923C292.401 268.046 293.433 267.373 294.771 266.895C296.109 266.421 297.658 266.18 299.416 266.18C301.175 266.18 302.723 266.417 304.061 266.895C305.399 267.368 306.431 268.046 307.158 268.923C307.884 269.8 308.247 270.817 308.247 271.977C308.247 273.03 307.936 273.973 307.32 274.794C306.699 275.62 305.834 276.275 304.716 276.767V281.937H309.208ZM293.792 273.949C294.327 274.52 295.082 274.961 296.052 275.277C297.022 275.592 298.145 275.746 299.411 275.746C300.678 275.746 301.805 275.588 302.785 275.277C303.765 274.966 304.52 274.525 305.055 273.949C305.59 273.379 305.858 272.72 305.858 271.977C305.858 271.22 305.59 270.557 305.055 269.981C304.52 269.41 303.76 268.969 302.785 268.654C301.81 268.338 300.682 268.185 299.411 268.185C298.14 268.185 297.022 268.343 296.052 268.654C295.082 268.965 294.327 269.406 293.792 269.981C293.256 270.552 292.989 271.216 292.989 271.977C292.989 272.724 293.256 273.379 293.792 273.949ZM296.405 281.937H302.436V277.482C301.519 277.658 300.51 277.751 299.407 277.751C298.322 277.751 297.318 277.663 296.401 277.482V281.937H296.405Z" fill="#00FF38"/>
<path d="M316.969 276.34C317.321 275.545 317.972 274.824 318.914 274.187C319.711 273.62 320.282 273.109 320.634 272.648C320.985 272.188 321.163 271.658 321.163 271.063C321.163 270.198 320.859 269.509 320.254 268.989C319.65 268.468 318.811 268.207 317.747 268.207C317.011 268.207 316.379 268.365 315.845 268.677C315.31 268.989 314.907 269.393 314.631 269.881C314.354 270.374 314.2 270.886 314.172 271.421H311.875C311.904 270.467 312.166 269.588 312.663 268.789C313.159 267.984 313.844 267.347 314.72 266.882C315.596 266.412 316.599 266.18 317.724 266.18C318.909 266.18 319.931 266.394 320.793 266.817C321.655 267.24 322.311 267.821 322.761 268.556C323.211 269.291 323.436 270.128 323.436 271.067C323.436 272.616 322.602 273.978 320.938 275.15C320.292 275.582 319.804 276.02 319.476 276.466C319.148 276.912 318.923 277.373 318.811 277.852C318.698 278.326 318.642 278.893 318.642 279.549H316.44C316.444 278.2 316.618 277.136 316.969 276.34ZM316.421 284.376C316.107 284.055 315.948 283.664 315.948 283.204C315.948 282.744 316.107 282.358 316.421 282.041C316.735 281.73 317.124 281.572 317.592 281.572C318.061 281.572 318.45 281.73 318.773 282.041C319.097 282.353 319.256 282.739 319.256 283.204C319.256 283.678 319.097 284.073 318.783 284.385C318.469 284.697 318.07 284.855 317.592 284.855C317.124 284.855 316.735 284.692 316.421 284.376Z" fill="#00FF38"/>
</svg>
