<svg width="298" height="171" viewBox="0 0 298 171" fill="none" xmlns="http://www.w3.org/2000/svg">
<path d="M292.288 170.244H5.86985C3.18039 170.244 1 168.064 1 165.374V4.96696C1 2.77697 2.77697 1 4.96696 1H292.297C294.987 1 297.167 3.18039 297.167 5.86985V165.365C297.167 168.054 294.987 170.244 292.288 170.244Z" fill="white" stroke="black" stroke-width="0.75" stroke-miterlimit="10"/>
<path d="M286.957 33.1007H9.76013V161.484H286.957V33.1007Z" fill="white" stroke="black" stroke-width="0.75" stroke-miterlimit="10"/>
<path d="M55.7978 58.324C56.4126 57.2674 57.9398 57.2674 58.5449 58.324L66.9975 72.9719L75.4501 87.6199C76.0648 88.6765 75.2964 90.002 74.0765 90.002H57.1714H40.2566C39.0367 90.002 38.2683 88.6765 38.883 87.6199L47.3356 72.9719L55.7978 58.324Z" fill="#FFE000"/>
<path d="M74.0862 90.4727H40.2567C39.5074 90.4727 38.8446 90.0885 38.47 89.4449C38.0954 88.8014 38.0954 88.0329 38.47 87.3798L55.3849 58.0839C55.7595 57.4403 56.4222 57.0561 57.1714 57.0561C57.9206 57.0561 58.5834 57.4403 58.958 58.0839L75.8728 87.3798C76.2474 88.0233 76.2474 88.7918 75.8728 89.4449C75.4982 90.0981 74.8258 90.4727 74.0862 90.4727ZM57.1714 57.9974C56.768 57.9974 56.403 58.2087 56.2109 58.5545L39.2961 87.8504C39.0944 88.1962 39.0944 88.6189 39.2961 88.9647C39.4978 89.3104 39.8532 89.5217 40.2567 89.5217H74.0862C74.4896 89.5217 74.845 89.3104 75.0467 88.9647C75.2484 88.6189 75.2484 88.1962 75.0467 87.8504L58.132 58.5545C57.9302 58.2087 57.5749 57.9974 57.1714 57.9974Z" fill="black"/>
<path d="M55.7978 58.324C56.4126 57.2674 57.9398 57.2674 58.5449 58.324L66.9975 72.9719L75.4501 87.6199C76.0648 88.6765 75.2964 90.002 74.0765 90.002H57.1714H40.2566C39.0367 90.002 38.2683 88.6765 38.883 87.6199L47.3356 72.9719L55.7978 58.324Z" fill="#FFE000"/>
<path d="M74.0862 90.4727H40.2567C39.5074 90.4727 38.8446 90.0885 38.47 89.4449C38.0954 88.8014 38.0954 88.0329 38.47 87.3798L55.3849 58.0839C55.7595 57.4403 56.4222 57.0561 57.1714 57.0561C57.9206 57.0561 58.5834 57.4403 58.958 58.0839L75.8728 87.3798C76.2474 88.0233 76.2474 88.7918 75.8728 89.4449C75.4982 90.0981 74.8258 90.4727 74.0862 90.4727ZM57.1714 57.9974C56.768 57.9974 56.403 58.2087 56.2109 58.5545L39.2961 87.8504C39.0944 88.1962 39.0944 88.6189 39.2961 88.9647C39.4978 89.3104 39.8532 89.5217 40.2567 89.5217H74.0862C74.4896 89.5217 74.845 89.3104 75.0467 88.9647C75.2484 88.6189 75.2484 88.1962 75.0467 87.8504L58.132 58.5545C57.9302 58.2087 57.5749 57.9974 57.1714 57.9974Z" fill="black"/>
<path d="M97.7725 78.7545H93.2389V81.271H90.9528V78.7545H86.4192V76.7086H97.763V78.7545H97.7725ZM89.6369 75.2294C88.7052 75.6616 87.7255 75.8729 86.6881 75.8633V73.779C87.4181 73.779 88.1193 73.606 88.7917 73.2506C89.4736 72.9049 90.0404 72.4054 90.5014 71.7715C90.9625 71.1375 91.2506 70.4171 91.3658 69.6295L93.6231 69.9561C93.5367 70.5516 93.3637 71.1472 93.0948 71.7427L97.7341 74.0095L96.6967 75.8729L92.0382 73.414C91.3659 74.192 90.5686 74.7971 89.6369 75.2294Z" fill="black"/>
<path d="M104.122 74.8161C102.911 75.5461 101.288 75.9015 99.2518 75.9015V74.0189C100.135 74.0093 100.913 73.9228 101.576 73.7403C102.239 73.5578 102.758 73.3273 103.123 73.02C103.488 72.7126 103.68 72.3572 103.68 71.9538V71.7521H99.2518V69.9175H105.937V71.4639C105.937 72.9815 105.332 74.0861 104.122 74.8161ZM108.319 76.67C109.232 77.0638 109.693 77.7169 109.693 78.6102C109.693 79.5035 109.232 80.1471 108.319 80.5505C107.407 80.9539 106.177 81.146 104.631 81.146C103.094 81.146 101.864 80.9443 100.952 80.5505C100.039 80.1567 99.5783 79.5035 99.5783 78.6102C99.5783 77.7169 100.039 77.0734 100.952 76.67C101.864 76.2762 103.094 76.0744 104.631 76.0744C106.177 76.0744 107.407 76.2762 108.319 76.67ZM107.301 78.6102C107.301 78.3509 107.061 78.1588 106.571 78.0435C106.081 77.9283 105.438 77.8706 104.631 77.8706C103.824 77.8706 103.18 77.9283 102.69 78.0435C102.21 78.1588 101.96 78.3509 101.96 78.6102C101.96 79.1097 102.854 79.3594 104.631 79.3594C106.417 79.3594 107.301 79.1097 107.301 78.6102ZM110.903 71.6656V73.8172H109.587V75.9015H107.368V69.7926H109.587V71.656H110.903V71.6656Z" fill="black"/>
<path d="M117.262 70.2345C117.819 70.513 118.251 70.9068 118.558 71.4159C118.866 71.925 119.029 72.5109 119.029 73.1737C119.029 73.846 118.875 74.4415 118.558 74.941C118.251 75.4501 117.819 75.8439 117.262 76.1129C116.704 76.3914 116.061 76.5259 115.341 76.5259C114.611 76.5259 113.977 76.3914 113.419 76.1129C112.862 75.8343 112.43 75.4405 112.123 74.941C111.815 74.4319 111.652 73.846 111.652 73.1737C111.652 72.5109 111.806 71.925 112.123 71.4159C112.43 70.9068 112.862 70.513 113.419 70.2345C113.977 69.9559 114.62 69.8118 115.341 69.8118C116.061 69.8118 116.704 69.9559 117.262 70.2345ZM114.889 79.0136H122.688V81.0115H112.632V77.083H114.889V79.0136ZM114.265 72.0594C113.986 72.3284 113.852 72.6934 113.852 73.1737C113.852 73.6443 113.986 74.0189 114.265 74.2879C114.543 74.5568 114.899 74.6913 115.341 74.6913C115.773 74.6913 116.138 74.5568 116.407 74.2879C116.685 74.0189 116.82 73.6539 116.82 73.1737C116.82 72.703 116.685 72.3284 116.407 72.0594C116.128 71.7905 115.773 71.656 115.341 71.656C114.899 71.6656 114.543 71.8001 114.265 72.0594ZM122.535 78.1012H120.316V69.8022H122.535V78.1012Z" fill="black"/>
<path d="M135.406 79.1577V81.0115H125.215V77.448H127.001V76.3338H124.321V74.6241H129.479C130.056 74.6241 130.603 74.5952 131.122 74.528C131.641 74.4608 132.063 74.3551 132.38 74.2206V75.9304C131.756 76.1993 130.776 76.3338 129.441 76.3338H129.201V78.0243H127.424V79.1577H135.406ZM125.81 73.6636C125.186 73.2697 124.869 72.703 124.869 71.9634C124.869 71.2238 125.186 70.6475 125.81 70.2633C126.435 69.8695 127.27 69.6774 128.308 69.6774C129.345 69.6774 130.181 69.8695 130.805 70.2633C131.429 70.6475 131.746 71.2238 131.746 71.9634C131.746 72.703 131.429 73.2697 130.805 73.6636C130.181 74.0478 129.345 74.2495 128.308 74.2495C127.27 74.2495 126.435 74.0574 125.81 73.6636ZM127.357 71.4735C127.126 71.5792 127.011 71.7425 127.011 71.9634C127.011 72.1843 127.126 72.3476 127.357 72.4533C127.587 72.5589 127.904 72.6166 128.308 72.6166C128.711 72.6166 129.028 72.5589 129.259 72.4533C129.489 72.3476 129.604 72.1747 129.604 71.9634C129.604 71.7425 129.489 71.5792 129.259 71.4735C129.028 71.3679 128.711 71.3103 128.308 71.3103C127.904 71.3103 127.587 71.3679 127.357 71.4735ZM133.024 76.6508V69.7926H135.243V78.495H133.024V78.178H130.133V76.6412H133.024V76.6508Z" fill="black"/>
<path d="M143.388 71.2622C144.012 72.1555 144.329 73.4906 144.329 75.2772C144.329 77.0638 144.012 78.3989 143.388 79.2922C142.764 80.1855 141.899 80.6273 140.804 80.6273C139.709 80.6273 138.845 80.1855 138.22 79.2922C137.586 78.4085 137.279 77.0638 137.279 75.2772C137.279 73.4906 137.596 72.1555 138.22 71.2622C138.854 70.3786 139.709 69.9271 140.804 69.9271C141.899 69.9271 142.764 70.3786 143.388 71.2622ZM139.469 75.2772C139.469 77.4864 139.92 78.5814 140.804 78.5814C141.688 78.5814 142.13 77.4768 142.13 75.2772C142.13 74.1054 142.005 73.2601 141.765 72.7414C141.525 72.2227 141.198 71.9634 140.804 71.9634C139.92 71.9634 139.469 73.068 139.469 75.2772ZM147.797 81.0115H145.578V69.8022H147.797V81.0115Z" fill="black"/>
<path d="M164.606 78.5718V80.6177H153.262V78.5718H157.815V76.6412H160.043V78.5718H164.606ZM156.614 76.6508C155.673 77.0062 154.674 77.179 153.598 77.179V75.1427C154.539 75.1427 155.385 74.9315 156.163 74.5088C156.931 74.0862 157.45 73.5291 157.728 72.8279H153.838V70.7916H157.776V69.6485H160.062V70.7916H164.029V72.8279H160.158C160.12 73.0104 160.062 73.2217 159.985 73.4714L164.481 75.4021L163.559 77.2271L158.948 75.1524C158.333 75.7959 157.555 76.2954 156.614 76.6508Z" fill="black"/>
<path d="M170.686 78.4085C171.243 78.4085 171.79 78.3701 172.309 78.2932C172.828 78.2164 173.26 78.1107 173.586 77.9571V80.0318C173.25 80.1855 172.828 80.2911 172.309 80.368C171.79 80.4448 171.233 80.4832 170.638 80.4832H165.883V78.4085H167.314V74.3551H169.552V78.4085H170.686ZM170.628 72.1939H166.229V70.1288H172.856V77.1406H170.628V72.1939ZM177.736 75.9496H176.449V81.0211H174.23V69.8118H176.449V73.8076H177.736V75.9496Z" fill="black"/>
<path d="M187.303 78.4085C187.86 78.4085 188.408 78.3701 188.926 78.2932C189.445 78.2164 189.877 78.1107 190.204 77.9571V80.0318C189.868 80.1855 189.445 80.2911 188.926 80.368C188.408 80.4448 187.85 80.4832 187.255 80.4832H182.183V78.4085H184.94V76.5259H182.692V70.1192H189.349V72.1555H184.882V74.4896H189.474V76.5259H187.14V78.4085H187.303ZM193.066 69.8022V81.0115H190.847V69.8022H193.066Z" fill="black"/>
<path d="M200.606 75.306C200.001 75.671 199.271 75.8535 198.397 75.8535C197.686 75.8535 197.062 75.7286 196.514 75.4789C195.967 75.2292 195.544 74.8738 195.247 74.4223C194.949 73.9709 194.795 73.433 194.795 72.8375C194.795 72.2419 194.939 71.7137 195.247 71.2526C195.544 70.7916 195.967 70.4362 196.514 70.1865C197.062 69.9367 197.686 69.8118 198.397 69.8118C199.233 69.8118 199.953 69.9847 200.558 70.3209C201.154 70.6571 201.567 71.1374 201.797 71.7425H203.507V69.8022H205.726V76.0168H203.507V73.8268H201.836C201.624 74.4512 201.211 74.941 200.606 75.306ZM205.332 81.1268L203.469 79.6476C203.075 80.0894 202.614 80.4256 202.095 80.6561C201.576 80.8962 201.029 81.0115 200.443 81.0115L198.733 79.6572C198.33 80.0894 197.869 80.4256 197.36 80.6657C196.851 80.8963 196.313 81.0115 195.746 81.0115V79.004C196.092 79.004 196.428 78.8887 196.735 78.6582C197.043 78.4277 197.302 78.1107 197.513 77.6977C197.725 77.2943 197.859 76.8429 197.907 76.353L200.049 76.7084C199.991 77.1983 199.876 77.6497 199.713 78.0723L200.933 78.908C201.355 78.7639 201.72 78.4469 202.028 77.9859C202.335 77.5152 202.527 76.9773 202.594 76.353L204.736 76.7084C204.669 77.2079 204.554 77.6593 204.41 78.0627L206.581 79.5419L205.332 81.1268ZM197.379 73.7116C197.629 73.9325 197.965 74.0381 198.397 74.0381C198.829 74.0381 199.165 73.9325 199.415 73.7116C199.665 73.4906 199.79 73.2025 199.79 72.8279C199.79 72.4629 199.665 72.1651 199.415 71.9442C199.165 71.7233 198.829 71.6176 198.397 71.6176C197.965 71.6176 197.629 71.7233 197.379 71.9442C197.129 72.1651 197.004 72.4533 197.004 72.8279C197.004 73.2025 197.129 73.4906 197.379 73.7116Z" fill="black"/>
<path d="M218.808 74.3935V76.084H207.464V74.3935H218.808ZM213.093 72.2516C212.449 72.7798 211.662 73.1929 210.74 73.4811C209.818 73.7788 208.838 73.9325 207.791 73.9517V72.1843C208.521 72.1555 209.212 72.0307 209.875 71.8001C210.538 71.5696 211.095 71.2526 211.546 70.8588C211.998 70.4554 212.276 69.9943 212.392 69.4756L214.639 69.8599C214.563 70.2153 214.438 70.5514 214.274 70.8588L218.645 72.3188L217.934 73.9709L213.093 72.2516ZM215.984 76.6123H218.155V81.0115H208.117V76.6123H210.288V77.2079H215.984V76.6123ZM215.984 79.4075V78.7735H210.288V79.4075H215.984Z" fill="black"/>
<path d="M222.871 78.4662H225.224C225.762 78.4662 226.291 78.4181 226.819 78.3221C227.347 78.226 227.779 78.0916 228.125 77.9283V79.955C227.789 80.1182 227.366 80.2527 226.838 80.3487C226.319 80.4448 225.772 80.4928 225.224 80.4928H220.585V70.004H222.871V78.4662ZM230.94 81.0115H228.721V69.8022H230.94V81.0115Z" fill="black"/>
<path d="M237.606 78.4757C238.153 78.4757 238.681 78.4373 239.219 78.3413C239.748 78.2548 240.18 78.13 240.516 77.9763V79.955C240.189 80.1182 239.748 80.2527 239.171 80.3391C238.595 80.4352 238.028 80.4736 237.462 80.4736H233.11V70.052H239.632V72.0594H235.368V78.4662H237.606V78.4757ZM244.569 76.0456H243.254V81.0115H241.035V69.8022H243.254V73.9037H244.569V76.0456Z" fill="black"/>
<path d="M247.576 78.6774C247.816 78.9272 247.941 79.2441 247.941 79.6187C247.941 79.9933 247.816 80.3104 247.576 80.5601C247.326 80.8098 247.019 80.9346 246.644 80.9346C246.27 80.9346 245.953 80.8098 245.703 80.5601C245.453 80.3104 245.328 80.0029 245.328 79.6187C245.328 79.2345 245.453 78.9272 245.703 78.6774C245.953 78.4277 246.27 78.3028 246.644 78.3028C247.019 78.3028 247.326 78.4373 247.576 78.6774Z" fill="black"/>
<path d="M18.76 17.5594H20.6715V21.3439H11.5561V17.5594H12.4206V17.0023H10.7493V15.552H13.7845C14.2264 15.552 14.6586 15.5231 15.0908 15.4655C15.5231 15.4079 15.8785 15.3214 16.1666 15.2158V16.6374C15.6864 16.8295 15.0332 16.9447 14.2167 16.9831V17.7227H13.4676V18.0493H18.76V17.5594ZM11.5177 14.6586C11.0758 14.3032 10.8549 13.8326 10.8549 13.2275C10.8549 12.6319 11.0758 12.1517 11.5177 11.7963C11.9595 11.4409 12.5551 11.268 13.2947 11.268C14.0247 11.268 14.6105 11.4409 15.0524 11.7963C15.4942 12.1517 15.7151 12.6223 15.7151 13.2275C15.7151 13.823 15.4942 14.3032 15.0524 14.6586C14.6105 15.014 14.0247 15.187 13.2947 15.187C12.5551 15.187 11.9595 15.014 11.5177 14.6586ZM12.776 12.7953C12.6319 12.9105 12.5647 13.0546 12.5647 13.2178C12.5647 13.3907 12.6319 13.5348 12.776 13.6405C12.92 13.7557 13.093 13.8134 13.3043 13.8134C13.5156 13.8134 13.6885 13.7557 13.8229 13.6405C13.9574 13.5252 14.0247 13.3811 14.0247 13.2178C14.0247 13.045 13.9574 12.9009 13.8229 12.7953C13.6885 12.68 13.5156 12.6223 13.3043 12.6223C13.093 12.6319 12.92 12.6896 12.776 12.7953ZM18.76 19.9415V19.4132H13.4676V19.9415H18.76ZM16.6565 14.2264H15.9745V12.5455H16.6565V11.4121H18.395V17.1272H16.6565V14.2264ZM20.6811 11.3737V17.2137H18.9233V11.3737H20.6811Z" fill="black"/>
<path d="M29.8251 19.0002C30.1036 18.9426 30.3534 18.8658 30.5647 18.7889V20.489C30.2861 20.6139 29.9308 20.71 29.5081 20.7676C29.0759 20.8252 28.6244 20.8636 28.1538 20.8636H25.1858V19.1347H25.7332V13.3236H25.2626V11.5946H30.3149V13.3236H29.8251V19.0002ZM27.4622 19.1443H28.1058V13.3332H27.4622V19.1443ZM31.0161 11.4217H32.7739V21.171H31.0161V16.9063H30.2957V15.0333H31.0161V11.4217ZM35.1752 11.3737V21.3439H33.3886V11.3737H35.1752Z" fill="black"/>
<path d="M42.2063 12.6704C42.7634 13.458 43.042 14.649 43.042 16.2339C43.042 17.8188 42.7634 19.0098 42.2063 19.7975C41.6492 20.5851 40.8904 20.9789 39.9107 20.9789C38.9405 20.9789 38.1722 20.5851 37.6151 19.7975C37.058 19.0098 36.7794 17.8188 36.7794 16.2339C36.7794 14.649 37.058 13.458 37.6151 12.6704C38.1722 11.8828 38.9405 11.4889 39.9107 11.4889C40.8808 11.4889 41.6492 11.8828 42.2063 12.6704ZM38.7196 16.2339C38.7196 18.1934 39.1134 19.1731 39.9107 19.1731C40.6983 19.1731 41.0922 18.1934 41.0922 16.2339C41.0922 15.1869 40.9865 14.4378 40.7752 13.9767C40.5638 13.5157 40.2757 13.2851 39.9203 13.2851C39.1134 13.2947 38.7196 14.2744 38.7196 16.2339ZM46.1253 21.3343H44.1562V11.3641H46.1253V21.3343Z" fill="black"/>
<path d="M52.1575 15.8978L55.0486 19.6534L53.483 20.8156L51.4755 18.0877C51.0721 18.9714 50.563 19.6534 49.9387 20.1336C49.3239 20.6139 48.6324 20.854 47.8832 20.8636V18.8753C48.3634 18.8177 48.7956 18.5584 49.1702 18.0973C49.5448 17.6363 49.8426 17.0023 50.0539 16.1859C50.2748 15.3791 50.3901 14.4473 50.4189 13.4004H48.1713V11.5946H54.5396V13.4004H52.4072C52.3784 14.3033 52.2919 15.1389 52.1575 15.8978ZM57.3443 11.3737V21.3439H55.3752V11.3737H57.3443Z" fill="black"/>
<path d="M64.8844 20.758C64.4041 20.8348 63.9046 20.8732 63.3956 20.8732H58.9387V19.0291H63.482C63.9815 19.0291 64.4618 19.0002 64.9228 18.933C65.3839 18.8657 65.7681 18.7697 66.0562 18.6352V20.4602C65.7585 20.5851 65.3742 20.6811 64.8844 20.758ZM64.0295 11.8443C64.5098 12.1133 64.8844 12.4879 65.1533 12.9777C65.4223 13.4676 65.5663 14.0343 65.5663 14.6682C65.5663 15.3022 65.4319 15.8689 65.1533 16.3588C64.8844 16.8486 64.5098 17.2232 64.0295 17.4922C63.5493 17.7611 63.0018 17.8956 62.387 17.8956C61.7723 17.8956 61.2248 17.7611 60.7445 17.4922C60.2642 17.2232 59.88 16.8486 59.6111 16.3588C59.3325 15.8689 59.1981 15.3022 59.1981 14.6682C59.1981 14.0343 59.3325 13.4676 59.6111 12.9777C59.88 12.4879 60.2642 12.1037 60.7445 11.8443C61.2248 11.5754 61.7723 11.4409 62.387 11.4409C63.0018 11.4409 63.5493 11.5754 64.0295 11.8443ZM61.4553 13.6117C61.2248 13.8903 61.1095 14.2456 61.1095 14.6682C61.1095 15.1005 61.2248 15.4559 61.4553 15.7345C61.6858 16.0034 62.0028 16.1475 62.387 16.1475C62.7808 16.1475 63.0882 16.013 63.3187 15.7345C63.5492 15.4559 63.6645 15.1101 63.6645 14.6779C63.6645 14.2552 63.5492 13.8999 63.3187 13.6213C63.0882 13.3428 62.7712 13.2083 62.387 13.2083C62.0028 13.1987 61.6858 13.3428 61.4553 13.6117ZM68.6016 21.3343H66.6325V11.3641H68.6016V21.3343Z" fill="black"/>
<path d="M78.9944 11.4217H80.8194V21.171H78.9944V16.9063H78.13V20.8732H73.6059V11.6042H78.13V15.0333H78.9944V11.4217ZM76.3146 13.3908H75.4309V19.0867H76.3146V13.3908ZM83.3552 11.3737V21.3439H81.511V11.3737H83.3552Z" fill="black"/>
<path d="M89.1085 15.6096L92.0573 19.7206L90.4628 20.8636L88.4072 17.886C87.9846 18.8466 87.466 19.5765 86.8416 20.0952C86.2173 20.6043 85.5161 20.8732 84.7573 20.8732V18.8466C85.2856 18.7793 85.7562 18.4431 86.1693 17.8092C86.5823 17.1848 86.9089 16.33 87.1394 15.2446C87.3699 14.1592 87.4852 12.9393 87.4852 11.5658L89.4926 11.633C89.4926 13.0738 89.3582 14.3897 89.1085 15.6096ZM94.2952 11.3737V21.3439H92.3262V11.3737H94.2952Z" fill="black"/>
<path d="M100.328 15.8978L103.219 19.6534L101.653 20.8156L99.6456 18.0877C99.2421 18.9714 98.7331 19.6534 98.1088 20.1336C97.494 20.6139 96.8024 20.854 96.0532 20.8636V18.8753C96.5335 18.8177 96.9657 18.5584 97.3403 18.0973C97.715 17.6363 98.0127 17.0023 98.224 16.1859C98.4449 15.3791 98.5602 14.4473 98.589 13.4004H96.3414V11.5946H102.71V13.4004H100.577C100.558 14.3033 100.472 15.1389 100.328 15.8978ZM105.524 11.3737V21.3439H103.555V11.3737H105.524Z" fill="black"/>
<path d="M286.957 120.633H9.76013V161.484H286.957V120.633Z" fill="#F0F0F0" stroke="black" stroke-width="0.75" stroke-miterlimit="10"/>
<path d="M269.648 149.814H216.723C214.418 149.814 212.555 147.941 212.555 145.645V136.482C212.555 134.176 214.428 132.313 216.723 132.313H269.648C271.953 132.313 273.817 134.186 273.817 136.482V145.645C273.817 147.95 271.953 149.814 269.648 149.814Z" fill="white" stroke="black" stroke-width="0.75" stroke-miterlimit="10"/>
<path d="M239.152 137.538H232.505V136.174H234.801V135.512H236.827V136.174H239.152V137.538ZM236.75 142.639H232.524V141.207H234.858V140.823C234.244 140.737 233.763 140.573 233.408 140.314C233.053 140.064 232.88 139.728 232.88 139.325C232.88 138.825 233.149 138.441 233.696 138.172C234.244 137.903 234.954 137.759 235.848 137.759C236.731 137.759 237.452 137.894 237.999 138.172C238.547 138.441 238.816 138.825 238.816 139.325C238.816 139.728 238.633 140.055 238.278 140.314C237.922 140.564 237.432 140.737 236.808 140.833V141.207C237.317 141.207 237.797 141.179 238.259 141.121C238.72 141.063 239.094 140.967 239.382 140.842V142.274C238.816 142.514 237.942 142.639 236.75 142.639ZM233.062 143.023H241.909V145.895H239.93V144.483H233.062V143.023ZM235.012 139.536C235.214 139.584 235.492 139.613 235.848 139.613C236.203 139.613 236.482 139.584 236.683 139.536C236.885 139.488 236.981 139.411 236.981 139.325C236.981 139.229 236.885 139.161 236.683 139.113C236.482 139.065 236.203 139.037 235.848 139.037C235.492 139.037 235.214 139.065 235.012 139.113C234.81 139.161 234.714 139.238 234.714 139.325C234.714 139.411 234.81 139.488 235.012 139.536ZM243.052 139.824H241.909V142.677H239.939V135.819H241.909V137.999H243.052V139.824Z" fill="black"/>
<path d="M248.709 136.194C249.209 136.443 249.593 136.789 249.862 137.241C250.14 137.692 250.275 138.211 250.275 138.806C250.275 139.402 250.14 139.93 249.862 140.381C249.583 140.833 249.199 141.179 248.709 141.428C248.219 141.668 247.643 141.793 246.999 141.793C246.356 141.793 245.78 141.668 245.29 141.428C244.8 141.179 244.416 140.833 244.137 140.381C243.858 139.93 243.724 139.402 243.724 138.806C243.724 138.211 243.858 137.692 244.137 137.241C244.416 136.789 244.8 136.443 245.29 136.194C245.78 135.944 246.356 135.819 246.999 135.819C247.643 135.819 248.219 135.944 248.709 136.194ZM246.606 144.003H253.541V145.78H244.598V142.293H246.606V144.003ZM246.049 137.826C245.799 138.067 245.684 138.393 245.684 138.816C245.684 139.238 245.808 139.565 246.049 139.805C246.289 140.045 246.606 140.16 246.999 140.16C247.384 140.16 247.701 140.045 247.95 139.805C248.2 139.565 248.315 139.238 248.315 138.816C248.315 138.393 248.19 138.067 247.95 137.826C247.71 137.586 247.393 137.471 246.999 137.471C246.606 137.471 246.289 137.586 246.049 137.826ZM253.396 143.186H251.427V135.809H253.396V143.186Z" fill="black"/>
<path d="M282.75 17.0504H250.313C247.988 17.0504 246.106 15.1677 246.106 12.8433V1.00003H286.957V12.8433C286.947 15.1677 285.065 17.0504 282.75 17.0504Z" fill="#FF0000" stroke="black" stroke-width="0.75" stroke-miterlimit="10"/>
<path d="M265.066 8.06946L262.252 4.26583H265.066L266.565 6.46541L268.034 4.26583H270.685L267.938 8.01183L270.839 11.9596H268.025L266.44 9.64473L264.865 11.9596H262.214L265.066 8.06946Z" fill="black"/>
<path d="M57.8438 79.1865H56.2205L55.6154 72.0306H58.4489L57.8438 79.1865ZM58.0263 80.5409C58.2856 80.8002 58.4201 81.1364 58.4201 81.5398C58.4201 81.9432 58.2856 82.2698 58.0263 82.5291C57.7669 82.7885 57.4307 82.9134 57.0273 82.9134C56.6239 82.9134 56.2973 82.7885 56.0284 82.5291C55.769 82.2698 55.6345 81.9432 55.6345 81.5398C55.6345 81.1364 55.769 80.8098 56.0284 80.5409C56.2877 80.2815 56.6239 80.1471 57.0273 80.1471C57.4307 80.1471 57.7669 80.2815 58.0263 80.5409Z" fill="black"/>
</svg>
