<svg width="503" height="220" viewBox="0 0 503 220" fill="none" xmlns="http://www.w3.org/2000/svg">
<path d="M494.282 219.329H8.89191C4.77862 219.329 1.43945 215.717 1.43945 211.267V8.65852C1.43945 4.20888 4.77862 0.59668 8.89191 0.59668H494.271C498.384 0.59668 501.723 4.20888 501.723 8.65852V211.255C501.735 215.717 498.396 219.329 494.282 219.329Z" fill="white" stroke="black" stroke-miterlimit="10"/>
<path d="M490.37 51.3057H12.792V207.976H490.37V51.3057Z" fill="#F0F0F0" stroke="black" stroke-width="0.75" stroke-miterlimit="10"/>
<path d="M31.3637 23.049V25.6034H13.3838V23.049H20.622V22.4711C16.4017 22.2052 14.2972 21.0956 14.2972 19.1191C14.2972 17.9401 15.0141 17.0848 16.4594 16.5415C17.9048 15.9983 19.8704 15.7324 22.3679 15.7324C24.8654 15.7324 26.8312 15.9983 28.2765 16.5415C29.7218 17.0848 30.4387 17.9401 30.4387 19.1191C30.4387 21.084 28.3343 22.2052 24.1139 22.4711V23.049H31.3637ZM17.8701 31.4867H30.5081V33.7753H14.436V29.0479H26.8774V28.4468H14.3897V26.2392H30.3114V30.8741H17.8701V31.4867ZM19.1767 19.7779C19.9514 19.9282 21.0151 20.0091 22.3679 20.0091C23.7323 20.0091 24.7961 19.9282 25.5592 19.7779C26.3339 19.6277 26.7155 19.408 26.7155 19.1075C26.7155 18.807 26.3223 18.599 25.5476 18.4371C24.7729 18.2869 23.7092 18.206 22.3679 18.206C21.0266 18.206 19.9629 18.2869 19.1882 18.4371C18.4135 18.5874 18.0204 18.807 18.0204 19.1075C18.0204 19.408 18.402 19.6277 19.1767 19.7779Z" fill="black"/>
<path d="M51.3783 22.8977V25.4174H33.3984V22.8977H46.7995V21.9383H34.4738V19.4879H46.7995V18.5285H34.4738V16.0088H50.2914V22.8977H51.3783ZM37.8963 31.6128H50.5343V33.7743H34.4622V29.0353H46.9036V28.3533H34.416V26.215H50.3377V30.9424H37.8963V31.6128Z" fill="black"/>
<path d="M70.9885 30.8503V33.7862H54.8354V28.1456H57.6683V26.3772H53.4248V23.6725H61.5996C62.5131 23.6725 63.3802 23.6263 64.2012 23.5107C65.0221 23.4066 65.6812 23.2448 66.2015 23.0252V25.7299C65.2187 26.1576 63.6577 26.3772 61.5417 26.3772H61.1717V29.0588H58.362V30.8503H70.9885ZM55.7836 22.1352C54.7892 21.5226 54.292 20.621 54.292 19.4421C54.292 18.2631 54.7892 17.3615 55.7836 16.7489C56.7779 16.1363 58.0961 15.8242 59.7495 15.8242C61.403 15.8242 62.7211 16.1363 63.7155 16.7489C64.7099 17.3615 65.2071 18.2631 65.2071 19.4421C65.2071 20.621 64.7099 21.5226 63.7155 22.1352C62.7211 22.7594 61.403 23.0599 59.7495 23.0599C58.0961 23.0599 56.7779 22.7594 55.7836 22.1352ZM58.2464 18.6676C57.8764 18.841 57.6914 19.1068 57.6914 19.4536C57.6914 19.8004 57.8764 20.0662 58.2464 20.228C58.6164 20.4014 59.1136 20.4939 59.7611 20.4939C60.3971 20.4939 60.9058 20.4014 61.2758 20.228C61.6458 20.0546 61.8308 19.7888 61.8308 19.4536C61.8308 19.1184 61.6458 18.841 61.2758 18.6676C60.9058 18.4943 60.4086 18.4133 59.7611 18.4133C59.1136 18.4018 58.6048 18.4943 58.2464 18.6676ZM67.219 26.8742V16.0092H70.734V29.7985H67.219V29.3015H62.6402V26.8626H67.219V26.8742Z" fill="black"/>
<path d="M79.5458 18.1945H82.5174V21.3384H73.0244V18.1945H76.0423V15.9521H79.5342V18.1945H79.5458ZM80.1123 22.6677C80.7714 23.0838 81.2917 23.7079 81.6617 24.5402C82.0318 25.3724 82.2283 26.3895 82.2283 27.6032C82.2283 28.8168 82.0433 29.834 81.6617 30.6662C81.2917 31.4984 80.7714 32.1226 80.1123 32.5387C79.4533 32.9548 78.7017 33.1628 77.8577 33.1628C76.5626 33.1628 75.522 32.6889 74.7242 31.7411C73.9263 30.7933 73.5332 29.4179 73.5332 27.6147C73.5332 25.8116 73.9263 24.4361 74.7242 23.4883C75.522 22.5405 76.5626 22.0666 77.8577 22.0666C78.7017 22.0435 79.4533 22.2516 80.1123 22.6677ZM78.7479 29.4641C78.9792 29.0133 79.0948 28.3892 79.0948 27.6032C79.0948 26.8172 78.9792 26.193 78.7479 25.7422C78.5167 25.2915 78.2276 25.0603 77.8692 25.0603C77.5223 25.0603 77.2332 25.2799 77.0135 25.7307C76.7939 26.1699 76.6782 26.7941 76.6782 27.6032C76.6782 28.4123 76.7939 29.0364 77.0135 29.4756C77.2332 29.9149 77.5223 30.146 77.8692 30.146C78.216 30.1345 78.5167 29.9149 78.7479 29.4641ZM91.1316 16.0099V33.7754H87.9056V25.8694H86.4718V33.4634H83.292V16.0909H86.4718V22.5405H87.9056V16.0099H91.1316Z" fill="black"/>
<path d="M111.447 29.9264V33.1513H93.4668V29.9264H96.9471V26.0774C96.0568 25.5804 95.3746 24.9563 94.889 24.1934C94.4033 23.4305 94.1605 22.5983 94.1605 21.6852C94.1605 20.5756 94.5074 19.5931 95.1896 18.7378C95.8718 17.8824 96.8546 17.2236 98.1149 16.7381C99.3753 16.2527 100.832 16.0215 102.462 16.0215C104.104 16.0215 105.55 16.2642 106.81 16.7381C108.07 17.212 109.042 17.8824 109.735 18.7378C110.418 19.5931 110.764 20.5756 110.764 21.6852C110.764 22.5983 110.522 23.4421 110.036 24.1934C109.55 24.9447 108.868 25.5804 107.978 26.0774V29.9264H111.447ZM99.144 19.8821C98.3 20.3444 97.8722 20.9454 97.8722 21.6967C97.8722 22.1822 98.0687 22.6099 98.4503 22.9913C98.8319 23.3727 99.3753 23.6732 100.069 23.8813C100.763 24.0894 101.549 24.1934 102.439 24.1934C103.33 24.1934 104.116 24.0894 104.81 23.8813C105.504 23.6732 106.047 23.3727 106.428 22.9913C106.81 22.6099 107.007 22.1706 107.007 21.6967C107.007 20.9454 106.579 20.3444 105.735 19.8821C104.891 19.4197 103.781 19.2001 102.428 19.2001C101.098 19.2001 99.9997 19.4313 99.144 19.8821ZM100.462 29.9264H104.463V27.1986C103.838 27.2795 103.168 27.3257 102.462 27.3257C101.757 27.3257 101.087 27.2795 100.462 27.1986V29.9264Z" fill="black"/>
<path d="M113.863 21.2909H117.563V22.5392C118.326 21.5105 119.494 21.002 121.055 21.002C122.212 21.002 123.229 21.2793 124.131 21.8226C125.033 22.3659 125.738 23.1287 126.235 24.0996C126.733 25.0706 126.987 26.1686 126.987 27.3823C126.987 28.5959 126.733 29.694 126.235 30.6649C125.738 31.6358 125.033 32.3987 124.131 32.9419C123.229 33.4852 122.2 33.7626 121.055 33.7626C119.483 33.7626 118.326 33.2424 117.563 32.2253V38.5478H113.863V21.2909ZM122.582 29.7171C123.113 29.116 123.368 28.3416 123.368 27.3938C123.368 26.446 123.102 25.6716 122.582 25.0706C122.05 24.4695 121.356 24.169 120.477 24.169C119.575 24.169 118.858 24.4695 118.315 25.0706C117.771 25.6716 117.506 26.446 117.506 27.3938C117.506 28.3416 117.771 29.116 118.315 29.7171C118.858 30.3181 119.575 30.6187 120.477 30.6187C121.356 30.6187 122.061 30.3181 122.582 29.7171Z" fill="black"/>
<path d="M132.86 33.4853H129.16V16.0088H132.86V33.4853Z" fill="black"/>
<path d="M146.377 30.3413V33.4853H134.93V31.0117L140.965 24.4349H135.196V21.291H145.972V23.7645L139.936 30.3413H146.377Z" fill="black"/>
<path d="M153.026 20.2406L155.211 21.0959L153.962 23.2805L152.112 21.801L152.471 24.1358H149.95L150.308 21.801L148.458 23.2574L147.187 21.0959L149.395 20.2406L147.21 19.3622L148.458 17.1776L150.308 18.6571L149.95 16.3223H152.471L152.112 18.6571L153.962 17.2007L155.234 19.3622L153.026 20.2406Z" fill="black"/>
<path d="M162.09 20.2406L164.275 21.0959L163.027 23.2805L161.177 21.801L161.535 24.1358H159.014L159.373 21.801L157.523 23.2574L156.251 21.0959L158.459 20.2406L156.274 19.3622L157.523 17.1776L159.373 18.6571L159.014 16.3223H161.535L161.177 18.6571L163.027 17.2007L164.299 19.3622L162.09 20.2406Z" fill="black"/>
<path d="M171.145 20.2406L173.33 21.0959L172.081 23.2805L170.231 21.801L170.59 24.1358H168.069L168.428 21.801L166.578 23.2574L165.306 21.0959L167.514 20.2406L165.329 19.3622L166.578 17.1776L168.428 18.6571L168.069 16.3223H170.59L170.231 18.6571L172.081 17.2007L173.353 19.3622L171.145 20.2406Z" fill="black"/>
<path d="M58.6481 108.792C59.3765 109.347 59.9431 110.191 60.3478 111.323C60.7525 112.456 60.9606 113.855 60.9606 115.531C60.9606 117.207 60.7525 118.617 60.3478 119.749C59.9431 120.882 59.3765 121.726 58.6481 122.269C57.9197 122.824 57.0756 123.101 56.1159 123.101C54.6243 123.101 53.4449 122.466 52.5661 121.194C51.6874 119.923 51.248 118.039 51.248 115.531C51.248 113.022 51.6874 111.138 52.5661 109.867C53.4449 108.595 54.6243 107.96 56.1159 107.96C57.0756 107.971 57.9197 108.249 58.6481 108.792ZM58.255 119.934C58.7985 118.975 59.0643 117.507 59.0643 115.542C59.0643 113.577 58.7985 112.109 58.255 111.15C57.7116 110.191 56.9946 109.705 56.1043 109.705C55.2024 109.705 54.4855 110.191 53.9421 111.15C53.3986 112.109 53.1327 113.577 53.1327 115.542C53.1327 117.507 53.3986 118.975 53.9421 119.934C54.4855 120.894 55.2024 121.368 56.1043 121.368C56.9946 121.368 57.7116 120.894 58.255 119.934ZM67.7595 115.993H65.4701V123.864H63.5854V107.59H65.4701V114.19H67.7595V115.993Z" fill="black"/>
<path d="M70.002 108.087H71.9329V121.16H76.662C77.4252 121.16 78.1999 121.09 78.9746 120.94C79.7493 120.79 80.3852 120.605 80.8824 120.362V122.096C80.3852 122.339 79.7609 122.535 78.9977 122.674C78.2346 122.824 77.4599 122.893 76.6736 122.893H70.0135V108.087H70.002ZM82.3856 107.59H84.2703V123.864L82.3856 123.887V107.59Z" fill="black"/>
<path d="M95.128 123.205C94.3186 122.801 93.6942 122.257 93.2548 121.541C92.8039 120.836 92.5726 120.038 92.5264 119.148H94.5152C94.5383 120.003 94.8621 120.697 95.4633 121.24C96.0646 121.783 96.897 122.061 97.9377 122.061C98.6314 122.061 99.2443 121.945 99.753 121.702C100.273 121.46 100.666 121.136 100.932 120.708C101.21 120.292 101.337 119.83 101.337 119.321C101.337 118.466 101.013 117.807 100.366 117.322C99.7184 116.836 98.8165 116.594 97.6602 116.594H95.9837V114.941H97.6602C98.6314 114.941 99.4062 114.686 100.019 114.189C100.62 113.692 100.921 113.045 100.921 112.259C100.921 111.762 100.794 111.311 100.539 110.895C100.285 110.479 99.9149 110.155 99.4293 109.913C98.9437 109.67 98.3656 109.554 97.7181 109.554C97.059 109.554 96.4808 109.693 96.0067 109.971C95.5211 110.248 95.1626 110.629 94.9083 111.092C94.6655 111.566 94.5383 112.074 94.5383 112.617H92.5379C92.5379 111.727 92.7576 110.918 93.1854 110.19C93.6133 109.462 94.2261 108.884 95.0124 108.468C95.7986 108.052 96.7005 107.844 97.7181 107.844C98.7356 107.844 99.6374 108.04 100.424 108.422C101.21 108.815 101.823 109.335 102.251 110.005C102.678 110.676 102.898 111.404 102.898 112.201C102.898 113.091 102.632 113.854 102.1 114.49C101.568 115.126 100.921 115.53 100.169 115.715C101.025 115.865 101.753 116.258 102.366 116.883C102.979 117.507 103.291 118.316 103.291 119.31C103.291 120.165 103.06 120.928 102.609 121.61C102.158 122.292 101.522 122.824 100.701 123.217C99.8802 123.61 98.9552 123.806 97.903 123.806C96.874 123.806 95.9373 123.61 95.128 123.205Z" fill="black"/>
<path d="M111.535 117.761H105.962V107.89H107.87V116.166H111.662C113.998 116.166 115.709 115.97 116.773 115.577V117.16C115.767 117.565 114.021 117.761 111.535 117.761ZM120.982 121.98V123.656H106.771V119.102H108.702V121.98H120.982ZM118.773 114.201H112.9V112.652H118.773V110.838H112.9V109.289H118.773V107.578H120.646V119.726H118.773V114.201Z" fill="black"/>
<path d="M145.252 115.08V116.606H128.983V115.08H136.175V113.404H130.151V107.775H144.096V109.301H132.047V111.879H144.292V113.404H138.06V115.08H145.252ZM142.304 118.664C143.622 119.137 144.281 119.889 144.281 120.929C144.281 121.969 143.622 122.732 142.304 123.206C140.985 123.68 139.251 123.923 137.112 123.923C134.973 123.923 133.25 123.68 131.92 123.206C130.602 122.732 129.932 121.969 129.932 120.929C129.932 119.889 130.591 119.126 131.909 118.664C133.227 118.19 134.961 117.958 137.1 117.958C139.239 117.958 140.997 118.19 142.304 118.664ZM140.824 122.073C141.806 121.831 142.304 121.449 142.304 120.929C142.304 120.42 141.806 120.051 140.824 119.808C139.841 119.565 138.603 119.45 137.112 119.45C135.62 119.45 134.383 119.565 133.4 119.808C132.418 120.051 131.92 120.42 131.92 120.929C131.92 121.449 132.418 121.831 133.4 122.073C134.383 122.316 135.62 122.432 137.112 122.432C138.603 122.432 139.841 122.316 140.824 122.073Z" fill="black"/>
<path d="M156.86 114.93C156.444 115.646 155.854 116.201 155.091 116.606C154.328 117.01 153.438 117.218 152.397 117.218C151.368 117.218 150.466 117.01 149.703 116.606C148.94 116.201 148.339 115.635 147.934 114.918C147.529 114.201 147.31 113.392 147.31 112.491C147.31 111.589 147.518 110.78 147.934 110.063C148.35 109.347 148.94 108.78 149.703 108.376C150.478 107.971 151.368 107.763 152.397 107.763C153.426 107.763 154.328 107.971 155.091 108.376C155.854 108.78 156.444 109.347 156.86 110.052C157.277 110.757 157.485 111.578 157.485 112.491C157.473 113.404 157.265 114.213 156.86 114.93ZM150.57 121.946H162.503V123.656H148.639V118.339H150.57V121.946ZM150.073 114.768C150.663 115.334 151.437 115.611 152.397 115.611C153.357 115.611 154.132 115.334 154.71 114.768C155.288 114.201 155.577 113.438 155.577 112.491C155.577 111.543 155.288 110.78 154.698 110.202C154.108 109.636 153.345 109.347 152.386 109.347C151.414 109.347 150.64 109.636 150.061 110.202C149.472 110.768 149.183 111.531 149.183 112.491C149.206 113.438 149.495 114.201 150.073 114.768ZM164.364 111.462V113.277H162.075V119.68H160.19V107.59H162.075V111.462H164.364Z" fill="black"/>
<path d="M182.021 110.584H170.967V109.081H175.546V107.312H177.453V109.081H182.032V110.584H182.021ZM174.031 117.38C173.291 117.126 172.713 116.756 172.297 116.282C171.88 115.808 171.672 115.242 171.672 114.594C171.672 113.959 171.88 113.404 172.297 112.93C172.713 112.456 173.291 112.086 174.031 111.832C174.771 111.578 175.592 111.45 176.494 111.45C177.396 111.45 178.217 111.578 178.945 111.832C179.673 112.086 180.252 112.456 180.668 112.93C181.084 113.404 181.292 113.959 181.292 114.594C181.292 115.242 181.084 115.808 180.668 116.282C180.252 116.756 179.673 117.126 178.945 117.38C178.217 117.634 177.396 117.761 176.494 117.761C175.58 117.761 174.771 117.634 174.031 117.38ZM171.984 118.848H185.755V123.864H183.848V120.466H171.984V118.848ZM174.32 113.358C173.777 113.67 173.499 114.086 173.499 114.594C173.499 115.103 173.777 115.519 174.32 115.843C174.863 116.166 175.592 116.328 176.494 116.328C177.396 116.328 178.124 116.166 178.667 115.843C179.211 115.519 179.488 115.103 179.488 114.594C179.488 114.097 179.211 113.693 178.656 113.369C178.101 113.046 177.384 112.884 176.494 112.884C175.58 112.884 174.863 113.046 174.32 113.358ZM188.045 113.554H185.755V117.981H183.871V107.59H185.755V111.751H188.045V113.554Z" fill="black"/>
<path d="M205.632 121.345V123.078H189.363V121.345H192.532V114.802H194.416V121.345H197.619V114.802H199.527V121.345H205.632ZM202.649 109.913H190.335V108.156H204.58V118.906H202.649V109.913Z" fill="black"/>
<path d="M220.271 121.183C221.046 121.183 221.82 121.113 222.584 120.975C223.358 120.836 223.983 120.639 224.48 120.408V122.119C223.994 122.362 223.358 122.547 222.56 122.685C221.763 122.824 220.965 122.893 220.167 122.893H213.796V108.179H223.196V109.89H215.727V121.171H220.271V121.183ZM230.076 115.993H227.787V123.864H225.902V107.59H227.787V114.19H230.076V115.993Z" fill="black"/>
<path d="M232.318 108.087H234.249V121.16H238.978C239.742 121.16 240.516 121.09 241.291 120.94C242.066 120.79 242.702 120.605 243.199 120.362V122.096C242.702 122.339 242.077 122.535 241.314 122.674C240.551 122.812 239.776 122.893 238.99 122.893H232.33V108.087H232.318ZM244.702 107.59H246.587V123.864L244.702 123.887V107.59Z" fill="black"/>
<path d="M259.572 116.79H250.414V107.983H259.572V116.79ZM265.411 121.957V123.656H251.2V118.374H253.131V121.957H265.411ZM257.71 109.624H252.276V115.149H257.71V109.624ZM263.191 115.045H260.52V113.369H263.191V111.081H260.52V109.405H263.191V107.59H265.064V119.692H263.191V115.045Z" fill="black"/>
<path d="M274.407 114.12L279.494 121.899L277.91 122.928L273.852 116.525C273.297 118.466 272.533 119.992 271.562 121.09C270.591 122.188 269.481 122.789 268.209 122.893V120.963C269.226 120.801 270.082 120.119 270.788 118.94C271.493 117.761 272.025 116.224 272.395 114.317C272.753 112.421 272.95 110.306 272.961 107.983L274.892 108.064C274.881 110.225 274.73 112.248 274.407 114.12ZM283.414 107.59V123.864H281.529V115.253H277.332V113.485H281.529V107.59H283.414Z" fill="black"/>
<path d="M308.03 114.56V116.028H291.762V114.56H298.954V113.439C297.069 113.369 295.566 113.103 294.433 112.63C293.3 112.156 292.733 111.439 292.733 110.491C292.733 109.474 293.392 108.723 294.71 108.249C296.028 107.775 297.751 107.532 299.89 107.532C302.029 107.532 303.752 107.775 305.07 108.249C306.388 108.723 307.048 109.474 307.048 110.491C307.048 111.439 306.481 112.156 305.348 112.63C304.215 113.103 302.712 113.381 300.827 113.439V114.56H308.03ZM294.733 122.246H307.186V123.656H292.883V119.773H305.047V118.628H292.849V117.218H306.897V121.102H294.733V122.246ZM296.132 111.624C297.104 111.878 298.352 112.005 299.89 112.005C301.428 112.005 302.677 111.878 303.648 111.624C304.619 111.37 305.093 110.988 305.093 110.48C305.093 109.971 304.608 109.59 303.637 109.335C302.665 109.081 301.417 108.954 299.89 108.954C298.364 108.954 297.115 109.081 296.144 109.335C295.173 109.59 294.687 109.971 294.687 110.48C294.676 110.988 295.161 111.37 296.132 111.624Z" fill="black"/>
<path d="M326.369 114.386V115.854H310.101V114.386H326.369ZM313.084 122.281H325.537V123.668H311.234V119.761H323.398V118.582H311.187V117.195H325.248V121.102H313.084V122.281ZM323.305 112.236H311.234V110.803H323.305V109.162H311.234V107.729H325.19V113.566H323.305V112.236Z" fill="black"/>
<path d="M338.707 110.121H342.118V111.82H333.423V110.121H336.834V107.543H338.707V110.121ZM339.817 113.681C340.384 114.074 340.835 114.64 341.158 115.391C341.482 116.143 341.644 117.044 341.644 118.096C341.644 119.148 341.482 120.049 341.158 120.801C340.835 121.552 340.384 122.118 339.817 122.511C339.25 122.904 338.591 123.089 337.851 123.089C337.111 123.089 336.464 122.893 335.897 122.511C335.331 122.118 334.891 121.552 334.568 120.801C334.244 120.049 334.082 119.148 334.082 118.096C334.082 117.044 334.244 116.143 334.568 115.391C334.891 114.64 335.331 114.074 335.897 113.681C336.464 113.288 337.111 113.103 337.851 113.103C338.591 113.091 339.239 113.288 339.817 113.681ZM339.343 120.535C339.724 119.945 339.909 119.125 339.909 118.084C339.909 117.044 339.713 116.223 339.343 115.634C338.961 115.044 338.464 114.744 337.851 114.744C337.25 114.744 336.764 115.044 336.394 115.634C336.024 116.223 335.828 117.044 335.828 118.084C335.828 119.125 336.013 119.945 336.394 120.535C336.764 121.124 337.25 121.425 337.851 121.425C338.464 121.425 338.961 121.124 339.343 120.535ZM349.449 107.589V123.864H347.691V115.911H345.078V123.575H343.32V107.682H345.078V114.143H347.691V107.589H349.449Z" fill="black"/>
<path d="M368.4 116.605V118.188H352.131V116.605H359.3V114.675H353.299V107.682H355.172V109.67H365.37V107.682H367.22V114.675H361.219V116.605H368.4ZM355.183 122.072H367.555V123.679H353.252V119.356H355.183V122.072ZM355.16 113.172H365.359V111.115H355.16V113.172Z" fill="black"/>
<path d="M379.303 115.947C378.378 116.536 377.326 116.894 376.146 117.022V115.311C377.499 115.103 378.575 114.502 379.384 113.496C380.193 112.491 380.644 111.196 380.748 109.636H376.366V108.018H386.761V109.636H382.656C382.622 110.456 382.483 111.265 382.24 112.051L387.235 115.496L386.229 116.883L381.558 113.6C380.968 114.571 380.217 115.357 379.303 115.947ZM377.129 118.397H391.12V123.864H389.189V120.027H377.118V118.397H377.129ZM391.132 107.59V117.507H389.247V112.988H386.102V111.346H389.247V107.59H391.132Z" fill="black"/>
<path d="M408.001 114.941C407.123 115.53 406.013 115.819 404.683 115.819C403.665 115.819 402.775 115.646 402.024 115.311C401.272 114.976 400.682 114.502 400.266 113.889C399.85 113.276 399.642 112.583 399.642 111.797C399.642 111.023 399.85 110.329 400.266 109.716C400.682 109.104 401.26 108.63 402.024 108.283C402.775 107.936 403.665 107.763 404.683 107.763C405.978 107.763 407.065 108.04 407.932 108.607C408.799 109.162 409.354 109.913 409.585 110.838H412.939V107.578H414.823V116.039H412.939V112.595H409.62C409.424 113.577 408.88 114.363 408.001 114.941ZM406.047 116.756H407.759V123.656H400.948V116.756H402.648V118.663H406.047V116.756ZM402.405 113.589C402.983 114.028 403.746 114.259 404.683 114.259C405.619 114.259 406.383 114.039 406.949 113.589C407.516 113.149 407.805 112.548 407.805 111.797C407.805 111.046 407.516 110.456 406.949 110.005C406.383 109.566 405.619 109.335 404.683 109.335C403.746 109.335 402.983 109.555 402.405 110.005C401.827 110.445 401.538 111.046 401.538 111.797C401.538 112.548 401.827 113.149 402.405 113.589ZM406.047 122.153V120.131H402.648V122.153H406.047ZM415.344 123.679L412.407 121.009C411.933 121.795 411.355 122.419 410.672 122.882C409.99 123.344 409.239 123.598 408.418 123.656V122.003C408.984 121.922 409.516 121.668 410.002 121.217C410.487 120.778 410.892 120.165 411.216 119.391C411.54 118.617 411.736 117.715 411.794 116.698L413.609 116.837C413.563 117.75 413.39 118.64 413.1 119.483L416.511 122.419L415.344 123.679Z" fill="black"/>
<path d="M417.841 115.692H434.109V117.368H417.841V115.692ZM418.974 118.813H420.905V121.992H433.277V123.668H418.974V118.813ZM419.009 107.59H420.916V112.225H433.104V113.901H419.009V107.59Z" fill="black"/>
<path d="M440.828 121.217C441.51 121.217 442.192 121.16 442.863 121.032C443.534 120.905 444.123 120.732 444.632 120.501V122.165C444.146 122.396 443.545 122.57 442.817 122.708C442.088 122.847 441.36 122.905 440.62 122.905H436.688V108.179H443.915V109.855H438.538V121.217H440.828ZM446.124 107.682H447.893V123.575H446.124V115.889H441.961V114.132H446.124V107.682ZM451.847 107.59V123.864H450.055V107.59H451.847Z" fill="black"/>
<path d="M53.7683 139.423C52.8317 139.989 51.791 140.336 50.6348 140.451V138.775C51.9298 138.567 52.982 138.024 53.8029 137.146C54.6123 136.267 55.0864 135.146 55.2136 133.782H50.8082V132.164H55.1905V130.188H57.0983V132.164H61.4227V133.782H57.1098C57.052 134.464 56.9248 135.088 56.7514 135.655L61.7234 138.891L60.7521 140.324L56.0229 137.204C55.4564 138.105 54.7048 138.845 53.7683 139.423ZM65.8743 144.855V146.531H51.6291V141.804H53.537V144.855H65.8743ZM65.4349 142.601H63.5502V130.453H65.4349V142.601Z" fill="black"/>
<path d="M84.8489 141.422H77.5875V147.12H75.645V141.422H68.5918V139.63H84.8604V141.422H84.8489ZM81.7154 132.614H69.644V130.846H83.681V138.278H81.7154V132.614Z" fill="black"/>
<path d="M108.529 142.739H101.337V147.12H99.4064V142.739H92.2607V140.982H108.529V142.739ZM96.9436 138.52C95.7064 139.029 94.3189 139.33 92.7811 139.41V137.677C94.4808 137.55 95.9261 137.122 97.1055 136.394C98.2849 135.665 99.0365 134.741 99.3602 133.62H93.1973V131.909H99.3718V130.06H101.314V131.909H107.57V133.62H101.395C101.303 134.059 101.152 134.544 100.921 135.053L108.009 137.665L107.362 139.306L99.9384 136.486C99.1868 137.341 98.1808 138.012 96.9436 138.52Z" fill="black"/>
<path d="M114.022 139.55C113.108 140.116 112.079 140.475 110.935 140.602V138.926C112.23 138.718 113.27 138.163 114.056 137.261C114.843 136.348 115.305 135.192 115.432 133.782H111.108V132.164H115.421V130.188H117.329V132.164H121.584V133.782H117.352C117.282 134.545 117.155 135.204 116.97 135.77L121.873 139.088L120.902 140.521L116.265 137.319C115.675 138.232 114.935 138.984 114.022 139.55ZM126.278 144.855V146.531H112.079V141.943H114.01V144.855H126.278ZM124.047 134.926V130.465H125.931V142.613H124.047V136.66H120.925V134.926H124.047Z" fill="black"/>
<path d="M128.948 144.184H145.217V145.952H128.948V144.184ZM133.226 140.496C132.116 140.069 131.261 139.468 130.66 138.682C130.058 137.896 129.758 136.994 129.758 135.966C129.758 134.937 130.058 134.035 130.66 133.249C131.261 132.463 132.116 131.862 133.226 131.435C134.336 131.007 135.62 130.799 137.077 130.799C138.534 130.799 139.817 131.007 140.927 131.435C142.037 131.862 142.893 132.463 143.494 133.249C144.095 134.035 144.396 134.937 144.396 135.966C144.396 136.994 144.095 137.896 143.494 138.682C142.893 139.468 142.037 140.069 140.927 140.496C139.817 140.924 138.534 141.132 137.077 141.132C135.608 141.132 134.325 140.924 133.226 140.496ZM139.863 138.994C140.673 138.705 141.297 138.3 141.737 137.78C142.176 137.248 142.407 136.647 142.407 135.977C142.407 135.307 142.187 134.706 141.737 134.174C141.297 133.642 140.661 133.238 139.863 132.949C139.054 132.66 138.129 132.521 137.065 132.521C136.013 132.521 135.076 132.66 134.267 132.949C133.458 133.238 132.833 133.642 132.394 134.174C131.943 134.706 131.723 135.307 131.723 135.977C131.723 136.647 131.943 137.248 132.394 137.78C132.833 138.312 133.469 138.716 134.267 138.994C135.076 139.283 136.001 139.421 137.065 139.421C138.129 139.421 139.054 139.271 139.863 138.994Z" fill="black"/>
<path d="M163.567 144.219V145.953H147.299V144.219H154.433V141.144H148.386V135.272H160.631V132.718H148.386V131.042H162.492V136.891H150.27V139.468H162.747V141.144H156.352V144.219H163.567Z" fill="black"/>
<path d="M174.192 138.127C173.256 138.751 172.204 139.144 171.013 139.306V137.595C172.019 137.399 172.886 136.983 173.637 136.312C174.377 135.654 174.944 134.821 175.349 133.839C175.742 132.845 175.95 131.77 175.962 130.614L177.846 130.73C177.846 131.966 177.638 133.122 177.233 134.197L182.344 137.746L181.292 139.098L176.482 135.723C175.892 136.705 175.129 137.503 174.192 138.127ZM183.616 142.543L187.119 145.27L186.009 146.6L182.864 144.01C182.367 144.762 181.766 145.351 181.061 145.791C180.355 146.23 179.604 146.472 178.817 146.519L176.031 144.103C175.522 144.82 174.921 145.386 174.227 145.814C173.533 146.241 172.805 146.472 172.03 146.53V144.82C172.62 144.773 173.175 144.519 173.695 144.068C174.227 143.618 174.655 143.04 174.99 142.323C175.326 141.606 175.522 140.843 175.592 140.011L177.418 140.254C177.338 141.075 177.141 141.884 176.829 142.67L179.303 144.704C180.078 144.461 180.748 143.906 181.315 143.028C181.882 142.15 182.205 141.144 182.298 140L184.125 140.266C184.079 141.063 183.905 141.826 183.616 142.543ZM188.01 133.723V135.515H185.72V139.503H183.836V130.464H185.72V133.723H188.01Z" fill="black"/>
<path d="M196.417 144.057C197.191 144.057 197.966 143.987 198.729 143.849C199.504 143.71 200.128 143.525 200.626 143.294V145.005C200.14 145.236 199.504 145.421 198.706 145.559C197.908 145.698 197.11 145.767 196.313 145.767H190.173V131.053H199.631V132.764H192.104V144.045H196.417V144.057ZM204.649 130.464V146.738H202.765V138.844H196.74V137.075H202.765V130.464H204.649Z" fill="black"/>
<path d="M208.604 130.961H210.534V144.034H215.264C216.027 144.034 216.801 143.964 217.576 143.814C218.351 143.664 218.987 143.479 219.484 143.236V144.97C218.987 145.213 218.362 145.409 217.599 145.548C216.836 145.686 216.061 145.767 215.275 145.767H208.615V130.961H208.604ZM220.976 130.464H222.86V146.738L220.976 146.761V130.464Z" fill="black"/>
<path d="M237.742 138.452L242.933 144.554L241.499 145.757L237.152 140.52C236.597 142.069 235.834 143.306 234.886 144.208C233.937 145.121 232.851 145.641 231.625 145.78V143.93C232.527 143.768 233.313 143.271 233.995 142.439C234.666 141.619 235.198 140.532 235.591 139.203C235.973 137.874 236.215 136.383 236.285 134.73H231.914V132.973H236.285V130.303H238.216V132.973H242.355V134.73H238.193C238.123 136.024 237.984 137.261 237.742 138.452ZM246.68 130.465V146.739H244.795V139.133H241.303V137.365H244.795V130.465H246.68Z" fill="black"/>
<path d="M249.697 137.92H265.966V139.445H249.697V137.92ZM252.634 135.851C251.305 135.331 250.634 134.545 250.634 133.493C250.634 132.441 251.305 131.655 252.634 131.135C253.964 130.626 255.698 130.36 257.826 130.36C259.953 130.36 261.676 130.615 263.017 131.135C264.347 131.655 265.018 132.429 265.018 133.493C265.018 134.556 264.347 135.331 263.017 135.851C261.688 136.371 259.953 136.637 257.826 136.637C255.698 136.637 253.964 136.371 252.634 135.851ZM250.819 141.017H264.821V146.542H250.819V141.017ZM261.561 134.718C262.532 134.441 263.006 134.036 263.006 133.493C263.006 132.961 262.52 132.556 261.549 132.268C260.578 131.979 259.329 131.851 257.826 131.851C256.311 131.851 255.074 131.99 254.103 132.268C253.131 132.545 252.646 132.949 252.646 133.493C252.646 134.036 253.131 134.452 254.091 134.718C255.062 134.995 256.3 135.122 257.826 135.122C259.341 135.134 260.589 134.995 261.561 134.718ZM262.948 145.04V142.52H252.704V145.04H262.948Z" fill="black"/>
<path d="M268.035 144.184H284.304V145.952H268.035V144.184ZM272.313 140.496C271.203 140.069 270.348 139.468 269.746 138.682C269.145 137.896 268.845 136.994 268.845 135.966C268.845 134.937 269.145 134.035 269.746 133.249C270.348 132.463 271.203 131.862 272.313 131.435C273.423 131.007 274.707 130.799 276.164 130.799C277.621 130.799 278.904 131.007 280.014 131.435C281.124 131.862 281.98 132.463 282.581 133.249C283.182 134.035 283.483 134.937 283.483 135.966C283.483 136.994 283.182 137.896 282.581 138.682C281.98 139.468 281.124 140.069 280.014 140.496C278.904 140.924 277.621 141.132 276.164 141.132C274.707 141.132 273.412 140.924 272.313 140.496ZM278.962 138.994C279.771 138.705 280.396 138.3 280.835 137.78C281.274 137.248 281.506 136.647 281.506 135.977C281.506 135.307 281.286 134.706 280.835 134.174C280.396 133.642 279.76 133.238 278.962 132.949C278.152 132.66 277.227 132.521 276.164 132.521C275.111 132.521 274.175 132.66 273.366 132.949C272.556 133.238 271.932 133.642 271.492 134.174C271.053 134.706 270.822 135.307 270.822 135.977C270.822 136.647 271.041 137.248 271.492 137.78C271.932 138.312 272.568 138.716 273.366 138.994C274.175 139.283 275.1 139.421 276.164 139.421C277.216 139.421 278.152 139.271 278.962 138.994Z" fill="black"/>
<path d="M302.654 144.219V145.953H286.386V144.219H293.52V141.144H287.473V135.272H299.717V132.718H287.473V131.042H301.579V136.891H289.357V139.468H301.833V141.144H295.451V144.219H302.654Z" fill="black"/>
<path d="M326.334 137.434V138.902H310.065V137.434H317.257V136.313C315.373 136.243 313.87 135.977 312.736 135.504C311.603 135.03 311.037 134.313 311.037 133.365C311.037 132.348 311.696 131.597 313.014 131.123C314.332 130.649 316.055 130.406 318.194 130.406C320.333 130.406 322.056 130.649 323.374 131.123C324.692 131.597 325.351 132.348 325.351 133.365C325.351 134.313 324.785 135.03 323.652 135.504C322.518 135.977 321.015 136.255 319.131 136.313V137.434H326.334ZM313.037 145.12H325.49V146.53H311.187V142.647H323.351V141.502H311.152V140.092H325.201V143.976H313.037V145.12ZM314.436 134.498C315.407 134.752 316.656 134.879 318.194 134.879C319.732 134.879 320.981 134.752 321.952 134.498C322.923 134.244 323.397 133.862 323.397 133.354C323.397 132.845 322.912 132.464 321.94 132.209C320.969 131.955 319.72 131.828 318.194 131.828C316.668 131.828 315.419 131.955 314.448 132.209C313.476 132.464 312.991 132.845 312.991 133.354C312.991 133.862 313.465 134.244 314.436 134.498Z" fill="black"/>
<path d="M344.672 137.261V138.729H328.415V137.261H344.672ZM331.387 145.156H343.84V146.543H329.537V142.636H341.701V141.457H329.49V140.07H343.551V143.977H331.387V145.156ZM341.608 135.111H329.537V133.678H341.608V132.037H329.537V130.604H343.493V136.441H341.608V135.111Z" fill="black"/>
<path d="M357.762 133.297H346.708V131.829H351.287V130.176H353.195V131.829H357.773V133.297H357.762ZM349.784 139.688C349.055 139.457 348.477 139.122 348.072 138.683C347.656 138.244 347.448 137.724 347.448 137.134C347.448 136.521 347.656 135.99 348.072 135.539C348.489 135.088 349.055 134.741 349.784 134.51C350.512 134.279 351.333 134.152 352.246 134.152C353.148 134.152 353.958 134.268 354.686 134.51C355.415 134.741 355.981 135.088 356.398 135.539C356.814 135.99 357.022 136.521 357.022 137.134C357.022 137.735 356.814 138.244 356.398 138.683C355.981 139.122 355.415 139.457 354.686 139.688C353.958 139.92 353.148 140.035 352.246 140.035C351.321 140.035 350.512 139.92 349.784 139.688ZM347.887 141.064H361.508V146.531H347.887V141.064ZM350.061 135.99C349.518 136.279 349.252 136.66 349.252 137.134C349.252 137.573 349.518 137.943 350.061 138.221C350.605 138.498 351.322 138.637 352.223 138.637C353.125 138.637 353.842 138.498 354.386 138.221C354.929 137.943 355.195 137.573 355.195 137.134C355.195 136.672 354.917 136.302 354.374 136.001C353.831 135.701 353.114 135.551 352.223 135.551C351.322 135.551 350.605 135.701 350.061 135.99ZM349.749 145.029H359.623V142.567H349.749V145.029ZM363.786 136.198H361.497V140.162H359.612V130.465H361.497V134.406H363.786V136.198Z" fill="black"/>
<path d="M368.018 139.804H365.786V137.607H368.018V139.804ZM373.973 139.804H371.741V137.607H373.973V139.804ZM379.846 139.804H377.615V137.607H379.846V139.804Z" fill="black"/>
<path d="M391.374 137.237C390.437 137.78 389.385 138.127 388.229 138.277V136.601C389.234 136.428 390.113 136.047 390.876 135.48C391.639 134.914 392.229 134.197 392.645 133.354C393.062 132.51 393.27 131.597 393.27 130.614L395.155 130.73C395.155 131.816 394.946 132.81 394.542 133.747L399.71 136.59L398.797 138.023L393.721 135.168C393.096 136 392.322 136.694 391.374 137.237ZM403.584 145.039V146.53H389.396V142.219H401.317V140.809H389.362V139.318H403.191V143.629H391.269V145.039H403.584ZM403.179 138.428H401.294V130.464H403.179V138.428Z" fill="black"/>
<path d="M417.298 134H406.256V132.347H410.812V130.29H412.742V132.347H417.298V134ZM412.719 144.091C415.148 144.068 416.859 143.825 417.865 143.363V145.073C417.356 145.305 416.639 145.478 415.703 145.594C414.766 145.709 413.714 145.767 412.546 145.767H406.325V144.091H410.823V141.675C409.667 141.548 408.753 141.19 408.083 140.612C407.412 140.034 407.077 139.283 407.077 138.369C407.077 137.329 407.505 136.509 408.349 135.896C409.204 135.295 410.349 134.994 411.783 134.994C413.217 134.994 414.361 135.295 415.217 135.896C416.073 136.497 416.5 137.318 416.5 138.369C416.5 139.283 416.165 140.034 415.494 140.623C414.824 141.213 413.887 141.56 412.708 141.687V144.091H412.719ZM409.644 139.676C410.152 140.011 410.869 140.184 411.794 140.184C412.719 140.184 413.436 140.022 413.945 139.676C414.454 139.34 414.708 138.901 414.708 138.369C414.708 137.838 414.454 137.399 413.945 137.052C413.436 136.705 412.719 136.543 411.794 136.543C410.869 136.543 410.152 136.717 409.644 137.052C409.135 137.399 408.881 137.838 408.881 138.369C408.881 138.901 409.135 139.34 409.644 139.676ZM423.357 138.716H421.102V146.738H419.218V130.463H421.102V136.902H423.357V138.716Z" fill="black"/>
<path d="M427.31 138.393C426.536 138.046 425.946 137.561 425.53 136.937C425.113 136.312 424.905 135.584 424.905 134.775C424.905 133.966 425.113 133.238 425.53 132.625C425.946 132.001 426.547 131.516 427.31 131.169C428.073 130.822 428.975 130.649 430.004 130.649C431.022 130.649 431.912 130.822 432.687 131.169C433.45 131.516 434.051 132.001 434.468 132.625C434.884 133.249 435.092 133.966 435.092 134.775C435.092 135.584 434.884 136.312 434.468 136.937C434.051 137.561 433.45 138.046 432.687 138.393C431.912 138.74 431.022 138.902 430.004 138.902C428.987 138.902 428.085 138.728 427.31 138.393ZM426.258 140.196H439.867V146.519H426.258V140.196ZM432.328 136.659C432.918 136.197 433.219 135.573 433.219 134.775C433.219 133.978 432.918 133.342 432.328 132.891C431.739 132.429 430.964 132.209 430.016 132.209C429.045 132.209 428.27 132.44 427.68 132.891C427.091 133.354 426.79 133.978 426.79 134.775C426.79 135.573 427.091 136.208 427.68 136.659C428.27 137.122 429.045 137.341 430.016 137.341C430.964 137.341 431.739 137.11 432.328 136.659ZM437.983 144.924V141.803H428.143V144.924H437.983ZM437.983 130.464H439.867V139.306H437.983V130.464Z" fill="black"/>
<path d="M447.396 139.376C447.697 138.694 448.24 138.081 449.049 137.538C449.72 137.053 450.206 136.613 450.506 136.22C450.807 135.827 450.957 135.377 450.957 134.868C450.957 134.128 450.703 133.539 450.182 133.099C449.662 132.66 448.957 132.429 448.055 132.429C447.431 132.429 446.899 132.568 446.448 132.834C445.997 133.099 445.65 133.446 445.419 133.862C445.187 134.278 445.049 134.718 445.026 135.18H443.083C443.106 134.371 443.326 133.62 443.754 132.926C444.17 132.244 444.76 131.701 445.5 131.296C446.24 130.892 447.095 130.695 448.043 130.695C449.049 130.695 449.917 130.88 450.645 131.239C451.373 131.597 451.928 132.094 452.31 132.73C452.692 133.354 452.877 134.07 452.877 134.88C452.877 136.197 452.171 137.365 450.761 138.37C450.217 138.74 449.801 139.11 449.523 139.491C449.246 139.873 449.061 140.266 448.957 140.67C448.864 141.075 448.818 141.56 448.818 142.115H446.945C446.945 140.959 447.095 140.046 447.396 139.376ZM446.922 146.23C446.656 145.953 446.517 145.629 446.517 145.224C446.517 144.831 446.656 144.496 446.922 144.23C447.188 143.965 447.523 143.826 447.916 143.826C448.309 143.826 448.645 143.965 448.922 144.23C449.2 144.496 449.338 144.831 449.338 145.224C449.338 145.629 449.2 145.964 448.934 146.23C448.668 146.496 448.332 146.635 447.928 146.635C447.523 146.646 447.199 146.507 446.922 146.23Z" fill="black"/>
<path d="M485.591 19.1482H448.486C445.688 19.1482 443.422 16.8827 443.422 14.0855V0.59668H490.655V14.0855C490.655 16.8827 488.389 19.1482 485.591 19.1482Z" fill="#FF0000" stroke="black" stroke-width="0.75" stroke-miterlimit="10"/>
<path d="M465.344 8.76823L462.095 4.37598H465.344L467.079 6.91885L468.778 4.37598H471.842L468.674 8.71043L472.027 13.2761H468.778L466.94 10.5945L465.113 13.2761H462.049L465.344 8.76823Z" fill="black"/>
</svg>
