<svg width="373" height="56" viewBox="0 0 373 56" fill="none" xmlns="http://www.w3.org/2000/svg">
<rect x="0.5" y="0.5" width="364" height="46" fill="#F5F5F5" stroke="black"/>
<rect x="8.5" y="9.5" width="364" height="46" fill="#F5F5F5" stroke="black"/>
<path d="M138.872 18.0098V33.905H133.06V28.7436H126.35C124.955 30.4449 122.929 31.7066 120.291 32.5286C117.652 33.3506 114.556 33.7712 111 33.7712V28.8487C113.313 28.8296 115.349 28.6002 117.089 28.1605C118.828 27.7209 120.185 27.1187 121.151 26.3349C122.116 25.5512 122.594 24.6527 122.594 23.6204V23.1712H111V18.3538H128.511V22.3492C128.511 22.8557 128.501 23.219 128.472 23.4484H133.051V18.0098H138.872ZM112.587 34.9373H138.872V47.3916H112.587V34.9373ZM118.398 42.6125H133.06V39.7259H118.398V42.6125Z" fill="black"/>
<path d="M173.147 30.6072V35.0804H143.421V30.6072H173.147ZM157.491 26.6788C155.904 27.5486 154.012 28.2177 151.794 28.6765C149.577 29.1353 147.235 29.3838 144.76 29.4316V24.9201C146.891 24.8723 148.927 24.6334 150.867 24.1937C152.807 23.7541 154.213 23.171 155.082 22.435H145.104V18H171.465V22.435H161.591C161.572 22.5306 161.477 22.76 161.314 23.1232L172.191 25.226L170.949 29.5654L157.491 26.6788ZM171.694 41.991C171.694 45.8238 167.221 47.7354 158.275 47.7354C149.328 47.7354 144.855 45.8238 144.855 41.991C144.855 38.1582 149.328 36.2466 158.275 36.2466C167.221 36.2466 171.694 38.1678 171.694 41.991ZM165.501 41.991C165.501 41.0543 163.092 40.5764 158.275 40.5764C153.457 40.5764 151.049 41.0448 151.049 41.991C151.049 42.9277 153.457 43.4056 158.275 43.4056C163.092 43.4056 165.501 42.9373 165.501 41.991Z" fill="black"/>
<path d="M189.798 37.3459H176.512V32.6624H183.738V30.292H177.85V18.2105H195.294V22.6837H183.594V25.8188H195.638V30.292H189.511V32.6624H189.893C191.403 32.6624 192.837 32.5764 194.194 32.4044C195.552 32.2323 196.651 31.9647 197.501 31.5919V36.2754C195.877 36.9923 193.305 37.3459 189.798 37.3459ZM205.416 42.4786V47.4011H178.71V38.837H184.598V42.4882H205.416V42.4786ZM205.005 40.309H199.193V18.0098H205.005V40.309Z" fill="black"/>
<path d="M237.588 34.8696H226.338V40.7861H232.704C234.08 40.7861 235.466 40.6523 236.871 40.3942C238.267 40.1266 239.414 39.792 240.312 39.381V44.6094C239.443 45.049 238.286 45.3932 236.852 45.6417C235.419 45.8902 233.956 46.024 232.465 46.024H220.556V29.7177H231.806V23.9351H220.489V18.7067H237.588V34.8696ZM247.672 47.4003H241.861V18.0186H247.672V47.4003Z" fill="black"/>
<path d="M282.082 41.1975H275.85V48.0794H270.039V41.1975H264.399V48.0794H258.588V41.1975H252.356V35.931H282.082V41.1975ZM280.361 33.6657H254.076V18.3535H259.754V20.9724H274.684V18.3535H280.361V33.6657ZM274.684 28.6095V25.9618H259.754V28.6095H274.684Z" fill="black"/>
<path d="M293.85 37.6232H289.587L288 18.8701H295.436L293.85 37.6232ZM294.327 41.1693C295.016 41.8575 295.36 42.7273 295.36 43.7883C295.36 44.8492 295.016 45.7094 294.327 46.388C293.639 47.0667 292.77 47.4012 291.709 47.4012C290.657 47.4012 289.778 47.0667 289.09 46.388C288.401 45.7094 288.057 44.8492 288.057 43.7883C288.057 42.7273 288.401 41.8575 289.09 41.1693C289.778 40.4811 290.648 40.137 291.709 40.137C292.77 40.137 293.639 40.4811 294.327 41.1693Z" fill="black"/>
</svg>
