<svg width="688" height="284" viewBox="0 0 688 284" fill="none" xmlns="http://www.w3.org/2000/svg">
<path d="M352.964 176.13H7.04492C3.7085 176.13 1 173.24 1 169.68V7.58966C1 4.02966 3.7085 1.13965 7.04492 1.13965H352.955C356.291 1.13965 359 4.02966 359 7.58966V169.68C359.009 173.25 356.301 176.13 352.964 176.13Z" fill="white" stroke="black" stroke-miterlimit="10"/>
<path d="M351.381 37.8701H9.47266V165.82H351.381V37.8701Z" fill="#F0F0F0" stroke="black" stroke-width="0.75" stroke-miterlimit="10"/>
<path d="M346.47 17.05H314.38C311.96 17.05 310 15.09 310 12.67V1H350.85V12.67C350.85 15.09 348.89 17.05 346.47 17.05Z" fill="#FF0000" stroke="black" stroke-width="0.75" stroke-miterlimit="10"/>
<path d="M328.96 8.05975L326.15 4.25977H328.96L330.46 6.45976L331.93 4.25977H334.58L331.84 8.00977L334.74 11.9598H331.93L330.34 9.63976L328.76 11.9598H326.11L328.96 8.05975Z" fill="black"/>
<path d="M43.19 96.0596H37.36V99.7596H35.8V96.0596H30V94.6396H43.19V96.0596ZM33.71 92.3596C32.63 92.9396 31.5 93.2297 30.3 93.2397V91.7896C31.23 91.7896 32.13 91.5396 33 91.0396C33.87 90.5396 34.61 89.8597 35.22 88.9897C35.83 88.1197 36.23 87.1796 36.41 86.1396L37.99 86.3896C37.84 87.2396 37.57 88.0397 37.19 88.7997L42.85 91.9397L42.14 93.2197L36.45 89.9697C35.7 90.9897 34.79 91.7796 33.71 92.3596Z" fill="black"/>
<path d="M50.8 91.9502C49.45 92.8002 47.59 93.2302 45.21 93.2302V91.9002C47.12 91.8902 48.6 91.5802 49.67 90.9802C50.74 90.3802 51.27 89.4902 51.27 88.3102V87.8602H45.21V86.5602H52.82V88.0502C52.82 89.8002 52.15 91.1002 50.8 91.9502ZM55.48 94.5702C56.51 95.0102 57.03 95.7102 57.03 96.6702C57.03 97.6302 56.51 98.3302 55.48 98.7702C54.45 99.2102 53.08 99.4402 51.37 99.4402C49.66 99.4402 48.29 99.2202 47.26 98.7702C46.23 98.3302 45.71 97.6302 45.71 96.6702C45.71 95.7102 46.23 95.0102 47.26 94.5702C48.29 94.1302 49.66 93.9002 51.37 93.9002C53.08 93.9102 54.45 94.1302 55.48 94.5702ZM54.29 97.8002C55.03 97.5602 55.4 97.1802 55.4 96.6802C55.4 96.1802 55.03 95.8102 54.28 95.5602C53.53 95.3102 52.56 95.1802 51.36 95.1802C50.17 95.1802 49.21 95.3102 48.45 95.5602C47.7 95.8102 47.32 96.1902 47.32 96.6802C47.32 97.1702 47.69 97.5502 48.44 97.7902C49.19 98.0402 50.16 98.1602 51.35 98.1602C52.57 98.1602 53.55 98.0402 54.29 97.8002ZM58.68 88.9402V90.4102H56.82V93.4602H55.29V86.2402H56.82V88.9502H58.68V88.9402Z" fill="black"/>
<path d="M66.8203 93.0502C66.0603 93.5902 65.2103 93.9202 64.2803 94.0502V92.6102C65.0903 92.4702 65.8103 92.0902 66.4203 91.5002C67.0303 90.9002 67.5103 90.1502 67.8403 89.2602C68.1703 88.3602 68.3503 87.4002 68.3603 86.3702L69.8903 86.4602C69.8903 87.5802 69.7003 88.6602 69.3203 89.6802L73.5603 92.8002L72.6503 93.9102L68.7203 90.9602C68.2103 91.8102 67.5803 92.5102 66.8203 93.0502ZM76.7603 97.9102V99.2702H65.2103V95.0602H66.7603V97.9102H76.7603ZM76.4003 96.0402H74.8703V86.2402H76.4003V96.0402Z" fill="black"/>
<path d="M81.6697 92.99C80.9397 93.44 80.1297 93.72 79.2197 93.81V92.48C80.2097 92.34 81.0197 91.92 81.6597 91.23C82.2997 90.54 82.6897 89.72 82.8397 88.75H79.3597V87.47H82.8497V86H84.3997V87.47H87.8497V88.75H84.3997C84.3397 89.21 84.2297 89.65 84.0797 90.06L88.0897 92.55L87.3597 93.69L83.4797 91.25C82.9997 91.96 82.3997 92.54 81.6697 92.99ZM89.9797 95.11C91.0197 95.5 91.5397 96.12 91.5397 96.99C91.5397 97.85 91.0197 98.47 89.9797 98.86C88.9397 99.25 87.5497 99.45 85.7997 99.45C84.0597 99.45 82.6697 99.25 81.6197 98.86C80.5797 98.47 80.0597 97.84 80.0597 96.99C80.0597 96.12 80.5797 95.5 81.6197 95.11C82.6597 94.72 84.0497 94.53 85.7997 94.53C87.5497 94.53 88.9397 94.72 89.9797 95.11ZM88.7897 97.92C89.5397 97.72 89.9197 97.41 89.9197 96.98C89.9197 96.56 89.5397 96.25 88.7897 96.04C88.0397 95.84 87.0397 95.74 85.8097 95.74C84.5697 95.74 83.5797 95.84 82.8297 96.04C82.0797 96.24 81.6997 96.55 81.6997 96.98C81.6997 97.4 82.0797 97.71 82.8297 97.92C83.5797 98.12 84.5797 98.22 85.8097 98.22C87.0397 98.22 88.0397 98.12 88.7897 97.92ZM89.8597 89.44V86.24H91.3897V94.11H89.8597V90.8H87.3197V89.44H89.8597Z" fill="black"/>
<path d="M105.89 91.9302C105.14 92.0402 104.31 92.0902 103.38 92.0902H98.6299V86.4802H100.18V90.8102H103.47C104.37 90.8102 105.18 90.7602 105.91 90.6602C106.64 90.5602 107.21 90.4102 107.63 90.2302V91.5102C107.22 91.6802 106.64 91.8302 105.89 91.9302ZM100.61 98.0702H110.45V99.2802H99.0999V95.7402H108.61V94.5502H99.0699V93.3402H110.13V96.8802H100.62V98.0702H100.61ZM111.97 88.5102V89.9502H110.11V92.6102H108.58V86.2402H110.11V88.5102H111.97Z" fill="black"/>
<path d="M113.66 86.7202H121.01V98.6602H113.66V86.7202ZM115.19 97.2302H119.47V88.1402H115.19V97.2302ZM126.85 93.0602H124.99V99.4502H123.46V86.2402H124.99V91.5902H126.85V93.0602Z" fill="black"/>
<path d="M133.78 97.2602C134.41 97.2602 135.04 97.2002 135.66 97.0902C136.28 96.9802 136.8 96.8202 137.2 96.6302V98.0202C136.81 98.2202 136.29 98.3702 135.65 98.4802C135.01 98.5902 134.36 98.6502 133.71 98.6502H128.54V86.7102H136.16V88.1002H130.1V97.2602H133.78ZM141.73 93.0602H139.87V99.4502H138.34V86.2402H139.87V91.5902H141.73V93.0602Z" fill="black"/>
<path d="M152.15 97.2205C154.17 97.2205 155.61 97.0305 156.48 96.6605V98.1005C155.57 98.4705 154.13 98.6605 152.17 98.6605H147.13V97.2205H149.43V91.6205H150.98V97.2205H152.15ZM153.62 88.1705H147.6V86.7505H155.16V95.1605H153.61V88.1705H153.62ZM160.94 92.9305H159.12V99.4405H157.59V86.2305H159.12V91.4605H160.94V92.9305Z" fill="black"/>
<path d="M167.18 92.1102L171.34 97.7402L170.1 98.6202L166.7 93.9002C166.23 95.3502 165.6 96.4902 164.81 97.3102C164.03 98.1302 163.12 98.5802 162.1 98.6502V97.1002C162.96 96.9702 163.68 96.4202 164.29 95.4602C164.89 94.5002 165.35 93.2502 165.66 91.7002C165.97 90.1502 166.13 88.4402 166.14 86.5502L167.7 86.6102C167.69 88.7202 167.51 90.5502 167.18 92.1102ZM175.81 93.0602H173.95V99.4502H172.42V86.2402H173.95V91.5902H175.81V93.0602Z" fill="black"/>
<path d="M184.94 86.3102H186.38V99.2102H184.94V93.1902H183.19C183.15 95.1202 182.87 96.5402 182.35 97.4502C181.83 98.3602 181.09 98.8202 180.12 98.8202C179.1 98.8202 178.33 98.3202 177.82 97.3302C177.3 96.3302 177.05 94.7902 177.05 92.6802C177.05 90.5702 177.31 89.0302 177.82 88.0302C178.34 87.0402 179.1 86.5402 180.12 86.5402C181.06 86.5402 181.78 86.9602 182.29 87.8102C182.8 88.6602 183.09 89.9602 183.16 91.7402H184.92V86.3102H184.94ZM181.34 96.2702C181.6 95.5002 181.73 94.3002 181.73 92.6802C181.73 91.0602 181.6 89.8702 181.34 89.0902C181.08 88.3202 180.67 87.9302 180.13 87.9302C179.58 87.9302 179.18 88.3202 178.91 89.0902C178.64 89.8602 178.51 91.0602 178.51 92.6802C178.51 94.3002 178.64 95.4902 178.91 96.2702C179.18 97.0402 179.58 97.4302 180.13 97.4302C180.67 97.4302 181.08 97.0502 181.34 96.2702ZM189.58 86.2402V99.4502H188.13V86.2402H189.58Z" fill="black"/>
<path d="M204.55 92.3802H196.69V86.4702H198.19V88.1102H203.05V86.4702H204.55V92.3802ZM208.74 98.0802V99.2702H197.23V95.8502H206.9V94.7702H197.2V93.5802H208.41V96.9802H198.74V98.0802H208.74ZM203.05 91.1402V89.3302H198.19V91.1402H203.05ZM208.41 92.8602H206.88V86.2402H208.41V92.8602Z" fill="black"/>
<path d="M218.59 92.0802C217.85 92.1602 217.01 92.2002 216.07 92.2002H211.51V86.4802H213.06V90.9602H216.17C218.12 90.9602 219.51 90.8002 220.33 90.4802V91.7202C219.91 91.8802 219.33 92.0002 218.59 92.0802ZM223.8 93.9202V95.1102H211.81V93.9202H217.04V92.8702H218.59V93.9202H223.8ZM221.92 96.3102C222.81 96.6402 223.26 97.0902 223.26 97.6802C223.26 98.2702 222.82 98.7202 221.93 99.0402C221.04 99.3602 219.67 99.5202 217.82 99.5202C215.96 99.5202 214.59 99.3602 213.71 99.0402C212.82 98.7202 212.38 98.2702 212.38 97.6802C212.38 97.0902 212.83 96.6402 213.72 96.3102C214.61 95.9902 215.98 95.8202 217.83 95.8202C219.68 95.8202 221.03 95.9902 221.92 96.3102ZM221.68 97.6802C221.68 97.4502 221.36 97.2802 220.71 97.1502C220.07 97.0202 219.1 96.9602 217.81 96.9602C216.52 96.9602 215.55 97.0202 214.91 97.1502C214.27 97.2802 213.94 97.4602 213.94 97.6802C213.94 98.1402 215.23 98.3802 217.81 98.3802C220.39 98.3802 221.68 98.1402 221.68 97.6802ZM221.87 89.2502H216.86V87.9702H221.87V86.2402H223.4V93.0002H221.87V89.2502Z" fill="black"/>
<path d="M233.02 93.2502C232.27 93.7602 231.41 94.0702 230.44 94.1702V92.7602C231.53 92.6102 232.41 92.0902 233.07 91.2202C233.73 90.3502 234.1 89.2402 234.17 87.9002H230.61V86.5702H239.04V87.9002H235.71C235.68 88.5802 235.57 89.2602 235.37 89.9302L239.42 92.9502L238.55 94.0602L234.82 91.2302C234.37 92.0702 233.77 92.7402 233.02 93.2502ZM242.88 97.9002V99.2802H231.36V95.0702H232.92V97.9002H242.88ZM241.07 89.3602V86.2402H242.6V96.0602H241.07V90.7102H238.5V89.3602H241.07Z" fill="black"/>
<path d="M253.94 89.1096H244.99V87.7696H248.69V86.0996H250.25V87.7696H253.95V89.1096H253.94ZM250.23 97.2896C252.2 97.2696 253.59 97.0696 254.41 96.6996V98.0896C254 98.2796 253.41 98.4096 252.65 98.5096C251.89 98.5996 251.04 98.6496 250.09 98.6496H245.05V97.2896H248.7V95.3296C247.76 95.2296 247.02 94.9396 246.48 94.4696C245.94 93.9996 245.67 93.3996 245.67 92.6496C245.67 91.8096 246.02 91.1396 246.71 90.6496C247.4 90.1596 248.33 89.9196 249.49 89.9196C250.65 89.9196 251.58 90.1596 252.27 90.6496C252.96 91.1396 253.31 91.8096 253.31 92.6496C253.31 93.3896 253.04 93.9996 252.49 94.4696C251.94 94.9396 251.19 95.2296 250.23 95.3396V97.2896ZM247.74 93.7096C248.15 93.9796 248.73 94.1196 249.49 94.1196C250.25 94.1196 250.83 93.9796 251.24 93.7096C251.65 93.4396 251.86 93.0796 251.86 92.6496C251.86 92.2196 251.65 91.8596 251.24 91.5796C250.83 91.2996 250.24 91.1596 249.49 91.1596C248.74 91.1596 248.16 91.2996 247.74 91.5796C247.33 91.8596 247.12 92.2096 247.12 92.6496C247.12 93.0896 247.33 93.4396 247.74 93.7096ZM258.86 92.9296H257.04V99.4396H255.51V86.2296H257.04V91.4596H258.86V92.9296Z" fill="black"/>
<path d="M266.71 88.7098H259.69V87.4998H262.49V86.0498H264.02V87.4998H266.71V88.7098ZM261.05 93.6098C260.46 93.1698 260.17 92.5698 260.17 91.8198C260.17 91.0698 260.46 90.4698 261.05 90.0298C261.64 89.5898 262.38 89.3598 263.28 89.3598C264.18 89.3598 264.92 89.5798 265.51 90.0298C266.1 90.4698 266.39 91.0698 266.39 91.8198C266.39 92.5698 266.1 93.1698 265.51 93.6098C264.92 94.0498 264.18 94.2798 263.28 94.2798C262.38 94.2798 261.64 94.0598 261.05 93.6098ZM272.75 99.3498L269.9 97.5598C269.48 98.0598 268.97 98.4498 268.38 98.7598C267.79 99.0598 267.17 99.2398 266.53 99.2798L264.1 97.6298C263.67 98.0998 263.16 98.4898 262.57 98.7798C261.98 99.0698 261.37 99.2398 260.75 99.2798V97.9398C261.22 97.8998 261.7 97.7298 262.16 97.4298C262.63 97.1298 263.02 96.7498 263.34 96.2898C263.65 95.8298 263.84 95.3398 263.89 94.8398L265.34 95.0398C265.26 95.6198 265.09 96.1398 264.83 96.6198L266.84 97.8998C267.28 97.8098 267.71 97.6098 268.12 97.3098C268.53 97.0098 268.86 96.6398 269.13 96.1998C269.4 95.7698 269.56 95.3098 269.61 94.8398L271.08 95.0398C271.01 95.5698 270.85 96.0598 270.62 96.5298L273.5 98.2198L272.75 99.3498ZM262.03 90.8698C261.71 91.1198 261.55 91.4398 261.55 91.8198C261.55 92.1998 261.71 92.5198 262.03 92.7698C262.35 93.0198 262.77 93.1498 263.28 93.1498C263.8 93.1498 264.21 93.0198 264.53 92.7698C264.85 92.5198 265.01 92.1998 265.01 91.8198C265.01 91.4398 264.85 91.1198 264.53 90.8698C264.21 90.6198 263.79 90.4898 263.28 90.4898C262.77 90.4898 262.35 90.6198 262.03 90.8698ZM269.11 94.3398H267.69V86.3098H269.11V89.3598H271.2V86.2398H272.62V94.5098H271.2V90.7698H269.11V94.3398Z" fill="black"/>
<path d="M281.75 92.46C281.03 92.97 280.12 93.23 279.01 93.23C278.18 93.23 277.47 93.09 276.85 92.8C276.24 92.51 275.76 92.11 275.44 91.59C275.11 91.07 274.94 90.48 274.94 89.82C274.94 89.16 275.1 88.57 275.44 88.05C275.77 87.53 276.24 87.13 276.85 86.84C277.46 86.55 278.18 86.41 279.01 86.41C280.07 86.41 280.96 86.65 281.66 87.12C282.37 87.59 282.81 88.23 283 89.02H285.71V86.25H287.24V93.6H285.71V90.45H283.05C282.9 91.27 282.47 91.95 281.75 92.46ZM287.45 99.37L284.85 97.25C284.44 97.86 283.95 98.34 283.37 98.69C282.8 99.04 282.19 99.24 281.54 99.28L279.25 97.28C278.84 97.87 278.35 98.34 277.77 98.69C277.2 99.04 276.59 99.24 275.95 99.28V97.89C276.43 97.85 276.89 97.65 277.32 97.29C277.75 96.93 278.1 96.46 278.38 95.88C278.66 95.3 278.82 94.67 278.87 93.99L280.34 94.21C280.28 94.85 280.12 95.49 279.88 96.13L281.97 97.82C282.38 97.7 282.77 97.45 283.12 97.08C283.48 96.71 283.77 96.26 284 95.72C284.23 95.18 284.37 94.61 284.41 94L285.89 94.22C285.83 94.88 285.68 95.5 285.44 96.09L288.32 98.27L287.45 99.37ZM277.16 91.36C277.63 91.75 278.25 91.94 279.01 91.94C279.77 91.94 280.39 91.75 280.86 91.36C281.33 90.97 281.56 90.46 281.56 89.81C281.56 89.16 281.33 88.64 280.86 88.26C280.39 87.87 279.77 87.68 279.01 87.68C278.25 87.68 277.63 87.87 277.16 88.26C276.69 88.65 276.46 89.17 276.46 89.81C276.46 90.46 276.69 90.98 277.16 91.36Z" fill="black"/>
<path d="M289.68 92.8102H302.87V94.1702H289.68V92.8102ZM290.59 95.3402H292.15V97.9202H302.19V99.2802H290.59V95.3402ZM290.62 86.2402H292.17V90.0002H302.05V91.3602H290.62V86.2402Z" fill="black"/>
<path d="M308.31 97.2902C308.87 97.2902 309.42 97.2402 309.96 97.1402C310.5 97.0402 310.98 96.8902 311.39 96.7102V98.0602C311 98.2502 310.51 98.3902 309.92 98.5002C309.33 98.6102 308.74 98.6602 308.14 98.6602H304.95V86.7202H310.81V88.0802H306.45V97.3002H308.31V97.2902ZM312.61 86.3102H314.05V99.2102H312.61V92.9802H309.24V91.5602H312.61V86.3102ZM317.25 86.2402V99.4502H315.8V86.2402H317.25Z" fill="black"/>
<path d="M319.8 99.0001C319.59 98.7901 319.48 98.5301 319.48 98.2201C319.48 97.9101 319.59 97.6501 319.8 97.4401C320.01 97.2301 320.27 97.1201 320.58 97.1201C320.89 97.1201 321.15 97.2301 321.35 97.4401C321.56 97.6501 321.66 97.9101 321.66 98.2201C321.66 98.5301 321.56 98.7901 321.35 99.0001C321.14 99.2101 320.89 99.3201 320.58 99.3201C320.27 99.3201 320.01 99.2101 319.8 99.0001Z" fill="black"/>
<path d="M323.77 99.0001C323.56 98.7901 323.45 98.5301 323.45 98.2201C323.45 97.9101 323.56 97.6501 323.77 97.4401C323.98 97.2301 324.24 97.1201 324.55 97.1201C324.86 97.1201 325.12 97.2301 325.32 97.4401C325.53 97.6501 325.63 97.9101 325.63 98.2201C325.63 98.5301 325.53 98.7901 325.32 99.0001C325.11 99.2101 324.86 99.3201 324.55 99.3201C324.24 99.3201 323.98 99.2101 323.77 99.0001Z" fill="black"/>
<path d="M327.75 99.0001C327.54 98.7901 327.43 98.5301 327.43 98.2201C327.43 97.9101 327.54 97.6501 327.75 97.4401C327.96 97.2301 328.22 97.1201 328.53 97.1201C328.84 97.1201 329.1 97.2301 329.3 97.4401C329.51 97.6501 329.61 97.9101 329.61 98.2201C329.61 98.5301 329.51 98.7901 329.3 99.0001C329.09 99.2101 328.84 99.3201 328.53 99.3201C328.22 99.3201 327.96 99.2101 327.75 99.0001Z" fill="black"/>
<path d="M78.3003 110.45V111.64H65.1104V110.45H70.9403V109.54C69.4103 109.49 68.1903 109.27 67.2703 108.88C66.3503 108.49 65.8904 107.91 65.8904 107.14C65.8904 106.32 66.4203 105.71 67.4903 105.32C68.5603 104.93 69.9603 104.74 71.6903 104.74C73.4203 104.74 74.8204 104.93 75.8904 105.32C76.9604 105.71 77.4903 106.31 77.4903 107.14C77.4903 107.91 77.0304 108.49 76.1104 108.88C75.1904 109.27 73.9703 109.49 72.4403 109.54V110.45H78.3003ZM67.5203 116.69H77.6203V117.83H66.0203V114.68H75.8904V113.75H65.9903V112.61H77.3904V115.76H67.5203V116.69ZM68.6503 108.07C69.4303 108.28 70.4503 108.38 71.7003 108.38C72.9503 108.38 73.9603 108.28 74.7503 108.07C75.5303 107.86 75.9303 107.55 75.9303 107.14C75.9303 106.73 75.5403 106.42 74.7503 106.21C73.9603 106 72.9503 105.9 71.7103 105.9C70.4703 105.9 69.4603 106 68.6703 106.21C67.8803 106.42 67.4903 106.73 67.4903 107.14C67.4703 107.56 67.8703 107.87 68.6503 108.07Z" fill="black"/>
<path d="M93.1802 110.31V111.5H79.9902V110.31H93.1802ZM82.4002 116.72H92.5002V117.85H80.9002V114.68H90.7702V113.72H80.8702V112.59H92.2702V115.76H82.4002V116.72ZM90.6902 108.57H80.9002V107.41H90.6902V106.08H80.9002V104.92H92.2202V109.65H90.6902V108.57Z" fill="black"/>
<path d="M97.3199 116.71C96.7199 116.26 96.2599 115.58 95.9199 114.66C95.5799 113.74 95.4199 112.6 95.4199 111.24C95.4199 109.88 95.5899 108.74 95.9199 107.82C96.2499 106.9 96.7199 106.22 97.3199 105.77C97.9199 105.32 98.6199 105.1 99.4199 105.1C100.21 105.1 100.91 105.32 101.51 105.77C102.11 106.22 102.57 106.9 102.91 107.82C103.25 108.74 103.41 109.88 103.41 111.24C103.41 112.6 103.24 113.74 102.91 114.66C102.57 115.58 102.11 116.26 101.51 116.71C100.91 117.16 100.22 117.38 99.4199 117.38C98.6199 117.38 97.9199 117.16 97.3199 116.71ZM101.2 114.81C101.65 114.03 101.88 112.84 101.88 111.24C101.88 109.65 101.65 108.47 101.2 107.68C100.75 106.9 100.15 106.5 99.4199 106.5C98.6799 106.5 98.0799 106.89 97.6299 107.67C97.1799 108.45 96.9499 109.64 96.9499 111.23C96.9499 112.83 97.1699 114.02 97.6199 114.8C98.0699 115.58 98.6699 115.97 99.4199 115.97C100.16 115.97 100.75 115.59 101.2 114.81ZM105.66 104.79H107.21V118H105.66V104.79Z" fill="black"/>
<path d="M115.6 115.8C116.24 115.8 116.87 115.74 117.49 115.63C118.11 115.52 118.62 115.37 119.01 115.18V116.57C118.62 116.77 118.11 116.92 117.48 117.03C116.85 117.14 116.21 117.2 115.56 117.2H110.35V110.43H116.12V106.67H110.32V105.26H117.65V111.83H111.87V115.79H115.6V115.8ZM123.55 111.61H121.69V118H120.16V104.79H121.69V110.14H123.55V111.61Z" fill="black"/>
<path d="M125.37 105.2H126.93V115.81H130.77C131.39 115.81 132.01 115.75 132.64 115.63C133.27 115.51 133.78 115.35 134.19 115.16V116.57C133.79 116.77 133.28 116.92 132.66 117.04C132.04 117.16 131.41 117.22 130.77 117.22H125.37V105.2ZM135.41 104.79H136.94V118L135.41 118.02V104.79Z" fill="black"/>
<path d="M139.84 117.6C139.62 117.38 139.51 117.11 139.51 116.78C139.51 116.46 139.62 116.19 139.84 115.98C140.06 115.76 140.33 115.66 140.65 115.66C140.97 115.66 141.24 115.77 141.46 115.98C141.68 116.2 141.79 116.46 141.79 116.78C141.79 117.11 141.68 117.38 141.47 117.6C141.25 117.82 140.98 117.92 140.65 117.92C140.33 117.92 140.06 117.82 139.84 117.6ZM139.68 105.29H141.64L141.24 114.24H140.06L139.68 105.29Z" fill="black"/>
<path d="M153.6 115.82C154.23 115.82 154.86 115.76 155.48 115.65C156.1 115.54 156.62 115.39 157.02 115.2V116.59C156.63 116.78 156.11 116.92 155.47 117.04C154.83 117.15 154.18 117.21 153.53 117.21H148.55V105.27H156.22V106.66H150.11V115.82H153.6ZM160.28 104.79V118H158.75V111.6H153.86V110.16H158.75V104.79H160.28Z" fill="black"/>
<path d="M169.51 116.71C168.91 116.26 168.45 115.58 168.11 114.66C167.77 113.74 167.61 112.6 167.61 111.24C167.61 109.88 167.78 108.74 168.11 107.82C168.44 106.9 168.91 106.22 169.51 105.77C170.11 105.32 170.81 105.1 171.61 105.1C172.4 105.1 173.1 105.32 173.7 105.77C174.3 106.22 174.76 106.9 175.1 107.82C175.44 108.74 175.6 109.88 175.6 111.24C175.6 112.6 175.43 113.74 175.1 114.66C174.76 115.58 174.3 116.26 173.7 116.71C173.1 117.16 172.41 117.38 171.61 117.38C170.81 117.38 170.11 117.16 169.51 116.71ZM173.39 114.81C173.84 114.03 174.07 112.84 174.07 111.24C174.07 109.65 173.84 108.47 173.39 107.68C172.94 106.9 172.34 106.5 171.61 106.5C170.87 106.5 170.27 106.89 169.82 107.67C169.37 108.45 169.14 109.64 169.14 111.23C169.14 112.83 169.36 114.02 169.81 114.8C170.26 115.58 170.86 115.97 171.61 115.97C172.35 115.97 172.94 115.59 173.39 114.81ZM177.85 104.79H179.4V118H177.85V104.79Z" fill="black"/>
<path d="M184.54 110.88C183.78 111.38 182.92 111.7 181.96 111.83V110.44C182.77 110.3 183.48 109.96 184.09 109.44C184.69 108.92 185.15 108.27 185.47 107.48C185.79 106.69 185.95 105.84 185.97 104.91L187.5 105C187.5 105.95 187.34 106.86 187.02 107.72L191.12 110.38L190.33 111.51L186.43 108.93C185.93 109.73 185.3 110.38 184.54 110.88ZM192.53 113.19C193.57 113.63 194.08 114.32 194.08 115.26C194.08 116.2 193.56 116.89 192.53 117.33C191.49 117.77 190.12 118 188.42 118C186.72 118 185.35 117.78 184.31 117.33C183.27 116.89 182.76 116.2 182.76 115.26C182.76 114.32 183.28 113.63 184.31 113.19C185.35 112.75 186.71 112.52 188.42 112.52C190.13 112.52 191.49 112.75 192.53 113.19ZM191.33 116.36C192.07 116.11 192.44 115.75 192.44 115.26C192.44 114.78 192.07 114.41 191.33 114.16C190.59 113.91 189.62 113.79 188.42 113.79C187.23 113.79 186.27 113.91 185.52 114.16C184.77 114.41 184.4 114.77 184.4 115.26C184.4 115.74 184.77 116.11 185.51 116.36C186.25 116.61 187.22 116.73 188.42 116.73C189.62 116.73 190.59 116.61 191.33 116.36ZM195.74 107.31V108.76H193.88V112.09H192.35V104.79H193.88V107.31H195.74Z" fill="black"/>
<path d="M209.59 110.93H201.73V105.02H203.23V106.66H208.09V105.02H209.59V110.93ZM213.79 116.64V117.83H202.28V114.41H211.95V113.33H202.25V112.14H213.46V115.54H203.79V116.64H213.79ZM208.09 109.7V107.89H203.23V109.7H208.09ZM213.46 111.41H211.93V104.79H213.46V111.41Z" fill="black"/>
<path d="M227.97 110.64C227.23 110.72 226.39 110.76 225.45 110.76H220.89V105.04H222.44V109.52H225.55C227.5 109.52 228.89 109.36 229.71 109.04V110.28C229.29 110.44 228.71 110.56 227.97 110.64ZM233.18 112.48V113.67H221.19V112.48H226.42V111.43H227.97V112.48H233.18ZM231.3 114.87C232.19 115.2 232.64 115.65 232.64 116.24C232.64 116.83 232.2 117.28 231.31 117.6C230.42 117.92 229.05 118.08 227.2 118.08C225.34 118.08 223.97 117.92 223.09 117.6C222.2 117.28 221.76 116.83 221.76 116.24C221.76 115.65 222.21 115.2 223.1 114.87C223.99 114.55 225.36 114.38 227.21 114.38C229.06 114.38 230.41 114.54 231.3 114.87ZM231.06 116.24C231.06 116.01 230.74 115.84 230.09 115.71C229.44 115.58 228.48 115.52 227.19 115.52C225.9 115.52 224.93 115.58 224.29 115.71C223.65 115.84 223.32 116.02 223.32 116.24C223.32 116.7 224.61 116.94 227.19 116.94C229.77 116.93 231.06 116.7 231.06 116.24ZM231.25 107.81H226.24V106.53H231.25V104.8H232.78V111.56H231.25V107.81Z" fill="black"/>
<path d="M235.22 111.66H248.41V112.96H235.22V111.66ZM238.83 110.16C237.95 109.94 237.25 109.62 236.73 109.19C236.21 108.76 235.95 108.23 235.95 107.6C235.95 106.97 236.21 106.44 236.73 106.01C237.25 105.58 237.95 105.25 238.84 105.04C239.73 104.83 240.72 104.72 241.81 104.72C242.9 104.72 243.89 104.83 244.78 105.04C245.67 105.25 246.37 105.57 246.89 106.01C247.41 106.44 247.67 106.97 247.67 107.6C247.67 108.23 247.41 108.76 246.89 109.19C246.37 109.62 245.67 109.95 244.79 110.16C243.91 110.38 242.92 110.48 241.81 110.48C240.7 110.48 239.71 110.38 238.83 110.16ZM236.13 114.09H237.69V116.53H247.73V117.84H236.13V114.09ZM244.83 108.81C245.64 108.52 246.04 108.11 246.04 107.6C246.04 107.08 245.64 106.68 244.83 106.39C244.02 106.1 243.01 105.96 241.81 105.96C240.6 105.96 239.6 106.11 238.79 106.39C237.98 106.68 237.58 107.08 237.58 107.6C237.58 108.12 237.98 108.52 238.79 108.81C239.6 109.1 240.61 109.25 241.81 109.25C243.01 109.25 244.02 109.1 244.83 108.81Z" fill="black"/>
<path d="M261.32 110.76C260.61 111.23 259.71 111.47 258.63 111.47C257.8 111.47 257.09 111.33 256.47 111.06C255.86 110.79 255.38 110.4 255.05 109.91C254.71 109.41 254.55 108.85 254.55 108.21C254.55 107.58 254.72 107.02 255.05 106.52C255.38 106.03 255.86 105.64 256.47 105.36C257.08 105.08 257.8 104.94 258.63 104.94C259.68 104.94 260.56 105.17 261.27 105.62C261.98 106.07 262.42 106.68 262.61 107.43H265.33V104.79H266.86V111.66H265.33V108.86H262.64C262.47 109.65 262.04 110.29 261.32 110.76ZM259.73 112.23H261.12V117.83H255.6V112.23H256.98V113.78H259.73V112.23ZM256.79 109.66C257.26 110.02 257.88 110.2 258.64 110.2C259.4 110.2 260.02 110.02 260.48 109.66C260.94 109.3 261.18 108.82 261.18 108.21C261.18 107.6 260.95 107.12 260.48 106.76C260.02 106.4 259.4 106.22 258.64 106.22C257.88 106.22 257.26 106.4 256.79 106.76C256.32 107.12 256.09 107.61 256.09 108.21C256.08 108.82 256.32 109.3 256.79 109.66ZM259.73 116.61V114.97H256.98V116.61H259.73ZM267.28 117.85L264.9 115.68C264.52 116.32 264.05 116.83 263.49 117.2C262.93 117.58 262.32 117.78 261.67 117.83V116.49C262.13 116.43 262.56 116.22 262.95 115.86C263.34 115.5 263.67 115 263.93 114.37C264.19 113.74 264.35 113.01 264.4 112.19L265.87 112.3C265.83 113.04 265.69 113.76 265.45 114.45L268.22 116.83L267.28 117.85Z" fill="black"/>
<path d="M275.17 115.82C275.8 115.82 276.43 115.76 277.05 115.65C277.67 115.54 278.19 115.38 278.59 115.19V116.58C278.2 116.78 277.68 116.93 277.04 117.04C276.4 117.15 275.75 117.21 275.1 117.21H269.93V105.27H277.55V106.66H271.49V115.82H275.17ZM283.11 111.61H281.25V118H279.72V104.79H281.25V110.14H283.11V111.61Z" fill="black"/>
<path d="M284.53 117.6C284.31 117.38 284.2 117.11 284.2 116.78C284.2 116.46 284.31 116.19 284.53 115.98C284.75 115.76 285.02 115.66 285.34 115.66C285.66 115.66 285.93 115.77 286.15 115.98C286.37 116.2 286.48 116.46 286.48 116.78C286.48 117.11 286.37 117.38 286.16 117.6C285.94 117.82 285.67 117.92 285.34 117.92C285.02 117.92 284.75 117.82 284.53 117.6ZM284.37 105.29H286.33L285.93 114.24H284.75L284.37 105.29Z" fill="black"/>
<path d="M288.55 117.6C288.33 117.38 288.22 117.11 288.22 116.78C288.22 116.46 288.33 116.19 288.55 115.98C288.77 115.76 289.04 115.66 289.36 115.66C289.68 115.66 289.95 115.77 290.17 115.98C290.39 116.2 290.5 116.46 290.5 116.78C290.5 117.11 290.39 117.38 290.18 117.6C289.96 117.82 289.69 117.92 289.36 117.92C289.04 117.92 288.77 117.82 288.55 117.6ZM288.39 105.29H290.35L289.95 114.24H288.77L288.39 105.29Z" fill="black"/>
<path d="M292.57 117.6C292.35 117.38 292.24 117.11 292.24 116.78C292.24 116.46 292.35 116.19 292.57 115.98C292.79 115.76 293.06 115.66 293.38 115.66C293.7 115.66 293.97 115.77 294.19 115.98C294.41 116.2 294.52 116.46 294.52 116.78C294.52 117.11 294.41 117.38 294.2 117.6C293.98 117.82 293.71 117.92 293.38 117.92C293.06 117.92 292.79 117.82 292.57 117.6ZM292.41 105.29H294.37L293.97 114.24H292.79L292.41 105.29Z" fill="black"/>
<path d="M20.4099 20.8401V21.5201C24.0799 21.7201 25.9199 22.6601 25.9199 24.3301C25.9199 25.3401 25.2999 26.0601 24.0699 26.5101C22.8399 26.9501 21.1099 27.1801 18.8999 27.1801C14.2199 27.1801 11.8799 26.2301 11.8799 24.3401C11.8799 22.6701 13.7199 21.7401 17.3899 21.5301V20.8501H11.1299V18.5501H26.6799V20.8501H20.4099V20.8401ZM25.7399 17.8301H12.0599V11.6201H15.0299V12.5701H22.7699V11.6201H25.7399V17.8301ZM22.7699 15.6401V14.7201H15.0299V15.6401H22.7699ZM21.6999 23.8501C21.0399 23.7501 20.0999 23.7101 18.8899 23.7101C17.6799 23.7101 16.7399 23.7601 16.0799 23.8501C15.4199 23.9501 15.0899 24.1101 15.0899 24.3401C15.0899 24.5801 15.4099 24.7501 16.0599 24.8401C16.7099 24.9301 17.6499 24.9701 18.8899 24.9701C20.1299 24.9701 21.0699 24.9301 21.7199 24.8401C22.3699 24.7501 22.6899 24.5901 22.6899 24.3401C22.6899 24.1101 22.3599 23.9401 21.6999 23.8501Z" fill="black"/>
<path d="M43.3803 11.6204V26.9904H40.3403V20.2604H38.3103C38.1803 22.3404 37.7003 23.8904 36.8803 24.9104C36.0603 25.9404 34.9603 26.4504 33.5903 26.4504C32.1003 26.4504 30.9403 25.8404 30.0903 24.6204C29.2403 23.4004 28.8203 21.5704 28.8203 19.1204C28.8203 16.6704 29.2403 14.8404 30.0903 13.6204C30.9403 12.4004 32.1003 11.7904 33.5903 11.7904C34.8903 11.7904 35.9403 12.2604 36.7603 13.1904C37.5803 14.1204 38.0803 15.5304 38.2703 17.4104H40.3403V11.6104H43.3803V11.6204ZM35.3303 19.1304C35.3303 16.1104 34.7503 14.5904 33.5803 14.5904C32.4003 14.5904 31.8203 16.1004 31.8203 19.1304C31.8203 22.1504 32.4103 23.6703 33.5803 23.6703C34.7503 23.6703 35.3303 22.1604 35.3303 19.1304Z" fill="black"/>
<path d="M51.2096 19.7201H45.8496V11.8001H48.1896V13.6001H49.0396V11.8001H51.2196V19.7201H51.2096ZM58.7596 21.3401C60.0496 21.8601 60.6896 22.7101 60.6896 23.8701C60.6896 25.0201 60.0396 25.8601 58.7296 26.3901C57.4196 26.9201 55.7096 27.1801 53.5796 27.1801C51.4196 27.1801 49.6896 26.9201 48.4096 26.4001C47.1196 25.8801 46.4696 25.0401 46.4696 23.8701C46.4696 22.7001 47.1196 21.8601 48.4096 21.3401C49.6996 20.8201 51.4196 20.5601 53.5796 20.5601C55.7396 20.5601 57.4696 20.8101 58.7596 21.3401ZM49.0296 17.5301V15.6801H48.1796V17.5301H49.0296ZM56.3596 24.5701C57.0596 24.4301 57.4096 24.1901 57.4096 23.8701C57.4096 23.5601 57.0596 23.3301 56.3496 23.1801C55.6396 23.0301 54.7196 22.9601 53.5796 22.9601C52.4396 22.9601 51.5196 23.0401 50.8096 23.1801C50.0996 23.3301 49.7496 23.5601 49.7496 23.8701C49.7496 24.1901 50.0996 24.4301 50.7996 24.5701C51.4996 24.7101 52.4296 24.7901 53.5796 24.7901C54.7296 24.7901 55.6596 24.7101 56.3596 24.5701ZM57.1096 19.7201H51.7496V11.8001H53.9296V13.6001H54.7796V11.8001H57.1196V19.7201H57.1096ZM54.7696 17.5301V15.6801H53.9196V17.5301H54.7696ZM61.9896 14.2701V17.2201H60.5496V20.4201H57.9796V11.6201H60.5496V14.2701H61.9896Z" fill="black"/>
<path d="M71.4294 12.5507C72.2794 13.1307 72.9394 14.0007 73.4194 15.1607C73.8994 16.3207 74.1394 17.7307 74.1394 19.4007C74.1394 21.0707 73.8994 22.4807 73.4194 23.6307C72.9394 24.7807 72.2794 25.6507 71.4294 26.2307C70.5794 26.8107 69.6094 27.1007 68.5194 27.1007C67.4294 27.1007 66.4594 26.8107 65.6094 26.2307C64.7594 25.6507 64.0994 24.7807 63.6194 23.6307C63.1394 22.4807 62.8994 21.0707 62.8994 19.4007C62.8994 17.7307 63.1394 16.3207 63.6194 15.1607C64.0994 14.0007 64.7594 13.1307 65.6094 12.5507C66.4594 11.9707 67.4194 11.6807 68.5194 11.6807C69.6194 11.6807 70.5794 11.9707 71.4294 12.5507ZM66.6894 15.7607C66.2294 16.5807 65.9994 17.7907 65.9994 19.4007C65.9994 21.0007 66.2294 22.2007 66.6894 23.0207C67.1494 23.8407 67.7594 24.2407 68.5194 24.2407C69.2794 24.2407 69.8794 23.8307 70.3494 23.0207C70.8094 22.2007 71.0394 21.0007 71.0394 19.4007C71.0394 17.7907 70.8094 16.5807 70.3494 15.7607C69.8894 14.9407 69.2794 14.5407 68.5194 14.5407C67.7594 14.5407 67.1594 14.9507 66.6894 15.7607Z" fill="black"/>
<path d="M77.0402 25.8403C76.1002 25.0103 75.5702 23.8803 75.4502 22.4603H78.6702C78.8002 23.7003 79.5202 24.3103 80.8102 24.3103C81.4702 24.3103 81.9902 24.0903 82.3802 23.6503C82.7602 23.2103 82.9602 22.6503 82.9602 21.9703C82.9602 21.2703 82.7602 20.7103 82.3802 20.2903C81.9902 19.8603 81.4502 19.6503 80.7702 19.6503C79.8702 19.6503 79.1802 19.9803 78.7002 20.6403H75.7302L76.1602 12.0703H85.4302V14.8603H79.1302L78.9702 17.6103C79.6502 17.2003 80.4402 17.0003 81.3302 17.0003C82.2902 17.0003 83.1302 17.2003 83.8602 17.5903C84.5902 17.9903 85.1502 18.5603 85.5502 19.3103C85.9502 20.0603 86.1502 20.9403 86.1502 21.9603C86.1502 22.9703 85.9202 23.8603 85.4602 24.6303C85.0002 25.4003 84.3602 26.0003 83.5502 26.4303C82.7402 26.8603 81.8302 27.0703 80.8202 27.0703C79.2402 27.0903 77.9902 26.6703 77.0402 25.8403Z" fill="black"/>
<path d="M92.3899 15.2806L94.2798 16.0206L93.1999 17.9106L91.5999 16.6306L91.9099 18.6506H89.7299L90.0399 16.6306L88.4398 17.8906L87.3398 16.0206L89.2498 15.2806L87.3598 14.5206L88.4398 12.6306L90.0399 13.9106L89.7299 11.8906H91.9099L91.5999 13.9106L93.1999 12.6506L94.2998 14.5206L92.3899 15.2806Z" fill="black"/>
<path d="M100.22 15.2806L102.11 16.0206L101.03 17.9106L99.4299 16.6306L99.7399 18.6506H97.5599L97.8699 16.6306L96.2699 17.8906L95.1699 16.0206L97.0799 15.2806L95.1899 14.5206L96.2699 12.6306L97.8699 13.9106L97.5599 11.8906H99.7399L99.4299 13.9106L101.03 12.6506L102.13 14.5206L100.22 15.2806Z" fill="black"/>
<path d="M108.05 15.2806L109.94 16.0206L108.86 17.9106L107.26 16.6306L107.57 18.6506H105.39L105.7 16.6306L104.1 17.8906L103 16.0206L104.91 15.2806L103.02 14.5206L104.1 12.6306L105.7 13.9106L105.39 11.8906H107.57L107.26 13.9106L108.86 12.6506L109.96 14.5206L108.05 15.2806Z" fill="black"/>
<path d="M681.656 283H375.353C372.398 283 370 280.11 370 276.55V114.45C370 110.89 372.398 108 375.353 108H681.647C684.602 108 687 110.89 687 114.45V276.55C687.008 280.12 684.61 283 681.656 283Z" fill="white" stroke="black" stroke-miterlimit="10"/>
<path d="M679.363 144.869H378.388V272.819H679.363V144.869Z" fill="#F0F0F0" stroke="black" stroke-width="0.75" stroke-miterlimit="10"/>
<path d="M674.47 124.05H642.38C639.96 124.05 638 122.09 638 119.67V108H678.85V119.67C678.85 122.09 676.89 124.05 674.47 124.05Z" fill="#FF0000" stroke="black" stroke-width="0.75" stroke-miterlimit="10"/>
<path d="M656.96 115.06L654.15 111.26H656.96L658.46 113.46L659.93 111.26H662.58L659.84 115.01L662.74 118.96H659.93L658.34 116.64L656.76 118.96H654.11L656.96 115.06Z" fill="black"/>
<path d="M389.99 126.6H380.45V119.4H383.42V120.66H387.02V119.4H389.99V126.6ZM394.98 132.55V134.58H381.08V130.08H391.83V129.49H381.05V127.46H394.82V131.96H384.07V132.55H394.98ZM387.02 124.22V122.96H383.42V124.22H387.02ZM394.82 126.92H391.78V119.22H394.82V126.92Z" fill="black"/>
<path d="M406.25 126.3C405.59 126.37 404.89 126.4 404.14 126.4H397.7V119.31H400.78V124.03H404.27C405.9 124.03 407.08 123.92 407.82 123.69V126.03C407.43 126.14 406.91 126.23 406.25 126.3ZM412.46 127.75V129.82H398.22V127.75H403.8V126.92H406.88V127.75H412.46ZM410.38 130.78C411.43 131.15 411.95 131.72 411.95 132.5C411.95 133.28 411.43 133.85 410.38 134.22C409.33 134.59 407.65 134.77 405.35 134.77C403.05 134.77 401.37 134.59 400.32 134.22C399.27 133.85 398.74 133.28 398.74 132.5C398.74 131.72 399.26 131.15 400.32 130.78C401.37 130.41 403.05 130.23 405.35 130.23C407.65 130.23 409.33 130.41 410.38 130.78ZM408.06 132.77C408.58 132.71 408.84 132.62 408.84 132.5C408.84 132.37 408.58 132.27 408.06 132.2C407.54 132.13 406.64 132.1 405.35 132.1C404.08 132.1 403.18 132.13 402.65 132.2C402.12 132.27 401.86 132.37 401.86 132.5C401.86 132.62 402.12 132.71 402.64 132.77C403.16 132.83 404.06 132.86 405.35 132.86C406.64 132.86 407.53 132.83 408.06 132.77ZM409.16 123.05H404.26V120.58H409.16V119.21H412.2V126.93H409.16V123.05Z" fill="black"/>
<path d="M430.13 129.24H414.58V126.74H430.13V129.24ZM427.48 119.86C428.77 120.46 429.42 121.34 429.42 122.49C429.42 123.64 428.77 124.52 427.48 125.12C426.19 125.72 424.48 126.02 422.36 126.02C420.24 126.02 418.53 125.72 417.24 125.12C415.95 124.52 415.3 123.64 415.3 122.49C415.3 121.34 415.95 120.46 417.24 119.86C418.53 119.26 420.24 118.96 422.36 118.96C424.48 118.96 426.19 119.26 427.48 119.86ZM418.58 132.05H429.42V134.59H415.49V130.04H418.59V132.05H418.58ZM419.58 121.64C418.89 121.85 418.54 122.14 418.54 122.5C418.54 122.87 418.88 123.16 419.57 123.36C420.25 123.56 421.18 123.67 422.36 123.67C423.54 123.67 424.47 123.57 425.15 123.36C425.83 123.16 426.18 122.87 426.18 122.5C426.18 122.14 425.83 121.85 425.14 121.64C424.45 121.43 423.52 121.33 422.36 121.33C421.19 121.32 420.27 121.43 419.58 121.64Z" fill="black"/>
<path d="M435.11 126.22C434.18 126.68 433.17 126.93 432.09 126.98V124.32C432.89 124.22 433.61 123.95 434.23 123.51C434.85 123.07 435.35 122.48 435.71 121.76C436.07 121.03 436.26 120.22 436.29 119.3L439.33 119.48C439.33 120.44 439.16 121.35 438.81 122.22L443.04 124.58L441.58 126.76L437.49 124.4C436.84 125.15 436.04 125.76 435.11 126.22ZM435.66 132.48H439.67V134.59H432.87V130.16H436.56V129.57H432.83V127.46H439.35V131.89H435.66V132.48ZM447.4 128V130.05H439.82V128H442.14V127.06H445.06V128H447.4ZM446.09 131C446.73 131.39 447.05 131.94 447.05 132.67C447.05 133.39 446.73 133.95 446.09 134.34C445.45 134.74 444.62 134.93 443.6 134.93C442.58 134.93 441.75 134.73 441.11 134.34C440.47 133.94 440.15 133.39 440.15 132.67C440.15 131.95 440.47 131.39 441.11 131C441.75 130.61 442.58 130.42 443.6 130.42C444.62 130.42 445.45 130.61 446.09 131ZM444.3 133C444.49 132.92 444.59 132.8 444.59 132.66C444.59 132.5 444.49 132.39 444.3 132.31C444.11 132.23 443.87 132.19 443.6 132.19C443.32 132.19 443.09 132.23 442.9 132.31C442.71 132.39 442.61 132.51 442.61 132.66C442.61 132.8 442.71 132.92 442.9 133C443.09 133.08 443.33 133.13 443.6 133.13C443.87 133.13 444.11 133.09 444.3 133ZM446.77 126.58H443.73V119.22H446.77V126.58Z" fill="black"/>
<path d="M464.15 119.22V134.59H461.11V127.86H459.08C458.95 129.94 458.47 131.49 457.65 132.51C456.83 133.54 455.73 134.05 454.36 134.05C452.87 134.05 451.71 133.44 450.86 132.22C450.01 131 449.59 129.17 449.59 126.72C449.59 124.27 450.01 122.44 450.86 121.22C451.71 120 452.87 119.39 454.36 119.39C455.66 119.39 456.71 119.86 457.53 120.79C458.35 121.72 458.85 123.13 459.04 125.01H461.11V119.21H464.15V119.22ZM456.11 126.72C456.11 123.7 455.53 122.18 454.36 122.18C453.18 122.18 452.6 123.69 452.6 126.72C452.6 129.74 453.19 131.26 454.36 131.26C455.53 131.26 456.11 129.75 456.11 126.72Z" fill="black"/>
<path d="M471.14 122.87L473.03 123.61L471.95 125.5L470.35 124.22L470.66 126.24H468.48L468.79 124.22L467.19 125.48L466.09 123.61L468 122.87L466.11 122.11L467.19 120.22L468.79 121.5L468.48 119.48H470.66L470.35 121.5L471.95 120.24L473.05 122.11L471.14 122.87Z" fill="black"/>
<path d="M478.97 122.87L480.86 123.61L479.78 125.5L478.18 124.22L478.49 126.24H476.31L476.62 124.22L475.02 125.48L473.92 123.61L475.83 122.87L473.94 122.11L475.02 120.22L476.62 121.5L476.31 119.48H478.49L478.18 121.5L479.78 120.24L480.88 122.11L478.97 122.87Z" fill="black"/>
<path d="M486.8 122.87L488.69 123.61L487.61 125.5L486.01 124.22L486.32 126.24H484.14L484.45 124.22L482.85 125.48L481.75 123.61L483.66 122.87L481.77 122.11L482.85 120.22L484.45 121.5L484.14 119.48H486.32L486.01 121.5L487.61 120.24L488.71 122.11L486.8 122.87Z" fill="black"/>
<path d="M443.61 199.84C442.86 200.34 442 200.64 441.05 200.74V199.36C442.13 199.21 443 198.71 443.66 197.88C444.32 197.04 444.69 195.99 444.77 194.71H441.22V193.4H449.62V194.71H446.28C446.27 195.32 446.17 195.94 445.98 196.59L450 199.52L449.17 200.63L445.43 197.87C444.97 198.68 444.37 199.34 443.61 199.84ZM453.17 204.51V205.88H441.83V201.75H443.35V204.51H453.17ZM452.82 202.7H451.32V193.07H452.82V202.7Z" fill="black"/>
<path d="M462.77 199.47L465.37 204.68L464.2 205.3L462.41 201.5C462.13 202.62 461.74 203.49 461.24 204.09C460.74 204.69 460.13 205.08 459.4 205.27L458.08 201.72C457.8 202.77 457.41 203.58 456.93 204.15C456.44 204.72 455.85 205.09 455.14 205.27V203.77C455.87 203.52 456.41 202.67 456.77 201.23C457.13 199.79 457.32 197.68 457.34 194.92H455.58V193.55H459.88V194.92H458.79C458.78 196.61 458.69 198.12 458.53 199.44L460.06 203.34C460.57 202.81 460.95 201.85 461.2 200.46C461.45 199.07 461.59 197.22 461.61 194.91H460.43V193.54H464.61V194.91H463.06C463.03 196.69 462.94 198.21 462.77 199.47ZM468.88 199.77H467.13V206.04H465.67V193.07H467.13V198.32H468.88V199.77Z" fill="black"/>
<path d="M479.15 198.97L483.37 204.28L482.17 205.14L478.71 200.68C478.27 202.05 477.68 203.12 476.93 203.91C476.18 204.7 475.32 205.15 474.33 205.26V203.77C475.08 203.63 475.73 203.16 476.27 202.37C476.82 201.58 477.24 200.54 477.53 199.26C477.82 197.98 477.98 196.53 478 194.92H474.63V193.54H482.83V194.92H479.52C479.52 196.36 479.39 197.71 479.15 198.97ZM486.39 193.07V206.04H484.89V199.34H481.7V197.93H484.89V193.07H486.39Z" fill="black"/>
<path d="M496.82 200.39H489.24V193.39H496.82V200.39ZM491.2 204.51H500.87V205.88H489.68V201.67H491.2V204.51ZM495.33 194.7H490.73V199.09H495.33V194.7ZM502.35 196.16V197.6H500.53V202.7H499.03V193.07H500.53V196.15H502.35V196.16Z" fill="black"/>
<path d="M515.17 197.8C514.84 198.26 514.38 198.61 513.78 198.87C513.18 199.13 512.49 199.26 511.71 199.26C510.93 199.26 510.24 199.13 509.65 198.87C509.05 198.61 508.59 198.25 508.25 197.8C507.92 197.34 507.75 196.82 507.75 196.24C507.75 195.65 507.92 195.13 508.25 194.68C508.58 194.22 509.05 193.87 509.65 193.61C510.25 193.35 510.93 193.22 511.71 193.22C512.49 193.22 513.18 193.35 513.78 193.61C514.38 193.87 514.84 194.22 515.17 194.68C515.5 195.14 515.66 195.66 515.66 196.24C515.66 196.82 515.5 197.34 515.17 197.8ZM510.2 204.69H519.7V205.87H508.71V202.44H517.9V201.32H508.68V200.14H519.38V203.57H510.19V204.69H510.2ZM509.93 197.55C510.39 197.88 510.99 198.04 511.71 198.04C512.44 198.04 513.03 197.88 513.49 197.55C513.95 197.22 514.17 196.78 514.17 196.24C514.17 195.69 513.94 195.26 513.49 194.93C513.03 194.6 512.44 194.44 511.71 194.44C510.98 194.44 510.39 194.6 509.93 194.93C509.47 195.26 509.24 195.7 509.24 196.24C509.24 196.78 509.47 197.22 509.93 197.55ZM521.2 195.4V196.78H519.38V199.42H517.88V193.07H519.38V195.39H521.2V195.4Z" fill="black"/>
<path d="M535.2 204.01V205.42H522.25V204.01H527.08V198.23H528.63V204.01H535.2ZM532.77 194.94H523.04V193.53H534.34V202.09H532.78V194.94H532.77Z" fill="black"/>
<path d="M543.84 198.78C543.09 199.24 542.25 199.54 541.3 199.67V198.3C542.11 198.16 542.82 197.85 543.42 197.37C544.02 196.89 544.49 196.29 544.82 195.56C545.15 194.84 545.31 194.05 545.31 193.2L546.81 193.29C546.81 194.22 546.64 195.08 546.31 195.87L550.42 198.41L549.65 199.52L545.7 197.02C545.21 197.73 544.59 198.32 543.84 198.78ZM553.48 204.67V205.92H542.02V204.68H544.45V201.93H542.17V200.7H553.33V201.93H551.05V204.68H553.48V204.67ZM545.95 204.67H549.55V201.92H545.95V204.67ZM553.21 199.95H551.71V193.07H553.21V199.95Z" fill="black"/>
<path d="M555.71 199.82H568.66V201.1H555.71V199.82ZM559.26 198.34C558.39 198.13 557.71 197.81 557.2 197.38C556.69 196.95 556.43 196.43 556.43 195.82C556.43 195.2 556.69 194.68 557.2 194.26C557.71 193.84 558.4 193.52 559.27 193.31C560.14 193.1 561.11 193 562.19 193C563.26 193 564.23 193.1 565.1 193.31C565.97 193.52 566.66 193.83 567.17 194.26C567.68 194.69 567.94 195.21 567.94 195.82C567.94 196.44 567.68 196.96 567.17 197.38C566.66 197.8 565.97 198.12 565.11 198.34C564.25 198.56 563.27 198.66 562.19 198.66C561.1 198.66 560.12 198.56 559.26 198.34ZM556.61 202.2H558.14V204.6H567.99V205.89H556.6V202.2H556.61ZM565.15 197.01C565.94 196.72 566.34 196.32 566.34 195.82C566.34 195.31 565.94 194.92 565.15 194.64C564.36 194.36 563.37 194.21 562.18 194.21C561 194.21 560.01 194.35 559.21 194.64C558.42 194.92 558.02 195.32 558.02 195.82C558.02 196.33 558.42 196.72 559.21 197.01C560 197.3 560.99 197.44 562.18 197.44C563.36 197.45 564.35 197.3 565.15 197.01Z" fill="black"/>
<path d="M581.78 198.8V200.201H586.62V203.62H576.93V204.73H586.84V205.9H575.46V202.48H585.15V201.37H575.43V200.201H580.29V198.8H574.57V197.6H587.52V198.8H581.78ZM578.93 194.44H575.33V193.23H580.43V196.951H578.93V194.44ZM585.14 194.44H581.19V193.23H586.63V196.951H585.14V194.44Z" fill="black"/>
<path d="M592.24 200.3H589.57V193.39H595.16V194.57H591V196.24H594.8V197.39H591V199.11H592.37C593.9 199.11 595.08 198.95 595.92 198.62V199.8C595.1 200.14 593.87 200.3 592.24 200.3ZM590.31 201.5H601.64V205.87H590.31V201.5ZM591.79 204.67H600.17V202.7H591.79V204.67ZM597.08 197.1H595.5V195.76H597.08V193.15H598.49V200.65H597.08V197.1ZM601.64 193.07V200.78H600.21V193.07H601.64Z" fill="black"/>
<path d="M606.1 200.51H604.32V198.76H606.1V200.51ZM610.84 200.51H609.06V198.76H610.84V200.51ZM615.52 200.51H613.74V198.76H615.52V200.51Z" fill="black"/>
<path d="M427.13 221.98C427.97 221.86 428.68 221.65 429.27 221.36V222.74C428.83 222.96 428.24 223.14 427.49 223.28C426.74 223.42 425.9 223.49 424.99 223.49H420V222.12H421.53V213.13H420.07V211.76H428.6V213.13H427.13V221.98ZM425.01 222.12C425.3 222.12 425.52 222.12 425.66 222.11V213.14H423.02V222.13H425.01V222.12ZM431.81 211.29V224.26H430.31V211.29H431.81Z" fill="black"/>
<path d="M439.61 217L443.8 222.59L442.59 223.46L439.14 218.75C438.65 220.2 438.02 221.33 437.24 222.15C436.46 222.97 435.57 223.42 434.55 223.49V221.97C435.39 221.84 436.11 221.3 436.72 220.35C437.33 219.4 437.79 218.17 438.1 216.65C438.41 215.13 438.58 213.45 438.59 211.61L440.12 211.67C440.11 213.7 439.94 215.47 439.61 217ZM446.43 211.29V224.26H444.93V211.29H446.43Z" fill="black"/>
<path d="M456.97 217.93H449.39V211.52H450.86V213.39H455.49V211.52H456.96V217.93H456.97ZM459.34 219.73C460.36 220.15 460.87 220.8 460.87 221.68C460.87 222.56 460.36 223.21 459.34 223.63C458.32 224.05 456.98 224.26 455.31 224.26C453.64 224.26 452.3 224.05 451.28 223.63C450.26 223.21 449.75 222.56 449.75 221.68C449.75 220.8 450.26 220.15 451.28 219.73C452.3 219.31 453.64 219.1 455.31 219.1C456.98 219.1 458.33 219.31 459.34 219.73ZM455.49 216.68V214.62H450.86V216.68H455.49ZM458.17 222.69C458.9 222.46 459.27 222.13 459.27 221.68C459.27 221.24 458.9 220.9 458.17 220.67C457.44 220.44 456.48 220.33 455.31 220.33C454.15 220.33 453.19 220.44 452.46 220.67C451.72 220.9 451.35 221.23 451.35 221.68C451.35 222.13 451.72 222.46 452.45 222.69C453.18 222.92 454.14 223.03 455.31 223.03C456.49 223.03 457.44 222.92 458.17 222.69ZM462.49 214.03V215.47H460.67V218.69H459.17V211.3H460.67V214.03H462.49Z" fill="black"/>
<path d="M475.38 217.14C475.05 217.71 474.58 218.15 473.98 218.48C473.37 218.8 472.66 218.97 471.84 218.97C471.02 218.97 470.3 218.81 469.69 218.48C469.08 218.16 468.61 217.71 468.28 217.14C467.95 216.57 467.79 215.92 467.79 215.2C467.79 214.48 467.95 213.84 468.28 213.26C468.61 212.69 469.08 212.24 469.69 211.92C470.3 211.6 471.02 211.43 471.84 211.43C472.66 211.43 473.37 211.59 473.98 211.92C474.59 212.24 475.06 212.69 475.38 213.26C475.71 213.83 475.87 214.47 475.87 215.2C475.87 215.92 475.7 216.57 475.38 217.14ZM470.37 222.73H479.87V224.1H468.83V219.86H470.36V222.73H470.37ZM469.98 217.01C470.45 217.46 471.06 217.69 471.83 217.69C472.6 217.69 473.21 217.47 473.67 217.01C474.13 216.55 474.36 215.95 474.36 215.2C474.36 214.45 474.13 213.83 473.66 213.38C473.19 212.92 472.58 212.7 471.82 212.7C471.05 212.7 470.43 212.93 469.97 213.38C469.5 213.84 469.27 214.44 469.27 215.2C469.27 215.96 469.51 216.56 469.98 217.01ZM481.35 214.38V215.82H479.53V220.92H478.03V211.29H479.53V214.37H481.35V214.38Z" fill="black"/>
<path d="M487.12 211.76H494.18V214.89C494.18 216.6 493.9 218.1 493.33 219.39C492.76 220.68 491.95 221.68 490.89 222.39C489.83 223.1 488.57 223.45 487.12 223.45V222.02C488.28 222.02 489.28 221.73 490.1 221.15C490.92 220.57 491.56 219.75 491.99 218.68C492.42 217.62 492.64 216.36 492.64 214.91V213.13H487.11V211.76H487.12ZM500.21 217.99H498.39V224.26H496.89V211.29H498.39V216.54H500.21V217.99Z" fill="black"/>
<path d="M514.2 222.24V223.64H501.25V222.24H506.94V219.1H502.1V211.77H513.35V213.17H503.63V217.71H513.5V219.11H508.47V222.25H514.2V222.24Z" fill="black"/>
<path d="M525.41 222.07C527.39 222.07 528.81 221.89 529.66 221.52V222.93C528.77 223.29 527.36 223.48 525.42 223.48H520.11V222.07H523.81V218.76H520.86V211.79H528.39V213.17H522.35V217.38H528.54V218.76H525.31V222.07H525.41ZM532.24 211.29V224.26H530.74V211.29H532.24Z" fill="black"/>
<path d="M535.46 211.69H536.99V222.11H540.76C541.37 222.11 541.98 222.05 542.6 221.94C543.22 221.82 543.72 221.67 544.12 221.48V222.86C543.73 223.05 543.22 223.21 542.62 223.32C542.01 223.44 541.4 223.49 540.77 223.49H535.47V211.69H535.46ZM545.31 211.29H546.81V224.26L545.31 224.27V211.29Z" fill="black"/>
<path d="M549.61 211.76H553.33V214.69C553.33 217.28 553.04 219.3 552.46 220.74C551.88 222.18 550.93 222.93 549.61 222.99V221.59C550.43 221.48 551.01 220.85 551.36 219.69C551.7 218.54 551.88 216.91 551.88 214.82V213.12H549.62V211.76H549.61ZM554 211.76H557.69V214.89C557.69 217.57 557.35 219.65 556.68 221.13C556.01 222.61 554.98 223.38 553.59 223.45V222.05C555.35 221.85 556.23 219.5 556.23 215.02V213.12H554V211.76ZM562.88 217.99H561.13V224.26H559.67V211.29H561.13V216.54H562.88V217.99Z" fill="black"/>
<path d="M573.83 222.09C574.46 222.09 575.08 222.03 575.69 221.92C576.3 221.81 576.8 221.66 577.19 221.48V222.86C576.81 223.05 576.3 223.2 575.69 223.32C575.08 223.44 574.45 223.49 573.81 223.49H568.88V211.69H570.41V222.09H573.83ZM580.38 211.29V224.26H578.88V217.32H574.08V215.89H578.88V211.29H580.38Z" fill="black"/>
<path d="M595.73 220.95H590.02V224.56H588.47V220.95H582.78V219.52H595.73V220.95ZM594.82 217.96H583.68V211.67H594.82V217.96ZM593.32 213.07H585.18V216.58H593.32V213.07Z" fill="black"/>
<path d="M608.651 218.85C607.921 218.94 607.1 218.98 606.19 218.98H601.73V217.7H603.25V212.89H601.78V211.61H610.04V212.89H608.54V217.61C609.33 217.52 609.951 217.39 610.391 217.23V218.49C609.961 218.64 609.381 218.76 608.651 218.85ZM614.151 222.74V224.09H602.81V220.14H604.331V222.74H614.151ZM604.69 217.7H606.3C606.65 217.7 606.921 217.7 607.091 217.69V212.89H604.69V217.7ZM612.36 217.05H610.451V215.77H612.36V214.24H610.451V212.96H612.36V211.29H613.85V220.95H612.36V217.05Z" fill="black"/>
<path d="M625.01 213.56H616.2V212.39H619.84V211.07H621.36V212.39H625V213.56H625.01ZM618.65 218.64C618.07 218.46 617.61 218.19 617.28 217.84C616.95 217.49 616.79 217.08 616.79 216.6C616.79 216.11 616.95 215.69 617.28 215.33C617.61 214.97 618.06 214.7 618.64 214.51C619.22 214.32 619.87 214.23 620.6 214.23C621.32 214.23 621.97 214.32 622.54 214.51C623.12 214.7 623.57 214.97 623.9 215.33C624.23 215.69 624.39 216.11 624.39 216.6C624.39 217.08 624.23 217.49 623.9 217.84C623.57 218.19 623.12 218.46 622.54 218.64C621.96 218.82 621.32 218.91 620.6 218.91C619.88 218.92 619.23 218.82 618.65 218.64ZM617.14 219.73H627.98V224.09H617.14V219.73ZM618.88 215.7C618.45 215.93 618.24 216.24 618.24 216.61C618.24 216.96 618.45 217.25 618.88 217.48C619.31 217.7 619.88 217.81 620.6 217.81C621.32 217.81 621.89 217.7 622.32 217.48C622.75 217.26 622.96 216.97 622.96 216.61C622.96 216.25 622.74 215.94 622.31 215.71C621.87 215.47 621.3 215.35 620.59 215.35C619.88 215.35 619.31 215.46 618.88 215.7ZM618.63 222.89H626.49V220.93H618.63V222.89ZM629.8 215.86H627.98V219.02H626.48V211.29H627.98V214.43H629.8V215.86Z" fill="black"/>
<path d="M631.19 223.86C630.97 223.65 630.86 223.38 630.86 223.06C630.86 222.75 630.97 222.48 631.19 222.27C631.41 222.06 631.67 221.95 631.99 221.95C632.31 221.95 632.57 222.06 632.79 222.27C633.01 222.48 633.12 222.75 633.12 223.06C633.12 223.38 633.01 223.65 632.8 223.86C632.59 224.07 632.32 224.18 632 224.18C631.68 224.18 631.41 224.08 631.19 223.86ZM631.03 211.78H632.96L632.57 220.57H631.42L631.03 211.78Z" fill="black"/>
<path d="M635.14 223.86C634.92 223.65 634.81 223.38 634.81 223.06C634.81 222.75 634.92 222.48 635.14 222.27C635.36 222.06 635.62 221.95 635.94 221.95C636.26 221.95 636.52 222.06 636.74 222.27C636.96 222.48 637.07 222.75 637.07 223.06C637.07 223.38 636.96 223.65 636.75 223.86C636.54 224.07 636.27 224.18 635.95 224.18C635.62 224.18 635.36 224.08 635.14 223.86ZM634.98 211.78H636.91L636.52 220.57H635.37L634.98 211.78Z" fill="black"/>
</svg>
