<svg width="2364" height="720" viewBox="0 0 2364 720" fill="none" xmlns="http://www.w3.org/2000/svg">
<rect x="1" y="147" width="2362" height="572" fill="#FFE600" stroke="black" stroke-width="2"/>
<rect x="1" y="24" width="2362" height="122" fill="white" stroke="black" stroke-width="2"/>
<path d="M1061.67 71.9302C1061.67 68.7659 1060.67 66.5022 1058.65 65.1391C1056.63 63.776 1053.59 63.0701 1049.5 63.0701H1028.56C1027.35 63.0701 1026.71 62.4859 1026.71 61.3175V49.1471C1026.71 47.9787 1027.32 47.3945 1028.56 47.3945H1049.5C1058.8 47.3945 1066 49.4148 1071.14 53.4311C1076.27 57.4717 1078.85 63.0944 1078.85 70.348V72.1006C1078.85 76.0195 1078.15 79.5245 1076.71 82.6158C1075.27 85.7071 1073.16 88.3359 1070.36 90.5023L1082.19 114.162C1082.65 115.5 1082.19 116.182 1080.78 116.182H1064.47C1063.35 116.182 1062.69 115.719 1062.45 114.77L1054.66 96.2711C1052.95 96.4415 1051.25 96.5388 1049.5 96.5388C1049.04 96.5388 1048.55 96.5388 1048.06 96.5388C1047.58 96.5388 1047.06 96.5145 1046.53 96.4415V114.405C1046.53 115.573 1045.92 116.158 1044.68 116.158H1030.32C1029.15 116.158 1028.56 115.573 1028.56 114.405V67.0376C1028.56 65.8693 1029.15 65.2851 1030.32 65.2851H1044.68C1045.9 65.2851 1046.53 65.8693 1046.53 67.0376V80.7903C1047.06 80.839 1047.58 80.8876 1048.06 80.8876C1048.55 80.8876 1049.04 80.8876 1049.5 80.8876C1053.59 80.8876 1056.63 80.1817 1058.65 78.7943C1060.67 77.4069 1061.67 75.0945 1061.67 71.9302Z" fill="#FFE600" stroke="black" stroke-width="3" stroke-miterlimit="10"/>
<path d="M1099.69 95.9554V97.2698C1099.69 99.4848 1100.32 101.262 1101.61 102.625C1102.9 103.964 1104.95 104.645 1107.75 104.645C1109.79 104.645 1111.4 104.377 1112.56 103.866C1113.73 103.331 1114.41 102.406 1114.59 101.067C1114.71 100.483 1114.88 100.045 1115.12 99.7526C1115.36 99.4605 1115.8 99.3144 1116.44 99.3144H1129.31C1130.48 99.3144 1131.06 99.8986 1131.06 101.067V102.284C1131.06 104.572 1130.5 106.641 1129.36 108.515C1128.22 110.39 1126.61 111.996 1124.54 113.335C1122.47 114.674 1119.96 115.72 1117.04 116.45C1114.12 117.181 1110.89 117.546 1107.31 117.546C1103.92 117.546 1100.74 117.156 1097.77 116.353C1094.8 115.574 1092.19 114.333 1089.98 112.629C1087.76 110.925 1086.01 108.734 1084.72 106.008C1083.43 103.282 1082.8 99.996 1082.8 96.1501V88.5314C1082.8 84.6855 1083.43 81.3995 1084.67 78.6733C1085.94 75.9472 1087.69 73.7565 1089.93 72.0526C1092.17 70.3487 1094.82 69.1074 1097.86 68.3284C1100.91 67.5495 1104.24 67.1357 1107.84 67.1357C1111.4 67.1357 1114.66 67.5495 1117.6 68.3528C1120.55 69.1804 1123.1 70.3487 1125.22 71.9066C1127.36 73.4644 1129 75.3386 1130.16 77.5537C1131.33 79.7687 1131.92 82.2514 1131.92 85.002V94.1055C1131.92 95.3225 1131.31 95.9554 1130.07 95.9554H1099.69ZM1107.75 79.5496C1105.41 79.5496 1103.49 80.1825 1102 81.4725C1100.52 82.7626 1099.74 84.5152 1099.69 86.7302H1115.46C1115.41 84.5152 1114.71 82.7626 1113.37 81.4725C1112.03 80.2068 1110.16 79.5496 1107.75 79.5496Z" fill="#FFE600" stroke="black" stroke-width="3" stroke-miterlimit="10"/>
<path d="M1164.09 114.088C1164.43 115.5 1163.97 116.182 1162.68 116.182H1151.56C1150.51 116.182 1149.81 115.719 1149.47 114.77L1133.86 70.2503C1133.69 69.7148 1133.72 69.2767 1133.96 68.9359C1134.2 68.5951 1134.59 68.4004 1135.18 68.4004H1148.93C1150.05 68.4004 1150.78 68.8872 1151.12 69.8852L1164.09 114.088ZM1166.89 69.9339C1167.14 68.9359 1167.87 68.4491 1169.08 68.4491H1182.76C1183.4 68.4491 1183.83 68.6195 1184.08 68.9846C1184.32 69.3254 1184.35 69.7635 1184.18 70.299L1169.01 113.139C1168.72 113.967 1168.31 114.356 1167.79 114.356C1167.28 114.356 1166.89 113.942 1166.65 113.139L1160.69 93.2525C1160.39 92.3762 1160.37 91.5486 1160.59 90.794L1166.89 69.9339Z" fill="#FFE600" stroke="black" stroke-width="3" stroke-miterlimit="10"/>
<path d="M1191.43 61.8527C1190.21 61.8527 1189.58 61.2685 1189.58 60.1001V47.4915C1189.58 46.2745 1190.19 45.6416 1191.43 45.6416H1205.28C1206.5 45.6416 1207.13 46.2501 1207.13 47.4915V60.1001C1207.13 61.2685 1206.52 61.8527 1205.28 61.8527H1191.43ZM1207.13 114.356C1207.13 115.573 1206.55 116.206 1205.38 116.206H1191.36C1190.19 116.206 1189.6 115.597 1189.6 114.356V70.1042C1189.6 68.9845 1190.19 68.449 1191.36 68.449H1205.28C1206.5 68.449 1207.13 69.0089 1207.13 70.1042V114.356Z" fill="#FFE600" stroke="black" stroke-width="3" stroke-miterlimit="10"/>
<path d="M1231.06 95.9554V97.2698C1231.06 99.4848 1231.69 101.262 1232.98 102.625C1234.27 103.964 1236.31 104.645 1239.11 104.645C1241.16 104.645 1242.76 104.377 1243.93 103.866C1245.1 103.331 1245.78 102.406 1245.95 101.067C1246.08 100.483 1246.25 100.045 1246.49 99.7526C1246.73 99.4605 1247.17 99.3144 1247.8 99.3144H1260.68C1261.85 99.3144 1262.43 99.8986 1262.43 101.067V102.284C1262.43 104.572 1261.87 106.641 1260.73 108.515C1259.58 110.39 1257.98 111.996 1255.91 113.335C1253.84 114.674 1251.33 115.72 1248.41 116.45C1245.49 117.181 1242.25 117.546 1238.68 117.546C1235.29 117.546 1232.1 117.156 1229.13 116.353C1226.16 115.574 1223.56 114.333 1221.34 112.629C1219.13 110.925 1217.38 108.734 1216.09 106.008C1214.8 103.282 1214.16 99.996 1214.16 96.1501V88.5314C1214.16 84.6855 1214.8 81.3995 1216.04 78.6733C1217.3 75.9472 1219.06 73.7565 1221.3 72.0526C1223.54 70.3487 1226.19 69.1074 1229.23 68.3284C1232.27 67.5495 1235.61 67.1357 1239.21 67.1357C1242.76 67.1357 1246.03 67.5495 1248.97 68.3528C1251.92 69.1804 1254.47 70.3487 1256.59 71.9066C1258.73 73.4644 1260.36 75.3386 1261.53 77.5537C1262.7 79.7687 1263.28 82.2514 1263.28 85.002V94.1055C1263.28 95.3225 1262.68 95.9554 1261.43 95.9554H1231.06ZM1239.11 79.5496C1236.78 79.5496 1234.85 80.1825 1233.37 81.4725C1231.88 82.7626 1231.11 84.5152 1231.06 86.7302H1246.83C1246.78 84.5152 1246.08 82.7626 1244.74 81.4725C1243.37 80.2068 1241.5 79.5496 1239.11 79.5496Z" fill="#FFE600" stroke="black" stroke-width="3" stroke-miterlimit="10"/>
<path d="M1292.2 114.088C1292.49 115.5 1291.96 116.182 1290.62 116.182H1280.27C1279.23 116.182 1278.52 115.719 1278.18 114.77L1266.08 70.2503C1265.91 69.7148 1265.94 69.2767 1266.18 68.9359C1266.42 68.5951 1266.81 68.4004 1267.4 68.4004H1280.27C1281.39 68.4004 1282.12 68.8872 1282.46 69.8852L1292.2 114.088ZM1295.54 70.3477C1295.88 69.3497 1296.61 68.8629 1297.73 68.8629H1305.27C1306.39 68.8629 1307.12 69.3497 1307.46 70.3477L1314.64 96.8063L1320.51 69.9095C1320.85 68.9116 1321.58 68.4247 1322.7 68.4247H1335.58C1336.16 68.4247 1336.57 68.5951 1336.79 68.9602C1337.04 69.301 1337.06 69.7392 1336.89 70.2747L1324.45 116.182H1307.71L1301.47 93.3985L1296.65 111.192C1296.41 112.019 1296.02 112.409 1295.44 112.409C1294.85 112.409 1294.46 111.995 1294.29 111.192L1290.18 92.6926C1290.06 92.2302 1289.99 91.792 1289.96 91.3782C1289.94 90.9644 1289.99 90.5506 1290.08 90.1612L1295.54 70.3477Z" fill="#FFE600" stroke="black" stroke-width="3" stroke-miterlimit="10"/>
<ellipse cx="294.152" cy="74.7477" rx="21.1515" ry="21.6803" fill="black"/>
<rect x="287.714" y="1.5" width="12.6921" height="66.3755" rx="3.5" fill="white" stroke="black" stroke-width="3"/>
<ellipse cx="379.541" cy="74.7467" rx="21.1515" ry="21.6803" fill="black"/>
<ellipse cx="464.93" cy="74.7467" rx="21.1515" ry="21.6803" fill="black"/>
<ellipse cx="550.152" cy="74.7467" rx="21.1515" ry="21.6803" fill="black"/>
<rect x="373.608" y="1.5" width="11.8662" height="66.3755" rx="3.5" fill="white" stroke="black" stroke-width="3"/>
<rect x="458.676" y="1.5" width="12.6921" height="66.3755" rx="3.5" fill="white" stroke="black" stroke-width="3"/>
<rect x="543.897" y="1.5" width="12.6921" height="66.3755" rx="3.5" fill="white" stroke="black" stroke-width="3"/>
<ellipse cx="1813.15" cy="74.7477" rx="21.1515" ry="21.6803" fill="black"/>
<rect x="1806.71" y="1.5" width="12.6921" height="66.3755" rx="3.5" fill="white" stroke="black" stroke-width="3"/>
<ellipse cx="1898.54" cy="74.7467" rx="21.1515" ry="21.6803" fill="black"/>
<ellipse cx="1983.93" cy="74.7467" rx="21.1515" ry="21.6803" fill="black"/>
<ellipse cx="2069.15" cy="74.7467" rx="21.1515" ry="21.6803" fill="black"/>
<rect x="1892.61" y="1.5" width="11.8662" height="66.3755" rx="3.5" fill="white" stroke="black" stroke-width="3"/>
<rect x="1977.68" y="1.5" width="12.6921" height="66.3755" rx="3.5" fill="white" stroke="black" stroke-width="3"/>
<rect x="2062.9" y="1.5" width="12.6921" height="66.3755" rx="3.5" fill="white" stroke="black" stroke-width="3"/>
</svg>
