<svg width="430" height="449" viewBox="0 0 430 449" fill="none" xmlns="http://www.w3.org/2000/svg">
<path d="M26.5 380.5H403.5V448.5H26.5V380.5Z" fill="black" stroke="#FFE000"/>
<path d="M64.6469 400.128C66.167 400.877 67.3509 401.929 68.1913 403.268C69.0318 404.615 69.4556 406.159 69.4556 407.9C69.4556 408.99 69.2291 409.996 68.7686 410.912C68.3155 411.835 67.7163 412.584 66.9782 413.167C66.24 413.75 65.4654 414.113 64.6469 414.257C65.5604 414.401 66.4447 414.764 67.2924 415.347C68.1475 415.93 68.8491 416.694 69.3972 417.632C69.9453 418.571 70.223 419.653 70.223 420.864C70.223 422.726 69.7553 424.36 68.8198 425.753C67.8844 427.145 66.6128 428.22 65.0123 428.984C63.4118 429.749 61.614 430.127 59.6261 430.127C56.5128 430.127 54.028 429.295 52.1571 427.622C50.2862 425.95 49.2339 423.679 49 420.796H55.2778C55.3947 422.007 55.8186 422.938 56.5567 423.596C57.2948 424.247 58.318 424.58 59.6261 424.58C60.9343 424.58 61.994 424.239 62.7979 423.566C63.6018 422.884 64.011 422.007 64.011 420.917C64.011 419.706 63.5579 418.775 62.659 418.117C61.7601 417.466 60.547 417.133 59.0269 417.133H56.184V411.76H59.0269C60.3131 411.76 61.3216 411.427 62.0597 410.761C62.7979 410.095 63.1633 409.194 63.1633 408.051C63.1633 406.961 62.8271 406.099 62.1621 405.471C61.497 404.842 60.5689 404.525 59.3703 404.525C58.201 404.525 57.3021 404.933 56.6663 405.758C56.0378 406.583 55.7162 407.559 55.7162 408.702H49.4385C49.4385 406.84 49.8624 405.175 50.7028 403.707C51.5433 402.239 52.7272 401.089 54.2473 400.256C55.7674 399.424 57.4848 399 59.4069 399C61.3801 399 63.1268 399.378 64.6469 400.128Z" fill="#0057FF"/>
<path d="M80.5491 424.062C81.2158 424.732 81.5417 425.58 81.5417 426.589C81.5417 427.606 81.2083 428.446 80.5491 429.117C79.8824 429.788 79.0453 430.127 78.0231 430.127C77.0008 430.127 76.1563 429.788 75.4822 429.117C74.8081 428.446 74.4674 427.599 74.4674 426.589C74.4674 425.573 74.8081 424.732 75.4822 424.062C76.1563 423.391 77.0082 423.052 78.0231 423.052C79.0379 423.052 79.8824 423.384 80.5491 424.062Z" fill="#0057FF"/>
<path d="M108.579 408.469H89.1517V402.884H95.8516V399H101.916V402.884H108.579V408.469ZM103.472 410.993C104.795 411.824 105.803 412.973 106.504 414.439C107.206 415.905 107.556 417.552 107.556 419.389C107.556 421.225 107.206 422.88 106.504 424.338C105.803 425.805 104.795 426.953 103.472 427.784C102.15 428.616 100.615 429.039 98.8618 429.039C97.1082 429.039 95.5739 428.623 94.2515 427.784C92.929 426.953 91.9208 425.805 91.2194 424.338C90.518 422.872 90.1673 421.225 90.1673 419.389C90.1673 417.552 90.518 415.897 91.2194 414.439C91.9208 412.98 92.929 411.824 94.2515 410.993C95.5739 410.162 97.1082 409.738 98.8618 409.738C100.615 409.738 102.15 410.154 103.472 410.993ZM101.105 422.578C101.645 421.777 101.909 420.719 101.909 419.389C101.909 418.059 101.638 416.993 101.105 416.2C100.564 415.399 99.8189 415.006 98.8618 415.006C97.9046 415.006 97.1521 415.406 96.6188 416.2C96.0781 417.001 95.815 418.059 95.815 419.389C95.815 420.719 96.0854 421.784 96.6188 422.578C97.1594 423.379 97.9046 423.772 98.8618 423.772C99.8189 423.779 100.571 423.379 101.105 422.578ZM117.449 399.151V430.127H111.524V416.85H108.017V411.008H111.524V399.144H117.449V399.151Z" fill="#0057FF"/>
<path d="M140.278 416.608V418.046C143.783 418.263 146.508 418.855 148.459 419.829C150.404 420.802 151.379 422.211 151.379 424.053C151.379 426.165 150.133 427.7 147.634 428.674C145.134 429.648 141.674 430.127 137.261 430.127C132.847 430.127 129.379 429.64 126.887 428.674C124.395 427.708 123.142 426.165 123.142 424.053C123.142 422.211 124.118 420.802 126.062 419.829C128.006 418.855 130.73 418.263 134.243 418.046V416.608H121.693V411.935H152.82V416.608H140.278ZM151.304 410.429H123.562V399H150.944V403.636H129.612V405.793H151.304V410.429ZM142.838 422.885C141.471 422.63 139.61 422.51 137.253 422.51C134.896 422.51 133.035 422.637 131.669 422.885C130.303 423.139 129.612 423.529 129.612 424.053C129.612 425.087 132.157 425.596 137.253 425.596C142.35 425.596 144.894 425.079 144.894 424.053C144.894 423.529 144.211 423.139 142.838 422.885Z" fill="#0057FF"/>
<path d="M169.836 413.14L178.486 424.88L173.812 428.525L167.808 419.997C166.594 422.769 165.068 424.903 163.222 426.391C161.375 427.887 159.318 428.646 157.065 428.669V422.472C158.504 422.305 159.783 421.493 160.903 420.05C162.022 418.607 162.902 416.618 163.556 414.089C164.21 411.56 164.566 408.659 164.639 405.379H157.908V399.729H176.96V405.379H170.578C170.498 408.173 170.258 410.755 169.836 413.14ZM185.362 399V430.127H179.467V399H185.362Z" fill="#0057FF"/>
<path d="M209.592 416.608V418.046C213.097 418.263 215.822 418.855 217.773 419.829C219.717 420.802 220.693 422.211 220.693 424.053C220.693 426.165 219.447 427.7 216.947 428.674C214.448 429.648 210.988 430.127 206.574 430.127C202.161 430.127 198.693 429.64 196.201 428.674C193.709 427.708 192.456 426.165 192.456 424.053C192.456 422.211 193.431 420.802 195.375 419.829C197.319 418.855 200.044 418.263 203.557 418.046V416.608H191.022V411.935H222.149V416.608H209.592ZM220.61 410.429H192.868V399H220.25V403.636H198.918V405.793H220.61V410.429ZM212.144 422.885C210.778 422.63 208.916 422.51 206.559 422.51C204.202 422.51 202.341 422.637 200.975 422.885C199.609 423.139 198.918 423.529 198.918 424.053C198.918 425.087 201.463 425.596 206.559 425.596C211.656 425.596 214.2 425.079 214.2 424.053C214.2 423.529 213.517 423.139 212.144 422.885Z" fill="#0057FF"/>
<path d="M250.496 423.095C252.034 423.095 253.556 422.974 255.063 422.731C256.569 422.488 257.789 422.146 258.736 421.713V427.219C257.82 427.682 256.538 428.039 254.915 428.297C253.284 428.555 251.669 428.677 250.053 428.677H237.712V399.737H256.243V405.31H244.127V423.095H250.496ZM270.254 416.352H266.526V430.127H260.228V399H266.526V410.376H270.254V416.352Z" fill="#0057FF"/>
<path d="M312.701 410.751V415.049H281.574V410.751H294.109V409.281H283.443V399H289.493V404.834H311.185V409.274H300.158V410.744H312.701V410.751ZM300.196 416.802H311.147V420.779H283.12V416.802H294.071V415.765H300.196V416.802ZM306.756 422.442C308.918 423.099 309.999 424.218 309.999 425.792C309.999 427.367 308.918 428.486 306.756 429.142C304.594 429.799 301.389 430.127 297.134 430.127C292.878 430.127 289.673 429.799 287.511 429.142C285.349 428.486 284.268 427.367 284.268 425.792C284.268 424.218 285.349 423.099 287.511 422.442C289.673 421.786 292.878 421.457 297.134 421.457C301.389 421.457 304.594 421.786 306.756 422.442ZM302.2 426.24C303.296 426.158 303.836 426.009 303.836 425.792C303.836 425.554 303.281 425.389 302.163 425.292C301.044 425.195 299.37 425.151 297.134 425.151C294.897 425.151 293.223 425.195 292.105 425.292C290.986 425.389 290.431 425.554 290.431 425.792C290.431 426.009 290.979 426.158 292.067 426.24C293.155 426.322 294.844 426.367 297.126 426.367C299.408 426.367 301.104 426.322 302.2 426.24Z" fill="#0057FF"/>
<path d="M329.809 414.147L338.31 424.679L333.918 428.674L327.747 420.609C326.513 423.174 324.974 425.156 323.116 426.548C321.257 427.94 319.203 428.652 316.945 428.674V422.644C318.361 422.5 319.617 421.812 320.706 420.594C321.795 419.368 322.673 417.719 323.334 415.638C323.994 413.557 324.386 411.174 324.502 408.48H317.606V402.813H324.473V399H330.499V402.813H337.018V408.48H330.433C330.317 410.516 330.107 412.4 329.809 414.147ZM345.243 399.114V430.127H339.355V399.114H345.243Z" fill="#0057FF"/>
<path d="M369.871 408.143C369.871 412.32 369.149 415.957 367.714 419.04C366.272 422.123 364.235 424.5 361.595 426.163C358.956 427.826 355.863 428.661 352.317 428.661V422.829C355.96 422.807 358.763 421.493 360.74 418.896C362.718 416.299 363.7 412.714 363.7 408.143V405.333H352.317V399.721H369.878V408.143H369.871ZM380.614 430.127H374.584V399H380.614V430.127Z" fill="#0057FF"/>
<path d="M420.981 351H9.00468C5.13622 351 2 346.504 2 340.958V10.1803C2 5.66431 4.55595 2 7.70598 2H420.995C424.864 2 428 6.49621 428 12.0422V340.938C428 346.484 424.864 351 420.981 351Z" fill="black" stroke="#FFE000" stroke-width="3" stroke-miterlimit="10"/>
<path d="M413.314 54.7471H14.6003V337.694H413.314V54.7471Z" fill="black" stroke="#FFE000" stroke-width="3" stroke-miterlimit="10"/>
<path d="M404.35 36.3179H334.995C330.025 36.3179 326 32.2926 326 27.3226V2H413.345V27.3226C413.325 32.2926 409.3 36.3179 404.35 36.3179Z" fill="black" stroke="#FFE000" stroke-width="3" stroke-miterlimit="10"/>
<path d="M366.521 19.1327L360.504 11H366.521L369.725 15.703L372.867 11H378.535L372.662 19.0095L378.864 27.4503H372.847L369.458 22.5009L366.09 27.4503H360.422L366.521 19.1327Z" fill="white"/>
<path d="M115.177 130.562C114.091 131.266 112.862 131.693 111.479 131.836V129.719C113.038 129.496 114.291 128.836 115.233 127.73C116.175 126.629 116.713 125.235 116.847 123.554H111.725V121.531H123.862V123.554H119.051C119.005 124.318 118.866 125.111 118.629 125.935L124.484 129.887L123.394 131.648L117.803 127.814C117.14 128.94 116.263 129.853 115.177 130.562ZM126.915 134.098C128.414 134.763 129.165 135.804 129.165 137.218C129.165 138.631 128.414 139.667 126.915 140.337C125.417 141.002 123.426 141.339 120.949 141.339C118.471 141.339 116.481 141.007 114.982 140.337C113.484 139.672 112.732 138.631 112.732 137.218C112.732 135.804 113.484 134.768 114.982 134.098C116.481 133.433 118.471 133.096 120.949 133.096C123.426 133.096 125.417 133.428 126.915 134.098ZM125.189 138.844C126.279 138.472 126.827 137.927 126.827 137.213C126.827 136.498 126.279 135.953 125.189 135.581C124.099 135.209 122.684 135.02 120.949 135.02C119.213 135.02 117.798 135.209 116.708 135.581C115.618 135.953 115.07 136.498 115.07 137.213C115.07 137.927 115.618 138.472 116.708 138.844C117.798 139.216 119.213 139.405 120.949 139.405C122.684 139.405 124.099 139.216 125.189 138.844ZM126.804 124.834V121H129.008V132.427H126.804V126.882H123.106V124.834H126.804Z" fill="#0057FF"/>
<path d="M138.009 132.509H132.702V130.529H140.636C143.634 130.529 145.732 130.257 146.931 129.709V131.69C145.793 132.237 143.671 132.509 140.571 132.509H140.234V136.198H138.009V132.509ZM135.414 128.021C134.374 127.312 133.85 126.322 133.85 125.056C133.85 123.784 134.37 122.799 135.414 122.101C136.454 121.402 137.831 121.05 139.54 121.05C141.25 121.05 142.622 121.402 143.667 122.101C144.706 122.799 145.231 123.784 145.231 125.056C145.231 126.327 144.711 127.317 143.667 128.021C142.627 128.729 141.25 129.081 139.54 129.081C137.831 129.086 136.454 128.729 135.414 128.021ZM151.273 139.313V141.339H134.478V135.092H136.702V139.313H151.273ZM136.997 123.478C136.351 123.84 136.032 124.367 136.032 125.056C136.032 125.744 136.356 126.277 136.997 126.649C137.639 127.021 138.487 127.202 139.536 127.202C140.585 127.202 141.433 127.016 142.074 126.649C142.721 126.277 143.039 125.749 143.039 125.056C143.039 124.362 142.716 123.84 142.074 123.478C141.428 123.116 140.585 122.935 139.536 122.935C138.491 122.935 137.644 123.116 136.997 123.478ZM148.552 133.931V121H150.776V137.137H148.552V135.861H142.73V133.931H148.552Z" fill="#0057FF"/>
<path d="M180.455 138.28V140.455H161V138.28H169.577V133.652H171.834V138.28H180.455ZM166.736 132.781C165.191 133.553 163.462 134.001 161.546 134.129V131.979C162.915 131.871 164.165 131.541 165.301 131C166.431 130.459 167.372 129.731 168.118 128.826C168.864 127.921 169.344 126.888 169.554 125.722H162.05V123.573H169.511V121H171.839V123.573H179.39V125.722H171.953C171.849 126.46 171.663 127.178 171.407 127.872L179.913 132.309L178.934 134.222L170.428 129.667C169.506 130.971 168.28 132.009 166.736 132.781Z" fill="#0057FF"/>
<path d="M189.626 137.91C192.601 137.91 194.727 137.622 196.004 137.052V139.265C194.666 139.835 192.549 140.123 189.65 140.123H182.223V137.91H185.616V129.286H187.894V137.91H189.626ZM191.79 123.977H182.93V121.784H194.068V134.74H191.79V123.977ZM202.562 131.311H199.876V141.339H197.622V121H199.876V129.048H202.562V131.311Z" fill="#0057FF"/>
<path d="M204.331 130.817H222.901V132.499H204.331V130.817ZM205.614 136.858H219.526V135.575H205.569V133.942H221.617V138.399H207.705V139.706H221.944V141.339H205.614V136.858ZM205.682 124.868H219.485V123.517H205.682V121.884H221.576V126.409H207.773V127.741H221.839V129.374H205.682V124.868Z" fill="#0057FF"/>
<path d="M232.628 121.739H243.463V140.128H232.628V121.739ZM234.885 137.935H241.205V123.933H234.885V137.935ZM252.083 131.504H249.345V141.339H247.088V121H249.345V129.242H252.083V131.504Z" fill="#0057FF"/>
<path d="M273.306 135.884H264.686V141.339H262.405V135.884H253.851V133.782H273.306V135.884ZM259.435 130.473C257.914 131.157 256.265 131.562 254.483 131.68V129.579C256.503 129.412 258.261 128.827 259.753 127.819C261.245 126.816 262.186 125.522 262.581 123.939H254.963V121.884H272.161V123.939H264.976C264.838 124.638 264.619 125.308 264.315 125.945L272.802 129.712L271.866 131.604L263.175 127.7C262.205 128.865 260.955 129.788 259.435 130.473Z" fill="#0057FF"/>
<path d="M283.014 124.258H288.53V126.347H275.074V124.258H280.565V121H283.019V124.258H283.014ZM284.785 128.734C285.661 129.248 286.339 129.976 286.824 130.922C287.31 131.868 287.553 132.947 287.553 134.165C287.553 135.383 287.31 136.467 286.824 137.408C286.339 138.348 285.661 139.081 284.785 139.596C283.91 140.111 282.913 140.368 281.8 140.368C280.686 140.368 279.684 140.111 278.814 139.596C277.939 139.081 277.255 138.353 276.759 137.408C276.264 136.467 276.021 135.383 276.021 134.165C276.021 132.947 276.269 131.863 276.759 130.922C277.255 129.981 277.939 129.248 278.814 128.734C279.689 128.219 280.686 127.961 281.8 127.961C282.913 127.961 283.91 128.219 284.785 128.734ZM283.545 137.824C284.062 137.492 284.471 137.007 284.77 136.373C285.069 135.739 285.22 135.002 285.22 134.165C285.22 133.328 285.069 132.59 284.77 131.957C284.471 131.323 284.062 130.838 283.545 130.506C283.029 130.174 282.442 130.006 281.795 130.006C280.793 130.006 279.963 130.382 279.315 131.135C278.667 131.887 278.343 132.897 278.343 134.165C278.343 135.432 278.667 136.442 279.315 137.195C279.963 137.947 280.788 138.324 281.795 138.324C282.447 138.324 283.029 138.16 283.545 137.824ZM296.297 131.526H293.383V141.339H290.979V121.045H293.383V129.268H296.297V131.526Z" fill="#0057FF"/>
<path d="M316.636 138.251V140.455H297.182V138.251H304.433V129.213H306.762V138.251H316.636ZM312.987 124.088H298.365V121.884H315.334V135.261H312.987V124.088Z" fill="#0057FF"/>
<path d="M117.732 165.735H109.711V154.227H117.732V158.74H120.442V153.845H122.456V168.826H120.442V160.936H117.732V165.735ZM127.397 171.887V174.058H110.876V167.665H113.066V171.887H127.397ZM115.736 156.257H111.702V163.71H115.736V156.257ZM126.945 169.183H124.908V153.719H126.945V169.183Z" fill="#0057FF"/>
<path d="M141.899 163.469C140.846 163.63 139.671 163.71 138.38 163.71H131.818V154.232H143.029V156.016H133.929V158.091H142.665V159.805H133.929V161.926H138.555C139.788 161.926 140.913 161.845 141.921 161.685C142.934 161.524 143.741 161.308 144.342 161.031V162.815C143.768 163.092 142.952 163.308 141.899 163.469ZM134.552 172.274H148.259V174.058H132.468V168.871H145.722V167.183H132.428V165.399H147.811V170.56H134.557V172.274H134.552ZM150.388 157.604V159.679H147.807V164.263H145.678V153.719H147.807V157.604H150.388Z" fill="#0057FF"/>
<path d="M155.752 172.068C154.898 171.378 154.236 170.326 153.758 168.912C153.28 167.498 153.041 165.747 153.041 163.648C153.041 161.554 153.28 159.797 153.758 158.383C154.236 156.969 154.902 155.917 155.752 155.227C156.607 154.538 157.604 154.19 158.752 154.19C159.882 154.19 160.875 154.538 161.729 155.227C162.584 155.917 163.245 156.969 163.723 158.383C164.201 159.797 164.44 161.549 164.44 163.648C164.44 165.742 164.201 167.498 163.723 168.912C163.245 170.326 162.579 171.378 161.729 172.068C160.875 172.758 159.882 173.105 158.752 173.105C157.604 173.105 156.607 172.758 155.752 172.068ZM161.288 169.141C161.936 167.94 162.258 166.114 162.258 163.653C162.258 161.207 161.936 159.381 161.288 158.175C160.641 156.969 159.795 156.364 158.752 156.364C157.696 156.364 156.841 156.964 156.193 158.16C155.545 159.361 155.224 161.187 155.224 163.648C155.224 166.109 155.545 167.94 156.184 169.136C156.823 170.331 157.682 170.932 158.752 170.932C159.795 170.937 160.641 170.336 161.288 169.141ZM167.638 153.719H169.843V174.058H167.638V153.719Z" fill="#0057FF"/>
<path d="M199.025 166.091V167.944H180.455V166.091H199.025ZM198.263 157.497H181.194V155.712H188.619V153.719H190.797V155.712H198.263V157.497ZM183.938 172.157H198.068V174.058H181.738V169.31H183.938V172.157ZM184.024 159.326C185.431 158.815 187.336 158.564 189.731 158.564C192.126 158.564 194.026 158.819 195.437 159.326C196.843 159.838 197.551 160.61 197.551 161.642C197.551 162.66 196.848 163.428 195.437 163.934C194.031 164.446 192.126 164.697 189.731 164.697C187.336 164.697 185.435 164.441 184.024 163.934C182.614 163.428 181.911 162.66 181.911 161.642C181.911 160.61 182.614 159.838 184.024 159.326ZM193.808 160.624C192.77 160.392 191.409 160.277 189.726 160.277C188.043 160.277 186.682 160.392 185.644 160.624C184.605 160.856 184.088 161.193 184.088 161.642C184.088 162.077 184.61 162.405 185.657 162.636C186.701 162.868 188.061 162.984 189.731 162.984C191.414 162.984 192.774 162.868 193.813 162.636C194.852 162.405 195.369 162.072 195.369 161.642C195.369 161.193 194.847 160.856 193.808 160.624Z" fill="#0057FF"/>
<path d="M202.562 162.671H221.132V164.469H202.562V162.671ZM203.846 169.3H217.735V167.9H203.8V166.175H219.849V170.933H205.959V172.333H220.175V174.058H203.846V169.3ZM203.891 154.603H219.808V156.377H206.046V159.201H220.026V160.975H203.891V154.603Z" fill="#0057FF"/>
<path d="M224.712 162.412H233.273V156.627H224.669V154.458H235.491V164.581H226.929V170.679H232.531C233.442 170.679 234.352 170.594 235.253 170.416C236.159 170.242 236.901 170.004 237.484 169.701V171.87C236.915 172.172 236.177 172.41 235.267 172.584C234.357 172.758 233.423 172.847 232.466 172.847H224.712V162.412ZM239.254 153.719H241.471V174.058H239.254V153.719Z" fill="#0057FF"/>
<path d="M249.298 163.761C248.285 164.529 247.149 165.008 245.893 165.198V163.043C246.998 162.803 247.962 162.25 248.789 161.377C249.616 160.504 250.249 159.421 250.691 158.119C251.129 156.817 251.341 155.415 251.328 153.919L253.429 154.063C253.442 155.754 253.19 157.361 252.664 158.877L258.267 163.332L257.037 164.983L251.837 160.793C251.155 162.005 250.311 162.993 249.298 163.761ZM263.256 174.058L259.625 170.755C259.059 171.698 258.373 172.442 257.577 172.995C256.777 173.544 255.932 173.853 255.038 173.918L251.832 170.805C251.266 171.713 250.585 172.446 249.793 172.995C249.002 173.544 248.157 173.853 247.268 173.918V171.763C247.931 171.698 248.564 171.389 249.156 170.83C249.749 170.271 250.244 169.543 250.634 168.65C251.023 167.757 251.253 166.784 251.324 165.727L253.34 166.061C253.256 167.069 253.044 168.046 252.703 169.004L255.631 171.663C256.197 171.474 256.728 171.09 257.223 170.516C257.719 169.942 258.13 169.234 258.453 168.396C258.78 167.558 258.97 166.67 259.028 165.727L261.066 166.061C260.982 167.069 260.783 168.027 260.474 168.934L264.463 172.337L263.256 174.058ZM260.876 161.342H256.971V159.376H260.876V157.411H256.971V155.445H260.876V153.719H262.955V165.093H260.876V161.342Z" fill="#0057FF"/>
<path d="M275.732 170.654C276.658 170.654 277.585 170.57 278.502 170.406C279.424 170.237 280.179 170.014 280.773 169.726V171.87C280.194 172.172 279.443 172.41 278.516 172.584C277.59 172.758 276.644 172.847 275.689 172.847H268V154.339H270.305V170.654H275.732ZM287.455 164.223H284.717V174.058H282.46V153.719H284.717V161.961H287.455V164.223Z" fill="#0057FF"/>
<path d="M308.678 171.056V173.174H289.223V171.056H293.695V165.681C292.569 165.153 291.699 164.46 291.081 163.598C290.463 162.735 290.159 161.756 290.159 160.656C290.159 159.445 290.52 158.383 291.243 157.467C291.965 156.551 292.991 155.849 294.322 155.35C295.653 154.855 297.192 154.603 298.941 154.603C300.69 154.603 302.229 154.85 303.56 155.35C304.89 155.844 305.917 156.551 306.639 157.467C307.361 158.383 307.723 159.445 307.723 160.656C307.723 161.756 307.414 162.74 306.801 163.598C306.183 164.46 305.323 165.144 304.211 165.657V171.056H308.678ZM293.348 162.716C293.88 163.312 294.631 163.772 295.596 164.102C296.56 164.431 297.677 164.591 298.936 164.591C300.196 164.591 301.317 164.426 302.291 164.102C303.265 163.777 304.016 163.317 304.548 162.716C305.08 162.12 305.347 161.431 305.347 160.656C305.347 159.866 305.08 159.173 304.548 158.572C304.016 157.976 303.26 157.516 302.291 157.186C301.322 156.857 300.2 156.697 298.936 156.697C297.672 156.697 296.56 156.862 295.596 157.186C294.631 157.511 293.88 157.971 293.348 158.572C292.816 159.168 292.55 159.861 292.55 160.656C292.55 161.436 292.816 162.12 293.348 162.716ZM295.947 171.056H301.944V166.404C301.032 166.588 300.029 166.685 298.931 166.685C297.853 166.685 296.855 166.593 295.942 166.404V171.056H295.947Z" fill="#0057FF"/>
<path d="M315.901 165.188C316.278 164.36 316.975 163.609 317.984 162.945C318.837 162.354 319.449 161.821 319.826 161.342C320.202 160.862 320.393 160.31 320.393 159.69C320.393 158.789 320.066 158.072 319.419 157.529C318.772 156.987 317.873 156.715 316.734 156.715C315.946 156.715 315.269 156.88 314.697 157.205C314.125 157.529 313.693 157.951 313.397 158.459C313.101 158.973 312.935 159.506 312.905 160.063H310.446C310.476 159.07 310.757 158.154 311.289 157.321C311.821 156.483 312.554 155.819 313.492 155.335C314.431 154.845 315.505 154.603 316.709 154.603C317.979 154.603 319.073 154.826 319.996 155.267C320.92 155.708 321.622 156.313 322.104 157.079C322.586 157.844 322.827 158.716 322.827 159.695C322.827 161.308 321.933 162.727 320.152 163.948C319.459 164.398 318.937 164.854 318.586 165.319C318.235 165.784 317.994 166.263 317.873 166.762C317.753 167.257 317.693 167.847 317.693 168.531H315.334C315.334 167.126 315.52 166.016 315.901 165.188ZM315.309 173.559C314.973 173.225 314.802 172.818 314.802 172.338C314.802 171.859 314.973 171.456 315.309 171.127C315.645 170.803 316.062 170.638 316.564 170.638C317.065 170.638 317.482 170.803 317.828 171.127C318.175 171.452 318.345 171.854 318.345 172.338C318.345 172.832 318.175 173.244 317.838 173.569C317.502 173.893 317.076 174.058 316.564 174.058C316.062 174.058 315.645 173.888 315.309 173.559Z" fill="#0057FF"/>
<path d="M355.046 204.626C354.787 204.368 354.661 204.056 354.661 203.682C354.661 203.307 354.791 202.991 355.046 202.738C355.301 202.484 355.619 202.355 355.995 202.355C356.372 202.355 356.686 202.484 356.937 202.738C357.188 202.995 357.314 203.307 357.314 203.682C357.314 204.056 357.188 204.372 356.937 204.626C356.686 204.883 356.372 205.008 355.995 205.008C355.619 205.008 355.305 204.879 355.046 204.626Z" fill="#0057FF"/>
<path d="M94.6777 194.336V196.051H75.2231V194.336H83.8242V192.622H76.6155V186.438H78.8727V190.903H93.5182V192.617H86.0576V194.332H94.6777V194.336ZM78.7824 203.358H93.675V205.008H76.568V200.433H91.1185V199.067H76.5205V197.417H93.3329V201.992H78.7824V203.358Z" fill="#0057FF"/>
<path d="M105.978 201.923C106.916 201.923 107.845 201.846 108.764 201.683C109.684 201.524 110.428 201.311 111.006 201.053V203.01C110.428 203.287 109.679 203.504 108.755 203.663C107.831 203.821 106.888 203.903 105.935 203.903H98.2623V194.38H106.745V189.097H98.2149V187.118H108.997V196.36H100.49V201.928H105.978V201.923ZM117.669 196.029H114.94V205.008H112.688V186.438H114.94V193.963H117.669V196.029Z" fill="#0057FF"/>
<path d="M138.008 202.909V205.008H118.554V202.909H125.805V194.299H128.134V202.909H138.008ZM134.359 189.422H119.737V187.322H136.706V200.065H134.359V189.422Z" fill="#0057FF"/>
<path d="M152.795 197.054H141.545V186.897H152.795V197.054ZM144.453 203.025H158.816V205.008H142.198V198.904H144.453V203.025ZM150.582 188.793H143.753V195.159H150.582V188.793ZM161 190.908V193.001H158.295V200.405H156.064V186.438H158.295V190.908H161Z" fill="#0057FF"/>
<path d="M180.392 194.044C179.889 194.775 179.182 195.346 178.261 195.753C177.34 196.164 176.277 196.365 175.062 196.365C173.833 196.365 172.756 196.159 171.84 195.753C170.919 195.342 170.212 194.775 169.709 194.044C169.206 193.313 168.959 192.464 168.959 191.5C168.959 190.55 169.21 189.704 169.709 188.969C170.212 188.229 170.919 187.658 171.84 187.247C172.76 186.835 173.833 186.634 175.062 186.634C176.277 186.634 177.345 186.84 178.261 187.247C179.182 187.658 179.889 188.229 180.392 188.969C180.895 189.709 181.142 190.55 181.142 191.5C181.147 192.468 180.895 193.313 180.392 194.044ZM187.07 205.008L183.335 202.002C182.742 202.879 182.025 203.569 181.18 204.076C180.335 204.579 179.438 204.862 178.48 204.921L175.176 202.117C174.569 202.948 173.847 203.61 173.012 204.099C172.177 204.588 171.294 204.862 170.368 204.921V202.948C171.066 202.889 171.73 202.601 172.362 202.08C172.993 201.559 173.51 200.892 173.923 200.074C174.331 199.257 174.578 198.37 174.654 197.42L176.842 197.703C176.738 198.681 176.491 199.604 176.111 200.467L179.096 202.834C179.704 202.66 180.264 202.308 180.781 201.783C181.299 201.258 181.721 200.613 182.058 199.855C182.39 199.097 182.59 198.284 182.651 197.42L184.839 197.726C184.749 198.649 184.545 199.517 184.222 200.335L188.413 203.469L187.07 205.008ZM172.272 193.747C172.979 194.296 173.909 194.57 175.062 194.57C176.201 194.57 177.122 194.296 177.829 193.747C178.536 193.199 178.888 192.45 178.888 191.5C178.888 190.55 178.536 189.8 177.829 189.252C177.122 188.704 176.201 188.43 175.062 188.43C173.909 188.43 172.979 188.704 172.272 189.252C171.564 189.8 171.213 190.55 171.213 191.5C171.213 192.45 171.564 193.199 172.272 193.747ZM186.842 196.854H184.588V186.438H186.842V196.854Z" fill="#0057FF"/>
<path d="M191.066 194.417H208.752V196.107H191.066V194.417ZM194.267 192.435C192.837 191.887 192.12 191.019 192.12 189.836C192.12 188.667 192.837 187.808 194.267 187.26C195.697 186.712 197.576 186.438 199.896 186.438C202.216 186.438 204.095 186.712 205.525 187.26C206.955 187.808 207.672 188.667 207.672 189.836C207.672 191.019 206.955 191.887 205.525 192.435C204.095 192.983 202.216 193.257 199.896 193.257C197.576 193.257 195.701 192.983 194.267 192.435ZM192.289 200.537H205.516V199.222H192.245V197.6H207.53V202.072H194.302V203.387H207.841V205.008H192.289V200.537ZM203.983 191.151C205.033 190.859 205.56 190.421 205.56 189.836C205.56 189.251 205.033 188.813 203.974 188.521C202.916 188.228 201.559 188.082 199.9 188.082C198.242 188.082 196.885 188.228 195.827 188.521C194.768 188.813 194.241 189.251 194.241 189.836C194.241 190.421 194.768 190.859 195.818 191.151C196.868 191.444 198.229 191.59 199.905 191.59C201.581 191.59 202.933 191.444 203.983 191.151Z" fill="#0057FF"/>
<path d="M226.389 194.611L232.944 202.612L231.044 203.853L225.652 197.112C224.89 199.187 223.901 200.809 222.684 201.982C221.467 203.155 220.062 203.794 218.479 203.894V201.719C219.795 201.529 220.923 200.759 221.873 199.404C222.823 198.049 223.545 196.283 224.035 194.108C224.524 191.933 224.777 189.528 224.796 186.886L227.196 186.973C227.161 189.881 226.894 192.423 226.389 194.611ZM237.05 186.438V205.008H234.7V186.438H237.05Z" fill="#0057FF"/>
<path d="M250.205 193.873C249.215 195.071 247.819 195.966 246.027 196.563C244.23 197.16 242.124 197.453 239.703 197.453V195.494C242.657 195.48 244.992 194.975 246.697 193.974C248.403 192.974 249.256 191.56 249.256 189.724V188.82H239.703V186.902H251.692V189.458C251.692 191.202 251.195 192.676 250.205 193.873ZM243.043 203.025H258.565V205.008H240.606V199.083H243.043V203.025ZM260.926 190.908V193.001H258.002V200.405H255.591V186.438H258.002V190.908H260.926Z" fill="#0057FF"/>
<path d="M265.405 203.192C264.55 202.562 263.889 201.601 263.411 200.31C262.933 199.019 262.694 197.42 262.694 195.503C262.694 193.592 262.933 191.988 263.411 190.697C263.889 189.405 264.555 188.445 265.405 187.815C266.259 187.186 267.256 186.868 268.405 186.868C269.535 186.868 270.528 187.186 271.382 187.815C272.237 188.445 272.898 189.405 273.376 190.697C273.854 191.988 274.093 193.587 274.093 195.503C274.093 197.415 273.854 199.019 273.376 200.31C272.898 201.601 272.232 202.562 271.382 203.192C270.528 203.821 269.535 204.138 268.405 204.138C267.256 204.138 266.255 203.821 265.405 203.192ZM270.937 200.519C271.584 199.422 271.906 197.755 271.906 195.508C271.906 193.274 271.584 191.607 270.937 190.506C270.289 189.405 269.443 188.853 268.4 188.853C267.344 188.853 266.489 189.401 265.841 190.493C265.194 191.589 264.872 193.256 264.872 195.503C264.872 197.75 265.194 199.422 265.832 200.514C266.471 201.606 267.33 202.154 268.4 202.154C269.448 202.159 270.293 201.61 270.937 200.519ZM277.291 186.438H279.496V205.008H277.291V186.438Z" fill="#0057FF"/>
<path d="M300.188 194.93C299.129 195.604 297.796 195.943 296.186 195.943C294.958 195.943 293.889 195.751 292.974 195.361C292.063 194.972 291.354 194.426 290.855 193.72C290.357 193.015 290.107 192.213 290.107 191.301C290.107 190.407 290.357 189.605 290.855 188.904C291.354 188.198 292.058 187.648 292.974 187.254C293.885 186.86 294.958 186.658 296.186 186.658C297.748 186.658 299.057 186.979 300.107 187.625C301.156 188.271 301.823 189.128 302.096 190.201H306.146V186.438H308.423V196.204H306.146V192.222H302.144C301.899 193.354 301.243 194.257 300.188 194.93ZM297.815 197.02H299.886V204.985H291.67V197.02H293.717V199.22H297.811V197.02H297.815ZM293.434 193.372C294.134 193.885 295.05 194.142 296.186 194.142C297.322 194.142 298.232 193.885 298.923 193.372C299.613 192.859 299.958 192.171 299.958 191.305C299.958 190.439 299.613 189.752 298.923 189.238C298.232 188.725 297.322 188.468 296.186 188.468C295.05 188.468 294.134 188.725 293.434 189.238C292.734 189.752 292.389 190.439 292.389 191.305C292.389 192.171 292.734 192.859 293.434 193.372ZM297.815 203.248V200.916H293.722V203.248H297.815ZM309.047 205.008L305.504 201.928C304.939 202.836 304.239 203.56 303.409 204.096C302.58 204.632 301.674 204.93 300.696 204.985V203.07C301.387 202.983 302.024 202.68 302.604 202.167C303.189 201.654 303.673 200.948 304.066 200.054C304.459 199.16 304.689 198.125 304.766 196.951L306.952 197.107C306.89 198.161 306.683 199.183 306.329 200.164L310.446 203.551L309.047 205.008Z" fill="#0057FF"/>
<path d="M330.785 186.443V205.008H328.518V196.158H324.763C324.672 198.794 324.104 200.787 323.054 202.128C322.009 203.468 320.639 204.139 318.94 204.139C317.156 204.139 315.733 203.414 314.679 201.965C313.624 200.515 313.099 198.364 313.099 195.506C313.099 192.652 313.624 190.496 314.679 189.047C315.733 187.598 317.151 186.873 318.94 186.873C320.573 186.873 321.904 187.48 322.925 188.698C323.947 189.917 324.543 191.728 324.71 194.133H328.514V186.438H330.785V186.443ZM321.517 200.52C322.166 199.424 322.491 197.757 322.491 195.51C322.491 193.264 322.166 191.592 321.517 190.501C320.868 189.405 320.009 188.861 318.94 188.861C317.857 188.861 316.989 189.409 316.34 190.501C315.691 191.592 315.366 193.264 315.366 195.51C315.366 197.757 315.691 199.428 316.34 200.52C316.989 201.611 317.857 202.159 318.94 202.159C320.009 202.159 320.868 201.611 321.517 200.52Z" fill="#0057FF"/>
<path d="M352.893 202.991V205.008H333.438V202.991H337.91V197.873C336.783 197.37 335.914 196.71 335.296 195.888C334.678 195.067 334.374 194.135 334.374 193.087C334.374 191.933 334.735 190.922 335.458 190.05C336.18 189.178 337.206 188.508 338.537 188.033C339.867 187.562 341.407 187.322 343.156 187.322C344.904 187.322 346.444 187.558 347.775 188.033C349.105 188.504 350.132 189.178 350.854 190.05C351.576 190.922 351.937 191.933 351.937 193.087C351.937 194.135 351.628 195.071 351.015 195.888C350.398 196.71 349.538 197.361 348.426 197.85V202.991H352.893ZM337.567 195.048C338.1 195.616 338.85 196.054 339.815 196.368C340.78 196.682 341.897 196.834 343.156 196.834C344.415 196.834 345.536 196.678 346.511 196.368C347.485 196.059 348.236 195.621 348.768 195.048C349.3 194.481 349.566 193.825 349.566 193.087C349.566 192.335 349.3 191.675 348.768 191.102C348.236 190.535 347.48 190.096 346.511 189.782C345.541 189.468 344.42 189.316 343.156 189.316C341.892 189.316 340.78 189.473 339.815 189.782C338.85 190.091 338.1 190.53 337.567 191.102C337.035 191.67 336.769 192.33 336.769 193.087C336.769 193.83 337.035 194.481 337.567 195.048ZM340.167 202.991H346.164V198.561C345.251 198.736 344.249 198.828 343.151 198.828C342.072 198.828 341.074 198.741 340.162 198.561V202.991H340.167Z" fill="#0057FF"/>
<path d="M70.8017 250.368V268.934H68.6482V260.084H65.0802C64.9941 262.72 64.4545 264.712 63.4571 266.053C62.4643 267.394 61.1631 268.064 59.5492 268.064C57.8536 268.064 56.5026 267.339 55.5007 265.89C54.4987 264.441 54 262.289 54 259.431C54 256.578 54.4987 254.422 55.5007 252.972C56.5026 251.523 57.849 250.798 59.5492 250.798C61.0997 250.798 62.3646 251.405 63.3348 252.624C64.305 253.842 64.8717 255.654 65.0304 258.059H68.6436V250.364H70.8017V250.368ZM62.0019 264.445C62.6184 263.349 62.9267 261.682 62.9267 259.436C62.9267 257.189 62.6184 255.518 62.0019 254.426C61.3853 253.33 60.5692 252.787 59.5537 252.787C58.5246 252.787 57.6995 253.335 57.0829 254.426C56.4663 255.518 56.158 257.189 56.158 259.436C56.158 261.682 56.4663 263.354 57.0829 264.445C57.6995 265.537 58.5246 266.085 59.5537 266.085C60.5692 266.085 61.3853 265.537 62.0019 264.445Z" fill="#0057FF"/>
<path d="M82.4317 257.821L88.3593 266.691L86.5191 267.865L81.7936 260.557C81.1416 262.777 80.2538 264.512 79.1303 265.767C78.0067 267.022 76.7028 267.706 75.2231 267.824V265.627C76.4068 265.436 77.4102 264.671 78.2286 263.321C79.0516 261.971 79.6712 260.213 80.092 258.047C80.5128 255.882 80.7301 253.471 80.7486 250.817L82.9911 250.903C82.9865 253.372 82.8016 255.673 82.4317 257.821ZM92.9091 250.364V268.934H90.7128V259.103H85.8301V257.082H90.7128V250.364H92.9091Z" fill="#0057FF"/>
<path d="M122.975 258.927V260.561H102.636V258.927H122.975ZM121.783 257.42H103.804V255.829H107.406V252.838H104.017V251.248H121.569V252.838H118.181V255.829H121.783V257.42ZM106.352 267.387H121.922V268.934H104.037V264.736H119.249V263.57H103.988V262.024H121.564V266.203H106.352V267.387ZM109.765 255.829H115.821V252.838H109.765V255.829Z" fill="#0057FF"/>
<path d="M129.474 262.127H125.628V255.541H131.75V252.677H125.628V250.827H133.87V257.326H127.748V260.277H129.635C132.049 260.277 133.823 260.048 134.961 259.594V261.42C133.728 261.893 131.902 262.127 129.474 262.127ZM144.198 266.997V268.934H126.852V263.536H129.128V266.997H144.198ZM138.418 264.573H136.279V250.474H138.418V255.366H141.581V250.364H143.719V264.904H141.581V257.349H138.418V264.573Z" fill="#0057FF"/>
<path d="M154.054 251.252C155.991 251.252 157.497 251.685 158.562 252.554C159.627 253.424 160.16 254.624 160.16 256.151C160.16 256.988 159.898 257.761 159.379 258.46C158.856 259.159 158.209 259.606 157.428 259.794C158.457 260.001 159.311 260.479 159.985 261.229C160.66 261.979 161 262.885 161 263.943C161 265.475 160.445 266.689 159.338 267.586C158.227 268.483 156.689 268.934 154.72 268.934H146.851V251.248H154.054V251.252ZM156.832 258.295C157.493 257.793 157.823 257.08 157.823 256.151C157.823 255.222 157.493 254.509 156.832 254.008C156.171 253.506 155.225 253.258 153.99 253.258H149.165V259.044H153.99C155.22 259.049 156.171 258.796 156.832 258.295ZM157.589 266.156C158.301 265.64 158.659 264.904 158.659 263.948C158.659 262.991 158.301 262.255 157.589 261.74C156.877 261.225 155.895 260.967 154.646 260.967H149.16V266.928H154.646C155.895 266.928 156.877 266.671 157.589 266.156Z" fill="#0057FF"/>
<path d="M178.635 258.536L185.188 266.537L183.289 267.779L177.898 261.037C177.137 263.112 176.148 264.734 174.931 265.907C173.714 267.081 172.31 267.72 170.727 267.819V265.645C172.043 265.454 173.17 264.684 174.12 263.33C175.069 261.975 175.791 260.208 176.281 258.034C176.771 255.859 177.023 253.453 177.043 250.812L179.441 250.898C179.412 253.807 179.144 256.348 178.635 258.536ZM189.298 250.364V268.934H186.948V250.364H189.298Z" fill="#0057FF"/>
<path d="M202.015 257.799C201.067 258.997 199.729 259.892 198.012 260.489C196.29 261.085 194.271 261.379 191.95 261.379V259.419C194.782 259.405 197.019 258.901 198.654 257.9C200.288 256.899 201.106 255.486 201.106 253.65V252.746H191.95V250.827H203.441V253.384C203.441 255.128 202.964 256.601 202.015 257.799ZM195.151 266.951H210.027V268.934H192.816V263.008H195.151V266.951ZM212.289 254.834V256.927H209.487V264.33H207.177V250.364H209.487V254.834H212.289Z" fill="#0057FF"/>
<path d="M233.512 266.862V268.934H214.058V266.862H218.914V262.31H215.061V260.261H218.506V253.32H215.265V251.248H232.282V253.32H229.041V260.261H232.486V262.31H228.656V266.862H233.512ZM220.782 260.261H226.76V253.32H220.782V260.261ZM221.172 266.862H226.394V262.31H221.172V266.862Z" fill="#0057FF"/>
<path d="M244.457 265.849C245.353 265.849 246.24 265.771 247.118 265.608C247.995 265.45 248.706 265.237 249.258 264.979V266.936C248.706 267.212 247.991 267.43 247.108 267.588C246.226 267.747 245.326 267.828 244.416 267.828H237.095V258.305H245.194V253.023H237.05V251.043H247.344V260.285H239.221V265.853H244.457V265.849ZM255.62 259.954H253.013V268.934H250.864V250.364H253.013V257.889H255.62V259.954Z" fill="#0057FF"/>
<path d="M276.843 266.851V268.934H257.388V266.851H265.942V262.168H258.667V251.248H275.569V253.33H260.971V260.091H275.798V262.173H268.247V266.856H276.843V266.851Z" fill="#0057FF"/>
<path d="M288.611 259.235C287.485 259.874 286.216 260.264 284.802 260.399V258.369C286.403 258.153 287.687 257.547 288.659 256.547C289.63 255.547 290.188 254.302 290.342 252.806H285.057V250.868H297.638V252.806H292.651C292.602 253.513 292.458 254.244 292.213 254.999L298.282 258.509L297.195 260.216L291.333 256.754C290.645 257.768 289.736 258.595 288.611 259.235ZM300.134 261.557H302.375V269.818H285.893V261.557H288.135V263.659H300.139V261.557H300.134ZM300.134 267.948V265.5H288.13V267.948H300.134ZM305.14 256.061H302.37V260.471H300.086V250.364H302.37V253.941H305.14V256.061Z" fill="#0057FF"/>
<path d="M316.507 251.877C317.359 252.567 318.028 253.618 318.506 255.033C318.983 256.447 319.227 258.198 319.227 260.297C319.227 262.391 318.988 264.148 318.506 265.562C318.028 266.976 317.359 268.028 316.507 268.718C315.656 269.407 314.659 269.755 313.522 269.755C311.771 269.755 310.377 268.961 309.342 267.373C308.308 265.785 307.793 263.428 307.793 260.297C307.793 257.171 308.308 254.809 309.342 253.222C310.377 251.634 311.767 250.84 313.522 250.84C314.659 250.84 315.656 251.187 316.507 251.877ZM316.049 265.785C316.685 264.584 317.004 262.758 317.004 260.297C317.004 257.836 316.685 256.005 316.049 254.809C315.412 253.609 314.57 253.013 313.522 253.013C312.459 253.013 311.608 253.614 310.971 254.809C310.335 256.005 310.016 257.836 310.016 260.297C310.016 262.758 310.335 264.589 310.971 265.785C311.608 266.981 312.459 267.581 313.522 267.581C314.57 267.586 315.412 266.986 316.049 265.785ZM327.248 260.868H324.552V270.702H322.329V250.364H324.552V258.605H327.248V260.868Z" fill="#0057FF"/>
<path d="M338.129 251.872C339.02 252.562 339.719 253.614 340.219 255.028C340.718 256.442 340.972 258.193 340.972 260.292C340.972 262.386 340.723 264.143 340.219 265.557C339.719 266.971 339.02 268.023 338.129 268.713C337.238 269.402 336.196 269.75 335.007 269.75C333.176 269.75 331.718 268.956 330.636 267.368C329.555 265.78 329.017 263.423 329.017 260.292C329.017 257.166 329.555 254.804 330.636 253.217C331.718 251.629 333.171 250.835 335.007 250.835C336.196 250.835 337.238 251.182 338.129 251.872ZM337.649 265.78C338.315 264.579 338.648 262.753 338.648 260.292C338.648 257.831 338.315 256 337.649 254.804C336.984 253.604 336.103 253.008 335.007 253.008C333.896 253.008 333.005 253.609 332.339 254.804C331.674 256 331.341 257.831 331.341 260.292C331.341 262.753 331.674 264.584 332.339 265.78C333.005 266.976 333.896 267.576 335.007 267.576C336.098 267.581 336.984 266.981 337.649 265.78ZM346.537 257.553V262.247H349.355V264.44H346.537V270.702H344.212V250.364H346.537V255.365H349.355V257.558H346.537V257.553Z" fill="#0057FF"/>
<path d="M369.694 267.629V269.818H350.24V267.629H355.234V262.992H357.515V267.629H362.395V262.992H364.676V267.629H369.694ZM355.895 261.011C354.36 261.764 352.663 262.205 350.81 262.329V260.139C352.953 259.951 354.773 259.282 356.275 258.143C357.772 257.004 358.75 255.424 359.207 253.412H351.29V251.248H368.625V253.412H361.554C361.388 254.299 361.122 255.171 360.756 256.028L369.219 260.476L368.259 262.447L359.658 257.88C358.684 259.213 357.429 260.258 355.895 261.011Z" fill="#0057FF"/>
<path d="M371.976 270.201C371.632 269.869 371.463 269.447 371.463 268.941C371.463 268.45 371.632 268.039 371.976 267.701C372.32 267.364 372.738 267.2 373.231 267.2C373.725 267.2 374.143 267.369 374.487 267.701C374.831 268.034 375 268.445 375 268.941C375 269.447 374.831 269.869 374.497 270.201C374.163 270.534 373.74 270.702 373.231 270.702C372.738 270.702 372.32 270.534 371.976 270.201ZM371.727 251.248H374.766L374.143 265.033H372.325L371.727 251.248Z" fill="#0057FF"/>
</svg>
