<svg width="1151" height="173" viewBox="0 0 1151 173" fill="none" xmlns="http://www.w3.org/2000/svg">
<rect x="0.5" y="0.890869" width="650.658" height="44.551" fill="black" stroke="#FFE000"/>
<rect x="14.4442" y="12.9758" width="666.461" height="51.9879" fill="black" stroke="#FFE000"/>
<rect x="28.3883" y="25.0608" width="687.842" height="55.7063" fill="black" stroke="#FFE000"/>
<path d="M78.9076 62.2796V65.2084H52.0582V62.2796H63.8611V55.8273H53.8243V40.5972H77.1153V55.8273H67.0435V62.2796H78.9076ZM56.9367 52.9334H73.9941V43.526H56.9367V52.9334Z" fill="white"/>
<path d="M82.3346 53.5281H109.184V56.1684H82.3346V53.5281ZM84.1881 58.3104H87.3705V63.5037H107.794V66.179H84.1881V58.3104ZM84.258 39.9329H107.269V42.547H87.4055V48.055H107.584V50.6342H84.258V39.9329Z" fill="white"/>
<path d="M148.274 53.4057V56.046H136.41V60.671H133.262V56.046H121.424V53.4057H148.274ZM126.46 63.5037H146.919V66.179H123.313V58.3454H126.46V63.5037ZM146.324 50.6954H123.348V39.9329H146.324V50.6954ZM143.203 42.512H126.46V48.1162H143.203V42.512Z" fill="white"/>
<path d="M159.823 51.5437L166.371 63.0669L163.819 64.5182L159.036 55.8277C157.716 61.2833 155.347 64.3084 151.919 64.8941V61.8429C153.659 61.362 154.979 59.4998 155.889 56.2561C156.789 53.0125 157.261 48.7373 157.305 43.4303H152.365V40.5976H165.016V43.4303H160.295C160.278 46.4466 160.12 49.1569 159.823 51.5437ZM167.63 39.7758H170.585V66.022H167.63V52.7677H163.381V49.8389H167.63V39.7758ZM177.545 39.6184V66.4941H174.59V39.6184H177.545Z" fill="white"/>
<path d="M181.986 51.9893H208.836V54.2537H181.986V51.9893ZM183.84 60.1377H203.948V58.4066H183.77V56.2034H206.965V62.2185H186.856V63.9846H207.437V66.1878H183.831V60.1377H183.84ZM183.936 43.9633H203.887V42.1361H183.936V39.9329H206.912V46.0354H186.961V47.8277H207.297V50.0309H183.945V43.9633H183.936Z" fill="white"/>
<path d="M229.189 43.8059H234.82V46.6037H220.464V43.8059H226.094V39.5569H229.181V43.8059H229.189ZM231.017 49.6724C231.961 50.3107 232.704 51.2549 233.237 52.4876C233.771 53.7291 234.042 55.2154 234.042 56.9553C234.042 58.6951 233.771 60.1901 233.237 61.4229C232.704 62.6644 231.961 63.5999 231.017 64.2381C230.072 64.8763 228.988 65.1998 227.773 65.1998C226.558 65.1998 225.482 64.8763 224.547 64.2381C223.611 63.5999 222.877 62.6556 222.344 61.4229C221.81 60.1814 221.539 58.6951 221.539 56.9553C221.539 55.2154 221.81 53.7204 222.344 52.4876C222.877 51.2461 223.611 50.3107 224.547 49.6724C225.482 49.0342 226.558 48.7107 227.773 48.7107C228.997 48.7107 230.072 49.0342 231.017 49.6724ZM230.23 61.0032C230.859 60.024 231.174 58.6776 231.174 56.9553C231.174 55.2329 230.859 53.8865 230.23 52.9073C229.6 51.9281 228.778 51.4472 227.773 51.4472C226.785 51.4472 225.981 51.9368 225.369 52.9073C224.748 53.8865 224.442 55.2329 224.442 56.9553C224.442 58.6776 224.748 60.024 225.369 61.0032C225.989 61.9824 226.794 62.4633 227.773 62.4633C228.787 62.472 229.6 61.9824 230.23 61.0032ZM246.911 39.6181V66.4938H244.017V53.3707H239.707V66.0216H236.813V39.7755H239.707V50.4418H244.017V39.6181H246.911Z" fill="white"/>
<path d="M263.453 50.0662C260.734 51.5962 256.983 52.3656 252.201 52.3656V49.7514C256.082 49.7339 259.09 49.2094 261.215 48.1952C263.348 47.181 264.406 45.616 264.406 43.5177V42.8883H252.192V40.2741H267.518V43.0107C267.527 46.1843 266.172 48.5362 263.453 50.0662ZM277.319 63.6963V66.1531H253.906V59.0364H273.577V56.7108H253.844V54.254H276.663V61.3707H256.992V63.6963H277.319ZM273.542 50.1274H267.684V47.5745H273.542V44.8029H268.856V42.25H273.542V39.6184H276.655V52.8377H273.542V50.1274Z" fill="white"/>
<path d="M289.751 43.8059H295.382V46.6037H281.035V43.8059H286.665V39.5569H289.751V43.8059ZM291.578 49.6724C292.523 50.3107 293.266 51.2549 293.799 52.4876C294.333 53.7291 294.604 55.2154 294.604 56.9553C294.604 58.6951 294.333 60.1901 293.799 61.4229C293.266 62.6644 292.523 63.5999 291.578 64.2381C290.634 64.8763 289.55 65.1998 288.335 65.1998C287.12 65.1998 286.044 64.8763 285.109 64.2381C284.173 63.5999 283.439 62.6556 282.906 61.4229C282.372 60.1814 282.101 58.6951 282.101 56.9553C282.101 55.2154 282.372 53.7204 282.906 52.4876C283.439 51.2461 284.173 50.3107 285.109 49.6724C286.044 49.0342 287.12 48.7107 288.335 48.7107C289.55 48.7107 290.634 49.0342 291.578 49.6724ZM290.792 61.0032C291.421 60.024 291.736 58.6776 291.736 56.9553C291.736 55.2329 291.421 53.8865 290.792 52.9073C290.162 51.9281 289.34 51.4472 288.335 51.4472C287.347 51.4472 286.543 51.9368 285.931 52.9073C285.31 53.8865 285.004 55.2329 285.004 56.9553C285.004 58.6776 285.31 60.024 285.931 61.0032C286.551 61.9824 287.356 62.4633 288.335 62.4633C289.34 62.472 290.162 61.9824 290.792 61.0032ZM307.473 39.6181V66.4938H304.579V53.3707H300.269V66.0216H297.375V39.7755H300.269V50.4418H304.579V39.6181H307.473Z" fill="white"/>
<path d="M335.669 53.1172V55.539H345.706V61.9563H325.623V63.8447H346.178V66.1703H322.572V59.7531H342.655V57.8646H322.511V55.539H332.583V53.1172H320.719V50.6954H347.568V53.1172H335.669ZM333.527 46.1054C332.181 47.0671 330.493 47.819 328.456 48.3436C326.419 48.8681 324.303 49.1479 322.1 49.1916V46.7349C324.679 46.6737 327.022 46.2628 329.138 45.5109C331.245 44.759 332.53 43.7098 332.994 42.3634H322.546V39.9417H345.715V42.3634H336.176C336.054 42.9754 335.809 43.57 335.45 44.1557L346.431 46.9272L345.706 49.3228L333.527 46.1054Z" fill="white"/>
<path d="M386.658 59.6044H374.794V67.1233H371.611V59.6044H359.808V56.7105H386.658V59.6044ZM367.38 52.0855C365.185 53.2571 362.877 53.8604 360.438 53.8778V50.9227C362.326 50.9227 364.154 50.4156 365.928 49.3927C367.703 48.3786 369.207 46.9884 370.448 45.2224C371.69 43.4563 372.494 41.5329 372.87 39.4346L376.079 39.9417C375.764 41.664 375.222 43.2989 374.444 44.8552L385.967 51.2462L384.516 53.8604L372.931 47.2507C371.428 49.2878 369.574 50.9053 367.38 52.0855Z" fill="white"/>
<path d="M415.081 50.5383C414.39 51.5874 413.402 52.4093 412.135 52.995C410.867 53.5808 409.389 53.8781 407.711 53.8781C406.014 53.8781 404.528 53.5808 403.26 52.995C401.993 52.4093 401.014 51.5874 400.314 50.5383C399.615 49.4891 399.274 48.2739 399.274 46.8838C399.274 45.5199 399.623 44.3046 400.314 43.2467C401.005 42.1888 401.984 41.367 403.26 40.7725C404.528 40.1867 406.014 39.8894 407.711 39.8894C409.389 39.8894 410.867 40.1867 412.135 40.7725C413.402 41.3583 414.381 42.1801 415.081 43.2467C415.78 44.3133 416.121 45.5199 416.121 46.8838C416.121 48.2739 415.772 49.4891 415.081 50.5383ZM424.305 66.2755L419.146 61.9653C418.324 63.2242 417.337 64.2122 416.174 64.9378C415.011 65.6635 413.769 66.0657 412.44 66.1531L407.877 62.1226C407.037 63.3204 406.041 64.2646 404.887 64.9728C403.733 65.6722 402.517 66.0657 401.232 66.1531V63.3204C402.194 63.233 403.112 62.8221 403.986 62.0789C404.86 61.3358 405.577 60.374 406.146 59.2025C406.714 58.0309 407.046 56.7545 407.151 55.3906L410.176 55.8015C410.027 57.2091 409.695 58.5293 409.171 59.7708L413.297 63.1718C414.137 62.9182 414.915 62.4199 415.623 61.6593C416.34 60.9074 416.926 59.9806 417.389 58.8877C417.852 57.7949 418.123 56.6321 418.211 55.3906L421.236 55.8277C421.113 57.1479 420.825 58.3982 420.388 59.5697L426.176 64.0723L424.305 66.2755ZM403.864 50.1186C404.843 50.9055 406.119 51.2989 407.719 51.2989C409.293 51.2989 410.57 50.9055 411.54 50.1186C412.519 49.3318 413 48.2564 413 46.8925C413 45.5286 412.51 44.4532 411.54 43.6664C410.561 42.8795 409.293 42.4861 407.719 42.4861C406.128 42.4861 404.843 42.8795 403.864 43.6664C402.884 44.4532 402.404 45.5286 402.404 46.8925C402.395 48.2564 402.884 49.3318 403.864 50.1186ZM423.99 54.5688H420.877V39.6184H423.99V54.5688Z" fill="white"/>
<path d="M429.183 52.995H456.033V55.7665H429.183V52.995ZM431.037 58.1533H434.219V63.4078H454.642V66.1793H431.037V58.1533ZM431.098 39.6184H434.245V47.2684H454.354V50.0399H431.098V39.6184Z" fill="white"/>
<path d="M475.253 52.1926L481.802 63.7158L479.249 65.1671L474.466 56.4767C473.146 61.9322 470.777 64.9573 467.35 65.543V62.4918C469.09 62.0109 470.41 60.1487 471.319 56.9051C472.22 53.6615 472.692 49.3862 472.735 44.0792H467.796V41.2465H480.447V44.0792H475.725C475.699 47.0955 475.542 49.8058 475.253 52.1926ZM483.061 40.4247H486.016V66.6709H483.061V53.4166H478.812V50.4878H483.061V40.4247ZM492.975 40.2673V67.143H490.02V40.2673H492.975Z" fill="white"/>
<path d="M512.358 55.4979V58.2956H522.369V66.8287H499.27V58.2956H509.281V55.4979H497.417V53.0149H524.266V55.4979H512.358ZM522.683 50.6543H498.955V48.1976H503.711V43.0393H499.244V40.5825H522.412V43.0393H517.945V48.1976H522.701V50.6543H522.683ZM519.282 60.6912H502.382V64.4069H519.282V60.6912ZM506.824 48.1976H514.815V43.0393H506.824V48.1976Z" fill="white"/>
<path d="M532.694 64.5201C531.479 63.6109 530.526 62.2208 529.844 60.3498C529.162 58.4788 528.821 56.1619 528.821 53.3904C528.821 50.6189 529.162 48.3021 529.844 46.4311C530.526 44.5601 531.479 43.17 532.694 42.2607C533.91 41.3515 535.335 40.8881 536.978 40.8881C538.596 40.8881 540.012 41.3427 541.227 42.2607C542.443 43.17 543.396 44.5601 544.078 46.4311C544.76 48.3021 545.101 50.6189 545.101 53.3904C545.101 56.1619 544.76 58.4788 544.078 60.3498C543.396 62.2208 542.443 63.6109 541.227 64.5201C540.012 65.4294 538.596 65.8928 536.978 65.8928C535.335 65.884 533.91 65.4294 532.694 64.5201ZM540.589 60.647C541.516 59.0646 541.971 56.6428 541.971 53.3904C541.971 50.1555 541.507 47.7425 540.589 46.1513C539.662 44.5601 538.456 43.7558 536.97 43.7558C535.457 43.7558 534.242 44.5514 533.315 46.1338C532.388 47.7163 531.934 50.1381 531.934 53.3904C531.934 56.6428 532.388 59.0646 533.306 60.647C534.216 62.2295 535.44 63.0251 536.97 63.0251C538.465 63.0251 539.671 62.2295 540.589 60.647ZM549.656 40.2673H552.803V67.143H549.656V40.2673Z" fill="white"/>
<path d="M582.957 51.1872C582.266 52.2364 581.287 53.0582 580.011 53.644C578.743 54.2297 577.266 54.527 575.587 54.527C573.891 54.527 572.405 54.2297 571.137 53.644C569.869 53.0582 568.89 52.2364 568.19 51.1872C567.491 50.1381 567.15 48.9228 567.15 47.5327C567.15 46.1688 567.5 44.9535 568.19 43.8956C568.881 42.8378 569.86 42.0159 571.137 41.4214C572.405 40.8356 573.891 40.5384 575.587 40.5384C577.266 40.5384 578.743 40.8356 580.011 41.4214C581.279 42.0072 582.258 42.829 582.957 43.8956C583.657 44.9623 583.998 46.1688 583.998 47.5327C583.998 48.9228 583.648 50.1381 582.957 51.1872ZM592.181 66.9244L587.023 62.6142C586.201 63.8732 585.213 64.8611 584.05 65.5868C582.887 66.3124 581.646 66.7146 580.317 66.802L575.753 62.7716C574.914 63.9693 573.917 64.9136 572.763 65.6218C571.609 66.3212 570.394 66.7146 569.108 66.802V63.9693C570.07 63.8819 570.988 63.471 571.862 62.7279C572.737 61.9847 573.454 61.023 574.022 59.8514C574.59 58.6799 574.922 57.4034 575.027 56.0395L578.052 56.4504C577.904 57.858 577.572 59.1782 577.047 60.4197L581.174 63.8207C582.013 63.5672 582.791 63.0688 583.499 62.3082C584.216 61.5563 584.802 60.6295 585.265 59.5367C585.729 58.4438 586 57.281 586.087 56.0395L589.112 56.4767C588.99 57.7968 588.701 59.0471 588.264 60.2186L594.052 64.7212L592.181 66.9244ZM571.74 50.7675C572.719 51.5544 574.004 51.9478 575.596 51.9478C577.169 51.9478 578.446 51.5544 579.416 50.7675C580.396 49.9807 580.876 48.9053 580.876 47.5414C580.876 46.1775 580.387 45.1021 579.416 44.3153C578.437 43.5284 577.169 43.135 575.596 43.135C574.004 43.135 572.719 43.5284 571.74 44.3153C570.761 45.1021 570.28 46.1775 570.28 47.5414C570.271 48.9053 570.761 49.9807 571.74 50.7675ZM591.866 55.2177H588.754V40.2673H591.866V55.2177Z" fill="white"/>
<path d="M622.361 40.2673V67.143H619.249V54.1161H612.071C611.171 57.6657 609.509 60.4459 607.096 62.4568C604.683 64.4677 601.711 65.4819 598.187 65.4819V62.5268C600.6 62.5268 602.664 61.9235 604.369 60.717C606.082 59.5105 607.385 57.8056 608.285 55.6024C609.186 53.3992 609.641 50.7938 609.641 47.795V44.1142H598.187V41.2465H612.823V47.7338C612.823 49.0102 612.753 50.1643 612.604 51.196H619.249V40.2673H622.361Z" fill="white"/>
<path d="M627.336 54.1777H654.186V56.8181H627.336V54.1777ZM629.19 58.9601H632.372V64.1534H652.796V66.8287H629.19V58.9601ZM629.26 40.5825H652.271V43.1966H632.407V48.7047H652.586V51.2838H629.26V40.5825Z" fill="white"/>
<path d="M684.462 62.9907V65.8583H657.613V62.9907H663.785V55.7166C662.229 54.9996 661.031 54.0642 660.183 52.9013C659.335 51.7385 658.907 50.4096 658.907 48.9233C658.907 47.2884 659.405 45.8458 660.402 44.6131C661.399 43.3716 662.815 42.4186 664.651 41.7454C666.487 41.0722 668.611 40.74 671.025 40.74C673.438 40.74 675.562 41.0722 677.398 41.7454C679.234 42.4186 680.65 43.3716 681.647 44.6131C682.644 45.8546 683.142 47.2884 683.142 48.9233C683.142 50.4096 682.714 51.7385 681.866 52.9013C681.018 54.0642 679.829 54.9909 678.29 55.6903V62.9907H684.462ZM663.313 51.7123C664.048 52.5167 665.079 53.1461 666.417 53.5833C667.746 54.0204 669.285 54.2478 671.025 54.2478C672.764 54.2478 674.312 54.0292 675.65 53.5833C676.996 53.1461 678.028 52.5167 678.762 51.7123C679.496 50.908 679.864 49.9725 679.864 48.9233C679.864 47.8567 679.496 46.9125 678.762 46.1081C678.028 45.3038 676.987 44.6743 675.65 44.2371C674.303 43.8 672.764 43.5727 671.025 43.5727C669.285 43.5727 667.746 43.7912 666.417 44.2371C665.088 44.6743 664.048 45.3038 663.313 46.1081C662.579 46.9125 662.212 47.8567 662.212 48.9233C662.212 49.9725 662.579 50.8992 663.313 51.7123ZM666.898 62.9907H675.177V56.6958C673.918 56.9493 672.537 57.0717 671.025 57.0717C669.538 57.0717 668.157 56.9493 666.898 56.6958V62.9907Z" fill="white"/>
<path d="M688.633 66.2515C688.204 65.8231 687.986 65.2898 687.986 64.6603C687.986 64.0308 688.204 63.4975 688.633 63.0691C689.061 62.6407 689.594 62.4221 690.224 62.4221C690.853 62.4221 691.378 62.6407 691.798 63.0691C692.217 63.4975 692.427 64.0308 692.427 64.6603C692.427 65.2898 692.217 65.8231 691.798 66.2515C691.378 66.6799 690.853 66.8985 690.224 66.8985C689.594 66.8985 689.061 66.6799 688.633 66.2515Z" fill="white"/>
<rect x="521.5" y="113.5" width="629" height="59" fill="black" stroke="#FFE000"/>
<path d="M595.881 125.85H599.991V158.464H580.08V125.85H584.19V138.169H595.881V125.85ZM595.881 154.645V141.988H584.19V154.645H595.881ZM615.838 143.293H610.808V160.607H606.663V124.802H610.808V139.31H615.838V143.293Z" fill="white"/>
<path d="M654.484 155.065V158.884H618.726V155.065H634.398V148.311H621.113V135.398H648.022V129.786H621.113V126.095H652.132V138.961H625.258V144.62H652.667V148.311H638.625V155.065H654.484Z" fill="white"/>
<path d="M671.731 145.875L665.271 145.866L665.279 139.49L671.74 139.499L671.731 145.875ZM688.989 145.899L682.528 145.89L682.537 139.514L688.998 139.523L688.989 145.899ZM705.991 145.922L699.53 145.913L699.539 139.537L706 139.546L705.991 145.922Z" fill="white"/>
<path d="M753.339 151.215H738.167V160.849H734.105V151.215H719V147.523H753.372V151.215H753.339ZM728.667 141.582C725.848 143.092 722.894 143.864 719.772 143.864V140.071C722.189 140.071 724.539 139.433 726.787 138.124C729.07 136.815 730.983 135.036 732.561 132.787C734.139 130.538 735.179 128.054 735.649 125.369L739.744 126.007C739.341 128.222 738.636 130.303 737.663 132.284L752.399 140.474L750.553 143.831L735.716 135.372C733.837 138.024 731.487 140.071 728.667 141.582Z" fill="white"/>
<path d="M773.177 140.507C769.686 142.723 764.818 143.831 758.609 143.831V140.373C763.577 140.34 767.437 139.534 770.223 137.99C773.009 136.412 774.385 134.096 774.385 131.042V129.867H758.609V126.477H778.413V130.337C778.447 134.902 776.668 138.292 773.177 140.507ZM785.361 147.355C788.047 148.496 789.389 150.342 789.389 152.826C789.389 155.31 788.047 157.157 785.361 158.298C782.676 159.439 779.118 160.043 774.654 160.043C770.189 160.043 766.631 159.473 763.946 158.298C761.26 157.157 759.918 155.31 759.918 152.826C759.918 150.342 761.26 148.496 763.946 147.355C766.631 146.214 770.189 145.61 774.654 145.61C779.118 145.61 782.676 146.18 785.361 147.355ZM782.273 155.747C784.22 155.109 785.16 154.136 785.16 152.826C785.16 151.551 784.186 150.577 782.24 149.906C780.293 149.235 777.775 148.933 774.654 148.933C771.565 148.933 769.048 149.268 767.068 149.906C765.121 150.577 764.114 151.551 764.114 152.826C764.114 154.102 765.087 155.075 767.034 155.713C768.981 156.351 771.498 156.687 774.62 156.687C777.775 156.687 780.326 156.385 782.273 155.747ZM793.686 132.686V136.513H788.852V144.435H784.858V125.637H788.852V132.686H793.686Z" fill="white"/>
<path d="M803.622 143.361C801.641 144.77 799.426 145.643 797.009 145.945V142.186C799.124 141.817 801.003 140.843 802.581 139.299C804.159 137.755 805.401 135.808 806.273 133.458C807.146 131.109 807.583 128.625 807.616 125.94L811.611 126.174C811.611 129.095 811.107 131.881 810.134 134.566L821.177 142.689L818.794 145.576L808.556 137.889C807.247 140.138 805.602 141.951 803.622 143.361ZM829.502 156.049V159.607H799.426V148.664H803.454V156.082H829.502V156.049ZM828.595 151.182H824.601V125.637H828.595V151.182Z" fill="white"/>
<path d="M842.29 143.227C840.411 144.402 838.262 145.106 835.913 145.375V141.918C838.497 141.548 840.612 140.474 842.29 138.662C843.969 136.883 844.976 134.734 845.345 132.183H836.282V128.827H845.378V125H849.406V128.827H858.402V132.183H849.406C849.239 133.392 848.97 134.533 848.567 135.607L859.006 142.085L857.127 145.073L847.023 138.695C845.748 140.541 844.204 142.052 842.29 143.227ZM863.941 148.732C866.66 149.739 868.002 151.383 868.002 153.632C868.002 155.848 866.66 157.493 863.941 158.5C861.222 159.507 857.597 160.044 853.065 160.044C848.534 160.044 844.909 159.54 842.19 158.5C839.471 157.493 838.128 155.848 838.128 153.632C838.128 151.383 839.471 149.739 842.19 148.732C844.909 147.725 848.534 147.221 853.065 147.221C857.597 147.221 861.222 147.725 863.941 148.732ZM860.853 156.049C862.8 155.512 863.807 154.707 863.807 153.599C863.807 152.491 862.833 151.685 860.853 151.148C858.906 150.611 856.288 150.376 853.065 150.376C849.843 150.376 847.258 150.645 845.278 151.148C843.331 151.685 842.324 152.491 842.324 153.599C842.324 154.707 843.297 155.512 845.278 156.049C847.225 156.586 849.843 156.821 853.065 156.821C856.288 156.821 858.872 156.586 860.853 156.049ZM863.639 133.962V125.638H867.633V146.147H863.639V137.52H857.026V133.962H863.639Z" fill="white"/>
<path d="M919.628 140.373V143.461H885.256V140.373H900.428V137.99C896.467 137.856 893.278 137.285 890.895 136.278C888.512 135.271 887.303 133.761 887.303 131.747C887.303 129.598 888.679 128.021 891.465 127.014C894.252 126.007 897.877 125.503 902.408 125.503C906.906 125.503 910.565 126.007 913.351 127.014C916.137 128.021 917.513 129.598 917.513 131.747C917.513 133.761 916.305 135.271 913.922 136.278C911.538 137.285 908.35 137.856 904.389 137.99V140.373H919.628ZM891.533 156.619H917.849V159.607H887.639V151.383H913.351V148.966H887.572V145.979H917.245V154.203H891.533V156.619ZM894.486 134.163C896.534 134.7 899.186 134.969 902.408 134.969C905.664 134.969 908.316 134.7 910.33 134.163C912.377 133.626 913.385 132.821 913.385 131.747C913.385 130.672 912.344 129.867 910.296 129.33C908.249 128.793 905.597 128.524 902.375 128.524C899.152 128.524 896.5 128.793 894.453 129.33C892.405 129.867 891.365 130.672 891.365 131.747C891.432 132.821 892.439 133.626 894.486 134.163Z" fill="white"/>
<path d="M929.463 144.67C927.818 143.797 926.543 142.622 925.67 141.112C924.797 139.601 924.327 137.889 924.327 135.976C924.327 134.063 924.763 132.351 925.67 130.84C926.543 129.33 927.818 128.121 929.463 127.282C931.108 126.409 933.054 126.007 935.236 126.007C937.452 126.007 939.365 126.443 941.01 127.282C942.655 128.155 943.896 129.33 944.803 130.84C945.675 132.351 946.145 134.063 946.145 136.01C946.145 137.956 945.709 139.668 944.803 141.179C943.896 142.689 942.655 143.864 941.01 144.737C939.365 145.61 937.452 146.012 935.236 146.012C933.054 145.979 931.108 145.542 929.463 144.67ZM927.348 148.362H931.41V155.982H957.021V159.607H927.348V148.362ZM940.238 140.81C941.513 139.601 942.117 138.024 942.117 136.01C942.117 133.996 941.48 132.384 940.204 131.176C938.929 129.968 937.284 129.363 935.236 129.363C933.155 129.363 931.51 129.968 930.235 131.176C928.959 132.384 928.322 133.996 928.322 136.01C928.322 138.024 928.959 139.635 930.235 140.81C931.51 142.018 933.189 142.589 935.236 142.589C937.317 142.589 938.962 141.984 940.238 140.81ZM952.12 125.637H956.115V151.182H952.12V125.637Z" fill="white"/>
<path d="M972.26 144.838H962.761V141.548H976.993C982.364 141.548 986.123 141.078 988.272 140.172V143.461C986.224 144.368 982.431 144.838 976.859 144.838H976.255V151.014H972.26V144.838ZM967.595 137.352C965.715 136.177 964.809 134.533 964.809 132.384C964.809 130.236 965.748 128.625 967.595 127.45C969.474 126.275 971.925 125.705 974.979 125.705C978.034 125.705 980.518 126.275 982.364 127.45C984.244 128.625 985.15 130.27 985.15 132.384C985.15 134.499 984.21 136.144 982.364 137.352C980.484 138.527 978.034 139.131 974.979 139.131C971.925 139.131 969.474 138.527 967.595 137.352ZM996.026 156.217V159.607H965.95V149.168H969.944V156.217H996.026ZM970.448 129.766C969.307 130.37 968.702 131.243 968.702 132.418C968.702 133.593 969.273 134.465 970.448 135.07C971.589 135.674 973.133 136.01 975.013 136.01C976.893 136.01 978.403 135.707 979.578 135.07C980.719 134.465 981.323 133.559 981.323 132.418C981.323 131.277 980.753 130.37 979.578 129.766C978.437 129.162 976.893 128.86 975.013 128.86C973.133 128.86 971.589 129.162 970.448 129.766ZM991.158 147.221V125.637H995.153V152.591H991.158V150.443H980.719V147.221H991.158Z" fill="white"/>
<path d="M1003.11 126.879H1022.48V136.513C1022.48 140.944 1021.64 144.77 1019.99 147.959C1018.35 151.182 1016.06 153.632 1013.11 155.31C1010.19 156.989 1006.83 157.861 1003.07 157.895V154.136C1006.77 154.102 1009.92 153.162 1012.47 151.249C1015.02 149.335 1016.8 146.583 1017.74 142.958H1003.07V139.333H1018.35C1018.41 138.46 1018.48 137.587 1018.48 136.714V130.505H1003.11V126.879ZM1033.55 125.637V160.043H1029.56V125.637H1033.55Z" fill="white"/>
<path d="M1074.61 154.707V158.365H1040.23V154.707H1074.61ZM1072.89 148.866H1042.55V126.88H1072.36V130.472H1046.54V136.111H1071.92V139.602H1046.54V145.274H1072.89V148.866Z" fill="white"/>
<path d="M1079.91 158.969C1079.34 158.398 1079.04 157.693 1079.04 156.821C1079.04 155.982 1079.34 155.277 1079.91 154.74C1080.48 154.169 1081.18 153.9 1082.02 153.9C1082.86 153.9 1083.57 154.169 1084.14 154.74C1084.71 155.31 1085.01 156.015 1085.01 156.821C1085.01 157.693 1084.74 158.398 1084.17 158.969C1083.6 159.54 1082.9 159.808 1082.02 159.808C1081.18 159.842 1080.48 159.54 1079.91 158.969ZM1079.47 126.913H1084.57L1083.53 150.242H1080.48L1079.47 126.913Z" fill="white"/>
</svg>
