<svg width="834" height="220" viewBox="0 0 834 220" fill="none" xmlns="http://www.w3.org/2000/svg">
<rect x="125.5" y="109.5" width="616" height="44" fill="black" stroke="#FFE000"/>
<path d="M188.137 130.77C186.915 131.501 185.538 131.978 184 132.196V129.948C185.313 129.71 186.458 129.204 187.428 128.431C188.397 127.659 189.141 126.689 189.668 125.537C190.188 124.385 190.462 123.142 190.476 121.808L192.977 121.962C192.977 123.381 192.717 124.744 192.19 126.057L198.715 130.173L197.423 131.943L191.15 127.947C190.364 129.098 189.359 130.04 188.137 130.77ZM204.812 140.976V142.922H185.896V137.309H201.799V135.511H185.84V133.566H204.271V139.157H188.369V140.976H204.812ZM201.777 126.865H196.566V124.638H201.777V121.604H204.278V132.379H201.777V126.865Z" fill="white"/>
<path d="M209.286 122.391H221.297V141.91H209.286V122.391ZM211.793 139.585H218.796V124.716H211.793V139.585ZM230.856 132.758H227.822V143.202H225.321V121.604H227.822V130.356H230.856V132.758Z" fill="white"/>
<path d="M246.379 131.009L251.612 140.519L249.512 141.629L245.719 134.549C245.178 136.726 244.426 138.419 243.457 139.634C242.488 140.849 241.287 141.608 239.854 141.91V139.381C241.49 138.841 242.663 137.113 243.366 134.184C244.075 131.262 244.433 127.244 244.454 122.138L246.857 122.236C246.864 125.439 246.702 128.361 246.379 131.009ZM252.63 121.73H255.004V142.816H252.63V131.367H249.217V128.993H252.63V121.73ZM260.441 121.604V143.195H258.067V121.604H260.441Z" fill="white"/>
<path d="M271.869 122.391H283.627V127.602C283.627 130.454 283.156 132.948 282.208 135.097C281.267 137.246 279.904 138.911 278.134 140.091C276.364 141.271 274.271 141.861 271.862 141.861V139.487C273.8 139.487 275.458 139.002 276.828 138.033C278.204 137.064 279.251 135.694 279.974 133.924C280.698 132.154 281.063 130.061 281.063 127.652V124.695H271.862V122.391H271.869ZM293.664 132.758H290.63V143.202H288.129V121.604H290.63V130.356H293.664V132.758Z" fill="white"/>
<path d="M303.961 131.515L311.013 140.238L309.039 141.727L303.223 134.317C302.479 136.579 301.481 138.356 300.224 139.662C298.967 140.969 297.52 141.713 295.89 141.903V139.424C297.155 139.185 298.243 138.412 299.164 137.099C300.084 135.785 300.793 134.057 301.299 131.915C301.804 129.773 302.071 127.364 302.107 124.68H296.389V122.377H310.17V124.68H304.635C304.621 127.083 304.396 129.358 303.961 131.515ZM315.564 121.604V143.195H313.064V121.604H315.564Z" fill="white"/>
<path d="M331.087 131.557C329.837 132.372 328.432 132.891 326.866 133.109V130.833C328.2 130.595 329.359 130.054 330.343 129.204C331.326 128.354 332.084 127.286 332.604 126.008C333.124 124.73 333.398 123.325 333.412 121.808L335.912 121.962C335.912 123.514 335.653 124.997 335.126 126.415L341.827 130.763L340.534 132.61L334.164 128.389C333.363 129.681 332.337 130.735 331.087 131.557ZM344.152 135.336C345.844 136.059 346.694 137.19 346.694 138.721C346.694 140.252 345.844 141.383 344.152 142.107C342.459 142.83 340.218 143.195 337.437 143.195C334.655 143.195 332.415 142.83 330.722 142.107C329.029 141.383 328.179 140.252 328.179 138.721C328.179 137.19 329.029 136.059 330.722 135.336C332.415 134.612 334.655 134.247 337.437 134.247C340.218 134.247 342.459 134.612 344.152 135.336ZM342.192 140.519C343.407 140.112 344.011 139.515 344.011 138.721C344.011 137.928 343.407 137.33 342.192 136.923C340.977 136.516 339.396 136.319 337.437 136.319C335.498 136.319 333.918 136.523 332.696 136.923C331.473 137.33 330.862 137.928 330.862 138.721C330.862 139.515 331.466 140.112 332.682 140.519C333.897 140.927 335.477 141.123 337.437 141.123C339.389 141.123 340.977 140.92 342.192 140.519ZM349.398 125.727V128.101H346.364V133.538H343.864V121.604H346.364V125.727H349.398Z" fill="white"/>
<path d="M363.559 135.034C362.294 135.167 360.861 135.237 359.26 135.237H351.14V133.39H357.132V131.873C355.601 131.775 354.385 131.459 353.5 130.939C352.615 130.419 352.173 129.717 352.173 128.839C352.173 127.841 352.735 127.083 353.866 126.549C354.996 126.015 356.507 125.755 358.389 125.755C360.278 125.755 361.789 126.022 362.912 126.549C364.036 127.076 364.605 127.841 364.605 128.839C364.605 129.731 364.156 130.433 363.264 130.953C362.372 131.466 361.149 131.775 359.597 131.873V133.39C362.933 133.355 365.209 133.081 366.424 132.554V134.402C365.785 134.683 364.823 134.893 363.559 135.034ZM365.659 124.919H351.218V123.1H357.062V121H359.639V123.1H365.659V124.919ZM368.588 137.373C370.273 137.907 371.116 138.756 371.116 139.936C371.116 141.102 370.273 141.945 368.588 142.479C366.902 143.013 364.654 143.273 361.838 143.273C359.021 143.273 356.774 143.006 355.088 142.479C353.402 141.945 352.559 141.102 352.559 139.936C352.559 138.756 353.402 137.899 355.088 137.373C356.774 136.839 359.021 136.579 361.838 136.579C364.654 136.572 366.902 136.839 368.588 137.373ZM355.579 129.822C356.282 130.061 357.216 130.173 358.396 130.173C359.562 130.173 360.489 130.054 361.192 129.822C361.894 129.583 362.238 129.26 362.238 128.839C362.238 128.417 361.887 128.087 361.192 127.855C360.489 127.616 359.562 127.504 358.396 127.504C357.216 127.504 356.275 127.624 355.579 127.855C354.877 128.094 354.533 128.417 354.533 128.839C354.533 129.26 354.877 129.583 355.579 129.822ZM366.614 141.102C367.864 140.864 368.482 140.477 368.482 139.936C368.482 139.396 367.857 139.002 366.614 138.763C365.364 138.518 363.776 138.398 361.838 138.398C359.899 138.398 358.305 138.518 357.062 138.763C355.811 139.009 355.193 139.403 355.193 139.936C355.193 140.47 355.818 140.864 357.062 141.102C358.312 141.341 359.899 141.454 361.838 141.454C363.776 141.454 365.371 141.334 366.614 141.102ZM373.722 127.041V129.365H370.737V136.017H368.237V121.604H370.737V127.041H373.722Z" fill="white"/>
<path d="M404.115 139.81V142.163H382.544V139.81H392.026V134.626H383.963V122.391H402.675V134.626H394.583V139.81H404.115ZM386.464 132.302H400.167V124.744H386.464V132.302Z" fill="white"/>
<path d="M428.438 137.562H418.907V143.708H416.35V137.562H406.868V135.188H428.438V137.562ZM427.3 132.653H408.364V122.131H427.048V124.435H410.914V130.349H427.3V132.653Z" fill="white"/>
<path d="M444.797 124.968H449.32V127.216H437.787V124.968H442.31V121.555H444.79V124.968H444.797ZM446.265 129.681C447.024 130.194 447.621 130.953 448.049 131.943C448.477 132.933 448.695 134.134 448.695 135.532C448.695 136.93 448.477 138.131 448.049 139.121C447.621 140.112 447.024 140.87 446.265 141.383C445.506 141.896 444.635 142.156 443.659 142.156C442.683 142.156 441.819 141.896 441.067 141.383C440.316 140.87 439.726 140.112 439.297 139.121C438.869 138.131 438.651 136.93 438.651 135.532C438.651 134.134 438.869 132.933 439.297 131.943C439.726 130.953 440.316 130.194 441.067 129.681C441.819 129.169 442.683 128.909 443.659 128.909C444.642 128.909 445.506 129.169 446.265 129.681ZM445.633 138.784C446.139 137.998 446.391 136.916 446.391 135.532C446.391 134.149 446.139 133.067 445.633 132.28C445.127 131.493 444.467 131.107 443.659 131.107C442.865 131.107 442.219 131.501 441.728 132.28C441.229 133.067 440.983 134.149 440.983 135.532C440.983 136.916 441.229 137.998 441.728 138.784C442.226 139.571 442.872 139.957 443.659 139.957C444.474 139.964 445.127 139.571 445.633 138.784ZM459.034 121.604V143.195H456.709V132.652H453.247V142.816H450.922V121.73H453.247V130.299H456.709V121.604H459.034Z" fill="white"/>
<path d="M475.231 132.034C474.009 132.21 472.64 132.301 471.122 132.301H463.361V122.138H476.538V124.259H465.869V130.173H471.277C472.745 130.173 474.072 130.089 475.26 129.92C476.447 129.752 477.388 129.513 478.076 129.211V131.332C477.402 131.627 476.454 131.859 475.231 132.034ZM479.937 135.336C481.63 136.059 482.48 137.19 482.48 138.721C482.48 140.252 481.63 141.383 479.937 142.107C478.245 142.83 476.004 143.195 473.223 143.195C470.441 143.195 468.201 142.83 466.508 142.107C464.815 141.383 463.965 140.252 463.965 138.721C463.965 137.19 464.815 136.059 466.508 135.336C468.201 134.612 470.441 134.247 473.223 134.247C476.004 134.247 478.238 134.612 479.937 135.336ZM477.978 140.519C479.193 140.112 479.797 139.515 479.797 138.721C479.797 137.928 479.193 137.33 477.978 136.923C476.763 136.516 475.182 136.319 473.223 136.319C471.284 136.319 469.704 136.523 468.481 136.923C467.259 137.33 466.648 137.928 466.648 138.721C466.648 139.515 467.252 140.112 468.467 140.519C469.683 140.927 471.263 141.123 473.223 141.123C475.175 141.123 476.763 140.92 477.978 140.519ZM485.184 126.029V128.431H482.15V133.538H479.649V121.604H482.15V126.029H485.184Z" fill="white"/>
<path d="M495.678 125.017H501.417V127.244H487.411V125.017H493.128V121.555H495.685V125.017H495.678ZM497.518 129.787C498.431 130.335 499.134 131.107 499.639 132.112C500.145 133.116 500.398 134.268 500.398 135.56C500.398 136.86 500.145 138.012 499.639 139.009C499.134 140.013 498.424 140.786 497.518 141.334C496.605 141.882 495.573 142.156 494.407 142.156C493.241 142.156 492.208 141.882 491.295 141.334C490.382 140.786 489.673 140.013 489.16 139.009C488.647 138.005 488.387 136.853 488.387 135.56C488.387 134.261 488.647 133.109 489.16 132.112C489.673 131.107 490.389 130.335 491.295 129.787C492.208 129.239 493.241 128.965 494.407 128.965C495.573 128.965 496.612 129.239 497.518 129.787ZM496.233 139.459C496.774 139.107 497.195 138.588 497.511 137.913C497.82 137.239 497.982 136.452 497.982 135.56C497.982 134.668 497.827 133.882 497.511 133.207C497.202 132.533 496.774 132.02 496.233 131.662C495.692 131.311 495.088 131.128 494.414 131.128C493.367 131.128 492.51 131.529 491.836 132.329C491.162 133.13 490.824 134.205 490.824 135.553C490.824 136.902 491.162 137.977 491.836 138.777C492.51 139.578 493.367 139.978 494.414 139.978C495.088 139.985 495.692 139.81 496.233 139.459ZM509.508 132.758H506.474V143.202H503.973V121.604H506.474V130.356H509.508V132.758Z" fill="white"/>
<path d="M511.25 132.351H532.82V134.577H511.25V132.351ZM512.746 136.495H515.303V140.716H531.711V142.943H512.746V136.495ZM512.795 121.604H515.324V127.75H531.479V129.976H512.795V121.604Z" fill="white"/>
<path d="M550.521 132.934C548.533 133.812 546.138 134.247 543.342 134.247V131.999C545.351 131.999 547.1 131.732 548.589 131.206C550.078 130.672 551.23 129.913 552.038 128.916C552.846 127.918 553.253 126.731 553.253 125.348V124.336H543.342V122.138H555.782V125.018C555.782 125.622 555.732 126.205 555.627 126.76H560.481V121.604H562.981V137.661H560.481V129.091H554.84C553.948 130.777 552.508 132.056 550.521 132.934ZM563.445 140.667V142.914H544.607V136.038H547.163V140.667H563.445Z" fill="white"/>
<path d="M584.558 123.212C585.521 123.943 586.272 125.06 586.806 126.563C587.347 128.066 587.614 129.927 587.614 132.154C587.614 134.38 587.347 136.242 586.806 137.745C586.265 139.248 585.513 140.365 584.558 141.095C583.596 141.826 582.479 142.198 581.194 142.198C579.22 142.198 577.654 141.355 576.488 139.669C575.322 137.984 574.746 135.483 574.746 132.161C574.746 128.839 575.329 126.338 576.488 124.652C577.654 122.967 579.22 122.124 581.194 122.124C582.472 122.11 583.596 122.475 584.558 123.212ZM584.038 137.977C584.755 136.705 585.113 134.76 585.113 132.147C585.113 129.534 584.755 127.588 584.038 126.317C583.322 125.046 582.374 124.407 581.194 124.407C580 124.407 579.037 125.046 578.321 126.317C577.605 127.588 577.246 129.534 577.246 132.147C577.246 134.76 577.605 136.705 578.321 137.977C579.037 139.248 579.993 139.887 581.194 139.887C582.374 139.887 583.322 139.248 584.038 137.977ZM596.639 132.758H593.605V143.202H591.105V121.604H593.605V130.356H596.639V132.758Z" fill="white"/>
<path d="M599.625 122.264H602.181V139.613H608.454C609.465 139.613 610.483 139.515 611.516 139.325C612.541 139.129 613.384 138.876 614.045 138.553V140.856C613.384 141.18 612.555 141.432 611.544 141.629C610.533 141.826 609.507 141.917 608.461 141.917H599.639V122.264H599.625ZM616.039 121.604H618.54V143.195L616.039 143.224V121.604Z" fill="white"/>
<path d="M628.795 132.224C627.221 133.102 625.353 133.545 623.197 133.566V131.388C625.29 131.374 626.955 130.876 628.205 129.899C629.455 128.923 630.073 127.525 630.073 125.699V124.259H623.197V122.138H632.503V125.601C632.503 125.839 632.496 126.015 632.475 126.134H635.734V121.737H638.108V133.776H635.734V128.466H632.019C631.443 130.089 630.368 131.346 628.795 132.224ZM643.545 143.048L639.246 139.712C638.537 140.674 637.694 141.425 636.704 141.973C635.72 142.521 634.667 142.837 633.557 142.922L629.764 139.838C629.055 140.751 628.212 141.468 627.236 142.001C626.259 142.535 625.227 142.837 624.152 142.922V140.646C624.96 140.561 625.739 140.252 626.491 139.712C627.243 139.171 627.868 138.454 628.373 137.548C628.879 136.649 629.181 135.659 629.286 134.577L631.689 134.928C631.569 136.024 631.302 137.05 630.881 138.012L634.217 140.512C634.941 140.33 635.622 139.957 636.268 139.403C636.907 138.848 637.441 138.152 637.863 137.316C638.284 136.481 638.537 135.567 638.621 134.57L641.051 134.921C640.932 135.982 640.686 136.951 640.321 137.829L644.999 141.194L643.545 143.048ZM643.475 133.994H641.073V121.604H643.475V133.994Z" fill="white"/>
<path d="M668.606 139.838V142.163H647.036V139.838H652.571V134.907H655.099V139.838H660.508V134.907H663.036V139.838H668.606ZM653.308 132.793C651.608 133.594 649.726 134.064 647.668 134.198V131.873C650.042 131.669 652.065 130.96 653.723 129.752C655.38 128.536 656.469 126.858 656.975 124.723H648.202V122.419H667.419V124.723H659.581C659.398 125.664 659.103 126.591 658.696 127.504L668.079 132.231L667.019 134.331L657.48 129.471C656.399 130.882 655.008 131.992 653.308 132.793Z" fill="white"/>
<path d="M677.168 133.425C677.562 132.526 678.292 131.712 679.353 130.988C680.245 130.349 680.891 129.766 681.284 129.246C681.678 128.726 681.881 128.122 681.881 127.448C681.881 126.472 681.537 125.685 680.856 125.095C680.175 124.505 679.233 124.21 678.039 124.21C677.21 124.21 676.501 124.386 675.904 124.744C675.307 125.095 674.85 125.552 674.541 126.107C674.232 126.661 674.057 127.244 674.022 127.848H671.444C671.479 126.767 671.774 125.776 672.329 124.863C672.884 123.95 673.656 123.234 674.64 122.7C675.623 122.166 676.754 121.906 678.018 121.906C679.353 121.906 680.498 122.145 681.467 122.63C682.436 123.107 683.174 123.768 683.679 124.603C684.185 125.439 684.438 126.387 684.438 127.448C684.438 129.204 683.504 130.742 681.628 132.077C680.905 132.569 680.357 133.06 679.985 133.566C679.613 134.072 679.367 134.591 679.24 135.132C679.114 135.673 679.051 136.312 679.051 137.057H676.571C676.571 135.54 676.768 134.324 677.168 133.425ZM676.543 142.528C676.192 142.163 676.009 141.721 676.009 141.201C676.009 140.681 676.185 140.239 676.543 139.887C676.894 139.536 677.337 139.354 677.857 139.354C678.376 139.354 678.819 139.529 679.184 139.887C679.549 140.239 679.725 140.681 679.725 141.201C679.725 141.742 679.549 142.184 679.191 142.542C678.833 142.901 678.39 143.076 677.85 143.076C677.337 143.069 676.901 142.894 676.543 142.528Z" fill="white"/>
<rect x="0.5" y="178.5" width="443" height="41" fill="black" stroke="#FFE000"/>
<path d="M97.0547 191.95H102.793V194.176H88.7876V191.95H94.505V188.487H97.0617V191.95H97.0547ZM98.895 196.719C99.8081 197.267 100.51 198.039 101.016 199.044C101.522 200.048 101.775 201.2 101.775 202.492C101.775 203.792 101.522 204.944 101.016 205.941C100.51 206.946 99.8011 207.718 98.895 208.266C97.9819 208.814 96.9494 209.088 95.7834 209.088C94.6174 209.088 93.5849 208.814 92.6718 208.266C91.7587 207.718 91.0493 206.946 90.5365 205.941C90.0238 204.937 89.7639 203.785 89.7639 202.492C89.7639 201.193 90.0238 200.041 90.5365 199.044C91.0493 198.039 91.7657 197.267 92.6718 196.719C93.5849 196.171 94.6174 195.897 95.7834 195.897C96.9494 195.897 97.9889 196.171 98.895 196.719ZM97.6096 206.391C98.1504 206.04 98.5719 205.52 98.888 204.845C99.197 204.171 99.3586 203.384 99.3586 202.492C99.3586 201.6 99.204 200.814 98.888 200.139C98.5789 199.465 98.1504 198.952 97.6096 198.594C97.0688 198.243 96.4647 198.06 95.7904 198.06C94.7439 198.06 93.8869 198.461 93.2126 199.261C92.5384 200.062 92.2012 201.137 92.2012 202.485C92.2012 203.834 92.5384 204.909 93.2126 205.709C93.8869 206.51 94.7439 206.91 95.7904 206.91C96.4647 206.918 97.0688 206.742 97.6096 206.391ZM110.885 199.69H107.85V210.134H105.35V188.536H107.85V197.288H110.885V199.69Z" fill="white"/>
<path d="M121.175 198.447L128.227 207.171L126.253 208.66L120.437 201.25C119.693 203.511 118.695 205.288 117.438 206.595C116.181 207.901 114.734 208.646 113.104 208.835V206.356C114.369 206.117 115.457 205.345 116.378 204.031C117.298 202.718 118.007 200.99 118.513 198.847C119.018 196.705 119.285 194.296 119.321 191.613H113.603V189.309H127.384V191.613H121.849C121.842 194.015 121.61 196.291 121.175 198.447ZM132.778 188.536V210.128H130.278V188.536H132.778Z" fill="white"/>
<path d="M150.331 200.723H137.716V189.063H150.331V200.723ZM140.975 207.578H157.081V209.854H138.447V202.851H140.975V207.578ZM147.852 191.241H140.188V198.545H147.852V191.241ZM159.532 193.671V196.073H156.498V204.572H153.997V188.536H156.498V193.671H159.532Z" fill="white"/>
<path d="M188.689 188.536V201.432H186.188V196.094H180.295C179.354 197.597 177.907 198.735 175.968 199.508C174.03 200.28 171.719 200.674 169.043 200.674V198.447C171.08 198.433 172.843 198.173 174.325 197.674C175.807 197.176 176.952 196.445 177.752 195.476C178.553 194.507 178.953 193.348 178.953 191.999V191.241H169.043V189.063H181.482V191.592C181.482 192.385 181.398 193.109 181.229 193.769H186.188V188.536H188.689ZM170.103 202.619H188.611V210.128H186.083V204.79H170.103V202.619Z" fill="white"/>
<path d="M197.314 198.686C196.085 199.437 194.687 199.887 193.114 200.042V197.794C194.884 197.555 196.302 196.853 197.377 195.68C198.445 194.507 199.056 193.032 199.21 191.241H193.394V189.091H207.175V191.241H201.711C201.662 192.048 201.5 192.891 201.233 193.769L207.885 197.969L206.649 199.838L200.299 195.764C199.533 196.965 198.543 197.941 197.314 198.686ZM210.638 202.444C212.338 203.153 213.195 204.256 213.195 205.759C213.195 207.262 212.345 208.365 210.638 209.074C208.938 209.784 206.677 210.135 203.86 210.135C201.043 210.135 198.789 209.784 197.082 209.074C195.382 208.365 194.525 207.262 194.525 205.759C194.525 204.256 195.375 203.153 197.082 202.444C198.782 201.734 201.043 201.383 203.86 201.383C206.677 201.383 208.931 201.734 210.638 202.444ZM208.678 207.487C209.915 207.093 210.54 206.511 210.54 205.752C210.54 204.993 209.922 204.417 208.678 204.017C207.442 203.624 205.834 203.42 203.86 203.42C201.886 203.42 200.285 203.617 199.042 204.017C197.805 204.41 197.18 204.993 197.18 205.752C197.18 206.511 197.798 207.086 199.042 207.487C200.278 207.88 201.886 208.084 203.86 208.084C205.834 208.084 207.435 207.887 208.678 207.487ZM210.512 192.61V188.536H213.012V200.674H210.512V194.781H206.311V192.603H210.512V192.61Z" fill="white"/>
<path d="M225.76 191.95H231.499V194.176H217.486V191.95H223.204V188.487H225.76V191.95ZM227.601 196.719C228.514 197.267 229.216 198.039 229.722 199.044C230.228 200.048 230.481 201.2 230.481 202.492C230.481 203.792 230.228 204.944 229.722 205.941C229.216 206.946 228.507 207.718 227.601 208.266C226.688 208.814 225.655 209.088 224.489 209.088C223.323 209.088 222.291 208.814 221.378 208.266C220.464 207.718 219.755 206.946 219.242 205.941C218.73 204.937 218.47 203.785 218.47 202.492C218.47 201.193 218.73 200.041 219.242 199.044C219.755 198.039 220.471 197.267 221.378 196.719C222.291 196.171 223.323 195.897 224.489 195.897C225.655 195.897 226.695 196.171 227.601 196.719ZM226.315 206.391C226.856 206.04 227.278 205.52 227.594 204.845C227.903 204.171 228.064 203.384 228.064 202.492C228.064 201.6 227.91 200.814 227.594 200.139C227.285 199.465 226.856 198.952 226.315 198.594C225.775 198.243 225.17 198.06 224.496 198.06C223.45 198.06 222.593 198.461 221.918 199.261C221.244 200.062 220.907 201.137 220.907 202.485C220.907 203.834 221.244 204.909 221.918 205.709C222.593 206.51 223.45 206.91 224.496 206.91C225.163 206.918 225.775 206.742 226.315 206.391ZM239.591 199.69H236.556V210.134H234.056V188.536H236.556V197.288H239.591V199.69Z" fill="white"/>
<path d="M249.88 198.447L256.932 207.171L254.959 208.66L249.143 201.25C248.398 203.511 247.401 205.288 246.144 206.595C244.887 207.901 243.44 208.646 241.81 208.835V206.356C243.074 206.117 244.163 205.345 245.083 204.031C246.003 202.718 246.713 200.99 247.218 198.847C247.724 196.705 247.991 194.296 248.026 191.613H242.309V189.309H256.09V191.613H250.555C250.548 194.015 250.316 196.291 249.88 198.447ZM261.484 188.536V210.128H258.983V188.536H261.484Z" fill="white"/>
<path d="M273.748 189.323H285.759V208.842H273.748V189.323ZM276.255 206.518H283.258V191.648H276.255V206.518ZM295.318 199.69H292.284V210.135H289.783V188.536H292.284V197.288H295.318V199.69Z" fill="white"/>
<path d="M303.761 197.941L308.994 207.452L306.893 208.561L303.101 201.481C302.56 203.659 301.808 205.352 300.839 206.567C299.87 207.782 298.668 208.54 297.236 208.842V206.314C298.872 205.773 300.045 204.045 300.748 201.116C301.457 198.194 301.815 194.177 301.836 189.07L304.238 189.169C304.245 192.371 304.084 195.293 303.761 197.941ZM310.012 188.663H312.386V209.749H310.012V198.3H306.598V195.926H310.012V188.663ZM317.823 188.536V210.128H315.449V188.536H317.823Z" fill="white"/>
<path d="M342.954 206.791V209.095H321.384V206.791H326.343V200.947C325.092 200.371 324.13 199.62 323.449 198.686C322.767 197.752 322.423 196.684 322.423 195.49C322.423 194.176 322.824 193.017 323.624 192.027C324.425 191.03 325.563 190.264 327.038 189.723C328.513 189.182 330.22 188.916 332.158 188.916C334.097 188.916 335.804 189.182 337.279 189.723C338.754 190.264 339.892 191.03 340.692 192.027C341.493 193.025 341.894 194.176 341.894 195.49C341.894 196.684 341.549 197.752 340.868 198.686C340.187 199.62 339.231 200.364 337.995 200.926V206.791H342.954ZM325.963 197.731C326.553 198.377 327.382 198.882 328.457 199.234C329.524 199.585 330.761 199.767 332.158 199.767C333.556 199.767 334.799 199.592 335.874 199.234C336.956 198.882 337.785 198.377 338.375 197.731C338.965 197.084 339.26 196.333 339.26 195.49C339.26 194.633 338.965 193.874 338.375 193.228C337.785 192.582 336.949 192.076 335.874 191.725C334.792 191.374 333.556 191.191 332.158 191.191C330.761 191.191 329.524 191.367 328.457 191.725C327.389 192.076 326.553 192.582 325.963 193.228C325.373 193.874 325.078 194.633 325.078 195.49C325.078 196.333 325.373 197.077 325.963 197.731ZM328.85 206.791H335.502V201.734C334.49 201.938 333.381 202.036 332.165 202.036C330.971 202.036 329.862 201.938 328.85 201.734V206.791Z" fill="white"/>
<path d="M346.284 209.474C345.918 209.123 345.743 208.673 345.743 208.133C345.743 207.613 345.925 207.17 346.284 206.819C346.649 206.468 347.091 206.285 347.611 206.285C348.131 206.285 348.573 206.461 348.939 206.819C349.304 207.17 349.479 207.613 349.479 208.133C349.479 208.673 349.304 209.116 348.946 209.474C348.587 209.832 348.145 210.008 347.604 210.008C347.084 210.001 346.642 209.825 346.284 209.474ZM346.017 189.344H349.227L348.573 203.989H346.649L346.017 189.344Z" fill="white"/>
<path d="M744.37 3.17024L693.589 90.9813C691.917 93.8749 694.003 97.5 697.363 97.5H798.925C802.269 97.5 804.371 93.8749 802.699 90.9813L751.918 3.17024C750.23 0.276588 746.042 0.276588 744.37 3.17024Z" fill="#FFE000" stroke="black" stroke-width="2" stroke-miterlimit="10"/>
<path d="M751.056 65.3365H745.23L743.064 39.7378H753.205L751.056 65.3365ZM751.725 70.176C752.664 71.1153 753.126 72.3093 753.126 73.742C753.126 75.1907 752.664 76.3688 751.725 77.2922C750.785 78.2155 749.592 78.6771 748.159 78.6771C746.726 78.6771 745.532 78.2155 744.593 77.2922C743.653 76.3688 743.192 75.1907 743.192 73.742C743.192 72.3093 743.653 71.1153 744.593 70.176C745.532 69.2368 746.726 68.7751 748.159 68.7751C749.592 68.7751 750.785 69.2368 751.725 70.176Z" fill="black"/>
<path d="M794.404 47.4112L761.383 104.511C760.296 106.393 761.652 108.75 763.837 108.75H829.879C832.053 108.75 833.42 106.393 832.333 104.511L799.312 47.4112C798.214 45.5296 795.491 45.5296 794.404 47.4112Z" fill="#FFE000" stroke="black" stroke-width="2" stroke-miterlimit="10"/>
<path d="M798.752 87.8355H794.963L793.555 71.1897H800.149L798.752 87.8355ZM799.186 90.9824C799.797 91.5932 800.097 92.3696 800.097 93.3013C800.097 94.2433 799.797 95.0094 799.186 95.6098C798.576 96.2102 797.799 96.5104 796.868 96.5104C795.936 96.5104 795.159 96.2102 794.549 95.6098C793.938 95.0094 793.638 94.2433 793.638 93.3013C793.638 92.3696 793.938 91.5932 794.549 90.9824C795.159 90.3717 795.936 90.0715 796.868 90.0715C797.799 90.0715 798.576 90.3717 799.186 90.9824Z" fill="black"/>
</svg>
